<svg xmlns="http://www.w3.org/2000/svg" xmlns:xlink="http://www.w3.org/1999/xlink" width="113" height="113" viewBox="0 0 113 113">
  <defs>
    <filter id="Trazado_982547" x="0" y="0" width="113" height="113" filterUnits="userSpaceOnUse">
      <feOffset dy="3" input="SourceAlpha"/>
      <feGaussianBlur stdDeviation="3" result="blur"/>
      <feFlood flood-opacity="0.161"/>
      <feComposite operator="in" in2="blur"/>
      <feComposite in="SourceGraphic"/>
    </filter>
  </defs>
  <g id="Grupo_1225070" data-name="Grupo 1225070" transform="translate(-743.5 -876.251)">
    <g id="Grupo_1224644" data-name="Grupo 1224644" transform="translate(752.5 882.251)">
      <g id="Grupo_1224291" data-name="Grupo 1224291">
        <g id="Grupo_1224091" data-name="Grupo 1224091">
          <g id="Grupo_1223183" data-name="Grupo 1223183" transform="translate(0)">
            <g id="Grupo_1211217" data-name="Grupo 1211217">
              <g id="Grupo_1210736" data-name="Grupo 1210736">
                <g id="Grupo_1210537" data-name="Grupo 1210537">
                  <g id="Grupo_1164202" data-name="Grupo 1164202">
                    <g id="Grupo_1158168" data-name="Grupo 1158168">
                      <g id="Grupo_1152576" data-name="Grupo 1152576">
                        <g id="Grupo_1148633" data-name="Grupo 1148633">
                          <g id="Grupo_1148525" data-name="Grupo 1148525">
                            <g transform="matrix(1, 0, 0, 1, -9, -6)" filter="url(#Trazado_982547)">
                              <g id="Trazado_982547-2" data-name="Trazado 982547" transform="translate(9 6)" fill="#fdfbec">
                                <path d="M 47.49999618530273 93.5 C 41.28936767578125 93.5 35.26533126831055 92.28396606445312 29.59518241882324 89.88570404052734 C 24.11771583557129 87.56893157958984 19.19812965393066 84.251953125 14.97308921813965 80.02690124511719 C 10.74803638458252 75.80186462402344 7.431062698364258 70.88227844238281 5.114289283752441 65.40480804443359 C 2.716022968292236 59.73466110229492 1.499996185302734 53.71062469482422 1.499996185302734 47.49999618530273 C 1.499996185302734 41.28936767578125 2.716022968292236 35.26533126831055 5.114289283752441 29.59518241882324 C 7.431062698364258 24.11771583557129 10.74803638458252 19.19812965393066 14.97308921813965 14.97308921813965 C 19.19812965393066 10.74803638458252 24.11771583557129 7.431062698364258 29.59518241882324 5.114289283752441 C 35.26533126831055 2.716022968292236 41.28936767578125 1.499996185302734 47.49999618530273 1.499996185302734 C 53.71062469482422 1.499996185302734 59.73466110229492 2.716022968292236 65.40480804443359 5.114289283752441 C 70.88227844238281 7.431062698364258 75.80186462402344 10.74803638458252 80.02690124511719 14.97308921813965 C 84.251953125 19.19812965393066 87.56893157958984 24.11771583557129 89.88570404052734 29.59518241882324 C 92.28396606445312 35.26533126831055 93.5 41.28936767578125 93.5 47.49999618530273 C 93.5 53.71062469482422 92.28396606445312 59.73466110229492 89.88570404052734 65.40480804443359 C 87.56893157958984 70.88227844238281 84.251953125 75.80186462402344 80.02690124511719 80.02690124511719 C 75.80186462402344 84.251953125 70.88227844238281 87.56893157958984 65.40480804443359 89.88570404052734 C 59.73466110229492 92.28396606445312 53.71062469482422 93.5 47.49999618530273 93.5 Z" stroke="none"/>
                                <path d="M 47.49999618530273 2.999992370605469 C 41.4912109375 2.999992370605469 35.66376495361328 4.1761474609375 30.17950439453125 6.495796203613281 C 24.88084411621094 8.736953735351562 20.12152099609375 11.94598388671875 16.03375244140625 16.03375244140625 C 11.94598388671875 20.12152099609375 8.736953735351562 24.88084411621094 6.495796203613281 30.17950439453125 C 4.1761474609375 35.66376495361328 2.999992370605469 41.4912109375 2.999992370605469 47.49999618530273 C 2.999992370605469 53.50878143310547 4.1761474609375 59.33622741699219 6.495796203613281 64.82048797607422 C 8.736953735351562 70.11914825439453 11.94598388671875 74.87847137451172 16.03375244140625 78.96623992919922 C 20.12152099609375 83.05400848388672 24.88084411621094 86.26304626464844 30.17950439453125 88.50419616699219 C 35.66376495361328 90.82384490966797 41.4912109375 92 47.49999618530273 92 C 53.50878143310547 92 59.33622741699219 90.82384490966797 64.82048797607422 88.50419616699219 C 70.11914825439453 86.26304626464844 74.87847137451172 83.05400848388672 78.96623992919922 78.96623992919922 C 83.05400848388672 74.87847137451172 86.26304626464844 70.11914825439453 88.50419616699219 64.82048797607422 C 90.82384490966797 59.33622741699219 92 53.50878143310547 92 47.49999618530273 C 92 41.4912109375 90.82384490966797 35.66376495361328 88.50419616699219 30.17950439453125 C 86.26304626464844 24.88084411621094 83.05400848388672 20.12152099609375 78.96623992919922 16.03375244140625 C 74.87847137451172 11.94598388671875 70.11914825439453 8.736953735351562 64.82048797607422 6.495796203613281 C 59.33622741699219 4.1761474609375 53.50878143310547 2.999992370605469 47.49999618530273 2.999992370605469 M 47.49999618530273 -7.62939453125e-06 C 73.7335205078125 -7.62939453125e-06 95 21.26647186279297 95 47.49999618530273 C 95 73.7335205078125 73.7335205078125 95 47.49999618530273 95 C 21.26647186279297 95 -7.62939453125e-06 73.7335205078125 -7.62939453125e-06 47.49999618530273 C -7.62939453125e-06 21.26647186279297 21.26647186279297 -7.62939453125e-06 47.49999618530273 -7.62939453125e-06 Z" stroke="none" fill="#83793c"/>
                              </g>
                            </g>
                          </g>
                        </g>
                      </g>
                    </g>
                  </g>
                </g>
              </g>
            </g>
          </g>
        </g>
      </g>
    </g>
    <g id="puppet-show_5190579" transform="translate(771.295 876.108)">
      <g id="Grupo_1225042" data-name="Grupo 1225042" transform="translate(31.834 53.424)">
        <path id="Trazado_1055103" data-name="Trazado 1055103" d="M408.149,255.984l-1.945-1.945a4.014,4.014,0,0,1-1.823,1.034l.505,2.6.785.785a1.752,1.752,0,1,0,2.478-2.478Z" transform="translate(-390.872 -254.039)" fill="#fed2a4"/>
        <path id="Trazado_1055104" data-name="Trazado 1055104" d="M408.939,267.253a1.739,1.739,0,0,1-.256.33,1.757,1.757,0,0,1-2.478,0l-1.223-1.223.438,2.256.785.785a1.751,1.751,0,0,0,2.734-2.148Z" transform="translate(-391.405 -264.978)" fill="#ffbd86"/>
        <path id="Trazado_1055105" data-name="Trazado 1055105" d="M288.18,255.074a4.011,4.011,0,0,1-1.823-1.035l-1.945,1.945a1.752,1.752,0,1,0,2.478,2.478l.785-.785Z" transform="translate(-283.901 -254.039)" fill="#fed2a4"/>
        <path id="Trazado_1055106" data-name="Trazado 1055106" d="M286.237,255.984l1.188-1.188a4.037,4.037,0,0,1-1.068-.757l-1.945,1.945a1.751,1.751,0,0,0,2.151,2.732,1.728,1.728,0,0,1-.326-.254A1.757,1.757,0,0,1,286.237,255.984Z" transform="translate(-283.901 -254.039)" fill="#ffbd86"/>
      </g>
      <g id="Grupo_1225044" data-name="Grupo 1225044" transform="translate(7.849 50.953)">
        <path id="Trazado_1055107" data-name="Trazado 1055107" d="M76.457,232.4a6.115,6.115,0,0,1-.745-.4h-3.96a1.752,1.752,0,1,0,0,3.5h4.1Z" transform="translate(-70 -232.006)" fill="#bb5d4c"/>
        <g id="Grupo_1225043" data-name="Grupo 1225043" transform="translate(0 0)">
          <path id="Trazado_1055108" data-name="Trazado 1055108" d="M72.858,233.758a1.757,1.757,0,0,1,1.752-1.752H71.752a1.752,1.752,0,1,0,0,3.5H74.61A1.757,1.757,0,0,1,72.858,233.758Z" transform="translate(-70 -232.006)" fill="#a44f3e"/>
        </g>
        <path id="Trazado_1055109" data-name="Trazado 1055109" d="M203.834,232.006H199.9a6.094,6.094,0,0,1-.745.4l.6,3.105h4.077a1.752,1.752,0,0,0,0-3.5Z" transform="translate(-184.672 -232.006)" fill="#bb5d4c"/>
      </g>
      <path id="Trazado_1055110" data-name="Trazado 1055110" d="M7.5,422.345a.561.561,0,0,0,.561.561H62.668a.561.561,0,0,0,.561-.561v-6.2H7.5Z" transform="translate(-6.659 -344.547)" fill="#fd4755"/>
      <path id="Trazado_1055111" data-name="Trazado 1055111" d="M12.041,422.345v-6.2H7.5v6.2a.561.561,0,0,0,.561.561H12.6A.561.561,0,0,1,12.041,422.345Z" transform="translate(-6.659 -344.547)" fill="#fb2b3a"/>
      <g id="Grupo_1225045" data-name="Grupo 1225045" transform="translate(0.841 67.969)">
        <path id="Trazado_1055112" data-name="Trazado 1055112" d="M7.5,383.753H63.229v3.632H7.5Z" transform="translate(-7.5 -383.753)" fill="#fdb441"/>
      </g>
      <g id="Grupo_1225046" data-name="Grupo 1225046" transform="translate(0.841 67.969)">
        <path id="Trazado_1055113" data-name="Trazado 1055113" d="M7.5,383.753h4.541v3.632H7.5Z" transform="translate(-7.5 -383.753)" fill="#fe9738"/>
      </g>
      <g id="Grupo_1225053" data-name="Grupo 1225053" transform="translate(9.881 37.679)">
        <path id="Trazado_1055114" data-name="Trazado 1055114" d="M136.587,315.707h6.007v4.827h-6.007Z" transform="translate(-131.153 -293.047)" fill="#ffe5c2"/>
        <path id="Trazado_1055115" data-name="Trazado 1055115" d="M136.587,315.707h2.85v4.827h-2.85Z" transform="translate(-131.153 -293.047)" fill="#fed2a4"/>
        <path id="Trazado_1055116" data-name="Trazado 1055116" d="M122.855,235.56a6.046,6.046,0,0,1-2.484.533h-3.056a6.046,6.046,0,0,1-2.484-.533l-1.6,8.242a.626.626,0,0,0,.614.745h10a.626.626,0,0,0,.614-.745Z" transform="translate(-110.405 -221.887)" fill="#a44f3e"/>
        <path id="Trazado_1055117" data-name="Trazado 1055117" d="M117.019,243.8l1.5-7.709h-1.2a6.046,6.046,0,0,1-2.484-.533l-1.6,8.242a.626.626,0,0,0,.614.745h3.788A.626.626,0,0,1,117.019,243.8Z" transform="translate(-110.405 -221.888)" fill="#883f2e"/>
        <g id="Grupo_1225052" data-name="Grupo 1225052" transform="translate(0 0)">
          <g id="Grupo_1225047" data-name="Grupo 1225047">
            <path id="Trazado_1055118" data-name="Trazado 1055118" d="M93.146,115.921a2.516,2.516,0,1,0-3.305,2.6A6.157,6.157,0,0,1,93.146,115.921Z" transform="translate(-88.124 -113.624)" fill="#fed2a4"/>
            <path id="Trazado_1055119" data-name="Trazado 1055119" d="M90.99,117.176a2.514,2.514,0,0,1-.415-3.537,2.515,2.515,0,0,0-.733,4.9A6.175,6.175,0,0,1,90.99,117.176Z" transform="translate(-88.125 -113.637)" fill="#ffbd86"/>
            <path id="Trazado_1055120" data-name="Trazado 1055120" d="M196.48,118.5a2.516,2.516,0,1,0-3.372-2.608A6.154,6.154,0,0,1,196.48,118.5Z" transform="translate(-181.336 -113.624)" fill="#fed2a4"/>
            <path id="Trazado_1055121" data-name="Trazado 1055121" d="M195.613,113.625a2.516,2.516,0,0,0-2.5,2.27,6.1,6.1,0,0,1,1.9.991,2.515,2.515,0,0,1,2.508-2.322h.055A2.511,2.511,0,0,0,195.613,113.625Z" transform="translate(-181.337 -113.625)" fill="#ffbd86"/>
          </g>
          <g id="Grupo_1225048" data-name="Grupo 1225048" transform="translate(0.804 1.995)">
            <path id="Trazado_1055122" data-name="Trazado 1055122" d="M110.561,137.524a6.123,6.123,0,0,1-6.105,6.105H101.4a6.105,6.105,0,0,1,0-12.211h3.056A6.123,6.123,0,0,1,110.561,137.524Z" transform="translate(-95.294 -131.419)" fill="#bb5d4c"/>
          </g>
          <g id="Grupo_1225049" data-name="Grupo 1225049" transform="translate(0.804 1.995)">
            <path id="Trazado_1055123" data-name="Trazado 1055123" d="M99.4,140.845a2.755,2.755,0,0,1,.162-.927,6.045,6.045,0,0,1-.493-2.394,6.124,6.124,0,0,1,5.744-6.094c-.12-.007-.24-.012-.362-.012H101.4a6.105,6.105,0,1,0,0,12.211h.79A2.793,2.793,0,0,1,99.4,140.845Z" transform="translate(-95.293 -131.419)" fill="#a44f3e"/>
          </g>
          <path id="Trazado_1055124" data-name="Trazado 1055124" d="M137.274,192.526a1.374,1.374,0,0,1,.071.434,1.392,1.392,0,0,1-1.388,1.388H135a1.392,1.392,0,0,1-1.388-1.388,1.374,1.374,0,0,1,.071-.434,2.783,2.783,0,0,0,1.056,5.359h1.476a2.783,2.783,0,0,0,1.056-5.359Z" transform="translate(-127.042 -183.679)" fill="#fed2a4"/>
          <path id="Trazado_1055125" data-name="Trazado 1055125" d="M134.767,195.1a2.757,2.757,0,0,1,.108-.759,1.392,1.392,0,0,1-1.258-1.381,1.374,1.374,0,0,1,.071-.434,2.783,2.783,0,0,0,1.056,5.359h1.476a2.759,2.759,0,0,0,.666-.082A2.8,2.8,0,0,1,134.767,195.1Z" transform="translate(-127.044 -183.678)" fill="#ffbd86"/>
          <g id="Grupo_1225050" data-name="Grupo 1225050" transform="translate(6.572 7.893)">
            <path id="Trazado_1055126" data-name="Trazado 1055126" d="M149.079,186.792h-.954a1.388,1.388,0,0,1,0-2.776h.954a1.388,1.388,0,1,1,0,2.776Z" transform="translate(-146.737 -184.016)" fill="#fe7701"/>
          </g>
          <g id="Grupo_1225051" data-name="Grupo 1225051" transform="translate(6.572 7.893)">
            <path id="Trazado_1055127" data-name="Trazado 1055127" d="M148.642,185.406a1.392,1.392,0,0,1,.912-1.3,1.372,1.372,0,0,0-.476-.086h-.954a1.388,1.388,0,1,0,0,2.776h.954a1.375,1.375,0,0,0,.476-.086A1.393,1.393,0,0,1,148.642,185.406Z" transform="translate(-146.736 -184.018)" fill="#f46700"/>
          </g>
        </g>
      </g>
      <g id="Grupo_1225058" data-name="Grupo 1225058" transform="translate(33.095 36.952)">
        <path id="Trazado_1055128" data-name="Trazado 1055128" d="M336.437,315.707h6.007v4.827h-6.007Z" transform="translate(-331.807 -292.32)" fill="#ffe5c2"/>
        <path id="Trazado_1055129" data-name="Trazado 1055129" d="M336.437,315.707H339.3v4.827h-2.866Z" transform="translate(-331.807 -292.32)" fill="#fed2a4"/>
        <path id="Trazado_1055130" data-name="Trazado 1055130" d="M323.308,263.265a3.976,3.976,0,0,1-.986.124h-7.258a3.976,3.976,0,0,1-.986-.124l-1,5.135a.626.626,0,0,0,.614.745h10a.626.626,0,0,0,.614-.745Z" transform="translate(-311.059 -245.759)" fill="#d8ecfe"/>
        <path id="Trazado_1055131" data-name="Trazado 1055131" d="M316.885,268.4l.973-5.011h-2.794a3.976,3.976,0,0,1-.986-.124l-1,5.135a.626.626,0,0,0,.614.745h3.8A.626.626,0,0,1,316.885,268.4Z" transform="translate(-311.059 -245.76)" fill="#c4e2ff"/>
        <g id="Grupo_1225057" data-name="Grupo 1225057" transform="translate(0 0)">
          <g id="Grupo_1225054" data-name="Grupo 1225054" transform="translate(1.041)">
            <path id="Trazado_1055132" data-name="Trazado 1055132" d="M308.88,110.138c0-.011,0-.021,0-.032,0-1.637-1-2.964-2.227-2.964s-2.227,1.327-2.227,2.964a3.41,3.41,0,0,0,.813,2.29A5.424,5.424,0,0,1,308.88,110.138Z" transform="translate(-304.426 -107.142)" fill="#bb5d4c"/>
            <path id="Trazado_1055133" data-name="Trazado 1055133" d="M306.456,111.143a3.834,3.834,0,0,1-.141-1.038,3.144,3.144,0,0,1,1.283-2.684,1.773,1.773,0,0,0-.945-.28c-1.23,0-2.227,1.327-2.227,2.964a3.41,3.41,0,0,0,.813,2.29A5.473,5.473,0,0,1,306.456,111.143Z" transform="translate(-304.426 -107.142)" fill="#a44f3e"/>
            <path id="Trazado_1055134" data-name="Trazado 1055134" d="M385.93,112.4a3.41,3.41,0,0,0,.813-2.29c0-1.637-1-2.964-2.227-2.964s-2.227,1.327-2.227,2.964c0,.011,0,.021,0,.032A5.423,5.423,0,0,1,385.93,112.4Z" transform="translate(-373.558 -107.142)" fill="#bb5d4c"/>
            <path id="Trazado_1055135" data-name="Trazado 1055135" d="M384.264,110.844a3.89,3.89,0,0,1-.071-.738,3.148,3.148,0,0,1,1.275-2.679,1.775,1.775,0,0,0-.952-.284c-1.23,0-2.227,1.327-2.227,2.964,0,.011,0,.021,0,.032A5.363,5.363,0,0,1,384.264,110.844Z" transform="translate(-373.557 -107.142)" fill="#a44f3e"/>
          </g>
          <path id="Trazado_1055136" data-name="Trazado 1055136" d="M306.085,140.023h7.258a3.984,3.984,0,0,1,2.625.988,5.354,5.354,0,0,0,.5-2.267,5.421,5.421,0,0,0-5.4-5.4h-2.706a5.421,5.421,0,0,0-5.4,5.4,5.353,5.353,0,0,0,.5,2.267A3.984,3.984,0,0,1,306.085,140.023Z" transform="translate(-302.081 -130.402)" fill="#fed2a4"/>
          <path id="Trazado_1055137" data-name="Trazado 1055137" d="M306.085,140.023h.784a5.367,5.367,0,0,1-.154-1.279,5.423,5.423,0,0,1,4.879-5.379c-.173-.017-.349-.026-.526-.026h-2.706a5.421,5.421,0,0,0-5.4,5.4,5.353,5.353,0,0,0,.5,2.267A3.984,3.984,0,0,1,306.085,140.023Z" transform="translate(-302.081 -130.402)" fill="#ffbd86"/>
          <g id="Grupo_1225055" data-name="Grupo 1225055" transform="translate(0 9.621)">
            <path id="Trazado_1055138" data-name="Trazado 1055138" d="M310.412,196.95a4.016,4.016,0,0,1-4,4h-7.258a4,4,0,0,1,0-8.009h7.258A4.016,4.016,0,0,1,310.412,196.95Z" transform="translate(-295.145 -192.946)" fill="#fd8087"/>
          </g>
          <g id="Grupo_1225056" data-name="Grupo 1225056" transform="translate(0 9.621)">
            <path id="Trazado_1055139" data-name="Trazado 1055139" d="M298.94,196.95a4.016,4.016,0,0,1,4-4h-3.8a4,4,0,0,0,0,8.009h3.8A4.016,4.016,0,0,1,298.94,196.95Z" transform="translate(-295.144 -192.946)" fill="#fe646f"/>
          </g>
        </g>
      </g>
      <g id="Grupo_1225059" data-name="Grupo 1225059" transform="translate(0.841 28.929)">
        <path id="Trazado_1055140" data-name="Trazado 1055140" d="M62.668,35.587h-.03a.563.563,0,0,1,.557.627,5.751,5.751,0,0,1-2.77,4.311v31.3H10.3v-31.3a5.751,5.751,0,0,1-2.77-4.311.563.563,0,0,1,.557-.627h-.03a.561.561,0,0,0-.561.561V74.627H63.229V36.148A.561.561,0,0,0,62.668,35.587Z" transform="translate(-7.5 -35.587)" fill="#ffd15b"/>
      </g>
      <path id="Trazado_1055141" data-name="Trazado 1055141" d="M10.3,40.525a5.751,5.751,0,0,1-2.77-4.311.563.563,0,0,1,.557-.627h-.03a.561.561,0,0,0-.561.561V74.627h4.541v-2.8H10.3Z" transform="translate(-6.659 -6.658)" fill="#fdb441"/>
      <g id="Grupo_1225066" data-name="Grupo 1225066" transform="translate(0.871 28.929)">
        <path id="Trazado_1055142" data-name="Trazado 1055142" d="M62.878,35.587H8.332a.563.563,0,0,0-.557.627,5.751,5.751,0,0,0,10.14,3.05,5.75,5.75,0,0,0,8.845,0,5.751,5.751,0,0,0,8.845,0,5.75,5.75,0,0,0,8.845,0,5.75,5.75,0,0,0,8.845,0,5.751,5.751,0,0,0,10.14-3.049A.563.563,0,0,0,62.878,35.587Z" transform="translate(-7.771 -35.587)" fill="#fd4755"/>
        <g id="Grupo_1225060" data-name="Grupo 1225060" transform="translate(0 0)">
          <path id="Trazado_1055143" data-name="Trazado 1055143" d="M11.577,36.214a.563.563,0,0,1,.557-.627h-3.8a.563.563,0,0,0-.557.627,5.753,5.753,0,0,0,7.618,4.8A5.757,5.757,0,0,1,11.577,36.214Z" transform="translate(-7.771 -35.587)" fill="#fb2b3a"/>
        </g>
        <g id="Grupo_1225061" data-name="Grupo 1225061" transform="translate(8.815 0)">
          <path id="Trazado_1055144" data-name="Trazado 1055144" d="M90.189,36.214a.563.563,0,0,1,.557-.627h-3.8a.563.563,0,0,0-.557.627A5.753,5.753,0,0,0,94,41.015,5.756,5.756,0,0,1,90.189,36.214Z" transform="translate(-86.383 -35.587)" fill="#fb2b3a"/>
        </g>
        <g id="Grupo_1225062" data-name="Grupo 1225062" transform="translate(17.66 0)">
          <path id="Trazado_1055145" data-name="Trazado 1055145" d="M169.072,36.214a.563.563,0,0,1,.557-.627h-3.8a.563.563,0,0,0-.557.627,5.753,5.753,0,0,0,7.618,4.8A5.756,5.756,0,0,1,169.072,36.214Z" transform="translate(-165.266 -35.587)" fill="#fb2b3a"/>
        </g>
        <g id="Grupo_1225063" data-name="Grupo 1225063" transform="translate(26.505 0)">
          <path id="Trazado_1055146" data-name="Trazado 1055146" d="M247.955,36.214a.563.563,0,0,1,.557-.627h-3.8a.563.563,0,0,0-.557.627,5.753,5.753,0,0,0,7.618,4.8A5.756,5.756,0,0,1,247.955,36.214Z" transform="translate(-244.149 -35.587)" fill="#fb2b3a"/>
        </g>
        <g id="Grupo_1225064" data-name="Grupo 1225064" transform="translate(35.35 0)">
          <path id="Trazado_1055147" data-name="Trazado 1055147" d="M326.838,36.214a.563.563,0,0,1,.557-.627h-3.8a.563.563,0,0,0-.557.627,5.753,5.753,0,0,0,7.618,4.8A5.756,5.756,0,0,1,326.838,36.214Z" transform="translate(-323.032 -35.587)" fill="#fb2b3a"/>
        </g>
        <g id="Grupo_1225065" data-name="Grupo 1225065" transform="translate(44.196 0)">
          <path id="Trazado_1055148" data-name="Trazado 1055148" d="M405.721,36.214a.563.563,0,0,1,.557-.627h-3.8a.563.563,0,0,0-.557.627,5.753,5.753,0,0,0,7.618,4.8A5.756,5.756,0,0,1,405.721,36.214Z" transform="translate(-401.915 -35.587)" fill="#fb2b3a"/>
        </g>
      </g>
      <g id="Grupo_1225067" data-name="Grupo 1225067" transform="translate(15.816 55.177)">
        <path id="Trazado_1055149" data-name="Trazado 1055149" d="M146.056,274.834v-2.659a2.5,2.5,0,1,0-5.005,0v2.659Z" transform="translate(-141.051 -269.672)" fill="#fff"/>
      </g>
      <g id="Grupo_1225068" data-name="Grupo 1225068" transform="translate(15.816 55.177)">
        <path id="Trazado_1055150" data-name="Trazado 1055150" d="M144.692,269.945a2.5,2.5,0,0,0-3.641,2.229v2.659h2.277v-2.659A2.5,2.5,0,0,1,144.692,269.945Z" transform="translate(-141.051 -269.671)" fill="#eaf6ff"/>
      </g>
      <g id="Grupo_1225069" data-name="Grupo 1225069" transform="translate(0 28.088)">
        <path id="Trazado_1055151" data-name="Trazado 1055151" d="M130.086,158.915a.841.841,0,0,0,.841-.841v-.805a.841.841,0,1,0-1.682,0v.805A.841.841,0,0,0,130.086,158.915Z" transform="translate(-114.753 -142.037)"/>
        <path id="Trazado_1055152" data-name="Trazado 1055152" d="M183.338,158.915a.841.841,0,0,0,.841-.841v-.805a.841.841,0,1,0-1.682,0v.805A.841.841,0,0,0,183.338,158.915Z" transform="translate(-162.034 -142.037)"/>
        <path id="Trazado_1055153" data-name="Trazado 1055153" d="M329.936,158.915a.841.841,0,0,0,.841-.841v-.805a.841.841,0,0,0-1.682,0v.805A.841.841,0,0,0,329.936,158.915Z" transform="translate(-292.193 -142.037)"/>
        <path id="Trazado_1055154" data-name="Trazado 1055154" d="M383.188,158.915a.841.841,0,0,0,.841-.841v-.805a.841.841,0,1,0-1.682,0v.805A.841.841,0,0,0,383.188,158.915Z" transform="translate(-339.474 -142.037)"/>
        <path id="Trazado_1055155" data-name="Trazado 1055155" d="M338.706,218.751a.841.841,0,0,0,.841-.841v-.376a.841.841,0,1,0-1.682,0v.376A.841.841,0,0,0,338.706,218.751Z" transform="translate(-299.98 -195.545)"/>
        <path id="Trazado_1055156" data-name="Trazado 1055156" d="M374.418,218.751a.841.841,0,0,0,.841-.841v-.376a.841.841,0,1,0-1.682,0v.376A.841.841,0,0,0,374.418,218.751Z" transform="translate(-331.688 -195.545)"/>
        <path id="Trazado_1055157" data-name="Trazado 1055157" d="M56.009,28.088H54.383a.841.841,0,0,0,0,1.682h1.274a4.911,4.911,0,0,1-9.677,0h4.479a.841.841,0,0,0,0-1.682H1.4A1.4,1.4,0,0,0,0,29.49V77.8a1.4,1.4,0,0,0,1.4,1.4H9.083a.841.841,0,0,0,0-1.682H8.836V72.442h5.222v5.076h-1.05a.841.841,0,0,0,0,1.682h43a1.4,1.4,0,0,0,1.4-1.4V29.49A1.4,1.4,0,0,0,56.009,28.088ZM44.281,29.77A6.549,6.549,0,0,0,45.3,32.533a4.907,4.907,0,0,1-8.168-2.763Zm-8.845,0a6.549,6.549,0,0,0,1.021,2.763A4.907,4.907,0,0,1,28.29,29.77Zm-8.845,0a6.548,6.548,0,0,0,1.021,2.763,4.907,4.907,0,0,1-8.168-2.763Zm-14.309,0h5.464a6.548,6.548,0,0,0,1.021,2.763A4.907,4.907,0,0,1,10.6,29.77Zm-3.381,0a6.548,6.548,0,0,0,1.021,2.763A4.907,4.907,0,0,1,1.753,29.77ZM7.154,77.518H1.682V72.442H7.154Zm13.807,0H15.739V72.442h5.221Zm6.9,0H22.643V72.442h5.222Zm6.9,0H29.546V72.442h5.222Zm6.9,0H36.45V72.442h5.221Zm6.9,0H43.353V72.442h5.222Zm7.154,0H50.257V72.442h5.472Zm0-6.758H1.682V68.81H55.729Zm0-3.632H1.682v-33.8a6.6,6.6,0,0,0,1.121,1V65.166a.841.841,0,0,0,.841.841H53.767a.841.841,0,0,0,.841-.841V58.8a.841.841,0,0,0-1.682,0v5.523H44.572V61.18h1.153a1.467,1.467,0,0,0,1.44-1.746h0l-.069-.356a2.59,2.59,0,0,0,2.61-4.3l-1.4-1.4a4.831,4.831,0,0,0-.336-6.02,6.211,6.211,0,0,0-.45-5.122,4.4,4.4,0,0,0,.639-2.319c0-2.1-1.376-3.8-3.068-3.8a3.3,3.3,0,0,0-2.987,2.938H39.349a3.3,3.3,0,0,0-2.987-2.938c-1.692,0-3.068,1.707-3.068,3.8a4.4,4.4,0,0,0,.639,2.319,6.211,6.211,0,0,0-.45,5.122,4.831,4.831,0,0,0-.336,6.02l-1.4,1.4a2.589,2.589,0,0,0,2.61,4.3l-.069.356a1.467,1.467,0,0,0,1.44,1.746h1.153v3.145H22.163V61.18h1.153a1.467,1.467,0,0,0,1.44-1.746l-.8-4.135h3.057a2.593,2.593,0,0,0,0-5.186H25.27a6.924,6.924,0,0,0,.889-7.228,3.355,3.355,0,1,0-5.113-3.946,6.95,6.95,0,0,0-1.2-.106H16.791a6.941,6.941,0,0,0-1.276.12,3.355,3.355,0,1,0-5.056,3.977,6.922,6.922,0,0,0,.909,7.182H9.6a2.593,2.593,0,0,0,0,5.186h3.083l-.8,4.135a1.467,1.467,0,0,0,1.44,1.746h1.153v3.145H4.485V35.179a6.591,6.591,0,0,0,6.527-1.368,6.573,6.573,0,0,0,8.845,0,6.573,6.573,0,0,0,8.845,0,6.573,6.573,0,0,0,8.845,0,6.573,6.573,0,0,0,8.845,0,6.6,6.6,0,0,0,6.532,1.368v19.7a.841.841,0,1,0,1.682,0V34.328a6.6,6.6,0,0,0,1.121-1ZM11.526,45.78a5.27,5.27,0,0,1,5.264-5.264h3.056a5.27,5.27,0,0,1,5.264,5.264h0a5.267,5.267,0,0,1-2.651,4.567,3.62,3.62,0,0,0-1.7-4.447,2.231,2.231,0,0,0-1.96-1.168h-.954a2.231,2.231,0,0,0-1.96,1.168,3.62,3.62,0,0,0-1.7,4.447,5.266,5.266,0,0,1-2.651-4.567Zm1.833,6.036-.349,1.8H9.6a.911.911,0,1,1,0-1.822h3.722l.037.022ZM11.335,41.488A1.673,1.673,0,1,1,13.9,39.465a6.987,6.987,0,0,0-2.567,2.023Zm11.332-2.054a1.674,1.674,0,1,1,2.6,2.012A6.984,6.984,0,0,0,22.667,39.434Zm4.344,12.36a.911.911,0,1,1,0,1.822H23.627l-.349-1.8.037-.022Zm-9.169-2.605H18.8a2.228,2.228,0,0,0,1.918-1.1A1.923,1.923,0,0,1,21,49.1a1.946,1.946,0,0,1-1.943,1.943H17.581A1.946,1.946,0,0,1,15.637,49.1a1.924,1.924,0,0,1,.286-1.011A2.228,2.228,0,0,0,17.842,49.189Zm-.547-2.229a.554.554,0,0,1,.547-.547H18.8a.547.547,0,1,1,0,1.094h-.954A.554.554,0,0,1,17.295,46.96Zm-2.35,5.515a6.924,6.924,0,0,0,1.846.251h3.056a6.924,6.924,0,0,0,1.846-.251L23.055,59.5H21.662V57.68a3.344,3.344,0,1,0-6.687,0V59.5H13.582Zm5.536,8.7v3.145H16.156V61.18ZM16.657,59.5V57.68a1.662,1.662,0,0,1,3.324,0V59.5Zm17.279-8.92A3.167,3.167,0,0,1,37.1,47.414h7.258a3.163,3.163,0,0,1,0,6.327H37.1A3.167,3.167,0,0,1,33.936,50.578Zm1.213,4.434-.318,1.636-.6.6a.911.911,0,0,1-1.288-1.288l1.4-1.4A4.859,4.859,0,0,0,35.149,55.012Zm4.227-14.281h2.705a4.562,4.562,0,0,1,4.461,5.524,4.813,4.813,0,0,0-2.185-.523H37.1a4.815,4.815,0,0,0-2.185.523,4.562,4.562,0,0,1,4.461-5.524Zm-4.4-.815c0-1.151.635-2.123,1.386-2.123.608,0,1.14.637,1.321,1.49A6.243,6.243,0,0,0,35.1,40.752a3,3,0,0,1-.119-.836Zm8.8-.632c.181-.853.712-1.49,1.32-1.49.751,0,1.386.972,1.386,2.123a3.006,3.006,0,0,1-.119.836A6.245,6.245,0,0,0,43.773,39.284Zm4.744,16.68a.911.911,0,1,1-1.288,1.288l-.6-.6-.318-1.636a4.848,4.848,0,0,0,.806-.452Zm-11.732-.552c.1.007.209.011.315.011h7.258c.106,0,.21,0,.315-.011l.793,4.086H35.992Zm1.781,5.768h4.325v3.145H38.566Z" transform="translate(0 -28.088)"/>
      </g>
    </g>
  </g>
</svg>
