<svg xmlns="http://www.w3.org/2000/svg" xmlns:xlink="http://www.w3.org/1999/xlink" width="113" height="113" viewBox="0 0 113 113">
  <defs>
    <filter id="Trazado_982547" x="0" y="0" width="113" height="113" filterUnits="userSpaceOnUse">
      <feOffset dy="3" input="SourceAlpha"/>
      <feGaussianBlur stdDeviation="3" result="blur"/>
      <feFlood flood-opacity="0.161"/>
      <feComposite operator="in" in2="blur"/>
      <feComposite in="SourceGraphic"/>
    </filter>
  </defs>
  <g id="Grupo_1225072" data-name="Grupo 1225072" transform="translate(-1164 -876)">
    <g id="Grupo_1224645" data-name="Grupo 1224645" transform="translate(1173 882)">
      <g id="Grupo_1224291" data-name="Grupo 1224291">
        <g id="Grupo_1224091" data-name="Grupo 1224091">
          <g id="Grupo_1223183" data-name="Grupo 1223183" transform="translate(0)">
            <g id="Grupo_1211217" data-name="Grupo 1211217">
              <g id="Grupo_1210736" data-name="Grupo 1210736">
                <g id="Grupo_1210537" data-name="Grupo 1210537">
                  <g id="Grupo_1164202" data-name="Grupo 1164202">
                    <g id="Grupo_1158168" data-name="Grupo 1158168">
                      <g id="Grupo_1152576" data-name="Grupo 1152576">
                        <g id="Grupo_1148633" data-name="Grupo 1148633">
                          <g id="Grupo_1148525" data-name="Grupo 1148525">
                            <g transform="matrix(1, 0, 0, 1, -9, -6)" filter="url(#Trazado_982547)">
                              <g id="Trazado_982547-2" data-name="Trazado 982547" transform="translate(9 6)" fill="#fdfbec">
                                <path d="M 47.49999618530273 93.5 C 41.28936767578125 93.5 35.26533126831055 92.28396606445312 29.59518241882324 89.88570404052734 C 24.11771583557129 87.56893157958984 19.19812965393066 84.251953125 14.97308921813965 80.02690124511719 C 10.74803638458252 75.80186462402344 7.431062698364258 70.88227844238281 5.114289283752441 65.40480804443359 C 2.716022968292236 59.73466110229492 1.499996185302734 53.71062469482422 1.499996185302734 47.49999618530273 C 1.499996185302734 41.28936767578125 2.716022968292236 35.26533126831055 5.114289283752441 29.59518241882324 C 7.431062698364258 24.11771583557129 10.74803638458252 19.19812965393066 14.97308921813965 14.97308921813965 C 19.19812965393066 10.74803638458252 24.11771583557129 7.431062698364258 29.59518241882324 5.114289283752441 C 35.26533126831055 2.716022968292236 41.28936767578125 1.499996185302734 47.49999618530273 1.499996185302734 C 53.71062469482422 1.499996185302734 59.73466110229492 2.716022968292236 65.40480804443359 5.114289283752441 C 70.88227844238281 7.431062698364258 75.80186462402344 10.74803638458252 80.02690124511719 14.97308921813965 C 84.251953125 19.19812965393066 87.56893157958984 24.11771583557129 89.88570404052734 29.59518241882324 C 92.28396606445312 35.26533126831055 93.5 41.28936767578125 93.5 47.49999618530273 C 93.5 53.71062469482422 92.28396606445312 59.73466110229492 89.88570404052734 65.40480804443359 C 87.56893157958984 70.88227844238281 84.251953125 75.80186462402344 80.02690124511719 80.02690124511719 C 75.80186462402344 84.251953125 70.88227844238281 87.56893157958984 65.40480804443359 89.88570404052734 C 59.73466110229492 92.28396606445312 53.71062469482422 93.5 47.49999618530273 93.5 Z" stroke="none"/>
                                <path d="M 47.49999618530273 2.999992370605469 C 41.4912109375 2.999992370605469 35.66376495361328 4.1761474609375 30.17950439453125 6.495796203613281 C 24.88084411621094 8.736953735351562 20.12152099609375 11.94598388671875 16.03375244140625 16.03375244140625 C 11.94598388671875 20.12152099609375 8.736953735351562 24.88084411621094 6.495796203613281 30.17950439453125 C 4.1761474609375 35.66376495361328 2.999992370605469 41.4912109375 2.999992370605469 47.49999618530273 C 2.999992370605469 53.50878143310547 4.1761474609375 59.33622741699219 6.495796203613281 64.82048797607422 C 8.736953735351562 70.11914825439453 11.94598388671875 74.87847137451172 16.03375244140625 78.96623992919922 C 20.12152099609375 83.05400848388672 24.88084411621094 86.26304626464844 30.17950439453125 88.50419616699219 C 35.66376495361328 90.82384490966797 41.4912109375 92 47.49999618530273 92 C 53.50878143310547 92 59.33622741699219 90.82384490966797 64.82048797607422 88.50419616699219 C 70.11914825439453 86.26304626464844 74.87847137451172 83.05400848388672 78.96623992919922 78.96623992919922 C 83.05400848388672 74.87847137451172 86.26304626464844 70.11914825439453 88.50419616699219 64.82048797607422 C 90.82384490966797 59.33622741699219 92 53.50878143310547 92 47.49999618530273 C 92 41.4912109375 90.82384490966797 35.66376495361328 88.50419616699219 30.17950439453125 C 86.26304626464844 24.88084411621094 83.05400848388672 20.12152099609375 78.96623992919922 16.03375244140625 C 74.87847137451172 11.94598388671875 70.11914825439453 8.736953735351562 64.82048797607422 6.495796203613281 C 59.33622741699219 4.1761474609375 53.50878143310547 2.999992370605469 47.49999618530273 2.999992370605469 M 47.49999618530273 -7.62939453125e-06 C 73.7335205078125 -7.62939453125e-06 95 21.26647186279297 95 47.49999618530273 C 95 73.7335205078125 73.7335205078125 95 47.49999618530273 95 C 21.26647186279297 95 -7.62939453125e-06 73.7335205078125 -7.62939453125e-06 47.49999618530273 C -7.62939453125e-06 21.26647186279297 21.26647186279297 -7.62939453125e-06 47.49999618530273 -7.62939453125e-06 Z" stroke="none" fill="#83793c"/>
                              </g>
                            </g>
                          </g>
                        </g>
                      </g>
                    </g>
                  </g>
                </g>
              </g>
            </g>
          </g>
        </g>
      </g>
    </g>
    <g id="technology_14164381" transform="translate(1185 895)">
      <path id="Trazado_1055158" data-name="Trazado 1055158" d="M57.394,8V38.929H11V8" transform="translate(0.314 0.732)" fill="#8390fa"/>
      <g id="Grupo_1225071" data-name="Grupo 1225071" transform="translate(9.105 2.105)">
        <path id="Trazado_1055159" data-name="Trazado 1055159" d="M59.812,46H54.289c0,3.656-8.9,6.628-19.883,6.628S14.523,49.656,14.523,46H9c0,4.186,5.357,7.832,13.255,9.7v7.975h24.3V55.7C54.455,53.821,59.812,50.186,59.812,46Z" transform="translate(-9 2.603)" fill="#1d2f6f"/>
        <ellipse id="Elipse_13543" data-name="Elipse 13543" cx="7" cy="6.5" rx="7" ry="6.5" transform="translate(18.406 42.138)" fill="#1d2f6f"/>
        <path id="Trazado_1055160" data-name="Trazado 1055160" d="M58.6,8.628H10L17.732,2H50.871Z" transform="translate(-8.895 -2)" fill="#1d2f6f"/>
      </g>
      <path id="Trazado_1055161" data-name="Trazado 1055161" d="M39.255,21.628a6.628,6.628,0,1,0-9.942,5.733v.895h6.628v-.895A6.624,6.624,0,0,0,39.255,21.628Z" transform="translate(1.883 1.465)" fill="#fac748"/>
      <path id="Trazado_1055162" data-name="Trazado 1055162" d="M59.917,45.628H54.394a1.108,1.108,0,0,0-1.1,1.1c0,1.9-4.871,4.418-13.112,5.247a7.732,7.732,0,1,0-11.333,0c-8.24-.828-13.112-3.347-13.112-5.247a1.108,1.108,0,0,0-1.1-1.1H9.1a1.108,1.108,0,0,0-1.1,1.1c0,4.507,4.938,8.417,13.255,10.571v7.1a1.108,1.108,0,0,0,1.1,1.1h24.3a1.108,1.108,0,0,0,1.1-1.1V57.3c8.318-2.143,13.255-6.064,13.255-10.571A1.108,1.108,0,0,0,59.917,45.628ZM34.511,41.209a5.523,5.523,0,1,1-5.523,5.523A5.525,5.525,0,0,1,34.511,41.209Zm11.9,14.15a1.109,1.109,0,0,0-.851,1.071V63.3H23.465V56.431a1.1,1.1,0,0,0-.851-1.071c-6.727-1.6-11.333-4.463-12.239-7.522h3.336c1.458,4.319,11.4,6.628,20.8,6.628s19.353-2.309,20.8-6.628h3.336c-.906,3.06-5.512,5.932-12.239,7.522Z" transform="translate(0 3.975)"/>
      <path id="Trazado_1055163" data-name="Trazado 1055163" d="M11.209,40.766H57.6a1.108,1.108,0,0,0,1.1-1.1V9.837a1.1,1.1,0,0,0,.718-1.944L51.693,1.265A1.07,1.07,0,0,0,50.975,1H17.837a1.07,1.07,0,0,0-.718.265L9.387,7.893a1.113,1.113,0,0,0-.32,1.226,1.1,1.1,0,0,0,1.038.718V39.661a1.108,1.108,0,0,0,1.1,1.1ZM18.246,3.209H50.567l5.159,4.418H13.087ZM12.314,9.837H56.5v28.72H12.314Z" transform="translate(0.105)"/>
      <path id="Trazado_1055164" data-name="Trazado 1055164" d="M32.732,14a7.729,7.729,0,0,0-4.418,14.073v.287a1.108,1.108,0,0,0,1.1,1.1h6.628a1.108,1.108,0,0,0,1.1-1.1v-.287A7.729,7.729,0,0,0,32.732,14Zm2.762,12.515a1.1,1.1,0,0,0-.53.74H30.5a1.075,1.075,0,0,0-.53-.74,5.523,5.523,0,1,1,5.523,0Z" transform="translate(1.778 1.36)"/>
      <path id="Trazado_1055165" data-name="Trazado 1055165" d="M29,29h6.628v2.209H29Z" transform="translate(2.197 2.929)"/>
      <path id="Trazado_1055166" data-name="Trazado 1055166" d="M30,32h4.418v2.209H30Z" transform="translate(2.302 3.243)"/>
      <path id="Trazado_1055167" data-name="Trazado 1055167" d="M31,10h2.209v3.314H31Z" transform="translate(2.406 0.942)"/>
      <path id="Trazado_1055168" data-name="Trazado 1055168" d="M0,0H2.209V3.314H0Z" transform="translate(25.134 15.282) rotate(-45)"/>
      <path id="Trazado_1055169" data-name="Trazado 1055169" d="M21,20h3.314v2.209H21Z" transform="translate(1.36 1.988)"/>
      <path id="Trazado_1055170" data-name="Trazado 1055170" d="M0,0H3.314V2.209H0Z" transform="translate(25.136 30.911) rotate(-45)"/>
      <path id="Trazado_1055171" data-name="Trazado 1055171" d="M0,0H2.209V3.314H0Z" transform="translate(39.974 30.128) rotate(-45)"/>
      <path id="Trazado_1055172" data-name="Trazado 1055172" d="M40,20h3.314v2.209H40Z" transform="translate(3.348 1.988)"/>
      <path id="Trazado_1055173" data-name="Trazado 1055173" d="M0,0H3.314V2.209H0Z" transform="translate(39.971 16.061) rotate(-45)"/>
    </g>
  </g>
</svg>
