<svg xmlns="http://www.w3.org/2000/svg" xmlns:xlink="http://www.w3.org/1999/xlink" width="113" height="113" viewBox="0 0 113 113">
  <defs>
    <filter id="Trazado_982547" x="0" y="0" width="113" height="113" filterUnits="userSpaceOnUse">
      <feOffset dy="3" input="SourceAlpha"/>
      <feGaussianBlur stdDeviation="3" result="blur"/>
      <feFlood flood-opacity="0.161"/>
      <feComposite operator="in" in2="blur"/>
      <feComposite in="SourceGraphic"/>
    </filter>
  </defs>
  <g id="Grupo_1225169" data-name="Grupo 1225169" transform="translate(-7782 -3307.211)">
    <g id="Grupo_1225005" data-name="Grupo 1225005" transform="translate(7791 3313.211)">
      <g id="Grupo_1209049" data-name="Grupo 1209049" transform="translate(0 0)">
        <g id="Grupo_1208493" data-name="Grupo 1208493">
          <g id="Grupo_1202104" data-name="Grupo 1202104">
            <g id="Grupo_1201923" data-name="Grupo 1201923">
              <g id="Grupo_1176928" data-name="Grupo 1176928">
                <g id="Grupo_1172322" data-name="Grupo 1172322">
                  <g id="Grupo_1164700" data-name="Grupo 1164700">
                    <g id="Grupo_1160931" data-name="Grupo 1160931">
                      <g id="Grupo_1160749" data-name="Grupo 1160749">
                        <g id="Grupo_1158891" data-name="Grupo 1158891">
                          <g id="Grupo_1157406" data-name="Grupo 1157406">
                            <g id="Grupo_1155793" data-name="Grupo 1155793">
                              <g id="Grupo_1154704" data-name="Grupo 1154704">
                                <g id="Grupo_1150790" data-name="Grupo 1150790">
                                  <g id="Grupo_1154214" data-name="Grupo 1154214">
                                    <g id="Grupo_1152583" data-name="Grupo 1152583">
                                      <g id="Grupo_1146973" data-name="Grupo 1146973">
                                        <g id="Grupo_1146954" data-name="Grupo 1146954">
                                          <g transform="matrix(1, 0, 0, 1, -9, -6)" filter="url(#Trazado_982547)">
                                            <g id="Trazado_982547-2" data-name="Trazado 982547" transform="translate(9 6)" fill="#fcf8db">
                                              <path d="M 47.5000114440918 93.49987030029297 C 41.28938293457031 93.49987030029297 35.26534652709961 92.28384399414062 29.5951976776123 89.88558959960938 C 24.11773109436035 87.56881713867188 19.19814491271973 84.25183868408203 14.97310447692871 80.02680206298828 C 10.74805164337158 75.80176544189453 7.43107795715332 70.88218688964844 5.114304542541504 65.40472412109375 C 2.716038227081299 59.73458862304688 1.500011444091797 53.71054840087891 1.500011444091797 47.49993515014648 C 1.500011444091797 41.28932189941406 2.716038227081299 35.26528167724609 5.114304542541504 29.59514808654785 C 7.43107795715332 24.1176815032959 10.74805164337158 19.1981086730957 14.97310447692871 14.97306823730469 C 19.19814491271973 10.74802875518799 24.11773109436035 7.431055068969727 29.5951976776123 5.11428165435791 C 35.26534652709961 2.716028451919556 41.28938293457031 1.500001788139343 47.5000114440918 1.500001788139343 C 53.71063995361328 1.500001788139343 59.73467636108398 2.716028451919556 65.40482330322266 5.11428165435791 C 70.88229370117188 7.431055068969727 75.8018798828125 10.74802875518799 80.02691650390625 14.97306823730469 C 84.25196838378906 19.1981086730957 87.56894683837891 24.1176815032959 89.88571929931641 29.59514808654785 C 92.28398132324219 35.26528167724609 93.50001525878906 41.28932189941406 93.50001525878906 47.49993515014648 C 93.50001525878906 53.71054840087891 92.28398132324219 59.73458862304688 89.88571929931641 65.40472412109375 C 87.56894683837891 70.88218688964844 84.25196838378906 75.80176544189453 80.02691650390625 80.02680206298828 C 75.8018798828125 84.25183868408203 70.88229370117188 87.56881713867188 65.40482330322266 89.88558959960938 C 59.73467636108398 92.28384399414062 53.71063995361328 93.49987030029297 47.5000114440918 93.49987030029297 Z" stroke="none"/>
                                              <path d="M 47.5000114440918 3 C 41.49122619628906 3 35.66378021240234 4.1761474609375 30.17951965332031 6.495796203613281 C 24.880859375 8.7369384765625 20.12153625488281 11.94596862792969 16.03376770019531 16.03373718261719 C 11.94598388671875 20.12149047851562 8.736968994140625 24.88081359863281 6.495811462402344 30.17947387695312 C 4.176162719726562 35.66371917724609 3.000007629394531 41.49116516113281 3.000007629394531 47.49993515014648 C 3.000007629394531 53.50870513916016 4.176162719726562 59.33615112304688 6.495811462402344 64.82039642333984 C 8.736968994140625 70.11905670166016 11.94598388671875 74.87837982177734 16.03376770019531 78.96613311767578 C 20.12153625488281 83.05390167236328 24.880859375 86.26293182373047 30.17951965332031 88.50407409667969 C 35.66378021240234 90.82372283935547 41.49122619628906 91.99987030029297 47.5000114440918 91.99987030029297 C 53.50879669189453 91.99987030029297 59.33624267578125 90.82372283935547 64.82050323486328 88.50407409667969 C 70.11916351318359 86.26293182373047 74.87848663330078 83.05390167236328 78.96625518798828 78.96613311767578 C 83.05403900146484 74.87837982177734 86.2630615234375 70.11905670166016 88.50421142578125 64.82039642333984 C 90.82386016845703 59.33615112304688 92.00001525878906 53.50870513916016 92.00001525878906 47.49993515014648 C 92.00001525878906 41.49116516113281 90.82386016845703 35.66371917724609 88.50421142578125 30.17947387695312 C 86.2630615234375 24.88081359863281 83.05403900146484 20.12149047851562 78.96625518798828 16.03373718261719 C 74.87848663330078 11.94596862792969 70.11916351318359 8.7369384765625 64.82050323486328 6.495796203613281 C 59.33624267578125 4.1761474609375 53.50879669189453 3 47.5000114440918 3 M 47.5000114440918 0 C 73.73353576660156 0 95.00001525878906 21.26644134521484 95.00001525878906 47.49993515014648 C 95.00001525878906 73.73342895507812 73.73353576660156 94.99987030029297 47.5000114440918 94.99987030029297 C 21.26648712158203 94.99987030029297 7.62939453125e-06 73.73342895507812 7.62939453125e-06 47.49993515014648 C 7.62939453125e-06 21.26644134521484 21.26648712158203 0 47.5000114440918 0 Z" stroke="none" fill="#83793c"/>
                                            </g>
                                          </g>
                                        </g>
                                      </g>
                                    </g>
                                  </g>
                                </g>
                              </g>
                            </g>
                          </g>
                        </g>
                      </g>
                    </g>
                  </g>
                </g>
              </g>
            </g>
          </g>
        </g>
      </g>
    </g>
    <g id="cloth_4017375" transform="translate(7806.837 3327.673)">
      <path id="Trazado_1055392" data-name="Trazado 1055392" d="M4.183,0H47.439a4.183,4.183,0,0,1,4.183,4.183V47.439a4.183,4.183,0,0,1-4.183,4.183H4.183A4.183,4.183,0,0,1,0,47.439V4.183A4.183,4.183,0,0,1,4.183,0Z" transform="translate(5.851 7.263)" fill="#f3f3f3"/>
      <path id="Trazado_1055360" data-name="Trazado 1055360" d="M58.1,11.746V55.66a3.847,3.847,0,0,1-3.856,3.856h-.227V15.627a3.856,3.856,0,0,0-3.855-3.856H6.48v-.026A3.856,3.856,0,0,1,10.335,7.89H54.241A3.856,3.856,0,0,1,58.1,11.745Z" transform="translate(-0.626 -0.63)" fill="#f3f3f3"/>
      <g id="Grupo_1225168" data-name="Grupo 1225168" transform="translate(1.5 2.876)">
        <path id="Trazado_1055361" data-name="Trazado 1055361" d="M13.552,11.508a.437.437,0,0,1-.437-.437V3.313a.437.437,0,1,1,.874,0v7.758A.437.437,0,0,1,13.552,11.508Z" transform="translate(-2.96 -2.876)" fill="#323c6b"/>
        <path id="Trazado_1055362" data-name="Trazado 1055362" d="M22.506,11.508a.437.437,0,0,1-.437-.437V3.313a.437.437,0,0,1,.874,0v7.758A.437.437,0,0,1,22.506,11.508Z" transform="translate(-4.086 -2.876)" fill="#323c6b"/>
        <path id="Trazado_1055363" data-name="Trazado 1055363" d="M31.46,11.508a.437.437,0,0,1-.437-.437V3.313a.437.437,0,1,1,.874,0v7.758a.437.437,0,0,1-.437.437Z" transform="translate(-5.212 -2.876)" fill="#323c6b"/>
        <path id="Trazado_1055364" data-name="Trazado 1055364" d="M40.414,11.508a.437.437,0,0,1-.437-.437V3.313a.437.437,0,0,1,.874,0v7.758A.437.437,0,0,1,40.414,11.508Z" transform="translate(-6.338 -2.876)" fill="#323c6b"/>
        <path id="Trazado_1055365" data-name="Trazado 1055365" d="M49.368,11.508a.437.437,0,0,1-.437-.437V3.313a.437.437,0,0,1,.874,0v7.758A.437.437,0,0,1,49.368,11.508Z" transform="translate(-7.464 -2.876)" fill="#323c6b"/>
        <path id="Trazado_1055366" data-name="Trazado 1055366" d="M58.322,11.508a.437.437,0,0,1-.437-.437V3.313a.437.437,0,1,1,.874,0v7.758A.437.437,0,0,1,58.322,11.508Z" transform="translate(-8.59 -2.876)" fill="#323c6b"/>
        <path id="Trazado_1055367" data-name="Trazado 1055367" d="M13.552,70.634a.437.437,0,0,1-.437-.437v-7.76a.437.437,0,1,1,.874,0v7.757a.437.437,0,0,1-.437.44Z" transform="translate(-2.96 -10.31)" fill="#323c6b"/>
        <path id="Trazado_1055368" data-name="Trazado 1055368" d="M22.506,70.634a.437.437,0,0,1-.437-.437v-7.76a.437.437,0,0,1,.874,0v7.757a.437.437,0,0,1-.437.44Z" transform="translate(-4.086 -10.31)" fill="#323c6b"/>
        <path id="Trazado_1055369" data-name="Trazado 1055369" d="M31.46,70.634a.437.437,0,0,1-.437-.437v-7.76a.437.437,0,1,1,.874,0v7.757a.437.437,0,0,1-.437.44Z" transform="translate(-5.212 -10.31)" fill="#323c6b"/>
        <path id="Trazado_1055370" data-name="Trazado 1055370" d="M40.414,70.634a.437.437,0,0,1-.437-.437v-7.76a.437.437,0,1,1,.874,0v7.757a.437.437,0,0,1-.437.44Z" transform="translate(-6.338 -10.31)" fill="#323c6b"/>
        <path id="Trazado_1055371" data-name="Trazado 1055371" d="M49.368,70.634a.437.437,0,0,1-.437-.437v-7.76a.437.437,0,1,1,.874,0v7.757a.437.437,0,0,1-.437.44Z" transform="translate(-7.464 -10.31)" fill="#323c6b"/>
        <path id="Trazado_1055372" data-name="Trazado 1055372" d="M58.322,70.634a.437.437,0,0,1-.437-.437v-7.76a.437.437,0,1,1,.874,0v7.757a.437.437,0,0,1-.437.44Z" transform="translate(-8.59 -10.31)" fill="#323c6b"/>
        <path id="Trazado_1055373" data-name="Trazado 1055373" d="M68.821,15.366H61.064a.437.437,0,1,1,0-.874h7.757a.437.437,0,0,1,0,.874Z" transform="translate(-8.934 -4.337)" fill="#323c6b"/>
        <path id="Trazado_1055374" data-name="Trazado 1055374" d="M68.821,24.32H61.064a.437.437,0,1,1,0-.874h7.757a.437.437,0,0,1,0,.874Z" transform="translate(-8.934 -5.462)" fill="#323c6b"/>
        <path id="Trazado_1055375" data-name="Trazado 1055375" d="M68.821,33.274H61.064a.437.437,0,0,1,0-.874h7.757a.437.437,0,0,1,0,.874Z" transform="translate(-8.934 -6.588)" fill="#323c6b"/>
        <path id="Trazado_1055376" data-name="Trazado 1055376" d="M68.821,42.227H61.064a.437.437,0,1,1,0-.874h7.757a.437.437,0,0,1,0,.874Z" transform="translate(-8.934 -7.714)" fill="#323c6b"/>
        <path id="Trazado_1055377" data-name="Trazado 1055377" d="M68.821,51.181H61.064a.437.437,0,1,1,0-.874h7.757a.437.437,0,0,1,0,.874Z" transform="translate(-8.934 -8.84)" fill="#323c6b"/>
        <path id="Trazado_1055378" data-name="Trazado 1055378" d="M68.821,60.135H61.064a.437.437,0,1,1,0-.874h7.757a.437.437,0,0,1,0,.874Z" transform="translate(-8.934 -9.966)" fill="#323c6b"/>
        <path id="Trazado_1055379" data-name="Trazado 1055379" d="M9.694,15.366H1.937a.437.437,0,0,1,0-.874H9.694a.437.437,0,0,1,0,.874Z" transform="translate(-1.5 -4.337)" fill="#323c6b"/>
        <path id="Trazado_1055380" data-name="Trazado 1055380" d="M9.694,24.32H1.937a.437.437,0,0,1,0-.874H9.694a.437.437,0,0,1,0,.874Z" transform="translate(-1.5 -5.462)" fill="#323c6b"/>
        <path id="Trazado_1055381" data-name="Trazado 1055381" d="M9.694,33.274H1.937a.437.437,0,0,1,0-.874H9.694a.437.437,0,0,1,0,.874Z" transform="translate(-1.5 -6.588)" fill="#323c6b"/>
        <path id="Trazado_1055382" data-name="Trazado 1055382" d="M9.694,42.227H1.937a.437.437,0,0,1,0-.874H9.694a.437.437,0,0,1,0,.874Z" transform="translate(-1.5 -7.714)" fill="#323c6b"/>
        <path id="Trazado_1055383" data-name="Trazado 1055383" d="M9.694,51.181H1.937a.437.437,0,1,1,0-.874H9.694a.437.437,0,1,1,0,.874Z" transform="translate(-1.5 -8.84)" fill="#323c6b"/>
        <path id="Trazado_1055384" data-name="Trazado 1055384" d="M9.694,60.135H1.937a.437.437,0,0,1,0-.874H9.694a.437.437,0,0,1,0,.874Z" transform="translate(-1.5 -9.966)" fill="#323c6b"/>
        <path id="Trazado_1055385" data-name="Trazado 1055385" d="M51.549,70.314H41.9a.437.437,0,1,1,0-.874h9.654a.437.437,0,1,1,0,.874Z" transform="translate(-6.524 -11.245)" fill="#323c6b"/>
        <path id="Trazado_1055386" data-name="Trazado 1055386" d="M37.707,70.314h-1.02a.437.437,0,1,1,0-.874h1.02a.437.437,0,1,1,0,.874Z" transform="translate(-5.869 -11.245)" fill="#323c6b"/>
      </g>
      <path id="Trazado_1055387" data-name="Trazado 1055387" d="M14.806,40.713v.6a.743.743,0,0,1-1.486,0v-.6a.743.743,0,0,1,1.486,0Z" transform="translate(-1.486 -4.664)" fill="#fff"/>
      <path id="Trazado_1055388" data-name="Trazado 1055388" d="M14.806,45.153v9.18a.743.743,0,0,1-1.486,0v-9.18a.743.743,0,1,1,1.486,0Z" transform="translate(-1.486 -5.222)" fill="#fff"/>
      <path id="Trazado_1055389" data-name="Trazado 1055389" d="M4.559,8.3a.437.437,0,0,1-.368-.666A6.878,6.878,0,0,1,10.039,4.4H13.2a.437.437,0,0,1,0,.874H10.037A6.01,6.01,0,0,0,4.929,8.1a.437.437,0,0,1-.37.2Z" transform="translate(-0.33 -0.192)" fill="#323c6b"/>
      <path id="Trazado_1055390" data-name="Trazado 1055390" d="M18.288,5.268H17.25a.437.437,0,1,1,0-.874h1.038a.437.437,0,1,1,0,.874Z" transform="translate(-1.925 -0.191)" fill="#323c6b"/>
      <path id="Trazado_1055391" data-name="Trazado 1055391" d="M54.18,59.89H10.27A4.3,4.3,0,0,1,5.977,55.6V11.683A4.3,4.3,0,0,1,10.27,7.391H54.18a4.3,4.3,0,0,1,4.293,4.292V55.6A4.3,4.3,0,0,1,54.18,59.89ZM10.27,8.268a3.421,3.421,0,0,0-3.418,3.415V55.6a3.422,3.422,0,0,0,3.418,3.418H54.18A3.422,3.422,0,0,0,57.6,55.6V11.683a3.421,3.421,0,0,0-3.418-3.418Z" transform="translate(-0.563 -0.568)" fill="#323c6b"/>
    </g>
  </g>
</svg>
