<svg xmlns="http://www.w3.org/2000/svg" xmlns:xlink="http://www.w3.org/1999/xlink" width="118" height="118" viewBox="0 0 118 118">
  <defs>
    <filter id="Trazado_982547" x="0" y="0" width="118" height="118" filterUnits="userSpaceOnUse">
      <feOffset dy="3" input="SourceAlpha"/>
      <feGaussianBlur stdDeviation="3" result="blur"/>
      <feFlood flood-opacity="0.161"/>
      <feComposite operator="in" in2="blur"/>
      <feComposite in="SourceGraphic"/>
    </filter>
  </defs>
  <g id="Grupo_1225171" data-name="Grupo 1225171" transform="translate(-741 -3600.804)">
    <g id="Grupo_1225007" data-name="Grupo 1225007" transform="translate(0 1163.007)">
      <g id="Grupo_1223960" data-name="Grupo 1223960" transform="translate(0 -2682.959)">
        <g id="Grupo_1223828" data-name="Grupo 1223828" transform="translate(750 5126.756)">
          <g id="Grupo_1223741" data-name="Grupo 1223741">
            <g id="Grupo_1223199" data-name="Grupo 1223199">
              <g id="Grupo_1211216" data-name="Grupo 1211216" transform="translate(0)">
                <g id="Grupo_1210737" data-name="Grupo 1210737">
                  <g id="Grupo_1210537" data-name="Grupo 1210537">
                    <g id="Grupo_1164202" data-name="Grupo 1164202">
                      <g id="Grupo_1158168" data-name="Grupo 1158168">
                        <g id="Grupo_1152576" data-name="Grupo 1152576">
                          <g id="Grupo_1148633" data-name="Grupo 1148633">
                            <g id="Grupo_1148525" data-name="Grupo 1148525">
                              <g transform="matrix(1, 0, 0, 1, -9, -6)" filter="url(#Trazado_982547)">
                                <g id="Trazado_982547-2" data-name="Trazado 982547" transform="translate(9 6)" fill="#fdfbec">
                                  <path d="M 49.99999618530273 98.5 C 43.45188140869141 98.5 37.10042572021484 97.21786499023438 31.12206840515137 94.68923950195312 C 25.34691047668457 92.24655151367188 20.15996742248535 88.74931335449219 15.70532512664795 84.29468536376953 C 11.25068187713623 79.84004211425781 7.753438949584961 74.65309906005859 5.310753345489502 68.87792205810547 C 2.782124757766724 62.89956665039062 1.499996185302734 56.54811096191406 1.499996185302734 49.99999618530273 C 1.499996185302734 43.45188140869141 2.782124757766724 37.10042572021484 5.310753345489502 31.12206840515137 C 7.753438949584961 25.34691047668457 11.25068187713623 20.15996742248535 15.70532512664795 15.70532512664795 C 20.15996742248535 11.25068187713623 25.34691047668457 7.753438949584961 31.12206840515137 5.310753345489502 C 37.10042572021484 2.782124757766724 43.45188140869141 1.499996185302734 49.99999618530273 1.499996185302734 C 56.54811096191406 1.499996185302734 62.89956665039062 2.782124757766724 68.87792205810547 5.310753345489502 C 74.65309906005859 7.753438949584961 79.84004211425781 11.25068187713623 84.29468536376953 15.70532512664795 C 88.74931335449219 20.15996742248535 92.24655151367188 25.34691047668457 94.68923950195312 31.12206840515137 C 97.21786499023438 37.10042572021484 98.5 43.45188140869141 98.5 49.99999618530273 C 98.5 56.54811096191406 97.21786499023438 62.89956665039062 94.68923950195312 68.87792205810547 C 92.24655151367188 74.65309906005859 88.74931335449219 79.84004211425781 84.29468536376953 84.29468536376953 C 79.84004211425781 88.74931335449219 74.65309906005859 92.24655151367188 68.87792205810547 94.68923950195312 C 62.89956665039062 97.21786499023438 56.54811096191406 98.5 49.99999618530273 98.5 Z" stroke="none"/>
                                  <path d="M 49.99999618530273 2.999992370605469 C 43.65372085571289 2.999992370605469 37.49885940551758 4.242256164550781 31.70639801025391 6.6922607421875 C 26.11002349853516 9.059318542480469 21.08335113525391 12.4486083984375 16.76598358154297 16.76598358154297 C 12.4486083984375 21.08335113525391 9.059318542480469 26.11002349853516 6.6922607421875 31.70639801025391 C 4.242256164550781 37.49885940551758 2.999992370605469 43.65372085571289 2.999992370605469 49.99999618530273 C 2.999992370605469 56.34627151489258 4.242256164550781 62.50113296508789 6.6922607421875 68.29359436035156 C 9.059318542480469 73.88996887207031 12.4486083984375 78.91664123535156 16.76598358154297 83.2340087890625 C 21.08335113525391 87.55138397216797 26.11002349853516 90.940673828125 31.70639801025391 93.30773162841797 C 37.49885940551758 95.75773620605469 43.65372085571289 97 49.99999618530273 97 C 56.34627151489258 97 62.50113296508789 95.75773620605469 68.29359436035156 93.30773162841797 C 73.88996887207031 90.940673828125 78.91664123535156 87.55138397216797 83.2340087890625 83.2340087890625 C 87.55138397216797 78.91664123535156 90.940673828125 73.88996887207031 93.30773162841797 68.29359436035156 C 95.75773620605469 62.50113296508789 97 56.34627151489258 97 49.99999618530273 C 97 43.65372085571289 95.75773620605469 37.49885940551758 93.30773162841797 31.70639801025391 C 90.940673828125 26.11002349853516 87.55138397216797 21.08335113525391 83.2340087890625 16.76598358154297 C 78.91664123535156 12.4486083984375 73.88996887207031 9.059318542480469 68.29359436035156 6.6922607421875 C 62.50113296508789 4.242256164550781 56.34627151489258 2.999992370605469 49.99999618530273 2.999992370605469 M 49.99999618530273 -7.62939453125e-06 C 77.61422729492188 -7.62939453125e-06 100 22.38576507568359 100 49.99999618530273 C 100 77.61422729492188 77.61422729492188 100 49.99999618530273 100 C 22.38576507568359 100 -7.62939453125e-06 77.61422729492188 -7.62939453125e-06 49.99999618530273 C -7.62939453125e-06 22.38576507568359 22.38576507568359 -7.62939453125e-06 49.99999618530273 -7.62939453125e-06 Z" stroke="none" fill="#83793c"/>
                                </g>
                              </g>
                            </g>
                          </g>
                        </g>
                      </g>
                    </g>
                  </g>
                </g>
              </g>
            </g>
          </g>
        </g>
      </g>
    </g>
    <g id="layer1" transform="translate(730.522 3588.24)">
      <path id="path42908" d="M69.475,31.617A12.009,12.009,0,0,0,57.5,43.589a11.744,11.744,0,0,0,4.613,9.442H42.67a7.632,7.632,0,0,0,0,15.265H53.45L54,74.8s-4.344,21.094-4.344,21.1a7.636,7.636,0,0,0,14.752,3.95l5.071-12.78,5.071,12.78A7.636,7.636,0,0,0,89.3,95.9L84.957,74.8l.549-6.5h10.78a7.632,7.632,0,0,0,0-15.265H76.76a11.682,11.682,0,0,0,4.689-9.442A12.012,12.012,0,0,0,69.475,31.617Zm0,4.926a7.045,7.045,0,0,1,2.64,13.578,2.463,2.463,0,0,0-1.387,3.135l.665,1.8h-3.84l.665-1.8a2.46,2.46,0,0,0-1.387-3.135,7.045,7.045,0,0,1,2.643-13.578ZM42.667,57.957h9.568v5.411H42.667a2.705,2.705,0,0,1,0-5.411Zm44.048,0h9.568a2.707,2.707,0,0,1,0,5.413H86.715ZM55.235,93.183h6.531c-.862,2.185-2.118,5.362-2.125,5.389a2.707,2.707,0,1,1-5.229-1.406C54.415,97.155,54.989,94.377,55.235,93.183Zm21.946,0h6.531c.246,1.194.82,3.973.823,3.982a2.707,2.707,0,1,1-5.229,1.406C79.3,98.545,78.041,95.367,77.182,93.183Z" transform="translate(0 0)"/>
    </g>
  </g>
</svg>
