<svg xmlns="http://www.w3.org/2000/svg" xmlns:xlink="http://www.w3.org/1999/xlink" width="118" height="118" viewBox="0 0 118 118">
  <defs>
    <filter id="Trazado_982547" x="0" y="0" width="118" height="118" filterUnits="userSpaceOnUse">
      <feOffset dy="3" input="SourceAlpha"/>
      <feGaussianBlur stdDeviation="3" result="blur"/>
      <feFlood flood-opacity="0.161"/>
      <feComposite operator="in" in2="blur"/>
      <feComposite in="SourceGraphic"/>
    </filter>
  </defs>
  <g id="Grupo_1225172" data-name="Grupo 1225172" transform="translate(-1161 -3600.804)">
    <g id="Grupo_1225008" data-name="Grupo 1225008" transform="translate(0 1163.007)">
      <g id="Grupo_1224000" data-name="Grupo 1224000" transform="translate(0 -2682.959)">
        <g id="Grupo_1223829" data-name="Grupo 1223829" transform="translate(1170 5126.756)">
          <g id="Grupo_1223741" data-name="Grupo 1223741">
            <g id="Grupo_1223199" data-name="Grupo 1223199">
              <g id="Grupo_1211216" data-name="Grupo 1211216" transform="translate(0)">
                <g id="Grupo_1210737" data-name="Grupo 1210737">
                  <g id="Grupo_1210537" data-name="Grupo 1210537">
                    <g id="Grupo_1164202" data-name="Grupo 1164202">
                      <g id="Grupo_1158168" data-name="Grupo 1158168">
                        <g id="Grupo_1152576" data-name="Grupo 1152576">
                          <g id="Grupo_1148633" data-name="Grupo 1148633">
                            <g id="Grupo_1148525" data-name="Grupo 1148525">
                              <g transform="matrix(1, 0, 0, 1, -9, -6)" filter="url(#Trazado_982547)">
                                <g id="Trazado_982547-2" data-name="Trazado 982547" transform="translate(9 6)" fill="#fdfbec">
                                  <path d="M 49.99999618530273 98.5 C 43.45188140869141 98.5 37.10042572021484 97.21786499023438 31.12206840515137 94.68923950195312 C 25.34691047668457 92.24655151367188 20.15996742248535 88.74931335449219 15.70532512664795 84.29468536376953 C 11.25068187713623 79.84004211425781 7.753438949584961 74.65309906005859 5.310753345489502 68.87792205810547 C 2.782124757766724 62.89956665039062 1.499996185302734 56.54811096191406 1.499996185302734 49.99999618530273 C 1.499996185302734 43.45188140869141 2.782124757766724 37.10042572021484 5.310753345489502 31.12206840515137 C 7.753438949584961 25.34691047668457 11.25068187713623 20.15996742248535 15.70532512664795 15.70532512664795 C 20.15996742248535 11.25068187713623 25.34691047668457 7.753438949584961 31.12206840515137 5.310753345489502 C 37.10042572021484 2.782124757766724 43.45188140869141 1.499996185302734 49.99999618530273 1.499996185302734 C 56.54811096191406 1.499996185302734 62.89956665039062 2.782124757766724 68.87792205810547 5.310753345489502 C 74.65309906005859 7.753438949584961 79.84004211425781 11.25068187713623 84.29468536376953 15.70532512664795 C 88.74931335449219 20.15996742248535 92.24655151367188 25.34691047668457 94.68923950195312 31.12206840515137 C 97.21786499023438 37.10042572021484 98.5 43.45188140869141 98.5 49.99999618530273 C 98.5 56.54811096191406 97.21786499023438 62.89956665039062 94.68923950195312 68.87792205810547 C 92.24655151367188 74.65309906005859 88.74931335449219 79.84004211425781 84.29468536376953 84.29468536376953 C 79.84004211425781 88.74931335449219 74.65309906005859 92.24655151367188 68.87792205810547 94.68923950195312 C 62.89956665039062 97.21786499023438 56.54811096191406 98.5 49.99999618530273 98.5 Z" stroke="none"/>
                                  <path d="M 49.99999618530273 2.999992370605469 C 43.65372085571289 2.999992370605469 37.49885940551758 4.242256164550781 31.70639801025391 6.6922607421875 C 26.11002349853516 9.059318542480469 21.08335113525391 12.4486083984375 16.76598358154297 16.76598358154297 C 12.4486083984375 21.08335113525391 9.059318542480469 26.11002349853516 6.6922607421875 31.70639801025391 C 4.242256164550781 37.49885940551758 2.999992370605469 43.65372085571289 2.999992370605469 49.99999618530273 C 2.999992370605469 56.34627151489258 4.242256164550781 62.50113296508789 6.6922607421875 68.29359436035156 C 9.059318542480469 73.88996887207031 12.4486083984375 78.91664123535156 16.76598358154297 83.2340087890625 C 21.08335113525391 87.55138397216797 26.11002349853516 90.940673828125 31.70639801025391 93.30773162841797 C 37.49885940551758 95.75773620605469 43.65372085571289 97 49.99999618530273 97 C 56.34627151489258 97 62.50113296508789 95.75773620605469 68.29359436035156 93.30773162841797 C 73.88996887207031 90.940673828125 78.91664123535156 87.55138397216797 83.2340087890625 83.2340087890625 C 87.55138397216797 78.91664123535156 90.940673828125 73.88996887207031 93.30773162841797 68.29359436035156 C 95.75773620605469 62.50113296508789 97 56.34627151489258 97 49.99999618530273 C 97 43.65372085571289 95.75773620605469 37.49885940551758 93.30773162841797 31.70639801025391 C 90.940673828125 26.11002349853516 87.55138397216797 21.08335113525391 83.2340087890625 16.76598358154297 C 78.91664123535156 12.4486083984375 73.88996887207031 9.059318542480469 68.29359436035156 6.6922607421875 C 62.50113296508789 4.242256164550781 56.34627151489258 2.999992370605469 49.99999618530273 2.999992370605469 M 49.99999618530273 -7.62939453125e-06 C 77.61422729492188 -7.62939453125e-06 100 22.38576507568359 100 49.99999618530273 C 100 77.61422729492188 77.61422729492188 100 49.99999618530273 100 C 22.38576507568359 100 -7.62939453125e-06 77.61422729492188 -7.62939453125e-06 49.99999618530273 C -7.62939453125e-06 22.38576507568359 22.38576507568359 -7.62939453125e-06 49.99999618530273 -7.62939453125e-06 Z" stroke="none" fill="#83793c"/>
                                </g>
                              </g>
                            </g>
                          </g>
                        </g>
                      </g>
                    </g>
                  </g>
                </g>
              </g>
            </g>
          </g>
        </g>
      </g>
    </g>
    <g id="Page-1" transform="translate(1186.756 3624.56)">
      <g id="_032---Clipped-Document" data-name="032---Clipped-Document">
        <path id="Path" d="M7,19.449v-4.3A2.156,2.156,0,0,1,9.15,13h51.59a2.156,2.156,0,0,1,2.15,2.15V53.842a2.156,2.156,0,0,1-2.15,2.15h-4.3Z" transform="translate(0.524 0.972)" fill="#879cbb" fill-rule="evenodd"/>
        <path id="Path-2" data-name="Path" d="M3.15,19h51.59a2.156,2.156,0,0,1,2.15,2.15V59.842a2.156,2.156,0,0,1-2.15,2.15H11.748L1,51.244V21.15A2.156,2.156,0,0,1,3.15,19Z" transform="translate(0.075 1.421)" fill="#c1d4e3" fill-rule="evenodd"/>
        <path id="Path-3" data-name="Path" d="M11.748,51.15v8.6L1,49H9.6A2.156,2.156,0,0,1,11.748,51.15Z" transform="translate(0.075 3.665)" fill="#168fd1" fill-rule="evenodd"/>
        <path id="Shape" d="M61.263,12.9H42.992V9.136a9.136,9.136,0,1,0-18.271,0V12.9H9.673a3.224,3.224,0,0,0-3.224,3.224v3.224H3.224A3.224,3.224,0,0,0,0,22.571V52.665c0,.023.012.043.013.067a1.075,1.075,0,0,0,.056.278c.012.033.02.068.035.1a1.075,1.075,0,0,0,.215.315L11.067,64.172a1.08,1.08,0,0,0,.756.315H54.814a3.224,3.224,0,0,0,3.224-3.224V58.039h3.224a3.224,3.224,0,0,0,3.224-3.224V16.122A3.224,3.224,0,0,0,61.263,12.9ZM26.87,9.136a6.986,6.986,0,1,1,13.972,0V12.9H37.618v-2.15a4.3,4.3,0,1,0-8.6,0V12.9H26.87Zm4.3,12.36h9.673v9.136a4.837,4.837,0,0,1-9.673,0Zm0-2.15v-4.3h9.673v4.3Zm4.3-6.449h-4.3v-2.15a2.15,2.15,0,1,1,4.3,0ZM8.6,16.122a1.075,1.075,0,0,1,1.075-1.075H29.019v4.3H8.6ZM3.669,53.739h6a1.075,1.075,0,0,1,1.075,1.075v6Zm52.22,7.524a1.075,1.075,0,0,1-1.075,1.075H12.9V54.814A3.224,3.224,0,0,0,9.673,51.59H2.15V22.571A1.075,1.075,0,0,1,3.224,21.5H29.019v9.136a6.986,6.986,0,0,0,13.972,0V21.5H54.814a1.075,1.075,0,0,1,1.075,1.075Zm6.449-6.449a1.075,1.075,0,0,1-1.075,1.075H58.039V22.571a3.224,3.224,0,0,0-3.224-3.224H42.992v-4.3H61.263a1.075,1.075,0,0,1,1.075,1.075Z"/>
      </g>
    </g>
  </g>
</svg>
