<svg xmlns="http://www.w3.org/2000/svg" xmlns:xlink="http://www.w3.org/1999/xlink" width="113" height="113" viewBox="0 0 113 113">
  <defs>
    <filter id="Trazado_982547" x="0" y="0" width="113" height="113" filterUnits="userSpaceOnUse">
      <feOffset dy="3" input="SourceAlpha"/>
      <feGaussianBlur stdDeviation="3" result="blur"/>
      <feFlood flood-opacity="0.161"/>
      <feComposite operator="in" in2="blur"/>
      <feComposite in="SourceGraphic"/>
    </filter>
  </defs>
  <g id="Grupo_1225173" data-name="Grupo 1225173" transform="translate(-271 -4740.996)">
    <g id="Grupo_1224643" data-name="Grupo 1224643" transform="translate(0 1927)">
      <g id="Grupo_1224291" data-name="Grupo 1224291" transform="translate(0 859.245)">
        <g id="Grupo_1224091" data-name="Grupo 1224091" transform="translate(-84.49 -2620.317)">
          <g id="Grupo_1223183" data-name="Grupo 1223183" transform="translate(364.49 4581.069)">
            <g id="Grupo_1211217" data-name="Grupo 1211217" transform="translate(0)">
              <g id="Grupo_1210736" data-name="Grupo 1210736">
                <g id="Grupo_1210537" data-name="Grupo 1210537">
                  <g id="Grupo_1164202" data-name="Grupo 1164202">
                    <g id="Grupo_1158168" data-name="Grupo 1158168">
                      <g id="Grupo_1152576" data-name="Grupo 1152576">
                        <g id="Grupo_1148633" data-name="Grupo 1148633">
                          <g id="Grupo_1148525" data-name="Grupo 1148525">
                            <g transform="matrix(1, 0, 0, 1, -9, -6)" filter="url(#Trazado_982547)">
                              <g id="Trazado_982547-2" data-name="Trazado 982547" transform="translate(9 6)" fill="#fdfbec">
                                <path d="M 47.49999618530273 93.5 C 41.28936767578125 93.5 35.26533126831055 92.28396606445312 29.59518241882324 89.88570404052734 C 24.11771583557129 87.56893157958984 19.19812965393066 84.251953125 14.97308921813965 80.02690124511719 C 10.74803638458252 75.80186462402344 7.431062698364258 70.88227844238281 5.114289283752441 65.40480804443359 C 2.716022968292236 59.73466110229492 1.499996185302734 53.71062469482422 1.499996185302734 47.49999618530273 C 1.499996185302734 41.28936767578125 2.716022968292236 35.26533126831055 5.114289283752441 29.59518241882324 C 7.431062698364258 24.11771583557129 10.74803638458252 19.19812965393066 14.97308921813965 14.97308921813965 C 19.19812965393066 10.74803638458252 24.11771583557129 7.431062698364258 29.59518241882324 5.114289283752441 C 35.26533126831055 2.716022968292236 41.28936767578125 1.499996185302734 47.49999618530273 1.499996185302734 C 53.71062469482422 1.499996185302734 59.73466110229492 2.716022968292236 65.40480804443359 5.114289283752441 C 70.88227844238281 7.431062698364258 75.80186462402344 10.74803638458252 80.02690124511719 14.97308921813965 C 84.251953125 19.19812965393066 87.56893157958984 24.11771583557129 89.88570404052734 29.59518241882324 C 92.28396606445312 35.26533126831055 93.5 41.28936767578125 93.5 47.49999618530273 C 93.5 53.71062469482422 92.28396606445312 59.73466110229492 89.88570404052734 65.40480804443359 C 87.56893157958984 70.88227844238281 84.251953125 75.80186462402344 80.02690124511719 80.02690124511719 C 75.80186462402344 84.251953125 70.88227844238281 87.56893157958984 65.40480804443359 89.88570404052734 C 59.73466110229492 92.28396606445312 53.71062469482422 93.5 47.49999618530273 93.5 Z" stroke="none"/>
                                <path d="M 47.49999618530273 2.999992370605469 C 41.4912109375 2.999992370605469 35.66376495361328 4.1761474609375 30.17950439453125 6.495796203613281 C 24.88084411621094 8.736953735351562 20.12152099609375 11.94598388671875 16.03375244140625 16.03375244140625 C 11.94598388671875 20.12152099609375 8.736953735351562 24.88084411621094 6.495796203613281 30.17950439453125 C 4.1761474609375 35.66376495361328 2.999992370605469 41.4912109375 2.999992370605469 47.49999618530273 C 2.999992370605469 53.50878143310547 4.1761474609375 59.33622741699219 6.495796203613281 64.82048797607422 C 8.736953735351562 70.11914825439453 11.94598388671875 74.87847137451172 16.03375244140625 78.96623992919922 C 20.12152099609375 83.05400848388672 24.88084411621094 86.26304626464844 30.17950439453125 88.50419616699219 C 35.66376495361328 90.82384490966797 41.4912109375 92 47.49999618530273 92 C 53.50878143310547 92 59.33622741699219 90.82384490966797 64.82048797607422 88.50419616699219 C 70.11914825439453 86.26304626464844 74.87847137451172 83.05400848388672 78.96623992919922 78.96623992919922 C 83.05400848388672 74.87847137451172 86.26304626464844 70.11914825439453 88.50419616699219 64.82048797607422 C 90.82384490966797 59.33622741699219 92 53.50878143310547 92 47.49999618530273 C 92 41.4912109375 90.82384490966797 35.66376495361328 88.50419616699219 30.17950439453125 C 86.26304626464844 24.88084411621094 83.05400848388672 20.12152099609375 78.96623992919922 16.03375244140625 C 74.87847137451172 11.94598388671875 70.11914825439453 8.736953735351562 64.82048797607422 6.495796203613281 C 59.33622741699219 4.1761474609375 53.50878143310547 2.999992370605469 47.49999618530273 2.999992370605469 M 47.49999618530273 -7.62939453125e-06 C 73.7335205078125 -7.62939453125e-06 95 21.26647186279297 95 47.49999618530273 C 95 73.7335205078125 73.7335205078125 95 47.49999618530273 95 C 21.26647186279297 95 -7.62939453125e-06 73.7335205078125 -7.62939453125e-06 47.49999618530273 C -7.62939453125e-06 21.26647186279297 21.26647186279297 -7.62939453125e-06 47.49999618530273 -7.62939453125e-06 Z" stroke="none" fill="#83793c"/>
                              </g>
                            </g>
                          </g>
                        </g>
                      </g>
                    </g>
                  </g>
                </g>
              </g>
            </g>
          </g>
        </g>
      </g>
    </g>
    <g id="gear_14216811" transform="translate(296 4761)">
      <path id="Trazado_1055397" data-name="Trazado 1055397" d="M58.92,11.11C56,12.1,55.1,13,54.11,15.92a.11.11,0,0,1-.22,0C52.9,13,52,12.1,49.08,11.11a.11.11,0,1,1,0-.22C52,9.9,52.9,9,53.89,6.08a.11.11,0,0,1,.22,0C55.1,9,56,9.9,58.92,10.89a.11.11,0,1,1,0,.22Z" fill="#fcf6bd"/>
      <path id="Trazado_1055398" data-name="Trazado 1055398" d="M14.92,11.11C12,12.1,11.1,13,10.11,15.92a.11.11,0,1,1-.22,0C8.9,13,8,12.1,5.08,11.11a.11.11,0,1,1,0-.22C8,9.9,8.9,9,9.89,6.08a.11.11,0,0,1,.22,0C11.1,9,12,9.9,14.92,10.89a.11.11,0,0,1,0,.22Z" fill="#fcf6bd"/>
      <path id="Trazado_1055399" data-name="Trazado 1055399" d="M31.51,19.84a6.31,6.31,0,0,0-3,1V48.5h3Z" fill="#fe938c"/>
      <path id="Trazado_1055400" data-name="Trazado 1055400" d="M32.01,60.3l3.31-10.8H28.68Z" fill="#4281a4"/>
      <path id="Trazado_1055401" data-name="Trazado 1055401" d="M34.25,13.36a.49.49,0,0,1,.55-.28c.23.05.47.13.7.19V10.5h-3v4.21A2.49,2.49,0,0,0,34.25,13.36Z" fill="#fe938c"/>
      <path id="Trazado_1055402" data-name="Trazado 1055402" d="M27.5,31V21.61a6.46,6.46,0,0,0,0,9.35Z" fill="#fcf6bd"/>
      <path id="Trazado_1055403" data-name="Trazado 1055403" d="M29.75,13.36a2.47,2.47,0,0,0,1.76,1.35V10.5h-3v2.77c.23-.07.47-.14.7-.19A.5.5,0,0,1,29.75,13.36Z" fill="#fe938c"/>
      <path id="Trazado_1055404" data-name="Trazado 1055404" d="M35.5,6a3.5,3.5,0,0,0-7,0V9.5h7Z" fill="#4281a4"/>
      <path id="Trazado_1055405" data-name="Trazado 1055405" d="M8.5,48.41a1.49,1.49,0,0,1,0-2.82V44A2.5,2.5,0,0,1,11,41.5h9a1.5,1.5,0,0,0,0-3H9.69A6,6,0,0,0,6.2,49.38L8.5,51Z" fill="#4281a4"/>
      <path id="Trazado_1055406" data-name="Trazado 1055406" d="M12,58.5A1.5,1.5,0,0,0,10.5,60v1.5h3V60A1.5,1.5,0,0,0,12,58.5Z" fill="#ead2ac"/>
      <path id="Trazado_1055407" data-name="Trazado 1055407" d="M18.5,42.5H11A1.5,1.5,0,0,0,9.5,44v2a.5.5,0,0,1-.5.5.5.5,0,0,0,0,1,.5.5,0,0,1,.5.5v3.5H13A5.51,5.51,0,0,0,18.5,46Z" fill="#ead2ac"/>
      <path id="Trazado_1055408" data-name="Trazado 1055408" d="M2.51,61.5h7V60a2.5,2.5,0,0,1,5,0v1.5h7a9.5,9.5,0,0,0-19,0Z" fill="#fe938c"/>
      <path id="Trazado_1055409" data-name="Trazado 1055409" d="M54.5,51.5V48a.5.5,0,0,1,.5-.5.5.5,0,0,0,0-1,.5.5,0,0,1-.5-.5V44A1.5,1.5,0,0,0,53,42.5H45.5V46A5.51,5.51,0,0,0,51,51.5Z" fill="#ead2ac"/>
      <path id="Trazado_1055410" data-name="Trazado 1055410" d="M32.51,48.5h3V20.82a6.38,6.38,0,0,0-3-1Z" fill="#fe938c"/>
      <path id="Trazado_1055411" data-name="Trazado 1055411" d="M52,52.5a9.51,9.51,0,0,0-9.49,9h7V60a2.5,2.5,0,0,1,5,0v1.5h7A9.51,9.51,0,0,0,52,52.5Z" fill="#fe938c"/>
      <path id="Trazado_1055412" data-name="Trazado 1055412" d="M52,58.5A1.5,1.5,0,0,0,50.5,60v1.5h3V60A1.5,1.5,0,0,0,52,58.5Z" fill="#ead2ac"/>
      <path id="Trazado_1055413" data-name="Trazado 1055413" d="M36.5,21.6V31a6.48,6.48,0,0,0,0-9.36Z" fill="#fcf6bd"/>
      <path id="Trazado_1055414" data-name="Trazado 1055414" d="M55.5,44v1.59a1.49,1.49,0,0,1,0,2.82V51l2.3-1.65A6,6,0,0,0,54.31,38.5H44a1.5,1.5,0,0,0,0,3h9A2.5,2.5,0,0,1,55.5,44Z" fill="#4281a4"/>
      <path id="Trazado_1055415" data-name="Trazado 1055415" d="M42.67,32.78a12.72,12.72,0,0,0,1.48-3.53,3.49,3.49,0,0,1,0-5.93,12.72,12.72,0,0,0-1.48-3.53,3.48,3.48,0,0,1-4.17-4.18,12.61,12.61,0,0,0-2.65-1.21c-.3-.1-.6-.19-.89-.26a3.49,3.49,0,0,1-5.92,0c-.29.07-.59.16-.88.25a13,13,0,0,0-2.66,1.22,3.48,3.48,0,0,1-4.17,4.18,12.72,12.72,0,0,0-1.48,3.53,3.49,3.49,0,0,1,0,5.93,12.72,12.72,0,0,0,1.48,3.53A3.48,3.48,0,0,1,25.5,37a12.22,12.22,0,0,0,2,1V32.26a7.47,7.47,0,0,1,.22-12.13,7.6,7.6,0,0,1,8.57,0,7.48,7.48,0,0,1,.21,12.13v5.66a12.22,12.22,0,0,0,2-1,3.48,3.48,0,0,1,4.17-4.18Z" fill="#9cafb7"/>
      <path id="Trazado_1055416" data-name="Trazado 1055416" d="M55.06,5.76a1.12,1.12,0,0,0-2.12,0c-.89,2.63-1.55,3.29-4.18,4.18a1.12,1.12,0,0,0,0,2.12c2.63.89,3.29,1.55,4.18,4.18a1.12,1.12,0,0,0,2.12,0c.89-2.63,1.55-3.29,4.18-4.18a1.12,1.12,0,0,0,0-2.12C56.61,9.05,56,8.39,55.06,5.76ZM54,13.58A5.85,5.85,0,0,0,51.42,11,5.85,5.85,0,0,0,54,8.42,5.85,5.85,0,0,0,56.58,11,5.85,5.85,0,0,0,54,13.58Z"/>
      <path id="Trazado_1055417" data-name="Trazado 1055417" d="M4,11a1.12,1.12,0,0,0,.76,1.06c2.63.89,3.29,1.55,4.18,4.18a1.12,1.12,0,0,0,2.12,0c.89-2.63,1.55-3.29,4.18-4.18a1.12,1.12,0,0,0,0-2.12C12.61,9.05,12,8.39,11.06,5.76a1.12,1.12,0,0,0-2.12,0C8.05,8.39,7.39,9.05,4.76,9.94A1.12,1.12,0,0,0,4,11Zm6-2.58A5.85,5.85,0,0,0,12.58,11,5.85,5.85,0,0,0,10,13.58,5.85,5.85,0,0,0,7.42,11,5.85,5.85,0,0,0,10,8.42Z"/>
      <path id="Trazado_1055418" data-name="Trazado 1055418" d="M56.65,52.05l2-1.45A7.5,7.5,0,0,0,54.31,37H44a3,3,0,0,0,0,6v3a7,7,0,0,0,3.43,6A11,11,0,0,0,41,62a1,1,0,0,0,1,1H62a1,1,0,0,0,1-1,11,11,0,0,0-6.35-9.95ZM43,40a1,1,0,0,1,1-1H54.31a5.5,5.5,0,0,1,3.2,10L56,50.06V48.73a2,2,0,0,0,0-3.46V44a3,3,0,0,0-3-3H44A1,1,0,0,1,43,40Zm3,6V43h7a1,1,0,0,1,1,1v2a1,1,0,0,0,1,1,1,1,0,0,0-1,1v3H51A5,5,0,0,1,46,46Zm7,15H51V60a1,1,0,0,1,2,0Zm2,0V60a3,3,0,0,0-6,0v1H43.06a9,9,0,0,1,17.88,0Z"/>
      <path id="Trazado_1055419" data-name="Trazado 1055419" d="M1,62a1,1,0,0,0,1,1H22a1,1,0,0,0,1-1,11,11,0,0,0-6.43-10A7,7,0,0,0,20,46V43a3,3,0,0,0,0-6H9.69A7.5,7.5,0,0,0,5.33,50.6l2,1.45A11,11,0,0,0,1,62Zm12-1H11V60a1,1,0,0,1,2,0Zm5-15a5,5,0,0,1-5,5H10V48a1,1,0,0,0-1-1,1,1,0,0,0,1-1V44a1,1,0,0,1,1-1h7ZM6.49,49a5.5,5.5,0,0,1,3.2-10H20a1,1,0,0,1,0,2H11a3,3,0,0,0-3,3v1.27a2,2,0,0,0,0,3.46v1.33ZM12,53a9,9,0,0,1,8.94,8H15V60a3,3,0,0,0-6,0v1H3.06A9,9,0,0,1,12,53Z"/>
      <path id="Trazado_1055420" data-name="Trazado 1055420" d="M42.56,34.3a1,1,0,0,0,1.17-.39,14.16,14.16,0,0,0,2-4.71,1,1,0,0,0-.55-1.11,2,2,0,0,1,0-3.61,1,1,0,0,0,.55-1.11,14,14,0,0,0-2-4.71,1,1,0,0,0-1.17-.39A2,2,0,0,1,40,15.72a1,1,0,0,0-.39-1.17A14.12,14.12,0,0,0,37,13.22V6A5,5,0,0,0,27,6v7.22a13.82,13.82,0,0,0-2.63,1.33A1,1,0,0,0,24,15.72a2,2,0,0,1-2.54,2.55,1,1,0,0,0-1.17.39,14,14,0,0,0-2,4.71,1,1,0,0,0,.55,1.11,2,2,0,0,1,0,3.61,1,1,0,0,0-.55,1.11,14.16,14.16,0,0,0,2,4.71,1,1,0,0,0,1.17.39A2,2,0,0,1,24,36.85,1,1,0,0,0,24.37,38,13.82,13.82,0,0,0,27,39.35V49a1.35,1.35,0,0,0,0,.29l4,13A1,1,0,0,0,32,63h0a1,1,0,0,0,1-.71l4-13A.92.92,0,0,0,37,49V39.35A13.82,13.82,0,0,0,39.63,38,1,1,0,0,0,40,36.85a2,2,0,0,1,2.54-2.55ZM29,6a3,3,0,0,1,6,0V9H29Zm6,5v1.62h-.1a1,1,0,0,0-1.1.55A2.06,2.06,0,0,1,33,14V11Zm-6,0h2v3a2,2,0,0,1-.81-.87,1,1,0,0,0-1.1-.55h-.1ZM27,29.59A6,6,0,0,1,27,23Zm5,29L29.35,50h5.3ZM29,48V21.11a6,6,0,0,1,2-.73V48Zm6,0H33V20.39a5.74,5.74,0,0,1,2,.72Zm4.07-14.65a4,4,0,0,0-1.13,3.36c-.31.17-.62.33-.94.47V32.5a8,8,0,0,0-5-14.22,7.87,7.87,0,0,0-4.57,1.44A8,8,0,0,0,27,32.5v4.68c-.32-.14-.63-.3-.94-.47a4,4,0,0,0-4.48-4.49,12,12,0,0,1-1.16-2.76,4,4,0,0,0,0-6.35,12,12,0,0,1,1.16-2.76,3.981,3.981,0,0,0,4.48-4.48,11.11,11.11,0,0,1,2.26-1l.51-.16a4,4,0,0,0,6.34,0l.53.16a11.45,11.45,0,0,1,2.24,1,3.981,3.981,0,0,0,4.48,4.48,12,12,0,0,1,1.16,2.76,4,4,0,0,0,0,6.35,12,12,0,0,1-1.16,2.76A4,4,0,0,0,39.07,33.35ZM37,29.59V23a6,6,0,0,1,0,6.62Z"/>
    </g>
  </g>
</svg>
