<svg xmlns="http://www.w3.org/2000/svg" xmlns:xlink="http://www.w3.org/1999/xlink" width="113" height="113" viewBox="0 0 113 113">
  <defs>
    <filter id="Trazado_982547" x="0" y="0" width="113" height="113" filterUnits="userSpaceOnUse">
      <feOffset dy="3" input="SourceAlpha"/>
      <feGaussianBlur stdDeviation="3" result="blur"/>
      <feFlood flood-opacity="0.161"/>
      <feComposite operator="in" in2="blur"/>
      <feComposite in="SourceGraphic"/>
    </filter>
  </defs>
  <g id="Grupo_1225176" data-name="Grupo 1225176" transform="translate(-585.509 -4740.996)">
    <g id="Grupo_1224647" data-name="Grupo 1224647" transform="translate(0 1927)">
      <g id="Grupo_1224292" data-name="Grupo 1224292" transform="translate(0 859.245)">
        <g id="Grupo_1224092" data-name="Grupo 1224092" transform="translate(-88.49 -2620.317)">
          <g id="Grupo_1223184" data-name="Grupo 1223184" transform="translate(683 4581.069)">
            <g id="Grupo_1211216" data-name="Grupo 1211216" transform="translate(0)">
              <g id="Grupo_1210737" data-name="Grupo 1210737">
                <g id="Grupo_1210537" data-name="Grupo 1210537">
                  <g id="Grupo_1164202" data-name="Grupo 1164202">
                    <g id="Grupo_1158168" data-name="Grupo 1158168">
                      <g id="Grupo_1152576" data-name="Grupo 1152576">
                        <g id="Grupo_1148633" data-name="Grupo 1148633">
                          <g id="Grupo_1148525" data-name="Grupo 1148525">
                            <g transform="matrix(1, 0, 0, 1, -9, -6)" filter="url(#Trazado_982547)">
                              <g id="Trazado_982547-2" data-name="Trazado 982547" transform="translate(9 6)" fill="#fdfbec">
                                <path d="M 47.49999618530273 93.5 C 41.28936767578125 93.5 35.26533126831055 92.28396606445312 29.59518241882324 89.88570404052734 C 24.11771583557129 87.56893157958984 19.19812965393066 84.251953125 14.97308921813965 80.02690124511719 C 10.74803638458252 75.80186462402344 7.431062698364258 70.88227844238281 5.114289283752441 65.40480804443359 C 2.716022968292236 59.73466110229492 1.499996185302734 53.71062469482422 1.499996185302734 47.49999618530273 C 1.499996185302734 41.28936767578125 2.716022968292236 35.26533126831055 5.114289283752441 29.59518241882324 C 7.431062698364258 24.11771583557129 10.74803638458252 19.19812965393066 14.97308921813965 14.97308921813965 C 19.19812965393066 10.74803638458252 24.11771583557129 7.431062698364258 29.59518241882324 5.114289283752441 C 35.26533126831055 2.716022968292236 41.28936767578125 1.499996185302734 47.49999618530273 1.499996185302734 C 53.71062469482422 1.499996185302734 59.73466110229492 2.716022968292236 65.40480804443359 5.114289283752441 C 70.88227844238281 7.431062698364258 75.80186462402344 10.74803638458252 80.02690124511719 14.97308921813965 C 84.251953125 19.19812965393066 87.56893157958984 24.11771583557129 89.88570404052734 29.59518241882324 C 92.28396606445312 35.26533126831055 93.5 41.28936767578125 93.5 47.49999618530273 C 93.5 53.71062469482422 92.28396606445312 59.73466110229492 89.88570404052734 65.40480804443359 C 87.56893157958984 70.88227844238281 84.251953125 75.80186462402344 80.02690124511719 80.02690124511719 C 75.80186462402344 84.251953125 70.88227844238281 87.56893157958984 65.40480804443359 89.88570404052734 C 59.73466110229492 92.28396606445312 53.71062469482422 93.5 47.49999618530273 93.5 Z" stroke="none"/>
                                <path d="M 47.49999618530273 2.999992370605469 C 41.4912109375 2.999992370605469 35.66376495361328 4.1761474609375 30.17950439453125 6.495796203613281 C 24.88084411621094 8.736953735351562 20.12152099609375 11.94598388671875 16.03375244140625 16.03375244140625 C 11.94598388671875 20.12152099609375 8.736953735351562 24.88084411621094 6.495796203613281 30.17950439453125 C 4.1761474609375 35.66376495361328 2.999992370605469 41.4912109375 2.999992370605469 47.49999618530273 C 2.999992370605469 53.50878143310547 4.1761474609375 59.33622741699219 6.495796203613281 64.82048797607422 C 8.736953735351562 70.11914825439453 11.94598388671875 74.87847137451172 16.03375244140625 78.96623992919922 C 20.12152099609375 83.05400848388672 24.88084411621094 86.26304626464844 30.17950439453125 88.50419616699219 C 35.66376495361328 90.82384490966797 41.4912109375 92 47.49999618530273 92 C 53.50878143310547 92 59.33622741699219 90.82384490966797 64.82048797607422 88.50419616699219 C 70.11914825439453 86.26304626464844 74.87847137451172 83.05400848388672 78.96623992919922 78.96623992919922 C 83.05400848388672 74.87847137451172 86.26304626464844 70.11914825439453 88.50419616699219 64.82048797607422 C 90.82384490966797 59.33622741699219 92 53.50878143310547 92 47.49999618530273 C 92 41.4912109375 90.82384490966797 35.66376495361328 88.50419616699219 30.17950439453125 C 86.26304626464844 24.88084411621094 83.05400848388672 20.12152099609375 78.96623992919922 16.03375244140625 C 74.87847137451172 11.94598388671875 70.11914825439453 8.736953735351562 64.82048797607422 6.495796203613281 C 59.33622741699219 4.1761474609375 53.50878143310547 2.999992370605469 47.49999618530273 2.999992370605469 M 47.49999618530273 -7.62939453125e-06 C 73.7335205078125 -7.62939453125e-06 95 21.26647186279297 95 47.49999618530273 C 95 73.7335205078125 73.7335205078125 95 47.49999618530273 95 C 21.26647186279297 95 -7.62939453125e-06 73.7335205078125 -7.62939453125e-06 47.49999618530273 C -7.62939453125e-06 21.26647186279297 21.26647186279297 -7.62939453125e-06 47.49999618530273 -7.62939453125e-06 Z" stroke="none" fill="#83793c"/>
                              </g>
                            </g>
                          </g>
                        </g>
                      </g>
                    </g>
                  </g>
                </g>
              </g>
            </g>
          </g>
        </g>
      </g>
    </g>
    <g id="book_7287954" transform="translate(598.204 4729.778)">
      <g id="Grupo_1225174" data-name="Grupo 1225174" transform="translate(10 35.412)">
        <path id="Trazado_1055421" data-name="Trazado 1055421" d="M107.594,327.42h0v-4.27a1.377,1.377,0,0,0-1.7-1.338l-26.4,6.452-26.4-6.452a1.377,1.377,0,0,0-1.7,1.338v4.27h0l28.107,6.87Z" transform="translate(-45.682 -282.34)" fill="#fff"/>
        <path id="Trazado_1055422" data-name="Trazado 1055422" d="M75.907,355.447l-4,.976-28.107,6.87L15.7,356.424l-4-.976a1.377,1.377,0,0,0-1.7,1.337v3.363a1.377,1.377,0,0,0,1.051,1.337l29.265,7.153a3.494,3.494,0,0,0,6.979,0l5.726-1.477L65.1,364.226l11.457-2.742a1.377,1.377,0,0,0,1.051-1.337v-3.363A1.377,1.377,0,0,0,75.907,355.447Z" transform="translate(-10 -311.344)" fill="#ff7d97"/>
        <path id="Trazado_1055423" data-name="Trazado 1055423" d="M127.75,35.412H86.855a3.218,3.218,0,0,0-3.218,3.218V62.394a3.218,3.218,0,0,0,3.218,3.218H99.316l6.935,6.548a1.532,1.532,0,0,0,2.1,0l6.935-6.548H127.75a3.218,3.218,0,0,0,3.218-3.218V38.63A3.218,3.218,0,0,0,127.75,35.412Z" transform="translate(-73.497 -35.412)" fill="#ffee80"/>
      </g>
      <g id="Grupo_1225175" data-name="Grupo 1225175" transform="translate(10 35.412)">
        <path id="Trazado_1055424" data-name="Trazado 1055424" d="M107.594,327.419v-4.27a1.377,1.377,0,0,0-1.7-1.338l-26.4,6.452-26.4-6.452a1.377,1.377,0,0,0-1.7,1.338v4.27" transform="translate(-45.682 -282.34)" fill="none" stroke="#000" stroke-linecap="round" stroke-linejoin="round" stroke-miterlimit="10" stroke-width="1"/>
        <line id="Línea_1057" data-name="Línea 1057" y2="6.025" transform="translate(33.805 45.924)" fill="none" stroke="#000" stroke-linecap="round" stroke-linejoin="round" stroke-miterlimit="10" stroke-width="1"/>
        <path id="Trazado_1055425" data-name="Trazado 1055425" d="M53.021,367.16l-5.726,1.477a3.494,3.494,0,0,1-6.979,0l-29.265-7.153A1.377,1.377,0,0,1,10,360.147v-3.363a1.377,1.377,0,0,1,1.7-1.337l32.1,7.846,32.1-7.846a1.377,1.377,0,0,1,1.7,1.337v3.363a1.377,1.377,0,0,1-1.051,1.337L65.1,364.226" transform="translate(-10 -311.344)" fill="none" stroke="#000" stroke-linecap="round" stroke-linejoin="round" stroke-miterlimit="10" stroke-width="1"/>
        <line id="Línea_1058" data-name="Línea 1058" transform="translate(49.053 54.348)" fill="none" stroke="#000" stroke-linecap="round" stroke-linejoin="round" stroke-miterlimit="10" stroke-width="1"/>
        <path id="Trazado_1055426" data-name="Trazado 1055426" d="M127.75,35.412H86.855a3.218,3.218,0,0,0-3.218,3.218V62.394a3.218,3.218,0,0,0,3.218,3.218H99.316l6.935,6.548a1.532,1.532,0,0,0,2.1,0l6.935-6.548H127.75a3.218,3.218,0,0,0,3.218-3.218V38.63A3.218,3.218,0,0,0,127.75,35.412Z" transform="translate(-73.497 -35.412)" fill="none" stroke="#000" stroke-linecap="round" stroke-linejoin="round" stroke-miterlimit="10" stroke-width="1"/>
        <line id="Línea_1059" data-name="Línea 1059" x1="28.084" transform="translate(19.763 6.75)" fill="none" stroke="#000" stroke-linecap="round" stroke-linejoin="round" stroke-miterlimit="10" stroke-width="1"/>
        <line id="Línea_1060" data-name="Línea 1060" x1="28.084" transform="translate(19.763 12.258)" fill="none" stroke="#000" stroke-linecap="round" stroke-linejoin="round" stroke-miterlimit="10" stroke-width="1"/>
        <line id="Línea_1061" data-name="Línea 1061" x1="28.084" transform="translate(19.763 17.766)" fill="none" stroke="#000" stroke-linecap="round" stroke-linejoin="round" stroke-miterlimit="10" stroke-width="1"/>
        <line id="Línea_1062" data-name="Línea 1062" x1="14.042" transform="translate(19.763 23.274)" fill="none" stroke="#000" stroke-linecap="round" stroke-linejoin="round" stroke-miterlimit="10" stroke-width="1"/>
      </g>
    </g>
  </g>
</svg>
