<svg xmlns="http://www.w3.org/2000/svg" xmlns:xlink="http://www.w3.org/1999/xlink" width="113" height="113" viewBox="0 0 113 113">
  <defs>
    <filter id="Trazado_982547" x="0" y="0" width="113" height="113" filterUnits="userSpaceOnUse">
      <feOffset dy="3" input="SourceAlpha"/>
      <feGaussianBlur stdDeviation="3" result="blur"/>
      <feFlood flood-opacity="0.161"/>
      <feComposite operator="in" in2="blur"/>
      <feComposite in="SourceGraphic"/>
    </filter>
  </defs>
  <g id="Grupo_1225179" data-name="Grupo 1225179" transform="translate(-1216.232 -4740.996)">
    <g id="Grupo_1224650" data-name="Grupo 1224650" transform="translate(0 1927)">
      <g id="Grupo_1224294" data-name="Grupo 1224294" transform="translate(0.723 859.245)">
        <g id="Grupo_1224094" data-name="Grupo 1224094" transform="translate(541.51 -2620.317)">
          <g id="Grupo_1223184" data-name="Grupo 1223184" transform="translate(683 4581.069)">
            <g id="Grupo_1211216" data-name="Grupo 1211216" transform="translate(0)">
              <g id="Grupo_1210737" data-name="Grupo 1210737">
                <g id="Grupo_1210537" data-name="Grupo 1210537">
                  <g id="Grupo_1164202" data-name="Grupo 1164202">
                    <g id="Grupo_1158168" data-name="Grupo 1158168">
                      <g id="Grupo_1152576" data-name="Grupo 1152576">
                        <g id="Grupo_1148633" data-name="Grupo 1148633">
                          <g id="Grupo_1148525" data-name="Grupo 1148525">
                            <g transform="matrix(1, 0, 0, 1, -9, -6)" filter="url(#Trazado_982547)">
                              <g id="Trazado_982547-2" data-name="Trazado 982547" transform="translate(9 6)" fill="#fdfbec">
                                <path d="M 47.49999618530273 93.5 C 41.28936767578125 93.5 35.26533126831055 92.28396606445312 29.59518241882324 89.88570404052734 C 24.11771583557129 87.56893157958984 19.19812965393066 84.251953125 14.97308921813965 80.02690124511719 C 10.74803638458252 75.80186462402344 7.431062698364258 70.88227844238281 5.114289283752441 65.40480804443359 C 2.716022968292236 59.73466110229492 1.499996185302734 53.71062469482422 1.499996185302734 47.49999618530273 C 1.499996185302734 41.28936767578125 2.716022968292236 35.26533126831055 5.114289283752441 29.59518241882324 C 7.431062698364258 24.11771583557129 10.74803638458252 19.19812965393066 14.97308921813965 14.97308921813965 C 19.19812965393066 10.74803638458252 24.11771583557129 7.431062698364258 29.59518241882324 5.114289283752441 C 35.26533126831055 2.716022968292236 41.28936767578125 1.499996185302734 47.49999618530273 1.499996185302734 C 53.71062469482422 1.499996185302734 59.73466110229492 2.716022968292236 65.40480804443359 5.114289283752441 C 70.88227844238281 7.431062698364258 75.80186462402344 10.74803638458252 80.02690124511719 14.97308921813965 C 84.251953125 19.19812965393066 87.56893157958984 24.11771583557129 89.88570404052734 29.59518241882324 C 92.28396606445312 35.26533126831055 93.5 41.28936767578125 93.5 47.49999618530273 C 93.5 53.71062469482422 92.28396606445312 59.73466110229492 89.88570404052734 65.40480804443359 C 87.56893157958984 70.88227844238281 84.251953125 75.80186462402344 80.02690124511719 80.02690124511719 C 75.80186462402344 84.251953125 70.88227844238281 87.56893157958984 65.40480804443359 89.88570404052734 C 59.73466110229492 92.28396606445312 53.71062469482422 93.5 47.49999618530273 93.5 Z" stroke="none"/>
                                <path d="M 47.49999618530273 2.999992370605469 C 41.4912109375 2.999992370605469 35.66376495361328 4.1761474609375 30.17950439453125 6.495796203613281 C 24.88084411621094 8.736953735351562 20.12152099609375 11.94598388671875 16.03375244140625 16.03375244140625 C 11.94598388671875 20.12152099609375 8.736953735351562 24.88084411621094 6.495796203613281 30.17950439453125 C 4.1761474609375 35.66376495361328 2.999992370605469 41.4912109375 2.999992370605469 47.49999618530273 C 2.999992370605469 53.50878143310547 4.1761474609375 59.33622741699219 6.495796203613281 64.82048797607422 C 8.736953735351562 70.11914825439453 11.94598388671875 74.87847137451172 16.03375244140625 78.96623992919922 C 20.12152099609375 83.05400848388672 24.88084411621094 86.26304626464844 30.17950439453125 88.50419616699219 C 35.66376495361328 90.82384490966797 41.4912109375 92 47.49999618530273 92 C 53.50878143310547 92 59.33622741699219 90.82384490966797 64.82048797607422 88.50419616699219 C 70.11914825439453 86.26304626464844 74.87847137451172 83.05400848388672 78.96623992919922 78.96623992919922 C 83.05400848388672 74.87847137451172 86.26304626464844 70.11914825439453 88.50419616699219 64.82048797607422 C 90.82384490966797 59.33622741699219 92 53.50878143310547 92 47.49999618530273 C 92 41.4912109375 90.82384490966797 35.66376495361328 88.50419616699219 30.17950439453125 C 86.26304626464844 24.88084411621094 83.05400848388672 20.12152099609375 78.96623992919922 16.03375244140625 C 74.87847137451172 11.94598388671875 70.11914825439453 8.736953735351562 64.82048797607422 6.495796203613281 C 59.33622741699219 4.1761474609375 53.50878143310547 2.999992370605469 47.49999618530273 2.999992370605469 M 47.49999618530273 -7.62939453125e-06 C 73.7335205078125 -7.62939453125e-06 95 21.26647186279297 95 47.49999618530273 C 95 73.7335205078125 73.7335205078125 95 47.49999618530273 95 C 21.26647186279297 95 -7.62939453125e-06 73.7335205078125 -7.62939453125e-06 47.49999618530273 C -7.62939453125e-06 21.26647186279297 21.26647186279297 -7.62939453125e-06 47.49999618530273 -7.62939453125e-06 Z" stroke="none" fill="#83793c"/>
                              </g>
                            </g>
                          </g>
                        </g>
                      </g>
                    </g>
                  </g>
                </g>
              </g>
            </g>
          </g>
        </g>
      </g>
    </g>
    <g id="board_1731639" transform="translate(1241.827 4760.091)">
      <path id="Trazado_1055427" data-name="Trazado 1055427" d="M212.157,302.078a6.078,6.078,0,1,0-9.118,5.259v6.9h6.078v-6.9A6.07,6.07,0,0,0,212.157,302.078Zm0,0" transform="translate(-174.673 -258.516)" fill="#b8cbd9"/>
      <path id="Trazado_1055428" data-name="Trazado 1055428" d="M200,302.078a6.07,6.07,0,0,0,3.039,5.259v.733c4-.624,7.092-4.878,7.092-10.044,0-.164-.013-.324-.019-.487A6.072,6.072,0,0,0,200,302.078Zm0,0" transform="translate(-174.673 -258.516)" fill="#e8eff4"/>
      <path id="Trazado_1055429" data-name="Trazado 1055429" d="M224,408h6.078v4.052H224Zm0,0" transform="translate(-195.634 -356.333)" fill="#4472b2"/>
      <path id="Trazado_1055430" data-name="Trazado 1055430" d="M120,24h32.418V46.288H120Zm0,0" transform="translate(-104.804 -20.961)" fill="#b8cbd9"/>
      <path id="Trazado_1055431" data-name="Trazado 1055431" d="M120,42.608a20.618,20.618,0,0,0,8.1,1.654,20.013,20.013,0,0,0,20.261-19.755c0-.171-.021-.336-.026-.507H120Zm0,0" transform="translate(-104.804 -20.961)" fill="#e8eff4"/>
      <path id="Trazado_1055432" data-name="Trazado 1055432" d="M192,8h14.183v4.052H192Zm0,0" transform="translate(-167.686 -6.987)" fill="#674025"/>
      <path id="Trazado_1055433" data-name="Trazado 1055433" d="M151.092,200,144,207.092h5.065L156.157,200" transform="translate(-125.765 -174.673)" fill="#976947"/>
      <path id="Trazado_1055434" data-name="Trazado 1055434" d="M261.065,200l7.091,7.092h-5.065L256,200" transform="translate(-223.582 -174.673)" fill="#976947"/>
      <path id="Trazado_1055435" data-name="Trazado 1055435" d="M120,344h2.026a2.026,2.026,0,0,1,0,4.052H120" transform="translate(-104.804 -300.438)" fill="#efbe9a"/>
      <path id="Trazado_1055436" data-name="Trazado 1055436" d="M26.235,418.131v-4.052A6.078,6.078,0,0,0,20.157,408H14.078A6.078,6.078,0,0,0,8,414.078v4.052" transform="translate(-6.987 -356.333)" fill="#d1a339"/>
      <path id="Trazado_1055437" data-name="Trazado 1055437" d="M23.2,418.131v-4.052A6.078,6.078,0,0,0,17.118,408H14.078A6.078,6.078,0,0,0,8,414.078v4.052" transform="translate(-6.987 -356.333)" fill="#f0d365"/>
      <g id="Grupo_1225178" data-name="Grupo 1225178" transform="translate(1.013 39.51)">
        <path id="Trazado_1055438" data-name="Trazado 1055438" d="M56,408v1.013a3.039,3.039,0,1,0,6.078,0V408" transform="translate(-49.922 -395.843)" fill="#db9b7c"/>
        <path id="Trazado_1055439" data-name="Trazado 1055439" d="M12.052,344H10.026a2.026,2.026,0,0,0,0,4.052h2.026" transform="translate(-8 -339.948)" fill="#db9b7c"/>
        <path id="Trazado_1055440" data-name="Trazado 1055440" d="M50.131,312v7.092a5.065,5.065,0,1,1-10.131,0V312" transform="translate(-35.948 -312)" fill="#db9b7c"/>
      </g>
      <path id="Trazado_1055441" data-name="Trazado 1055441" d="M44.052,324.054a5.066,5.066,0,0,0,4.052-4.963V312H40v7.092A5.066,5.066,0,0,0,44.052,324.054Zm0,0" transform="translate(-34.935 -272.49)" fill="#efbe9a"/>
      <path id="Trazado_1055442" data-name="Trazado 1055442" d="M34.131,284.052c0,2.238-3.841,4.052-6.078,4.052H24v-4.052A4.052,4.052,0,0,1,28.052,280h6.078a4.052,4.052,0,0,1,4.052,4.052V288.1a4.052,4.052,0,0,1-4.052-4.052" transform="translate(-20.961 -244.542)" fill="#a66d43"/>
      <path id="Trazado_1055443" data-name="Trazado 1055443" d="M34.131,284.052a4.024,4.024,0,0,0,.173,1.111,4.516,4.516,0,0,0,.075-5.138c-.084,0-.163-.025-.248-.025H28.052A4.052,4.052,0,0,0,24,284.052V287.1a8.445,8.445,0,0,0,4.052,1C30.29,288.1,34.131,286.29,34.131,284.052Zm0,0" transform="translate(-20.961 -244.542)" fill="#c18e59"/>
      <path id="Trazado_1055444" data-name="Trazado 1055444" d="M456,344h2.026a2.026,2.026,0,0,1,0,4.052H456" transform="translate(-398.255 -300.438)" fill="#efbe9a"/>
      <path id="Trazado_1055445" data-name="Trazado 1055445" d="M362.235,418.131v-4.052A6.078,6.078,0,0,0,356.157,408h-6.078A6.078,6.078,0,0,0,344,414.078v4.052" transform="translate(-300.438 -356.333)" fill="#b64f86"/>
      <path id="Trazado_1055446" data-name="Trazado 1055446" d="M359.2,418.131v-4.052A6.078,6.078,0,0,0,353.118,408h-3.039A6.078,6.078,0,0,0,344,414.078v4.052" transform="translate(-300.438 -356.333)" fill="#e087a6"/>
      <path id="Trazado_1055447" data-name="Trazado 1055447" d="M392,408v1.013a3.039,3.039,0,1,0,6.078,0V408" transform="translate(-342.359 -356.333)" fill="#db9b7c"/>
      <path id="Trazado_1055448" data-name="Trazado 1055448" d="M348.052,344h-2.026a2.026,2.026,0,0,0,0,4.052h2.026" transform="translate(-300.438 -300.438)" fill="#db9b7c"/>
      <path id="Trazado_1055449" data-name="Trazado 1055449" d="M386.131,312v7.092a5.065,5.065,0,1,1-10.131,0V312" transform="translate(-328.386 -272.49)" fill="#db9b7c"/>
      <path id="Trazado_1055450" data-name="Trazado 1055450" d="M380.052,324.054a5.066,5.066,0,0,0,4.052-4.963V312H376v7.092A5.066,5.066,0,0,0,380.052,324.054Zm0,0" transform="translate(-328.386 -272.49)" fill="#efbe9a"/>
      <path id="Trazado_1055451" data-name="Trazado 1055451" d="M370.131,284.052c0,2.238-3.841,4.052-6.078,4.052H360v-4.052A4.052,4.052,0,0,1,364.052,280h6.078a4.053,4.053,0,0,1,4.052,4.052V288.1a4.052,4.052,0,0,1-4.052-4.052" transform="translate(-314.412 -244.542)" fill="#a66d43"/>
      <path id="Trazado_1055452" data-name="Trazado 1055452" d="M370.131,284.052a4.022,4.022,0,0,0,.173,1.111,4.516,4.516,0,0,0,.075-5.138c-.084,0-.163-.025-.248-.025h-6.078A4.052,4.052,0,0,0,360,284.052V287.1a8.445,8.445,0,0,0,4.052,1C366.29,288.1,370.131,286.29,370.131,284.052Zm0,0" transform="translate(-314.412 -244.542)" fill="#c18e59"/>
      <path id="Trazado_1055453" data-name="Trazado 1055453" d="M31.2,282.131a5.066,5.066,0,0,1-4.309-2.405,9.476,9.476,0,0,1-5.822,2.405H17.013A1.013,1.013,0,0,1,16,281.118v-4.052A5.071,5.071,0,0,1,21.065,272h6.078a5.071,5.071,0,0,1,5.065,5.065v4.052A1.013,1.013,0,0,1,31.2,282.131ZM18.026,280.1h3.039c2,0,5.065-1.63,5.065-3.039a1.013,1.013,0,0,1,2.026,0,3.045,3.045,0,0,0,2.026,2.866v-2.866a3.043,3.043,0,0,0-3.039-3.039H21.065a3.043,3.043,0,0,0-3.039,3.039Zm0,0" transform="translate(-13.974 -237.555)"/>
      <path id="Trazado_1055454" data-name="Trazado 1055454" d="M38.078,346.131A6.084,6.084,0,0,1,32,340.052v-3.039h2.026v3.039a4.052,4.052,0,0,0,8.1,0V336h2.026v4.052A6.084,6.084,0,0,1,38.078,346.131Zm0,0" transform="translate(-27.948 -293.451)"/>
      <path id="Trazado_1055455" data-name="Trazado 1055455" d="M5.065,342.078H3.039a3.039,3.039,0,1,1,0-6.078H4.052v2.026H3.039a1.013,1.013,0,0,0,0,2.026H5.065Zm0,0" transform="translate(0 -293.451)"/>
      <path id="Trazado_1055456" data-name="Trazado 1055456" d="M122.026,342.078H120v-2.026h2.026a1.013,1.013,0,1,0,0-2.026h-1.013V336h1.013a3.039,3.039,0,1,1,0,6.078Zm0,0" transform="translate(-104.804 -293.451)"/>
      <path id="Trazado_1055457" data-name="Trazado 1055457" d="M19.248,412.157H1.013A1.013,1.013,0,0,1,0,411.144v-4.052A7.1,7.1,0,0,1,7.092,400H13.17a7.1,7.1,0,0,1,7.092,7.091v4.052A1.013,1.013,0,0,1,19.248,412.157ZM2.026,410.131H18.235v-3.039a5.071,5.071,0,0,0-5.065-5.065H7.092a5.071,5.071,0,0,0-5.065,5.065Zm0,0" transform="translate(0 -349.346)"/>
      <path id="Trazado_1055458" data-name="Trazado 1055458" d="M52.052,413.065A4.056,4.056,0,0,1,48,409.013V408h2.026v1.013a2.026,2.026,0,1,0,4.052,0V408H56.1v1.013A4.056,4.056,0,0,1,52.052,413.065Zm0,0" transform="translate(-41.922 -356.333)"/>
      <path id="Trazado_1055459" data-name="Trazado 1055459" d="M32,448h2.026v5.065H32Zm0,0" transform="translate(-27.948 -391.268)"/>
      <path id="Trazado_1055460" data-name="Trazado 1055460" d="M112,448h2.026v5.065H112Zm0,0" transform="translate(-97.817 -391.268)"/>
      <path id="Trazado_1055461" data-name="Trazado 1055461" d="M367.2,282.131a5.066,5.066,0,0,1-4.309-2.405,9.476,9.476,0,0,1-5.822,2.405h-4.052A1.013,1.013,0,0,1,352,281.118v-4.052A5.071,5.071,0,0,1,357.065,272h6.078a5.071,5.071,0,0,1,5.065,5.065v4.052A1.013,1.013,0,0,1,367.2,282.131Zm-13.17-2.026h3.039c2,0,5.065-1.63,5.065-3.039a1.013,1.013,0,0,1,2.026,0,3.045,3.045,0,0,0,2.026,2.866v-2.866a3.043,3.043,0,0,0-3.039-3.039h-6.078a3.043,3.043,0,0,0-3.039,3.039Zm0,0" transform="translate(-307.425 -237.555)"/>
      <path id="Trazado_1055462" data-name="Trazado 1055462" d="M374.078,346.131A6.084,6.084,0,0,1,368,340.052v-3.039h2.026v3.039a4.052,4.052,0,0,0,8.1,0V336h2.026v4.052A6.084,6.084,0,0,1,374.078,346.131Zm0,0" transform="translate(-321.399 -293.451)"/>
      <path id="Trazado_1055463" data-name="Trazado 1055463" d="M341.065,342.078h-2.026a3.039,3.039,0,0,1,0-6.078h1.013v2.026h-1.013a1.013,1.013,0,0,0,0,2.026h2.026Zm0,0" transform="translate(-293.451 -293.451)"/>
      <path id="Trazado_1055464" data-name="Trazado 1055464" d="M458.026,342.078H456v-2.026h2.026a1.013,1.013,0,0,0,0-2.026h-1.013V336h1.013a3.039,3.039,0,1,1,0,6.078Zm0,0" transform="translate(-398.255 -293.451)"/>
      <path id="Trazado_1055465" data-name="Trazado 1055465" d="M355.248,412.157H337.013A1.013,1.013,0,0,1,336,411.144v-4.052A7.1,7.1,0,0,1,343.091,400h6.078a7.1,7.1,0,0,1,7.091,7.091v4.052A1.013,1.013,0,0,1,355.248,412.157Zm-17.222-2.026h16.209v-3.039a5.071,5.071,0,0,0-5.065-5.065h-6.078a5.071,5.071,0,0,0-5.065,5.065Zm0,0" transform="translate(-293.451 -349.346)"/>
      <path id="Trazado_1055466" data-name="Trazado 1055466" d="M388.052,413.065A4.056,4.056,0,0,1,384,409.013V408h2.026v1.013a2.026,2.026,0,0,0,4.052,0V408H392.1v1.013A4.056,4.056,0,0,1,388.052,413.065Zm0,0" transform="translate(-335.372 -356.333)"/>
      <path id="Trazado_1055467" data-name="Trazado 1055467" d="M368,448h2.026v5.065H368Zm0,0" transform="translate(-321.399 -391.268)"/>
      <path id="Trazado_1055468" data-name="Trazado 1055468" d="M448,448h2.026v5.065H448Zm0,0" transform="translate(-391.268 -391.268)"/>
      <path id="Trazado_1055469" data-name="Trazado 1055469" d="M199.2,6.078H185.013A1.013,1.013,0,0,1,184,5.065V1.013A1.013,1.013,0,0,1,185.013,0H199.2a1.013,1.013,0,0,1,1.013,1.013V5.065A1.013,1.013,0,0,1,199.2,6.078Zm-13.17-2.026h12.157V2.026H186.026Zm0,0" transform="translate(-160.699)"/>
      <path id="Trazado_1055470" data-name="Trazado 1055470" d="M145.431,40.314H113.013A1.013,1.013,0,0,1,112,39.3V17.013A1.013,1.013,0,0,1,113.013,16h9.118v2.026h-8.1V38.288h30.392V18.026h-8.1V16h9.118a1.013,1.013,0,0,1,1.013,1.013V39.3A1.013,1.013,0,0,1,145.431,40.314Zm0,0" transform="translate(-97.817 -13.974)"/>
      <path id="Trazado_1055471" data-name="Trazado 1055471" d="M144,64h16.209v2.026H144Zm0,0" transform="translate(-125.765 -55.895)"/>
      <path id="Trazado_1055472" data-name="Trazado 1055472" d="M144,96h16.209v2.026H144Zm0,0" transform="translate(-125.765 -83.843)"/>
      <path id="Trazado_1055473" data-name="Trazado 1055473" d="M144,128h26.34v2.026H144Zm0,0" transform="translate(-125.765 -111.791)"/>
      <path id="Trazado_1055474" data-name="Trazado 1055474" d="M144,160h26.34v2.026H144Zm0,0" transform="translate(-125.765 -139.739)"/>
      <path id="Trazado_1055475" data-name="Trazado 1055475" d="M298.381,59.213a1.036,1.036,0,0,1-.135-.009,1.014,1.014,0,0,1-.827-.684l-1.013-3.039,1.922-.641.358,1.075,2.9-4.356,1.686,1.124-4.052,6.078a1.012,1.012,0,0,1-.843.452Zm0,0" transform="translate(-258.871 -45.03)"/>
      <path id="Trazado_1055476" data-name="Trazado 1055476" d="M142.077,203.165h-5.065a1.013,1.013,0,0,1-.716-1.729l7.092-7.092,1.433,1.433-5.362,5.362h2.2l6.795-6.795,1.433,1.433-7.092,7.092A1.01,1.01,0,0,1,142.077,203.165Zm0,0" transform="translate(-118.776 -169.733)"/>
      <path id="Trazado_1055477" data-name="Trazado 1055477" d="M263.217,203.165h-5.065a1.01,1.01,0,0,1-.716-.3l-7.091-7.092,1.433-1.433,6.795,6.795h2.2l-5.362-5.362,1.433-1.433,7.092,7.092a1.013,1.013,0,0,1-.716,1.729Zm0,0" transform="translate(-218.642 -169.733)"/>
      <path id="Trazado_1055478" data-name="Trazado 1055478" d="M202.131,308.261h-6.078a1.013,1.013,0,0,1-1.013-1.013V300.9a7.092,7.092,0,1,1,8.1,0v6.344A1.013,1.013,0,0,1,202.131,308.261Zm-5.065-2.026h4.052v-5.886a1.011,1.011,0,0,1,.506-.876,5.065,5.065,0,1,0-5.063,0,1.012,1.012,0,0,1,.506.876Zm0,0" transform="translate(-167.686 -251.529)"/>
      <path id="Trazado_1055479" data-name="Trazado 1055479" d="M200,400h12.157v2.026H200Zm0,0" transform="translate(-174.673 -349.346)"/>
      <path id="Trazado_1055480" data-name="Trazado 1055480" d="M240,440h2.026v3.039H240Zm0,0" transform="translate(-209.608 -384.281)"/>
      <path id="Trazado_1055481" data-name="Trazado 1055481" d="M240,336h2.026v9.118H240Zm0,0" transform="translate(-209.608 -293.451)"/>
      <path id="Trazado_1055482" data-name="Trazado 1055482" d="M152,352h7.092v2.026H152Zm0,0" transform="translate(-132.752 -307.425)"/>
      <path id="Trazado_1055483" data-name="Trazado 1055483" d="M288,352h7.092v2.026H288Zm0,0" transform="translate(-251.529 -307.425)"/>
    </g>
  </g>
</svg>
