<svg xmlns="http://www.w3.org/2000/svg" xmlns:xlink="http://www.w3.org/1999/xlink" width="113" height="113" viewBox="0 0 113 113">
  <defs>
    <filter id="Trazado_982547" x="0" y="0" width="113" height="113" filterUnits="userSpaceOnUse">
      <feOffset dy="3" input="SourceAlpha"/>
      <feGaussianBlur stdDeviation="3" result="blur"/>
      <feFlood flood-opacity="0.161"/>
      <feComposite operator="in" in2="blur"/>
      <feComposite in="SourceGraphic"/>
    </filter>
  </defs>
  <g id="Grupo_1225620" data-name="Grupo 1225620" transform="translate(-585.509 -9590.975)">
    <g id="Grupo_1225029" data-name="Grupo 1225029" transform="translate(0 6776.979)">
      <g id="Grupo_1224292" data-name="Grupo 1224292" transform="translate(0 859.245)">
        <g id="Grupo_1224092" data-name="Grupo 1224092" transform="translate(-88.49 -2620.317)">
          <g id="Grupo_1223184" data-name="Grupo 1223184" transform="translate(683 4581.069)">
            <g id="Grupo_1211216" data-name="Grupo 1211216" transform="translate(0)">
              <g id="Grupo_1210737" data-name="Grupo 1210737">
                <g id="Grupo_1210537" data-name="Grupo 1210537">
                  <g id="Grupo_1164202" data-name="Grupo 1164202">
                    <g id="Grupo_1158168" data-name="Grupo 1158168">
                      <g id="Grupo_1152576" data-name="Grupo 1152576">
                        <g id="Grupo_1148633" data-name="Grupo 1148633">
                          <g id="Grupo_1148525" data-name="Grupo 1148525">
                            <g transform="matrix(1, 0, 0, 1, -9, -6)" filter="url(#Trazado_982547)">
                              <g id="Trazado_982547-2" data-name="Trazado 982547" transform="translate(9 6)" fill="#fdfbec">
                                <path d="M 47.49999618530273 93.5 C 41.28936767578125 93.5 35.26533126831055 92.28396606445312 29.59518241882324 89.88570404052734 C 24.11771583557129 87.56893157958984 19.19812965393066 84.251953125 14.97308921813965 80.02690124511719 C 10.74803638458252 75.80186462402344 7.431062698364258 70.88227844238281 5.114289283752441 65.40480804443359 C 2.716022968292236 59.73466110229492 1.499996185302734 53.71062469482422 1.499996185302734 47.49999618530273 C 1.499996185302734 41.28936767578125 2.716022968292236 35.26533126831055 5.114289283752441 29.59518241882324 C 7.431062698364258 24.11771583557129 10.74803638458252 19.19812965393066 14.97308921813965 14.97308921813965 C 19.19812965393066 10.74803638458252 24.11771583557129 7.431062698364258 29.59518241882324 5.114289283752441 C 35.26533126831055 2.716022968292236 41.28936767578125 1.499996185302734 47.49999618530273 1.499996185302734 C 53.71062469482422 1.499996185302734 59.73466110229492 2.716022968292236 65.40480804443359 5.114289283752441 C 70.88227844238281 7.431062698364258 75.80186462402344 10.74803638458252 80.02690124511719 14.97308921813965 C 84.251953125 19.19812965393066 87.56893157958984 24.11771583557129 89.88570404052734 29.59518241882324 C 92.28396606445312 35.26533126831055 93.5 41.28936767578125 93.5 47.49999618530273 C 93.5 53.71062469482422 92.28396606445312 59.73466110229492 89.88570404052734 65.40480804443359 C 87.56893157958984 70.88227844238281 84.251953125 75.80186462402344 80.02690124511719 80.02690124511719 C 75.80186462402344 84.251953125 70.88227844238281 87.56893157958984 65.40480804443359 89.88570404052734 C 59.73466110229492 92.28396606445312 53.71062469482422 93.5 47.49999618530273 93.5 Z" stroke="none"/>
                                <path d="M 47.49999618530273 2.999992370605469 C 41.4912109375 2.999992370605469 35.66376495361328 4.1761474609375 30.17950439453125 6.495796203613281 C 24.88084411621094 8.736953735351562 20.12152099609375 11.94598388671875 16.03375244140625 16.03375244140625 C 11.94598388671875 20.12152099609375 8.736953735351562 24.88084411621094 6.495796203613281 30.17950439453125 C 4.1761474609375 35.66376495361328 2.999992370605469 41.4912109375 2.999992370605469 47.49999618530273 C 2.999992370605469 53.50878143310547 4.1761474609375 59.33622741699219 6.495796203613281 64.82048797607422 C 8.736953735351562 70.11914825439453 11.94598388671875 74.87847137451172 16.03375244140625 78.96623992919922 C 20.12152099609375 83.05400848388672 24.88084411621094 86.26304626464844 30.17950439453125 88.50419616699219 C 35.66376495361328 90.82384490966797 41.4912109375 92 47.49999618530273 92 C 53.50878143310547 92 59.33622741699219 90.82384490966797 64.82048797607422 88.50419616699219 C 70.11914825439453 86.26304626464844 74.87847137451172 83.05400848388672 78.96623992919922 78.96623992919922 C 83.05400848388672 74.87847137451172 86.26304626464844 70.11914825439453 88.50419616699219 64.82048797607422 C 90.82384490966797 59.33622741699219 92 53.50878143310547 92 47.49999618530273 C 92 41.4912109375 90.82384490966797 35.66376495361328 88.50419616699219 30.17950439453125 C 86.26304626464844 24.88084411621094 83.05400848388672 20.12152099609375 78.96623992919922 16.03375244140625 C 74.87847137451172 11.94598388671875 70.11914825439453 8.736953735351562 64.82048797607422 6.495796203613281 C 59.33622741699219 4.1761474609375 53.50878143310547 2.999992370605469 47.49999618530273 2.999992370605469 M 47.49999618530273 -7.62939453125e-06 C 73.7335205078125 -7.62939453125e-06 95 21.26647186279297 95 47.49999618530273 C 95 73.7335205078125 73.7335205078125 95 47.49999618530273 95 C 21.26647186279297 95 -7.62939453125e-06 73.7335205078125 -7.62939453125e-06 47.49999618530273 C -7.62939453125e-06 21.26647186279297 21.26647186279297 -7.62939453125e-06 47.49999618530273 -7.62939453125e-06 Z" stroke="none" fill="#83793c"/>
                              </g>
                            </g>
                          </g>
                        </g>
                      </g>
                    </g>
                  </g>
                </g>
              </g>
            </g>
          </g>
        </g>
      </g>
    </g>
    <g id="creativity_16859170" transform="translate(512.802 9581.03)">
      <g id="Grupo_1225619" data-name="Grupo 1225619" transform="translate(107.143 34.435)">
        <path id="Trazado_1057564" data-name="Trazado 1057564" d="M200.647,73.95a9.9,9.9,0,0,1,10.113,9.663,9.607,9.607,0,0,1-5.126,8.411,3.24,3.24,0,0,0-1.768,2.9v2.135h-6.436V94.927a3.236,3.236,0,0,0-1.773-2.9,9.606,9.606,0,0,1-5.126-8.411A9.9,9.9,0,0,1,200.647,73.95Z" transform="translate(-178.771 -73.95)" fill="#ffcd05" fill-rule="evenodd"/>
        <path id="Trazado_1057565" data-name="Trazado 1057565" d="M228.763,223.99h4.284a2.472,2.472,0,0,1,2.468,2.463v0a2.472,2.472,0,0,1-2.468,2.463h-4.284a2.471,2.471,0,0,1-2.463-2.463v0A2.471,2.471,0,0,1,228.763,223.99Z" transform="translate(-209.03 -200.878)" fill="gray" fill-rule="evenodd"/>
        <path id="Trazado_1057566" data-name="Trazado 1057566" d="M219.624,213.25h8.466a1.654,1.654,0,1,1,0,3.309h-8.466a1.654,1.654,0,0,1,0-3.309Z" transform="translate(-201.984 -191.792)" fill="gray" fill-rule="evenodd"/>
        <path id="Trazado_1057567" data-name="Trazado 1057567" d="M217.466,375.955h.026a7.107,7.107,0,0,0,7.083-7.087V361.78H210.38v7.087A7.107,7.107,0,0,0,217.466,375.955Z" transform="translate(-195.563 -317.442)" fill="#e9c2b9" fill-rule="evenodd"/>
        <path id="Trazado_1057568" data-name="Trazado 1057568" d="M126.4,398.63h2.04L130.457,400l5.65,3.856L141.753,400l2.018-1.371h2.044c4.21,0,12.121,1.916,12.2,4.7v8.489H114.19v-8.489C114.278,400.548,122.186,398.63,126.4,398.63Z" transform="translate(-114.19 -348.616)" fill="#e9c2b9" fill-rule="evenodd"/>
        <path id="Trazado_1057569" data-name="Trazado 1057569" d="M178.079,398.63h2.04L182.136,400l5.65,3.856L193.432,400l2.018-1.371h2.044a20.939,20.939,0,0,1,2.8.209c-1.89,5.733-1.812,8.518-.262,12.978h-24.58c1.507-4.751,1.463-7.908-.171-12.978A21.159,21.159,0,0,1,178.079,398.63Z" transform="translate(-165.87 -348.616)" fill="#94d9f1" fill-rule="evenodd"/>
        <path id="Trazado_1057570" data-name="Trazado 1057570" d="M125.25,172.342l5.143-2.742,10.943,14.923-5.148,2.747Z" transform="translate(-123.546 -154.866)" fill="#c5c1e1" fill-rule="evenodd"/>
        <path id="Trazado_1057571" data-name="Trazado 1057571" d="M211.159,216.939l-2.868-1.987a1.371,1.371,0,0,1-.2-2.135l20.059-21.087,5.026,3.48-20.514,21.566A1.2,1.2,0,0,1,211.159,216.939Z" transform="translate(-193.269 -173.587)" fill="#9c9" fill-rule="evenodd"/>
        <path id="Trazado_1057572" data-name="Trazado 1057572" d="M349.468,153.72l-1.947,4.624-1.953,4.629-2.951-2.049-2.956-2.043,4.9-2.582Z" transform="translate(-304.928 -141.432)" fill="#bbb" fill-rule="evenodd"/>
        <path id="Trazado_1057573" data-name="Trazado 1057573" d="M192.15,280.268c6.436,0,11.707-4.248,11.707-8.047V260.79H180.44v11.431C180.44,276.02,185.71,280.268,192.15,280.268Z" transform="translate(-170.235 -232.009)" fill="#fdddd4" fill-rule="evenodd"/>
        <path id="Trazado_1057574" data-name="Trazado 1057574" d="M332.46,293.054l1.995-.738c1.1-.407,1.995.279,1.995,1.528v1.078a3.4,3.4,0,0,1-1.995,3.008l-1.995.738Z" transform="translate(-298.838 -258.58)" fill="#e9c2b9" fill-rule="evenodd"/>
        <path id="Trazado_1057575" data-name="Trazado 1057575" d="M158.53,293.054l-1.995-.738c-1.1-.407-1.995.279-1.995,1.528v1.078a3.408,3.408,0,0,0,1.995,3.008l1.995.738Z" transform="translate(-148.324 -258.58)" fill="#e9c2b9" fill-rule="evenodd"/>
      </g>
      <path id="Trazado_1057576" data-name="Trazado 1057576" d="M116.068,69.657a12.4,12.4,0,0,0-1.533-.524c-.266,0-.305.34-.305.568a3.551,3.551,0,0,0,.407,2.306,2.235,2.235,0,0,0,1.433.974V69.657Zm-.55-2.5.55.2v-3.5l-8.3-11.314a1.085,1.085,0,0,1,.419-1.616l5.091-2.711a1.071,1.071,0,0,1,1.371.31l7.436,10.144a2.736,2.736,0,0,1,2.349-3.856,2.177,2.177,0,0,0-1.126-1.362,10.5,10.5,0,0,1-2.392-16.968,11.519,11.519,0,0,1,15.789,0,10.506,10.506,0,0,1-2.392,16.968,2.194,2.194,0,0,0-1.131,1.362,2.741,2.741,0,0,1,2.589,2.546l4.882-5.131a1.074,1.074,0,0,1,.514-1.3l9.808-5.162a1.078,1.078,0,0,1,1.466,1.428l-3.877,9.192a1.077,1.077,0,0,1-1.171.642l-5.764,6.061,0,4.27a4.109,4.109,0,0,1,1.533-.388,2.526,2.526,0,0,1,2.458,2.725,5.263,5.263,0,0,1-.764,3.494c-.912,1.376-1.878,1.58-3.266,2.1-.288,2.337-2.078,4.6-4.572,6.166v1.916h1.838a28.313,28.313,0,0,1,8.637,1.7c2.454.947,4.315,2.323,4.341,4.074V97.64a1.077,1.077,0,0,1-1.074,1.078H106.938a1.08,1.08,0,0,1-1.078-1.078l.014-8.649c.14-1.676,1.939-2.991,4.332-3.913a27.921,27.921,0,0,1,8.942-1.7h1.528V81.458c-2.489-1.568-4.284-3.829-4.567-6.166-1.388-.514-2.354-.721-3.266-2.1a5.24,5.24,0,0,1-.769-3.494A2.5,2.5,0,0,1,115.518,67.158Zm8.07,9.453a1.074,1.074,0,0,1,1.795-1.18,4.854,4.854,0,0,0,6.707,0,1.074,1.074,0,0,1,1.795,1.18C131.85,79.7,125.623,79.7,123.589,76.612Zm-1.918-5.655a1.079,1.079,0,0,1-1.158-1.821,5.158,5.158,0,0,1,5.314,0,1.078,1.078,0,1,1-1.154,1.821A3.026,3.026,0,0,0,121.671,70.957Zm11.362,0a1.079,1.079,0,0,1-1.158-1.821,5.158,5.158,0,0,1,5.314,0,1.078,1.078,0,0,1-1.154,1.821A3.026,3.026,0,0,0,133.033,70.957Zm9.894-1.776-1.288.476v3.323a2.246,2.246,0,0,0,1.433-.974,3.549,3.549,0,0,0,.4-2.306C143.474,69.281,143.364,69.019,142.927,69.181ZM128.854,81.616a13.286,13.286,0,0,0,7.414-2.232c1.973-1.362,3.213-3.127,3.213-4.738V64.293H118.226V74.648c0,1.611,1.235,3.375,3.213,4.738A13.285,13.285,0,0,0,128.854,81.616Zm6.021.952a15.689,15.689,0,0,1-12.043,0v1.7l6.021,4.105,6.021-4.105ZM117.47,62.136h4.489l-1.607-2.2-1.664.807a1.074,1.074,0,1,1-.935-1.935l1.306-.638-.917-1.249-1.825.89a1.077,1.077,0,1,1-.943-1.938l1.476-.716-.938-1.28-1.7.821a1.075,1.075,0,1,1-.926-1.939l1.34-.642-1.152-1.571-3.227,1.725Zm16.733,0h5.371l5.624-5.912-3.239-2.24Zm14.335-11.2.786-1.856-5.581,2.934,3.358,2.328Zm-25.785,8.645.376.514,0-.226A2.354,2.354,0,0,1,122.754,59.578ZM142.106,85.86c-1.309,4.231-1.507,6.755-.236,10.7h7.821V89.149c-.052-.69-1.3-1.428-2.965-2.07A24.651,24.651,0,0,0,142.106,85.86Zm-26.383,10.7a16.719,16.719,0,0,0-.131-10.7,24.7,24.7,0,0,0-4.615,1.218c-1.647.638-2.882,1.362-2.961,2.047v7.432Zm2.17-10.982-.14.014a18.649,18.649,0,0,1,.2,10.969h21.658c-1.157-3.922-.93-6.812.319-10.972l-1.376-.057h-1.716l-7.366,5.022a1.069,1.069,0,0,1-1.231.014l-7.388-5.034h-1.711C118.759,85.529,118.339,85.541,117.894,85.577ZM145.368,42.8a1.078,1.078,0,1,1,0,2.157h-1.995a1.078,1.078,0,0,1,0-2.157Zm-33.106,2.157a1.078,1.078,0,1,1,0-2.157h1.995a1.078,1.078,0,0,1,0,2.157Zm1.7-8.042a1.076,1.076,0,0,1,1.035-1.887l1.73.952a1.076,1.076,0,1,1-1.035,1.887Zm5.655-6.179a1.077,1.077,0,0,1,1.847-1.109l1,1.651a1.076,1.076,0,1,1-1.842,1.114Zm8.123-2.415a1.078,1.078,0,1,1,2.157,0v1.65a1.078,1.078,0,1,1-2.157,0Zm8.431,1.306a1.077,1.077,0,0,1,1.847,1.109l-1,1.654a1.076,1.076,0,1,1-1.842-1.114Zm6.464,5.4a1.077,1.077,0,1,1,1.04,1.887l-1.73.952a1.077,1.077,0,0,1-1.04-1.887ZM125.086,45.09a1.075,1.075,0,1,1,.293,2.13,3.134,3.134,0,0,1-3.463-2.528,3.355,3.355,0,0,1,4.768-3.541c1.017.59,1.8,1.887,1.8,4.191v5.148a1.078,1.078,0,1,1-2.157,0V45.343c0-1.445-.35-2.506-1.166-2.411-.6.069-1.266.712-1.14,1.319a.992.992,0,0,0,1.066.84Zm7.161,2.13a1.076,1.076,0,1,1,.3-2.13,1.078,1.078,0,1,0-.524-2.078c-.407.236-.716.93-.716,2.332v5.148a1.078,1.078,0,1,1-2.157,0V45.344c0-2.306.781-3.6,1.795-4.191a3.357,3.357,0,0,1,4.772,3.541A3.14,3.14,0,0,1,132.247,47.221Zm-5.612,7.594h4.358a4.331,4.331,0,0,1,2.3-3.253,8.353,8.353,0,0,0,1.935-13.514,9.383,9.383,0,0,0-12.821,0,8.35,8.35,0,0,0,1.935,13.514A4.339,4.339,0,0,1,126.635,54.815Zm5.681,5.467h-7a1.394,1.394,0,0,0,1.359,1.118h4.284A1.4,1.4,0,0,0,132.316,60.282Zm.73-3.31h-8.466a.576.576,0,0,0,0,1.152h8.466A.576.576,0,0,0,133.047,56.971Z" transform="translate(0 0)"/>
    </g>
  </g>
</svg>
