<svg xmlns="http://www.w3.org/2000/svg" xmlns:xlink="http://www.w3.org/1999/xlink" width="113" height="113" viewBox="0 0 113 113">
  <defs>
    <filter id="Trazado_982547" x="0" y="0" width="113" height="113" filterUnits="userSpaceOnUse">
      <feOffset dy="3" input="SourceAlpha"/>
      <feGaussianBlur stdDeviation="3" result="blur"/>
      <feFlood flood-opacity="0.161"/>
      <feComposite operator="in" in2="blur"/>
      <feComposite in="SourceGraphic"/>
    </filter>
  </defs>
  <g id="Grupo_1225623" data-name="Grupo 1225623" transform="translate(-900.509 -9590.975)">
    <g id="Grupo_1225030" data-name="Grupo 1225030" transform="translate(0 6776.979)">
      <g id="Grupo_1224293" data-name="Grupo 1224293" transform="translate(0 859.245)">
        <g id="Grupo_1224093" data-name="Grupo 1224093" transform="translate(226.51 -2620.317)">
          <g id="Grupo_1223184" data-name="Grupo 1223184" transform="translate(683 4581.069)">
            <g id="Grupo_1211216" data-name="Grupo 1211216" transform="translate(0)">
              <g id="Grupo_1210737" data-name="Grupo 1210737">
                <g id="Grupo_1210537" data-name="Grupo 1210537">
                  <g id="Grupo_1164202" data-name="Grupo 1164202">
                    <g id="Grupo_1158168" data-name="Grupo 1158168">
                      <g id="Grupo_1152576" data-name="Grupo 1152576">
                        <g id="Grupo_1148633" data-name="Grupo 1148633">
                          <g id="Grupo_1148525" data-name="Grupo 1148525">
                            <g transform="matrix(1, 0, 0, 1, -9, -6)" filter="url(#Trazado_982547)">
                              <g id="Trazado_982547-2" data-name="Trazado 982547" transform="translate(9 6)" fill="#fdfbec">
                                <path d="M 47.49999618530273 93.5 C 41.28936767578125 93.5 35.26533126831055 92.28396606445312 29.59518241882324 89.88570404052734 C 24.11771583557129 87.56893157958984 19.19812965393066 84.251953125 14.97308921813965 80.02690124511719 C 10.74803638458252 75.80186462402344 7.431062698364258 70.88227844238281 5.114289283752441 65.40480804443359 C 2.716022968292236 59.73466110229492 1.499996185302734 53.71062469482422 1.499996185302734 47.49999618530273 C 1.499996185302734 41.28936767578125 2.716022968292236 35.26533126831055 5.114289283752441 29.59518241882324 C 7.431062698364258 24.11771583557129 10.74803638458252 19.19812965393066 14.97308921813965 14.97308921813965 C 19.19812965393066 10.74803638458252 24.11771583557129 7.431062698364258 29.59518241882324 5.114289283752441 C 35.26533126831055 2.716022968292236 41.28936767578125 1.499996185302734 47.49999618530273 1.499996185302734 C 53.71062469482422 1.499996185302734 59.73466110229492 2.716022968292236 65.40480804443359 5.114289283752441 C 70.88227844238281 7.431062698364258 75.80186462402344 10.74803638458252 80.02690124511719 14.97308921813965 C 84.251953125 19.19812965393066 87.56893157958984 24.11771583557129 89.88570404052734 29.59518241882324 C 92.28396606445312 35.26533126831055 93.5 41.28936767578125 93.5 47.49999618530273 C 93.5 53.71062469482422 92.28396606445312 59.73466110229492 89.88570404052734 65.40480804443359 C 87.56893157958984 70.88227844238281 84.251953125 75.80186462402344 80.02690124511719 80.02690124511719 C 75.80186462402344 84.251953125 70.88227844238281 87.56893157958984 65.40480804443359 89.88570404052734 C 59.73466110229492 92.28396606445312 53.71062469482422 93.5 47.49999618530273 93.5 Z" stroke="none"/>
                                <path d="M 47.49999618530273 2.999992370605469 C 41.4912109375 2.999992370605469 35.66376495361328 4.1761474609375 30.17950439453125 6.495796203613281 C 24.88084411621094 8.736953735351562 20.12152099609375 11.94598388671875 16.03375244140625 16.03375244140625 C 11.94598388671875 20.12152099609375 8.736953735351562 24.88084411621094 6.495796203613281 30.17950439453125 C 4.1761474609375 35.66376495361328 2.999992370605469 41.4912109375 2.999992370605469 47.49999618530273 C 2.999992370605469 53.50878143310547 4.1761474609375 59.33622741699219 6.495796203613281 64.82048797607422 C 8.736953735351562 70.11914825439453 11.94598388671875 74.87847137451172 16.03375244140625 78.96623992919922 C 20.12152099609375 83.05400848388672 24.88084411621094 86.26304626464844 30.17950439453125 88.50419616699219 C 35.66376495361328 90.82384490966797 41.4912109375 92 47.49999618530273 92 C 53.50878143310547 92 59.33622741699219 90.82384490966797 64.82048797607422 88.50419616699219 C 70.11914825439453 86.26304626464844 74.87847137451172 83.05400848388672 78.96623992919922 78.96623992919922 C 83.05400848388672 74.87847137451172 86.26304626464844 70.11914825439453 88.50419616699219 64.82048797607422 C 90.82384490966797 59.33622741699219 92 53.50878143310547 92 47.49999618530273 C 92 41.4912109375 90.82384490966797 35.66376495361328 88.50419616699219 30.17950439453125 C 86.26304626464844 24.88084411621094 83.05400848388672 20.12152099609375 78.96623992919922 16.03375244140625 C 74.87847137451172 11.94598388671875 70.11914825439453 8.736953735351562 64.82048797607422 6.495796203613281 C 59.33622741699219 4.1761474609375 53.50878143310547 2.999992370605469 47.49999618530273 2.999992370605469 M 47.49999618530273 -7.62939453125e-06 C 73.7335205078125 -7.62939453125e-06 95 21.26647186279297 95 47.49999618530273 C 95 73.7335205078125 73.7335205078125 95 47.49999618530273 95 C 21.26647186279297 95 -7.62939453125e-06 73.7335205078125 -7.62939453125e-06 47.49999618530273 C -7.62939453125e-06 21.26647186279297 21.26647186279297 -7.62939453125e-06 47.49999618530273 -7.62939453125e-06 Z" stroke="none" fill="#83793c"/>
                              </g>
                            </g>
                          </g>
                        </g>
                      </g>
                    </g>
                  </g>
                </g>
              </g>
            </g>
          </g>
        </g>
      </g>
    </g>
    <g id="talking_3724949_1_" data-name="talking_3724949 (1)" transform="translate(926.073 9613.539)">
      <path id="Trazado_1057605" data-name="Trazado 1057605" d="M50.417,53h6.76a3.863,3.863,0,0,1,3.863,3.863v4.828H34V56.863A3.863,3.863,0,0,1,37.863,53h6.76" transform="translate(-1.133 -1.785)" fill="#78a0d4"/>
      <path id="Trazado_1057606" data-name="Trazado 1057606" d="M55.451,36v5.794a7.725,7.725,0,0,1-15.451,0V36" transform="translate(-1.339 -1.201)" fill="#fbe1ca"/>
      <path id="Trazado_1057607" data-name="Trazado 1057607" d="M47.657,26a9.657,9.657,0,0,1,9.657,9.657H38A9.657,9.657,0,0,1,47.657,26Z" transform="translate(-1.27 -0.858)" fill="#78a0d4"/>
      <g id="Grupo_1225622" data-name="Grupo 1225622" transform="translate(38.661 29.005)">
        <path id="Trazado_1057608" data-name="Trazado 1057608" d="M45,35.794V32.9a2.9,2.9,0,0,1,5.794,0v2.9" transform="translate(-40.172 -30)" fill="#976947"/>
        <path id="Trazado_1057609" data-name="Trazado 1057609" d="M52,36a4.947,4.947,0,0,0,3.748,4.8l.115.029V36Z" transform="translate(-40.412 -30.206)" fill="#976947"/>
        <path id="Trazado_1057610" data-name="Trazado 1057610" d="M43.863,36a4.947,4.947,0,0,1-3.748,4.8L40,40.828V36Z" transform="translate(-40 -30.206)" fill="#976947"/>
      </g>
      <path id="Trazado_1057611" data-name="Trazado 1057611" d="M18.417,51h6.76a3.863,3.863,0,0,1,3.863,3.863v6.76H2v-6.76A3.863,3.863,0,0,1,5.863,51h6.76" transform="translate(-0.034 -1.716)" fill="#e1656e"/>
      <path id="Trazado_1057612" data-name="Trazado 1057612" d="M18.794,48.418a7.748,7.748,0,0,1-5.794,0v2.493a2.9,2.9,0,1,0,5.794,0Z" transform="translate(-0.412 -1.627)" fill="#f2b9a1"/>
      <path id="Trazado_1057613" data-name="Trazado 1057613" d="M50.794,49.418a7.748,7.748,0,0,1-5.794,0v3.459a2.9,2.9,0,1,0,5.794,0Z" transform="translate(-1.51 -1.662)" fill="#f2b9a1"/>
      <path id="Trazado_1057614" data-name="Trazado 1057614" d="M5.931,45.314H25.245a1.931,1.931,0,0,0,1.931-1.931V31.794A5.794,5.794,0,0,0,21.382,26H9.794A5.794,5.794,0,0,0,4,31.794V43.382A1.931,1.931,0,0,0,5.931,45.314Z" transform="translate(-0.103 -0.858)" fill="#c18e59"/>
      <path id="Trazado_1057615" data-name="Trazado 1057615" d="M23.451,32.9v7.725A7.725,7.725,0,1,1,8,40.622V32.9h3.863l2.9-2.9,2.9,2.9Z" transform="translate(-0.24 -0.995)" fill="#fbe1ca"/>
      <path id="Trazado_1057616" data-name="Trazado 1057616" d="M56,39h1.931a1.931,1.931,0,0,1,0,3.863H56" transform="translate(-1.888 -1.304)" fill="#f2b9a1"/>
      <path id="Trazado_1057617" data-name="Trazado 1057617" d="M39.863,39H37.931a1.931,1.931,0,0,0,0,3.863h1.931" transform="translate(-1.201 -1.304)" fill="#f2b9a1"/>
      <path id="Trazado_1057618" data-name="Trazado 1057618" d="M25.441,18.217a5.806,5.806,0,0,0,.894,1.745l1.738,2.318a9.373,9.373,0,0,1-6-2.174,17.831,17.831,0,0,1-6.55,1.209C8.053,21.314,2,16.99,2,11.657S8.053,2,15.519,2s13.52,4.323,13.52,9.657A8.377,8.377,0,0,1,25.441,18.217Z" transform="translate(-0.034 -0.034)" fill="#f9d266"/>
      <path id="Trazado_1057619" data-name="Trazado 1057619" d="M37.6,18.217a5.806,5.806,0,0,1-.894,1.745l-1.738,2.318a9.373,9.373,0,0,0,6-2.174,17.831,17.831,0,0,0,6.55,1.209c7.467,0,13.519-4.323,13.519-9.657S54.986,2,47.52,2,34,6.323,34,11.657a8.377,8.377,0,0,0,3.6,6.56Z" transform="translate(-1.133 -0.034)" fill="#f0ae42"/>
      <path id="Trazado_1057620" data-name="Trazado 1057620" d="M9,8H22.519V9.931H9Z" transform="translate(-0.275 -0.24)" fill="#f0ae42"/>
      <path id="Trazado_1057621" data-name="Trazado 1057621" d="M7,12H24.382v1.931H7Z" transform="translate(-0.206 -0.378)" fill="#f0ae42"/>
      <path id="Trazado_1057622" data-name="Trazado 1057622" d="M41.931,14.863a1.931,1.931,0,1,1,1.931-1.931A1.931,1.931,0,0,1,41.931,14.863Z" transform="translate(-1.339 -0.343)" fill="#f9d266"/>
      <path id="Trazado_1057623" data-name="Trazado 1057623" d="M47.931,14.863a1.931,1.931,0,1,1,1.931-1.931A1.931,1.931,0,0,1,47.931,14.863Z" transform="translate(-1.544 -0.343)" fill="#f9d266"/>
      <path id="Trazado_1057624" data-name="Trazado 1057624" d="M53.931,14.863a1.931,1.931,0,1,1,1.931-1.931A1.931,1.931,0,0,1,53.931,14.863Z" transform="translate(-1.75 -0.343)" fill="#f9d266"/>
      <path id="Trazado_1057625" data-name="Trazado 1057625" d="M34,57.5H57.176v4.346H34Z" transform="translate(-1.133 -1.939)" fill="#87b0dd"/>
      <path id="Trazado_1057626" data-name="Trazado 1057626" d="M2,56H24.855v5.794H2Z" transform="translate(-0.034 -1.888)" fill="#f29b99"/>
      <path id="Trazado_1057627" data-name="Trazado 1057627" d="M57.142,51.073H51.348V49.19a8.711,8.711,0,0,0,4.6-5.842h1.19a2.9,2.9,0,1,0,0-5.794h-.966v-.966h.966a.966.966,0,0,0,.966-.966,10.622,10.622,0,0,0-21.245,0,.966.966,0,0,0,.966.966h.966v.966h-.966a2.9,2.9,0,0,0,0,5.794h1.19a8.711,8.711,0,0,0,4.6,5.842v1.883H37.828A4.834,4.834,0,0,0,33,55.9V60.73a.966.966,0,0,0,.966.966H61a.966.966,0,0,0,.966-.966V55.9a4.834,4.834,0,0,0-4.828-4.828Zm0-11.588a.966.966,0,1,1,0,1.931h-.966V39.485Zm-2.9-.46a3.959,3.959,0,0,1-1.8-2.437h1.8Zm-4.828-4.369H45.554V32.725a1.931,1.931,0,1,1,3.863,0Zm-1.931-7.725a8.7,8.7,0,0,1,8.638,7.725H51.348V32.725a3.863,3.863,0,1,0-7.725,0v1.931H38.847a8.7,8.7,0,0,1,8.638-7.725Zm-4.961,9.657a3.959,3.959,0,0,1-1.8,2.437V36.588Zm-4.7,4.828a.966.966,0,0,1,0-1.931h.966v1.931Zm2.9,0v-.267a5.891,5.891,0,0,0,3.782-4.561h5.956a5.891,5.891,0,0,0,3.782,4.56v.268a6.76,6.76,0,1,1-13.519,0Zm6.76,8.691a8.663,8.663,0,0,0,1.931-.224v2.155a1.931,1.931,0,1,1-3.863,0V49.884a8.663,8.663,0,0,0,1.931.224Zm12.554,9.657H34.931V55.9a2.9,2.9,0,0,1,2.9-2.9H43.76a3.844,3.844,0,0,0,7.451,0h5.931a2.9,2.9,0,0,1,2.9,2.9Z" transform="translate(-1.098 -0.824)"/>
      <path id="Trazado_1057628" data-name="Trazado 1057628" d="M25.142,49.142H19.348V47.259a8.718,8.718,0,0,0,2.6-1.98h3.2a2.9,2.9,0,0,0,2.9-2.9V31.76A6.767,6.767,0,0,0,21.279,25H9.691a6.767,6.767,0,0,0-6.76,6.76V42.382a2.9,2.9,0,0,0,2.9,2.9h3.2a8.718,8.718,0,0,0,2.6,1.98v1.883H5.828A4.834,4.834,0,0,0,1,53.97v6.76a.966.966,0,0,0,.966.966H29a.966.966,0,0,0,.966-.966V53.97a4.834,4.834,0,0,0-4.828-4.828ZM5.828,43.348a.966.966,0,0,1-.966-.966V31.76a4.834,4.834,0,0,1,4.828-4.828H21.279a4.834,4.834,0,0,1,4.828,4.828V42.382a.966.966,0,0,1-.966.966H23.259a8.627,8.627,0,0,0,.917-3.863v-6.76a.966.966,0,0,0-.966-.966H17.816L15.2,29.146a.966.966,0,0,0-1.365,0L11.223,31.76H7.76a.966.966,0,0,0-.966.966v6.76a8.627,8.627,0,0,0,.917,3.863Zm2.9-3.863V33.691h2.9a.966.966,0,0,0,.683-.283l2.214-2.214,2.214,2.214a.966.966,0,0,0,.683.283h4.828v5.794a6.76,6.76,0,1,1-13.519,0Zm6.76,8.691a8.663,8.663,0,0,0,1.931-.224v2.155a1.931,1.931,0,1,1-3.863,0V47.952A8.664,8.664,0,0,0,15.485,48.176ZM28.039,59.764H2.931V53.97a2.9,2.9,0,0,1,2.9-2.9H11.76a3.844,3.844,0,0,0,7.451,0h5.931a2.9,2.9,0,0,1,2.9,2.9Z" transform="translate(0 -0.824)"/>
      <path id="Trazado_1057629" data-name="Trazado 1057629" d="M15.485,1C7.5,1,1,5.766,1,11.622S7.5,22.245,15.485,22.245a19.1,19.1,0,0,0,6.382-1.078,10.369,10.369,0,0,0,6.172,2.043.966.966,0,0,0,.773-1.545l-1.738-2.318a4.858,4.858,0,0,1-.516-.86,9.1,9.1,0,0,0,3.413-6.865C29.97,5.766,23.472,1,15.485,1Zm9.331,16.417a.966.966,0,0,0-.331,1.054,6.744,6.744,0,0,0,1.043,2.037L25.9,21a8.428,8.428,0,0,1-3.245-1.672.966.966,0,0,0-.618-.223.948.948,0,0,0-.355.068,16.97,16.97,0,0,1-6.2,1.14c-6.922,0-12.554-3.9-12.554-8.691S8.563,2.931,15.485,2.931s12.554,3.9,12.554,8.691a7.43,7.43,0,0,1-3.222,5.794Z"/>
      <path id="Trazado_1057630" data-name="Trazado 1057630" d="M36.413,18.487a4.8,4.8,0,0,1-.516.86l-1.738,2.318a.966.966,0,0,0,.773,1.545A10.369,10.369,0,0,0,41.1,21.167a19.1,19.1,0,0,0,6.382,1.078c7.987,0,14.485-4.766,14.485-10.622S55.472,1,47.485,1,33,5.766,33,11.622a9.1,9.1,0,0,0,3.413,6.865ZM47.485,2.931c6.922,0,12.554,3.9,12.554,8.691s-5.632,8.691-12.554,8.691a16.97,16.97,0,0,1-6.2-1.139.966.966,0,0,0-.973.155A8.428,8.428,0,0,1,37.071,21l.371-.494a6.76,6.76,0,0,0,1.043-2.037.966.966,0,0,0-.332-1.054,7.436,7.436,0,0,1-3.222-5.794C34.931,6.831,40.563,2.931,47.485,2.931Z" transform="translate(-1.098 0)"/>
      <path id="Trazado_1057631" data-name="Trazado 1057631" d="M9,8H22.519V9.931H9Z" transform="translate(-0.275 -0.24)"/>
      <path id="Trazado_1057632" data-name="Trazado 1057632" d="M7,12H24.382v1.931H7Z" transform="translate(-0.206 -0.378)"/>
      <circle id="Elipse_13554" data-name="Elipse 13554" cx="2" cy="2" r="2" transform="translate(39 10.872)"/>
      <circle id="Elipse_13555" data-name="Elipse 13555" cx="2" cy="2" r="2" transform="translate(44 10.872)"/>
      <circle id="Elipse_13556" data-name="Elipse 13556" cx="2" cy="2" r="2" transform="translate(50 10.872)"/>
    </g>
  </g>
</svg>
