<svg xmlns="http://www.w3.org/2000/svg" xmlns:xlink="http://www.w3.org/1999/xlink" width="113" height="113" viewBox="0 0 113 113">
  <defs>
    <filter id="Trazado_982547" x="0" y="0" width="113" height="113" filterUnits="userSpaceOnUse">
      <feOffset dy="3" input="SourceAlpha"/>
      <feGaussianBlur stdDeviation="3" result="blur"/>
      <feFlood flood-opacity="0.161"/>
      <feComposite operator="in" in2="blur"/>
      <feComposite in="SourceGraphic"/>
    </filter>
  </defs>
  <g id="Grupo_1225625" data-name="Grupo 1225625" transform="translate(-1216.232 -9590.975)">
    <g id="Grupo_1225031" data-name="Grupo 1225031" transform="translate(0 6776.979)">
      <g id="Grupo_1224294" data-name="Grupo 1224294" transform="translate(0.723 859.245)">
        <g id="Grupo_1224094" data-name="Grupo 1224094" transform="translate(541.51 -2620.317)">
          <g id="Grupo_1223184" data-name="Grupo 1223184" transform="translate(683 4581.069)">
            <g id="Grupo_1211216" data-name="Grupo 1211216" transform="translate(0)">
              <g id="Grupo_1210737" data-name="Grupo 1210737">
                <g id="Grupo_1210537" data-name="Grupo 1210537">
                  <g id="Grupo_1164202" data-name="Grupo 1164202">
                    <g id="Grupo_1158168" data-name="Grupo 1158168">
                      <g id="Grupo_1152576" data-name="Grupo 1152576">
                        <g id="Grupo_1148633" data-name="Grupo 1148633">
                          <g id="Grupo_1148525" data-name="Grupo 1148525">
                            <g transform="matrix(1, 0, 0, 1, -9, -6)" filter="url(#Trazado_982547)">
                              <g id="Trazado_982547-2" data-name="Trazado 982547" transform="translate(9 6)" fill="#fdfbec">
                                <path d="M 47.49999618530273 93.5 C 41.28936767578125 93.5 35.26533126831055 92.28396606445312 29.59518241882324 89.88570404052734 C 24.11771583557129 87.56893157958984 19.19812965393066 84.251953125 14.97308921813965 80.02690124511719 C 10.74803638458252 75.80186462402344 7.431062698364258 70.88227844238281 5.114289283752441 65.40480804443359 C 2.716022968292236 59.73466110229492 1.499996185302734 53.71062469482422 1.499996185302734 47.49999618530273 C 1.499996185302734 41.28936767578125 2.716022968292236 35.26533126831055 5.114289283752441 29.59518241882324 C 7.431062698364258 24.11771583557129 10.74803638458252 19.19812965393066 14.97308921813965 14.97308921813965 C 19.19812965393066 10.74803638458252 24.11771583557129 7.431062698364258 29.59518241882324 5.114289283752441 C 35.26533126831055 2.716022968292236 41.28936767578125 1.499996185302734 47.49999618530273 1.499996185302734 C 53.71062469482422 1.499996185302734 59.73466110229492 2.716022968292236 65.40480804443359 5.114289283752441 C 70.88227844238281 7.431062698364258 75.80186462402344 10.74803638458252 80.02690124511719 14.97308921813965 C 84.251953125 19.19812965393066 87.56893157958984 24.11771583557129 89.88570404052734 29.59518241882324 C 92.28396606445312 35.26533126831055 93.5 41.28936767578125 93.5 47.49999618530273 C 93.5 53.71062469482422 92.28396606445312 59.73466110229492 89.88570404052734 65.40480804443359 C 87.56893157958984 70.88227844238281 84.251953125 75.80186462402344 80.02690124511719 80.02690124511719 C 75.80186462402344 84.251953125 70.88227844238281 87.56893157958984 65.40480804443359 89.88570404052734 C 59.73466110229492 92.28396606445312 53.71062469482422 93.5 47.49999618530273 93.5 Z" stroke="none"/>
                                <path d="M 47.49999618530273 2.999992370605469 C 41.4912109375 2.999992370605469 35.66376495361328 4.1761474609375 30.17950439453125 6.495796203613281 C 24.88084411621094 8.736953735351562 20.12152099609375 11.94598388671875 16.03375244140625 16.03375244140625 C 11.94598388671875 20.12152099609375 8.736953735351562 24.88084411621094 6.495796203613281 30.17950439453125 C 4.1761474609375 35.66376495361328 2.999992370605469 41.4912109375 2.999992370605469 47.49999618530273 C 2.999992370605469 53.50878143310547 4.1761474609375 59.33622741699219 6.495796203613281 64.82048797607422 C 8.736953735351562 70.11914825439453 11.94598388671875 74.87847137451172 16.03375244140625 78.96623992919922 C 20.12152099609375 83.05400848388672 24.88084411621094 86.26304626464844 30.17950439453125 88.50419616699219 C 35.66376495361328 90.82384490966797 41.4912109375 92 47.49999618530273 92 C 53.50878143310547 92 59.33622741699219 90.82384490966797 64.82048797607422 88.50419616699219 C 70.11914825439453 86.26304626464844 74.87847137451172 83.05400848388672 78.96623992919922 78.96623992919922 C 83.05400848388672 74.87847137451172 86.26304626464844 70.11914825439453 88.50419616699219 64.82048797607422 C 90.82384490966797 59.33622741699219 92 53.50878143310547 92 47.49999618530273 C 92 41.4912109375 90.82384490966797 35.66376495361328 88.50419616699219 30.17950439453125 C 86.26304626464844 24.88084411621094 83.05400848388672 20.12152099609375 78.96623992919922 16.03375244140625 C 74.87847137451172 11.94598388671875 70.11914825439453 8.736953735351562 64.82048797607422 6.495796203613281 C 59.33622741699219 4.1761474609375 53.50878143310547 2.999992370605469 47.49999618530273 2.999992370605469 M 47.49999618530273 -7.62939453125e-06 C 73.7335205078125 -7.62939453125e-06 95 21.26647186279297 95 47.49999618530273 C 95 73.7335205078125 73.7335205078125 95 47.49999618530273 95 C 21.26647186279297 95 -7.62939453125e-06 73.7335205078125 -7.62939453125e-06 47.49999618530273 C -7.62939453125e-06 21.26647186279297 21.26647186279297 -7.62939453125e-06 47.49999618530273 -7.62939453125e-06 Z" stroke="none" fill="#83793c"/>
                              </g>
                            </g>
                          </g>
                        </g>
                      </g>
                    </g>
                  </g>
                </g>
              </g>
            </g>
          </g>
        </g>
      </g>
    </g>
    <g id="transparency_18092156" transform="translate(1203.952 9585.039)">
      <g id="Grupo_1225624" data-name="Grupo 1225624" transform="translate(36.647 26.864)">
        <path id="Trazado_1057633" data-name="Trazado 1057633" d="M90.933,68.55c1.835-.039,3.05-.369,3.954-2.047C89.635,59.82,81.105,54.99,72.228,54.99c-15.819,0-29.838,14.058-29.648,30.732.148,12.882,7.663,26.159,21.13,30.186v-12a2.617,2.617,0,0,1,.021-.309c-.051-.016-.1-.034-.157-.051C32.03,83.2,67.82,42.37,90.933,68.55Z" transform="translate(-42.577 -51.682)" fill="#41c2ce" fill-rule="evenodd"/>
        <path id="Trazado_1057634" data-name="Trazado 1057634" d="M117.63,84.568C111.2,77.7,105.529,73.9,96.1,74.321c-14.558.648-24.192,12.726-24.819,25.842-.6,12.573,4.412,23,16.808,26.76v-6.6a2.615,2.615,0,0,1,.021-.309c-.051-.016-.1-.034-.157-.051C56.412,99.622,92.2,58.792,115.315,84.971A6.522,6.522,0,0,0,117.63,84.568Z" transform="translate(-66.959 -68.102)" fill="#74cddd" fill-rule="evenodd"/>
        <path id="Trazado_1057635" data-name="Trazado 1057635" d="M230.5,330.27c9.313,1.116,20.78,1.434,26.29-5.87a64.482,64.482,0,0,0,7.2-10.54c1.024-1.81,5.849-9.689-.406-8.218-1.662.394-3.426,2.681-5.761,5.524q-2.055-4.713-10.667,3.465-2.22,1.009-6.623.3c-6.356-.14-5.98,2.93-9.931,3.13v11.513A2.352,2.352,0,0,1,230.5,330.27Z" transform="translate(-202.461 -264.781)" fill="#f598a2" fill-rule="evenodd"/>
        <path id="Trazado_1057636" data-name="Trazado 1057636" d="M231.2,324.959c9.436,1.18,21.359,1.708,27.009-5.786a64.34,64.34,0,0,0,7.2-10.535c.3-.528.913-1.561,1.489-2.732-.452-.448-1.3-.6-2.72-.263-1.662.394-3.426,2.681-5.761,5.524q-2.055-4.713-10.667,3.465-2.22,1.009-6.623.3c-6.356-.14-5.98,2.93-9.931,3.13v6.9Z" transform="translate(-203.057 -264.782)" fill="#f9b5b2" fill-rule="evenodd"/>
        <path id="Trazado_1057637" data-name="Trazado 1057637" d="M186.566,367.03h2.305a2.359,2.359,0,0,1,2.351,2.356v12.566a2.362,2.362,0,0,1-2.351,2.356h-2.305a2.365,2.365,0,0,1-2.356-2.356V369.386A2.362,2.362,0,0,1,186.566,367.03Z" transform="translate(-163.078 -317.164)" fill="#74cddd" fill-rule="evenodd"/>
        <path id="Trazado_1057638" data-name="Trazado 1057638" d="M262.607,32.82h17.539l8.5,6.561V68.475a2.671,2.671,0,0,1-2.4,2.863H262.607a2.674,2.674,0,0,1-2.407-2.863V35.68A2.671,2.671,0,0,1,262.607,32.82Z" transform="translate(-227.73 -32.82)" fill="#c794c3" fill-rule="evenodd"/>
        <path id="Trazado_1057639" data-name="Trazado 1057639" d="M300.94,32.82h13.869l8.5,6.561V67.227H303.342a2.671,2.671,0,0,1-2.4-2.863Z" transform="translate(-262.391 -32.82)" fill="#ddbddb" fill-rule="evenodd"/>
        <path id="Trazado_1057640" data-name="Trazado 1057640" d="M402.386,39.381l-5.083.812a2.6,2.6,0,0,1-2.927-2.314l-.5-5.058Z" transform="translate(-341.464 -32.82)" fill="#ab6cad" fill-rule="evenodd"/>
        <path id="Trazado_1057641" data-name="Trazado 1057641" d="M162.667,119.82a14.943,14.943,0,1,1-14.947,14.943A14.942,14.942,0,0,1,162.667,119.82Z" transform="translate(-132.032 -106.839)" fill="#f9bf2c" fill-rule="evenodd"/>
        <path id="Trazado_1057642" data-name="Trazado 1057642" d="M200.905,165.4a14.947,14.947,0,0,1-23.955,16.211A14.947,14.947,0,0,1,200.905,165.4Z" transform="translate(-156.178 -142.462)" fill="#fdef58" fill-rule="evenodd"/>
        <path id="Trazado_1057643" data-name="Trazado 1057643" d="M186.234,192.36a12.957,12.957,0,0,1,10.81,5.35,13.593,13.593,0,0,1-21.624,0A12.967,12.967,0,0,1,186.234,192.36Z" transform="translate(-155.599 -168.556)" fill="#e2f4fd" fill-rule="evenodd"/>
        <path id="Trazado_1057644" data-name="Trazado 1057644" d="M224.642,199.7a4.32,4.32,0,1,1-4.322,4.322A4.321,4.321,0,0,1,224.642,199.7Z" transform="translate(-193.8 -174.801)" fill="#f26c60" fill-rule="evenodd"/>
        <path id="Trazado_1057645" data-name="Trazado 1057645" d="M257.023,221.58a.643.643,0,1,1-.643.643A.643.643,0,0,1,257.023,221.58Z" transform="translate(-224.48 -193.416)" fill="#f8a9a1" fill-rule="evenodd"/>
        <path id="Trazado_1057646" data-name="Trazado 1057646" d="M256.9,232.33a.4.4,0,1,1-.4.4A.4.4,0,0,1,256.9,232.33Z" transform="translate(-224.582 -202.562)" fill="#f8a9a1" fill-rule="evenodd"/>
      </g>
      <path id="Trazado_1057647" data-name="Trazado 1057647" d="M68.746,49.7l.622-2.462a1.042,1.042,0,0,1,2.022.509l-.579,2.289A14.8,14.8,0,0,1,74.253,51.3l1.256-1.784a1.044,1.044,0,0,1,1.708,1.2l-1.192,1.688a12.366,12.366,0,0,1,2.935,3.036,1.048,1.048,0,0,1-.016,1.18c-5.6,7.985-18.318,7.465-23.339-.021a1.039,1.039,0,0,1,.016-1.185,12.328,12.328,0,0,1,2.14-2.393l-1.388-.9a1.043,1.043,0,1,1,1.138-1.747l2.059,1.337a14.248,14.248,0,0,1,3.3-1.45l-.745-1.805a1.04,1.04,0,1,1,1.925-.791l.883,2.132a15.367,15.367,0,0,1,3.812-.109Zm5.3,3.887a12.474,12.474,0,0,0-2.724-1.252,5.366,5.366,0,0,1,.173,7.326,11.341,11.341,0,0,0,5.312-3.633A10.633,10.633,0,0,0,74.046,53.583Zm-10.4,6.25a5.362,5.362,0,0,1,.187-7.672,11.44,11.44,0,0,0-6.077,3.861A11.423,11.423,0,0,0,63.649,59.833ZM69.8,53.769a3.276,3.276,0,1,0,0,4.634A3.279,3.279,0,0,0,69.8,53.769ZM67.282,38.8c.267,0,.528.009.791.021V36.279c-9.237-.021-17.56,6.843-20.584,15.4a20.224,20.224,0,0,0-.613,11.787c1.247,4.88,4.5,9.7,10.409,13.767a3.413,3.413,0,0,1,2.851-1.552H62.44a3.408,3.408,0,0,1,3.4,3.244,6.5,6.5,0,0,0,1.932-1c1.425-.968,3-2.038,6.941-1.955a.648.648,0,0,1,.178.012,18.254,18.254,0,0,0,3.645.267,6.814,6.814,0,0,0,2.234-.422,25.036,25.036,0,0,1,6.484-4.775c1.734-.753,3.541-.9,4.846.445,2.031-2.474,3.663-4.369,5.439-4.788,2.75-.643,3.979.194,4.339,1.734.528,2.234-1.662,6.052-2.593,7.677-1.3,2.266-2.492,4.258-3.836,6.226A52.839,52.839,0,0,1,91.8,87.122c-2.944,3.9-7.427,5.756-12.393,6.487A55.982,55.982,0,0,1,65.3,93.478a3.4,3.4,0,0,1-2.863,1.573h-2.3a3.4,3.4,0,0,1-3.391-3.2c-13.26-4.351-20.98-17.6-21.135-30.942a31.606,31.606,0,0,1,9.119-22.357,30.166,30.166,0,0,1,23.38-9.36,3.638,3.638,0,0,1,3.417-3.375H89.064a1.043,1.043,0,0,1,.7.27l8.442,6.51a1.037,1.037,0,0,1,.406.825V62.52a3.72,3.72,0,0,1-3.447,3.908H78.246A15.989,15.989,0,1,1,67.282,38.8Zm2.881.258a15.986,15.986,0,0,1,3.875,1.235,1.048,1.048,0,0,1,1.032-.88H91.625a1.044,1.044,0,1,1,0,2.089H76.181A16.1,16.1,0,0,1,80.363,45.6h1.1a1.045,1.045,0,0,1,.139,2.08,15.839,15.839,0,0,1,1.388,4.131,1.264,1.264,0,0,1,.249-.03H91.62a1.044,1.044,0,1,1,0,2.089H83.243a16.094,16.094,0,0,1-.292,4.094h8.67a1.044,1.044,0,1,1,0,2.089H82.382a15.932,15.932,0,0,1-2.275,4.285H95.167c.821,0,1.358-.938,1.358-1.819V34.647l-3.875.618a3.634,3.634,0,0,1-4.128-3.244l-.4-4.111h-16.6c-.85,0-1.362.989-1.362,1.814v9.334ZM81.181,54.788a13.9,13.9,0,1,0-13.9,13.9A13.9,13.9,0,0,0,81.181,54.788Zm4.048-7.1a1.044,1.044,0,0,1,0-2.089h6.395a1.044,1.044,0,1,1,0,2.089ZM75.069,35.32a1.044,1.044,0,1,1,0-2.089h7.414a1.044,1.044,0,1,1,0,2.089Zm15.264-6.162.263,2.669a1.552,1.552,0,0,0,1.726,1.383l2.707-.431Zm-22.26,5.037V31.285c-8.184-.622-16.19,2.918-21.854,8.725A29.573,29.573,0,0,0,37.689,60.9c.14,12.214,7.042,24.464,19.044,28.752V79.382C49.967,74.916,46.261,69.5,44.852,63.987a22.277,22.277,0,0,1,.668-13C48.834,41.625,57.936,34.174,68.073,34.195ZM65.836,81.069V91.44a53.7,53.7,0,0,0,13.272.106c4.47-.659,8.472-2.292,11.038-5.692a.688.688,0,0,1,.081-.093,51.235,51.235,0,0,0,3.5-4.59q1.795-2.628,3.548-5.735c.33-.583.122-.219.2-.351.807-1.413,2.711-4.733,2.372-6.167-.081-.339-.583-.47-1.835-.173-1.185.279-2.7,2.123-4.64,4.5.106-.131.258-.318-.021.025l.021-.025c-.067.085-.118.143-.021.025l-.406.491A15.414,15.414,0,0,1,87.29,81.9a14.344,14.344,0,0,1-9.6,2.178,1.044,1.044,0,1,1,.169-2.081c6.662.554,10.835-2.381,13.027-8.661-.63-1.061-1.688-.85-2.8-.364a23.352,23.352,0,0,0-6.019,4.5,1.15,1.15,0,0,1-.288.194,8.575,8.575,0,0,1-3.156.668,19.7,19.7,0,0,1-4-.283,8.3,8.3,0,0,0-5.692,1.6A7.38,7.38,0,0,1,65.836,81.069Zm-3.4-3.294H60.135a1.318,1.318,0,0,0-1.312,1.312V91.652a1.318,1.318,0,0,0,1.312,1.312H62.44a1.318,1.318,0,0,0,1.312-1.312V79.086A1.319,1.319,0,0,0,62.44,77.775Z" transform="translate(0)"/>
    </g>
  </g>
</svg>
