<svg xmlns="http://www.w3.org/2000/svg" xmlns:xlink="http://www.w3.org/1999/xlink" width="108" height="108" viewBox="0 0 108 108">
  <defs>
    <filter id="Trazado_904820" x="0" y="0" width="108" height="108" filterUnits="userSpaceOnUse">
      <feOffset dy="3" input="SourceAlpha"/>
      <feGaussianBlur stdDeviation="3" result="blur"/>
      <feFlood flood-opacity="0.161"/>
      <feComposite operator="in" in2="blur"/>
      <feComposite in="SourceGraphic"/>
    </filter>
  </defs>
  <g id="Grupo_1225032" data-name="Grupo 1225032" transform="translate(9 6)">
    <g id="Grupo_1224290" data-name="Grupo 1224290" transform="translate(0 0)">
      <g id="Grupo_1208347" data-name="Grupo 1208347">
        <g id="Grupo_1207936" data-name="Grupo 1207936">
          <g id="Grupo_1201662" data-name="Grupo 1201662">
            <g id="Grupo_1173585" data-name="Grupo 1173585">
              <g id="Grupo_1173428" data-name="Grupo 1173428">
                <g id="Grupo_1171958" data-name="Grupo 1171958">
                  <g id="Grupo_1167341" data-name="Grupo 1167341">
                    <g id="Grupo_1166792" data-name="Grupo 1166792">
                      <g transform="matrix(1, 0, 0, 1, -9, -6)" filter="url(#Trazado_904820)">
                        <g id="Trazado_904820-2" data-name="Trazado 904820" transform="translate(9 6)" fill="#effbfe">
                          <path d="M 44.99999618530273 88.4998779296875 C 39.12687301635742 88.4998779296875 33.43022155761719 87.34995269775391 28.06829643249512 85.08205413818359 C 22.88852119445801 82.89120483398438 18.23629570007324 79.75447845458984 14.24084663391113 75.75904083251953 C 10.24540901184082 71.76358795166016 7.108683586120605 67.11137390136719 4.917821407318115 61.93161392211914 C 2.649921178817749 56.5696907043457 1.499996185302734 50.87305068969727 1.499996185302734 44.99993896484375 C 1.499996185302734 39.12682723999023 2.649921178817749 33.43017578125 4.917821407318115 28.06826400756836 C 7.108683586120605 22.88848876953125 10.24540901184082 18.23627662658691 14.24084663391113 14.2408390045166 C 18.23629570007324 10.24538898468018 22.88852119445801 7.108676433563232 28.06829643249512 4.917826652526855 C 33.43022155761719 2.649926424026489 39.12687301635742 1.500001430511475 44.99999618530273 1.500001430511475 C 50.87311935424805 1.500001430511475 56.56977081298828 2.649926424026489 61.93169784545898 4.917826652526855 C 67.11147308349609 7.108676433563232 71.76369476318359 10.24538898468018 75.75914764404297 14.2408390045166 C 79.75458526611328 18.23627662658691 82.89131164550781 22.88848876953125 85.08216857910156 28.06826400756836 C 87.35007476806641 33.43017578125 88.5 39.12682723999023 88.5 44.99993896484375 C 88.5 50.87305068969727 87.35007476806641 56.5696907043457 85.08216857910156 61.93161392211914 C 82.89131164550781 67.11137390136719 79.75458526611328 71.76358795166016 75.75914764404297 75.75904083251953 C 71.76369476318359 79.75447845458984 67.11147308349609 82.89120483398438 61.93169784545898 85.08205413818359 C 56.56977081298828 87.34995269775391 50.87311935424805 88.4998779296875 44.99999618530273 88.4998779296875 Z" stroke="none"/>
                          <path d="M 44.99999618530273 2.999992370605469 C 39.32870864868164 2.999992370605469 33.82865142822266 4.110054016113281 28.65262603759766 6.299324035644531 C 23.65165710449219 8.41455078125 19.15968322753906 11.44332122802734 15.301513671875 15.30149841308594 C 11.44333648681641 19.15966796875 8.414566040039062 23.65162658691406 6.299339294433594 28.65258026123047 C 4.110054016113281 33.82860946655273 2.999992370605469 39.32866668701172 2.999992370605469 44.99993896484375 C 2.999992370605469 50.67121124267578 4.110054016113281 56.1712532043457 6.299339294433594 61.34728240966797 C 8.414566040039062 66.34825134277344 11.44333648681641 70.8402099609375 15.301513671875 74.69837951660156 C 19.15968322753906 78.55654907226562 23.65165710449219 81.58531188964844 28.65262603759766 83.70055389404297 C 33.82865142822266 85.88982391357422 39.32870864868164 86.9998779296875 44.99999618530273 86.9998779296875 C 50.67128372192383 86.9998779296875 56.17134094238281 85.88982391357422 61.34736633300781 83.70055389404297 C 66.34834289550781 81.58531188964844 70.84030914306641 78.55654907226562 74.69847869873047 74.69837951660156 C 78.55665588378906 70.8402099609375 81.58542633056641 66.34825134277344 83.70065307617188 61.34728240966797 C 85.88993835449219 56.1712532043457 87 50.67121124267578 87 44.99993896484375 C 87 39.32866668701172 85.88993835449219 33.82860946655273 83.70065307617188 28.65258026123047 C 81.58542633056641 23.65162658691406 78.55665588378906 19.15966796875 74.69847869873047 15.30149841308594 C 70.84030914306641 11.44332122802734 66.34834289550781 8.41455078125 61.34736633300781 6.299324035644531 C 56.17134094238281 4.110054016113281 50.67128372192383 2.999992370605469 44.99999618530273 2.999992370605469 M 44.99999618530273 -7.62939453125e-06 C 69.85281372070312 -7.62939453125e-06 90 20.14715576171875 90 44.99993896484375 C 90 69.85270690917969 69.85281372070312 89.99988555908203 44.99999618530273 89.99988555908203 C 20.14717864990234 89.99988555908203 -7.62939453125e-06 69.85270690917969 -7.62939453125e-06 44.99993896484375 C -7.62939453125e-06 20.14715576171875 20.14717864990234 -7.62939453125e-06 44.99999618530273 -7.62939453125e-06 Z" stroke="none" fill="#497f88"/>
                        </g>
                      </g>
                    </g>
                  </g>
                </g>
              </g>
            </g>
          </g>
        </g>
      </g>
    </g>
    <g id="think-question_14781835_1_" data-name="think-question_14781835 (1)" transform="translate(11.39 10.389)">
      <g id="Grupo_1225075" data-name="Grupo 1225075" transform="translate(7.505 7.5)">
        <path id="Trazado_1055174" data-name="Trazado 1055174" d="M35.824,358.126l-1.525-.641c-4.7-2.281-4.027-2.451-2.578-6.8,1.682-1.148,3.783-1.484,5.728-1.988.783-.2,3.823-1.079,4.4-1.2l2.161-.861a2.725,2.725,0,0,0,.3-1.5V340.2l8.912,3.527v1.415a2.3,2.3,0,0,0,.435,1.346l6.972,1.128a52.926,52.926,0,0,1,7.571,1.8l3.535,1.123-4.712,5.748-8.815,1.833Z" transform="translate(-28.127 -303.905)" fill="#bbcf51"/>
        <path id="Trazado_1055175" data-name="Trazado 1055175" d="M387.747,442.936a8.665,8.665,0,0,0-3.469-7.01c-.041-.029-.083-.059-.125-.086a40.82,40.82,0,0,0-2.845,3.372S387.747,443.611,387.747,442.936Z" transform="translate(-340.533 -389.11)" fill="#8b9d25"/>
        <path id="Trazado_1055176" data-name="Trazado 1055176" d="M15.246,443.488v.3H7.877a.329.329,0,0,1-.328-.34,8.925,8.925,0,0,1,3.469-7.01c.041-.03.083-.059.125-.086C12.964,438.386,15.093,440.618,15.246,443.488Z" transform="translate(-7.549 -389.565)" fill="#bbcf51"/>
        <path id="Trazado_1055177" data-name="Trazado 1055177" d="M25.774,215.547c0,4.079-4.047,7.89-8.143,7.89-1.571,0-3.834,0-6.035-3.587a7.415,7.415,0,0,1,11.4-7.962C23.153,212.492,25.774,214.892,25.774,215.547Z" transform="translate(-10.935 -188.417)" fill="#52668d"/>
        <path id="Trazado_1055178" data-name="Trazado 1055178" d="M28.191,228.718a7.418,7.418,0,0,1-14.581,1.894,7.4,7.4,0,0,0,11.4-7.962A7.369,7.369,0,0,1,28.191,228.718Z" transform="translate(-12.949 -199.179)" fill="#394e6d"/>
        <path id="Trazado_1055179" data-name="Trazado 1055179" d="M259.936,216.5c0,4.079-1.278,7.008-7.972,7.312-1.736.079-4.43-2.3-5.357-3.966a7.415,7.415,0,0,1,11.4-7.962C259.61,214.283,259.936,215.849,259.936,216.5Z" transform="translate(-220.307 -188.417)" fill="#52668d"/>
        <path id="Trazado_1055180" data-name="Trazado 1055180" d="M263.2,228.718a7.419,7.419,0,0,1-14.582,1.894,7.4,7.4,0,0,0,11.4-7.962A7.367,7.367,0,0,1,263.2,228.718Z" transform="translate(-222.321 -199.179)" fill="#394e6d"/>
        <path id="Trazado_1055181" data-name="Trazado 1055181" d="M86.141,17.727c0,6.231-1.022,14.067-9.274,12.129L61.5,29.488v-6.7A14.725,14.725,0,0,1,75.439,8.11l.632.466,1-.466a14.582,14.582,0,0,1,6.645,2.019C87.271,14.382,86.141,16.268,86.141,17.727Z" transform="translate(-55.614 -8.043)" fill="#52668d"/>
        <path id="Trazado_1055182" data-name="Trazado 1055182" d="M216.508,39.419v7.269l-14.148-.34a20.081,20.081,0,0,0,6.853-19.727A14.879,14.879,0,0,1,216.508,39.419Z" transform="translate(-181.107 -24.534)" fill="#394e6d"/>
        <path id="Trazado_1055183" data-name="Trazado 1055183" d="M72.171,193.3a6.034,6.034,0,0,0,4.611-5.855h0a2.4,2.4,0,0,0-2.407-2.4H45.743a2.4,2.4,0,0,0-2.407,2.4h0a6.034,6.034,0,0,0,4.611,5.855Z" transform="translate(-39.432 -165.676)" fill="#f5bb93"/>
        <path id="Trazado_1055184" data-name="Trazado 1055184" d="M103.054,105.739l4.4-4.117a8.519,8.519,0,0,0,2.408-5.934V88.563a1.555,1.555,0,0,1-1.476-1.059l-.921-2.752a8.151,8.151,0,0,0-3.55-4.41L97.9,76.795a.327.327,0,0,0-.332,0L91.6,80.311A8.159,8.159,0,0,0,88,84.752L87.078,87.5A1.554,1.554,0,0,1,85.6,88.563v7.125a8.53,8.53,0,0,0,2.714,6.235l4.089,3.815a7.787,7.787,0,0,0,5.324,2.1c.387,0,3.082.232,3.466.175Z" transform="translate(-77.087 -69.195)" fill="#f5b284"/>
        <g id="Grupo_1225073" data-name="Grupo 1225073" transform="translate(10.479 31.935)">
          <path id="Trazado_1055185" data-name="Trazado 1055185" d="M123.54,313.505l-.4.5-4.392,5.42-1.571-.995a7.36,7.36,0,0,0-3.662-1.149,6.051,6.051,0,0,1-3-.936l-3.887-2.469a1.374,1.374,0,0,1-.639-1.162c0-.015,0-.03,0-.045,0,0,.2-.4.294-.584a5.211,5.211,0,0,1,.691-.416c.2.106.72-.386,1.142-.118l-.884-.561a1.372,1.372,0,0,1-.639-1.162.248.248,0,0,1,0-.044c.042-.227.586-.3.684-.49.019-.037-.031-.049.163-.144,0,0,.856-.753,1.279-.484l-.564-.359a1.375,1.375,0,0,1-.64-1.164c0-.015,0-.03,0-.045.007-.2.3-.319.4-.505a1.737,1.737,0,0,1,.463-.409s.84-.47,1.264-.2l-5.4-3.431a1.373,1.373,0,0,1-.487-1.792c.544-.488.891-.611,1.119-.466l8.7,5.753c2.6,1.395,3.7.346,3.7.338.019-.089.311-.581.33-.666a1.643,1.643,0,0,0,.177-.461.17.17,0,0,0,.005-.025c.051-.245.1-.471.161-.682a6.906,6.906,0,0,1,1.19-2.45,3.031,3.031,0,0,1,.541-.6,2.063,2.063,0,0,1,.567-.313,4.121,4.121,0,0,1,1.261.086c.065.041-.818,3.184-.77,3.709,0,0,.149,4.173.176,4.483a3.186,3.186,0,0,0,1.751,2.758Z" transform="translate(-103.6 -300.234)" fill="#f5b284"/>
        </g>
        <path id="Trazado_1055186" data-name="Trazado 1055186" d="M255.319,419.081H242.9l-4.951-3.1,4.375-7.364,15.261,9.859C257.861,418.653,255.643,419.077,255.319,419.081Z" transform="translate(-212.815 -364.86)" fill="#bbcf51"/>
        <path id="Trazado_1055187" data-name="Trazado 1055187" d="M291.008,415.18h-3.6a.327.327,0,0,0,.172-.6l-13.612-8.7,1.039-1.639,16.175,10.337A.327.327,0,0,1,291.008,415.18Z" transform="translate(-244.905 -360.958)" fill="#8b9d25"/>
        <path id="Trazado_1055188" data-name="Trazado 1055188" d="M226.821,399.781l-4.7,6.3a.962.962,0,0,1-1.337.2l-1.63-1.208a.953.953,0,0,1-.2-1.333l4.665-6.254c.608-.5,1.3-1.3,1.615-1.075l1.75,1.3C227.274,397.921,227.382,398.855,226.821,399.781Z" transform="translate(-195.726 -353.947)" fill="#eaf6ff"/>
        <path id="Trazado_1055189" data-name="Trazado 1055189" d="M267.348,394.342l-.9,1.2a1.045,1.045,0,0,0-.43-.865l-1.75-1.3a1.042,1.042,0,0,0-1.02-.135l.933-1.25a.96.96,0,0,1,1.336-.2l1.631,1.207A.954.954,0,0,1,267.348,394.342Z" transform="translate(-235.355 -349.711)" fill="#d8ecfe"/>
        <g id="Grupo_1225074" data-name="Grupo 1225074" transform="translate(29.325 0)">
          <path id="Trazado_1055190" data-name="Trazado 1055190" d="M426.877,270.708c0,1.215-1.458,1.751-2.677,1.751-.576,0-1.026-.575-1.428-1.159a2.278,2.278,0,0,1-.052-.491,2.36,2.36,0,0,1,3.564-2.018A2.989,2.989,0,0,1,426.877,270.708Z" transform="translate(-406.753 -239.991)" fill="#eaf6ff"/>
          <path id="Trazado_1055191" data-name="Trazado 1055191" d="M427.865,273.508A2.359,2.359,0,0,1,423.2,274a2.209,2.209,0,0,0,3.7-1.62,2.179,2.179,0,0,0-.189-.889A2.343,2.343,0,0,1,427.865,273.508Z" transform="translate(-407.181 -242.691)" fill="#d8ecfe"/>
          <path id="Trazado_1055192" data-name="Trazado 1055192" d="M296.3,10.032c-.1-.011-.2-.018-.3-.022a.338.338,0,0,1-.262-.142c-.1-.137-.2-.27-.311-.4A5.645,5.645,0,0,0,288.821,8a.335.335,0,0,1-.3-.011,4.12,4.12,0,0,0-5.862,2.363.323.323,0,0,1-.307.226,5.032,5.032,0,0,0-4.487,7.335.331.331,0,0,1-.1.426,3.212,3.212,0,0,0-.33,5.053.328.328,0,0,1,.1.305,4.647,4.647,0,0,0,.092,2.059c2.178,2.826,6.556,3.556,9.035,3.556,7.092,0,11.572-3.665,11.572-10.757C298.235,16.855,298.235,12.276,296.3,10.032Z" transform="translate(-276.36 -7.5)" fill="#eaf6ff"/>
          <path id="Trazado_1055193" data-name="Trazado 1055193" d="M401.127,333.505a1.564,1.564,0,0,1-1.676,1.4c-.444,0-.8-.225-1.266-.987a1.733,1.733,0,0,1-.015-.227,1.716,1.716,0,0,1,2.465-1.536A1.9,1.9,0,0,1,401.127,333.505Z" transform="translate(-384.881 -296.582)" fill="#eaf6ff"/>
          <path id="Trazado_1055194" data-name="Trazado 1055194" d="M401.722,335.1a1.714,1.714,0,0,1-3.412.227,1.523,1.523,0,0,0,2.643-1.023,1.5,1.5,0,0,0-.193-.74A1.707,1.707,0,0,1,401.722,335.1Z" transform="translate(-385.006 -297.989)" fill="#d8ecfe"/>
          <path id="Trazado_1055195" data-name="Trazado 1055195" d="M311.011,41.313a.32.32,0,0,0-.018.334,5.023,5.023,0,0,1-2.032,6.82c-.043.023-.116.06-.186.094a.322.322,0,0,0-.181.259,4.432,4.432,0,0,1-.157.839,0,0,0,0,0,0,0,4.409,4.409,0,0,1-6.18,2.707.323.323,0,0,0-.367.058,5.321,5.321,0,0,1-8.791-2.3.324.324,0,0,0-.328-.232,4.722,4.722,0,0,1-4.79-3.456,12.845,12.845,0,0,0,18.668-15.724,4.529,4.529,0,0,1,3.836,5.924.323.323,0,0,0,.084.332,3.386,3.386,0,0,1,.442,4.346Z" transform="translate(-286.713 -28.179)" fill="#d8ecfe"/>
          <path id="Trazado_1055196" data-name="Trazado 1055196" d="M338.783,60.249c-1.133,9.045-5.873,8.921-10.016,8.921a7.654,7.654,0,1,1,10.016-8.921Z" transform="translate(-318.464 -49.194)" fill="#7ccbf1"/>
          <path id="Trazado_1055197" data-name="Trazado 1055197" d="M381.006,110.529a7.684,7.684,0,0,1-10.206,7.222,12.855,12.855,0,0,0,10.016-8.921A7.648,7.648,0,0,1,381.006,110.529Z" transform="translate(-360.497 -97.776)" fill="#4fabda"/>
        </g>
      </g>
      <g id="Grupo_1225081" data-name="Grupo 1225081" transform="translate(7.5 7.5)">
        <g id="Grupo_1225076" data-name="Grupo 1225076" transform="translate(0 43.824)">
          <path id="Trazado_1055198" data-name="Trazado 1055198" d="M7.5,419.343a8.5,8.5,0,0,1,3.474-7.081c1.7-1.216,3.862-1.557,5.854-2.073.6-.155,2.408-.656,3.572-.973" transform="translate(-7.5 -409.216)" fill="none" stroke="#000" stroke-linecap="round" stroke-linejoin="round" stroke-miterlimit="10" stroke-width="1"/>
        </g>
        <g id="Grupo_1225078" data-name="Grupo 1225078" transform="translate(32.316 43.703)">
          <g id="Grupo_1225077" data-name="Grupo 1225077">
            <path id="Trazado_1055199" data-name="Trazado 1055199" d="M318.486,418.354a8.5,8.5,0,0,0-3.474-7.081c-1.7-1.216-3.862-1.557-5.854-2.073-.6-.155-4.27-.777-5.434-1.094" transform="translate(-303.724 -408.106)" fill="none" stroke="#000" stroke-linecap="round" stroke-linejoin="round" stroke-miterlimit="10" stroke-width="1"/>
          </g>
          <path id="Trazado_1055200" data-name="Trazado 1055200" d="M384.322,436.341a30.08,30.08,0,0,0-2.661,3.232" transform="translate(-373.159 -433.261)" fill="none" stroke="#000" stroke-linecap="round" stroke-linejoin="round" stroke-miterlimit="10" stroke-width="1"/>
        </g>
        <path id="Trazado_1055201" data-name="Trazado 1055201" d="M40.487,436.341c1.821,2.036,3.951,4.268,4.1,7.139" transform="translate(-36.888 -389.557)" fill="none" stroke="#000" stroke-linecap="round" stroke-linejoin="round" stroke-miterlimit="10" stroke-width="1"/>
        <g id="Grupo_1225079" data-name="Grupo 1225079" transform="translate(0.42 23.201)">
          <path id="Trazado_1055202" data-name="Trazado 1055202" d="M23.435,232.24a7.4,7.4,0,1,1-8.483-12.07" transform="translate(-11.346 -220.17)" fill="none" stroke="#000" stroke-linecap="round" stroke-linejoin="round" stroke-miterlimit="10" stroke-width="1"/>
          <path id="Trazado_1055203" data-name="Trazado 1055203" d="M276.11,329.252a7.446,7.446,0,0,1-8.01-1.356" transform="translate(-240.09 -316.144)" fill="none" stroke="#000" stroke-linecap="round" stroke-linejoin="round" stroke-miterlimit="10" stroke-width="1"/>
          <path id="Trazado_1055204" data-name="Trazado 1055204" d="M369.393,243.429a7.366,7.366,0,0,1-.394,8.188" transform="translate(-329.982 -240.892)" fill="none" stroke="#000" stroke-linecap="round" stroke-linejoin="round" stroke-miterlimit="10" stroke-width="1"/>
        </g>
        <path id="Trazado_1055205" data-name="Trazado 1055205" d="M65.294,12.765A14.735,14.735,0,0,1,87.016,12.6M61.5,27.224V22.6a14.591,14.591,0,0,1,1.618-6.7" transform="translate(-55.61 -7.86)" fill="none" stroke="#000" stroke-linecap="round" stroke-linejoin="round" stroke-miterlimit="10" stroke-width="1"/>
        <line id="Línea_1046" data-name="Línea 1046" y1="6.994" transform="translate(20.648 0.334)" fill="none" stroke="#000" stroke-linecap="round" stroke-linejoin="round" stroke-miterlimit="10" stroke-width="1"/>
        <path id="Trazado_1055206" data-name="Trazado 1055206" d="M47.947,193.3a6.034,6.034,0,0,1-4.611-5.855h0a2.4,2.4,0,0,1,2.407-2.4h2.2" transform="translate(-39.427 -165.676)" fill="none" stroke="#000" stroke-linecap="round" stroke-linejoin="round" stroke-miterlimit="10" stroke-width="1"/>
        <path id="Trazado_1055207" data-name="Trazado 1055207" d="M311.766,228.916a6.057,6.057,0,0,1-4.118,3.467" transform="translate(-274.904 -204.761)" fill="none" stroke="#000" stroke-linecap="round" stroke-linejoin="round" stroke-miterlimit="10" stroke-width="1"/>
        <path id="Trazado_1055208" data-name="Trazado 1055208" d="M106.35,82.151a8.156,8.156,0,0,0-2.44-2.241L97.73,76.266,91.6,79.88A8.159,8.159,0,0,0,88,84.321l-.921,2.752A1.554,1.554,0,0,1,85.6,88.132v7.125a8.527,8.527,0,0,0,2.175,5.684" transform="translate(-77.082 -68.764)" fill="none" stroke="#000" stroke-linecap="round" stroke-linejoin="round" stroke-miterlimit="10" stroke-width="1"/>
        <path id="Trazado_1055209" data-name="Trazado 1055209" d="M273.731,214.181l1.324-1.24a8.518,8.518,0,0,0,2.408-5.934V201.7" transform="translate(-244.687 -180.514)" fill="none" stroke="#000" stroke-linecap="round" stroke-linejoin="round" stroke-miterlimit="10" stroke-width="1"/>
        <path id="Trazado_1055210" data-name="Trazado 1055210" d="M188.462,254.916a2.577,2.577,0,0,1-2.331,0" transform="translate(-166.644 -227.925)" fill="none" stroke="#000" stroke-linecap="round" stroke-linejoin="round" stroke-miterlimit="10" stroke-width="1"/>
        <path id="Trazado_1055211" data-name="Trazado 1055211" d="M136.7,159.3a4.445,4.445,0,0,0-4.264,0" transform="translate(-118.805 -142.258)" fill="none" stroke="#000" stroke-linecap="round" stroke-linejoin="round" stroke-miterlimit="10" stroke-width="1"/>
        <path id="Trazado_1055212" data-name="Trazado 1055212" d="M222.112,172.844a4.444,4.444,0,0,1,4.264,0" transform="translate(-198.699 -154.321)" fill="none" stroke="#000" stroke-linecap="round" stroke-linejoin="round" stroke-miterlimit="10" stroke-width="1"/>
        <path id="Trazado_1055218" data-name="Trazado 1055218" d="M222.112,172.3a4.444,4.444,0,0,0,4.264,0" transform="translate(-203.463 -141.639)" fill="none" stroke="#000" stroke-linecap="round" stroke-linejoin="round" stroke-miterlimit="10" stroke-width="1"/>
        <line id="Línea_1048" data-name="Línea 1048" y1="1.884" transform="translate(25.545 21.445)" fill="none" stroke="#000" stroke-linecap="round" stroke-linejoin="round" stroke-miterlimit="10" stroke-width="1"/>
        <line id="Línea_1049" data-name="Línea 1049" y1="1.884" transform="translate(15.761 21.445)" fill="none" stroke="#000" stroke-linecap="round" stroke-linejoin="round" stroke-miterlimit="10" stroke-width="1"/>
        <path id="Trazado_1055213" data-name="Trazado 1055213" d="M121.706,308.914a4.375,4.375,0,0,1-.359-2.381,8.317,8.317,0,0,0-.007-1.956l-.162-1.8a2.713,2.713,0,0,1,.305-1.517l.538-1.014a.545.545,0,0,0-.05-.588.639.639,0,0,0-.169-.145,1.834,1.834,0,0,0-2.123.153,3.046,3.046,0,0,0-.541.6,7.193,7.193,0,0,0-1.351,3.132l-.005.026a1.659,1.659,0,0,1-2.511,1.03l-9.543-6.06a1.386,1.386,0,0,0-1.91.422h0a1.375,1.375,0,0,0,.423,1.9l7.717,4.9-2.315-1.47a1.386,1.386,0,0,0-1.91.422h0a1.375,1.375,0,0,0,.423,1.9l.565.359,1.75,1.111-1.75-1.111a1.386,1.386,0,0,0-1.91.422h0a1.375,1.375,0,0,0,.423,1.9l.883.561,1.185.752-1.185-.752a1.387,1.387,0,0,0-1.91.422h0a1.375,1.375,0,0,0,.422,1.9l3.887,2.468a6.042,6.042,0,0,0,3,.936h0a7.355,7.355,0,0,1,2.811.682" transform="translate(-93.117 -266.464)" fill="none" stroke="#000" stroke-linecap="round" stroke-linejoin="round" stroke-miterlimit="10" stroke-width="1"/>
        <line id="Línea_1050" data-name="Línea 1050" x2="7.72" y2="4.854" transform="translate(39.358 49.097)" fill="none" stroke="#000" stroke-linecap="round" stroke-linejoin="round" stroke-miterlimit="10" stroke-width="1"/>
        <line id="Línea_1051" data-name="Línea 1051" x2="3.938" y2="2.476" transform="translate(32.185 44.587)" fill="none" stroke="#000" stroke-linecap="round" stroke-linejoin="round" stroke-miterlimit="10" stroke-width="1"/>
        <line id="Línea_1052" data-name="Línea 1052" x1="3.424" y1="2.153" transform="translate(26.64 52.066)" fill="none" stroke="#000" stroke-linecap="round" stroke-linejoin="round" stroke-miterlimit="10" stroke-width="1"/>
        <path id="Trazado_1055214" data-name="Trazado 1055214" d="M227.719,394.343l-5.6,7.5a.961.961,0,0,1-1.337.2l-1.631-1.207a.953.953,0,0,1-.2-1.333l5.6-7.5a.961.961,0,0,1,1.337-.2l1.631,1.207A.953.953,0,0,1,227.719,394.343Z" transform="translate(-195.722 -349.711)" fill="none" stroke="#000" stroke-linecap="round" stroke-linejoin="round" stroke-miterlimit="10" stroke-width="1"/>
        <ellipse id="Elipse_13544" data-name="Elipse 13544" cx="2.359" cy="2.35" rx="2.359" ry="2.35" transform="translate(45.297 28.468)" fill="none" stroke="#000" stroke-linecap="round" stroke-linejoin="round" stroke-miterlimit="10" stroke-width="1"/>
        <ellipse id="Elipse_13545" data-name="Elipse 13545" cx="1.714" cy="1.708" rx="1.714" ry="1.708" transform="translate(42.62 35.399)" fill="none" stroke="#000" stroke-linecap="round" stroke-linejoin="round" stroke-miterlimit="10" stroke-width="1"/>
        <path id="Trazado_1055215" data-name="Trazado 1055215" d="M300.54,20.795a3.386,3.386,0,0,0-.478-4.646,4.535,4.535,0,0,0-4.232-6.141,5.312,5.312,0,0,0-.406-.537,5.644,5.644,0,0,0-6.755-1.4h0a4.119,4.119,0,0,0-6.075,2.513,5.031,5.031,0,0,0-4.576,7.6,3.214,3.214,0,0,0-.443,5.326,4.708,4.708,0,0,0,5.1,5.683,5.319,5.319,0,0,0,9.022,2.391,4.41,4.41,0,0,0,6.383-2.6,0,0,0,0,1,0,0,4.4,4.4,0,0,0,.169-1.017l.074-.033a5.023,5.023,0,0,0,2.213-7.135Z" transform="translate(-247.029 -7.5)" fill="none" stroke="#000" stroke-linecap="round" stroke-linejoin="round" stroke-miterlimit="10" stroke-width="1"/>
        <path id="Trazado_1055216" data-name="Trazado 1055216" d="M333.25,56.412a7.677,7.677,0,1,1-3.818-.02" transform="translate(-289.137 -51.058)" fill="none" stroke="#000" stroke-linecap="round" stroke-linejoin="round" stroke-miterlimit="10" stroke-width="1"/>
        <g id="Grupo_1225080" data-name="Grupo 1225080" transform="translate(40.126 8.789)">
          <path id="Trazado_1055217" data-name="Trazado 1055217" d="M375.312,90.094a2.037,2.037,0,1,1,2.037,2.03v1.689" transform="translate(-375.312 -88.064)" fill="none" stroke="#000" stroke-linecap="round" stroke-linejoin="round" stroke-miterlimit="10" stroke-width="1"/>
          <line id="Línea_1053" data-name="Línea 1053" transform="translate(2.037 8.149)" fill="none" stroke="#000" stroke-linecap="round" stroke-linejoin="round" stroke-miterlimit="10" stroke-width="1"/>
        </g>
      </g>
    </g>
  </g>
</svg>
