<svg xmlns="http://www.w3.org/2000/svg" xmlns:xlink="http://www.w3.org/1999/xlink" width="108" height="108" viewBox="0 0 108 108">
  <defs>
    <filter id="Trazado_904820" x="0" y="0" width="108" height="108" filterUnits="userSpaceOnUse">
      <feOffset dy="3" input="SourceAlpha"/>
      <feGaussianBlur stdDeviation="3" result="blur"/>
      <feFlood flood-opacity="0.161"/>
      <feComposite operator="in" in2="blur"/>
      <feComposite in="SourceGraphic"/>
    </filter>
  </defs>
  <g id="Grupo_1224408" data-name="Grupo 1224408" transform="translate(9 6)">
    <g id="Grupo_1209296" data-name="Grupo 1209296" transform="translate(0 0)">
      <g id="Grupo_1208347" data-name="Grupo 1208347">
        <g id="Grupo_1207936" data-name="Grupo 1207936">
          <g id="Grupo_1201662" data-name="Grupo 1201662">
            <g id="Grupo_1173585" data-name="Grupo 1173585">
              <g id="Grupo_1173428" data-name="Grupo 1173428">
                <g id="Grupo_1171958" data-name="Grupo 1171958">
                  <g id="Grupo_1167341" data-name="Grupo 1167341">
                    <g id="Grupo_1166792" data-name="Grupo 1166792">
                      <g transform="matrix(1, 0, 0, 1, -9, -6)" filter="url(#Trazado_904820)">
                        <g id="Trazado_904820-2" data-name="Trazado 904820" transform="translate(9 6)" fill="#fdfbec">
                          <path d="M 44.99999618530273 88.49999237060547 C 39.12687301635742 88.49999237060547 33.43022155761719 87.35006713867188 28.06829643249512 85.08216857910156 C 22.88852119445801 82.89130401611328 18.23629570007324 79.75457763671875 14.24084663391113 75.75914001464844 C 10.24540901184082 71.76369476318359 7.108683586120605 67.11146545410156 4.917821407318115 61.93169403076172 C 2.649921178817749 56.56976699829102 1.499996185302734 50.87311553955078 1.499996185302734 44.99999237060547 C 1.499996185302734 39.12686920166016 2.649921178817749 33.43021774291992 4.917821407318115 28.06829261779785 C 7.108683586120605 22.88851737976074 10.24540901184082 18.23630523681641 14.24084663391113 14.24085521697998 C 18.23629570007324 10.24540519714355 22.88852119445801 7.108692169189453 28.06829643249512 4.917829990386963 C 33.43022155761719 2.649929761886597 39.12687301635742 1.500004887580872 44.99999618530273 1.500004887580872 C 50.87311935424805 1.500004887580872 56.56977081298828 2.649929761886597 61.93169784545898 4.917829990386963 C 67.11147308349609 7.108692169189453 71.76369476318359 10.24540519714355 75.75914764404297 14.24085521697998 C 79.75458526611328 18.23630523681641 82.89131164550781 22.88851737976074 85.08216857910156 28.06829261779785 C 87.35007476806641 33.43021774291992 88.5 39.12686920166016 88.5 44.99999237060547 C 88.5 50.87311553955078 87.35007476806641 56.56976699829102 85.08216857910156 61.93169403076172 C 82.89131164550781 67.11146545410156 79.75458526611328 71.76369476318359 75.75914764404297 75.75914001464844 C 71.76369476318359 79.75457763671875 67.11147308349609 82.89130401611328 61.93169784545898 85.08216857910156 C 56.56977081298828 87.35006713867188 50.87311935424805 88.49999237060547 44.99999618530273 88.49999237060547 Z" stroke="none"/>
                          <path d="M 44.99999618530273 2.999992370605469 C 39.32870864868164 2.999992370605469 33.82865142822266 4.11004638671875 28.65262603759766 6.299331665039062 C 23.65165710449219 8.414566040039062 19.15968322753906 11.44333648681641 15.301513671875 15.30150604248047 C 11.44333648681641 19.15967559814453 8.414566040039062 23.65164947509766 6.299339294433594 28.65262222290039 C 4.110054016113281 33.82864761352539 2.999992370605469 39.32870483398438 2.999992370605469 44.99999237060547 C 2.999992370605469 50.67127990722656 4.110054016113281 56.17132186889648 6.299339294433594 61.34736633300781 C 8.414566040039062 66.34833526611328 11.44333648681641 70.84029388427734 15.301513671875 74.69846343994141 C 19.15968322753906 78.55663299560547 23.65165710449219 81.58540344238281 28.65262603759766 83.70063781738281 C 33.82865142822266 85.88992309570312 39.32870864868164 86.99997711181641 44.99999618530273 86.99997711181641 C 50.67128372192383 86.99997711181641 56.17134094238281 85.88992309570312 61.34736633300781 83.70063781738281 C 66.34834289550781 81.58540344238281 70.84030914306641 78.55663299560547 74.69847869873047 74.69846343994141 C 78.55665588378906 70.84029388427734 81.58542633056641 66.34833526611328 83.70065307617188 61.34736633300781 C 85.88993835449219 56.17132186889648 87 50.67127990722656 87 44.99999237060547 C 87 39.32870483398438 85.88993835449219 33.82864761352539 83.70065307617188 28.65262222290039 C 81.58542633056641 23.65164947509766 78.55665588378906 19.15967559814453 74.69847869873047 15.30150604248047 C 70.84030914306641 11.44333648681641 66.34834289550781 8.414566040039062 61.34736633300781 6.299331665039062 C 56.17134094238281 4.11004638671875 50.67128372192383 2.999992370605469 44.99999618530273 2.999992370605469 M 44.99999618530273 -7.62939453125e-06 C 69.85281372070312 -7.62939453125e-06 90 20.14717864990234 90 44.99999237060547 C 90 69.85279083251953 69.85281372070312 89.99997711181641 44.99999618530273 89.99997711181641 C 20.14717864990234 89.99997711181641 -7.62939453125e-06 69.85279083251953 -7.62939453125e-06 44.99999237060547 C -7.62939453125e-06 20.14717864990234 20.14717864990234 -7.62939453125e-06 44.99999618530273 -7.62939453125e-06 Z" stroke="none" fill="#83793c"/>
                        </g>
                      </g>
                    </g>
                  </g>
                </g>
              </g>
            </g>
          </g>
        </g>
      </g>
    </g>
    <g id="lantern_1032561" transform="translate(18.284 14.381)">
      <path id="Trazado_1055347" data-name="Trazado 1055347" d="M90.149,186.473,79.739,176.059,59.217,196.591,69.626,207Z" transform="translate(-52.5 -156.377)" fill="#008eb0"/>
      <path id="Trazado_1055348" data-name="Trazado 1055348" d="M16.427,359.718l-5.386,5.388L21.45,375.52l5.386-5.388Z" transform="translate(-9.709 -319.504)" fill="#a4ddf2"/>
      <path id="Trazado_1055349" data-name="Trazado 1055349" d="M13.526,437.562l-3.417,3.419,3.784,3.785,3.417-3.418Z" transform="translate(-8.881 -388.646)" fill="#008eb0"/>
      <path id="Trazado_1055350" data-name="Trazado 1055350" d="M293.668,66.084l-17.642-17.65,3.73-3.732L297.4,62.352Z" transform="translate(-245.071 -39.705)" fill="#47b095"/>
      <path id="Trazado_1055351" data-name="Trazado 1055351" d="M353.221,73.946a7.154,7.154,0,0,0-10.1-10.105Z" transform="translate(-304.664 -55.071)" fill="#ffcf7c"/>
      <path id="Trazado_1055352" data-name="Trazado 1055352" d="M245.819,108.353,233.284,95.813l5.765-8.9,15.669,15.676Z" transform="translate(-207.107 -77.194)" fill="#a4ddf2"/>
      <path id="Trazado_1055353" data-name="Trazado 1055353" d="M208.1,244.394l2.9-2.9a2.932,2.932,0,0,0,0-4.145l-.121-.121a2.929,2.929,0,0,0-4.143,0l-2.9,2.9Z" transform="translate(-180.953 -209.942)" fill="#f48ba5"/>
      <path id="Trazado_1055354" data-name="Trazado 1055354" d="M199.221,236.63h0a1.117,1.117,0,0,1-.791-.328l-4.264-4.266a1.118,1.118,0,0,1,0-1.581l2.9-2.9a4.02,4.02,0,0,1,2.862-1.186h0a4.021,4.021,0,0,1,2.862,1.186l.121.121a4.054,4.054,0,0,1,0,5.725l-2.9,2.9A1.118,1.118,0,0,1,199.221,236.63Zm-2.683-5.384,2.683,2.685,2.113-2.113a1.816,1.816,0,0,0,0-2.564l-.121-.121a1.811,1.811,0,0,0-2.561,0Z" transform="translate(-172.072 -201.059)"/>
      <path id="Trazado_1055355" data-name="Trazado 1055355" d="M185.217,310.161a1.1,1.1,0,0,1-.218-.022,1.164,1.164,0,0,1-.21-.064,1.136,1.136,0,0,1-.192-.1,1.068,1.068,0,0,1-.17-.139,1.055,1.055,0,0,1-.139-.17,1.1,1.1,0,0,1-.1-.193,1.133,1.133,0,0,1-.065-.209,1.1,1.1,0,0,1-.021-.218,1.126,1.126,0,0,1,.328-.79,1.113,1.113,0,0,1,.362-.243,1.166,1.166,0,0,1,.21-.064,1.107,1.107,0,0,1,.437,0,1.182,1.182,0,0,1,.209.064,1.12,1.12,0,0,1,.69,1.033,1.11,1.11,0,0,1-.021.218,1.133,1.133,0,0,1-.065.209,1.108,1.108,0,0,1-.1.193,1.088,1.088,0,0,1-.309.309,1.132,1.132,0,0,1-.192.1,1.18,1.18,0,0,1-.209.064A1.12,1.12,0,0,1,185.217,310.161Z" transform="translate(-163.421 -273.501)"/>
      <path id="Trazado_1055356" data-name="Trazado 1055356" d="M53.118,52.68l-3.069-3.07A8.273,8.273,0,0,0,38.544,38.1l-3.068-3.07a1.118,1.118,0,0,0-1.581,0l-3.73,3.732a1.118,1.118,0,0,0,0,1.581l.348.348-5.273,8.144a1.118,1.118,0,0,0,.148,1.4l.273.273L5.927,70.246.541,75.634a1.118,1.118,0,0,0,0,1.581l2.523,2.524L.437,82.367a1.118,1.118,0,0,0,0,1.581L4.22,87.732a1.118,1.118,0,0,0,1.581,0l2.626-2.627,2.522,2.523a1.118,1.118,0,0,0,1.581,0l5.386-5.388L37.649,62.5l.272.273a1.118,1.118,0,0,0,1.4.148l8.139-5.275.347.347a1.118,1.118,0,0,0,1.581,0l3.73-3.732A1.118,1.118,0,0,0,53.118,52.68ZM5.011,85.361l-2.2-2.2L4.645,81.32l2.2,2.2ZM6.717,72.618l3.624,3.626L6.536,80.05,2.912,76.424Zm5.023,12.639L8.117,81.631l3.805-3.807,3.624,3.626Zm5.386-5.388L13.5,76.243,19.943,69.8a1.118,1.118,0,0,0-1.581-1.581l-6.44,6.443L8.3,71.036,27.24,52.086l8.828,8.832ZM38.863,60.552,27.606,49.29l4.522-6.983L45.843,56.028ZM47.508,40.64a6.037,6.037,0,0,1,.924,7.352L40.16,39.716A6.029,6.029,0,0,1,47.508,40.64ZM48.6,55.62,32.536,39.552l2.149-2.15L50.746,53.47Z" transform="translate(0 -30.823)"/>
      <path id="Trazado_1055357" data-name="Trazado 1055357" d="M448.086,36.6a1.118,1.118,0,0,1-.791-1.908l1.331-1.332a1.118,1.118,0,0,1,1.581,1.581l-1.331,1.332A1.115,1.115,0,0,1,448.086,36.6Z" transform="translate(-396.903 -29.336)"/>
      <path id="Trazado_1055358" data-name="Trazado 1055358" d="M380.295,4.12A1.118,1.118,0,0,1,379.177,3V1.118a1.118,1.118,0,1,1,2.236,0V3A1.118,1.118,0,0,1,380.295,4.12Z" transform="translate(-336.691)"/>
      <path id="Trazado_1055359" data-name="Trazado 1055359" d="M478.048,115h-1.883a1.118,1.118,0,1,1,0-2.236h1.883a1.118,1.118,0,0,1,0,2.236Z" transform="translate(-421.843 -100.157)"/>
    </g>
  </g>
</svg>
