<svg xmlns="http://www.w3.org/2000/svg" xmlns:xlink="http://www.w3.org/1999/xlink" width="118" height="118" viewBox="0 0 118 118">
  <defs>
    <filter id="Trazado_982547" x="0" y="0" width="118" height="118" filterUnits="userSpaceOnUse">
      <feOffset dy="3" input="SourceAlpha"/>
      <feGaussianBlur stdDeviation="3" result="blur"/>
      <feFlood flood-opacity="0.161"/>
      <feComposite operator="in" in2="blur"/>
      <feComposite in="SourceGraphic"/>
    </filter>
  </defs>
  <g id="Grupo_1225128" data-name="Grupo 1225128" transform="translate(-320 -1887.453)">
    <g id="Grupo_1224410" data-name="Grupo 1224410" transform="translate(-1 -550.343)">
      <g id="Grupo_1223958" data-name="Grupo 1223958" transform="translate(0 -2682.959)">
        <g id="Grupo_1223827" data-name="Grupo 1223827" transform="translate(330 5126.756)">
          <g id="Grupo_1223741" data-name="Grupo 1223741">
            <g id="Grupo_1223199" data-name="Grupo 1223199">
              <g id="Grupo_1211216" data-name="Grupo 1211216" transform="translate(0)">
                <g id="Grupo_1210737" data-name="Grupo 1210737">
                  <g id="Grupo_1210537" data-name="Grupo 1210537">
                    <g id="Grupo_1164202" data-name="Grupo 1164202">
                      <g id="Grupo_1158168" data-name="Grupo 1158168">
                        <g id="Grupo_1152576" data-name="Grupo 1152576">
                          <g id="Grupo_1148633" data-name="Grupo 1148633">
                            <g id="Grupo_1148525" data-name="Grupo 1148525">
                              <g transform="matrix(1, 0, 0, 1, -9, -6)" filter="url(#Trazado_982547)">
                                <g id="Trazado_982547-2" data-name="Trazado 982547" transform="translate(9 6)" fill="#fdfbec">
                                  <path d="M 49.99999618530273 98.5 C 43.45188140869141 98.5 37.10042572021484 97.21786499023438 31.12206840515137 94.68923950195312 C 25.34691047668457 92.24655151367188 20.15996742248535 88.74931335449219 15.70532512664795 84.29468536376953 C 11.25068187713623 79.84004211425781 7.753438949584961 74.65309906005859 5.310753345489502 68.87792205810547 C 2.782124757766724 62.89956665039062 1.499996185302734 56.54811096191406 1.499996185302734 49.99999618530273 C 1.499996185302734 43.45188140869141 2.782124757766724 37.10042572021484 5.310753345489502 31.12206840515137 C 7.753438949584961 25.34691047668457 11.25068187713623 20.15996742248535 15.70532512664795 15.70532512664795 C 20.15996742248535 11.25068187713623 25.34691047668457 7.753438949584961 31.12206840515137 5.310753345489502 C 37.10042572021484 2.782124757766724 43.45188140869141 1.499996185302734 49.99999618530273 1.499996185302734 C 56.54811096191406 1.499996185302734 62.89956665039062 2.782124757766724 68.87792205810547 5.310753345489502 C 74.65309906005859 7.753438949584961 79.84004211425781 11.25068187713623 84.29468536376953 15.70532512664795 C 88.74931335449219 20.15996742248535 92.24655151367188 25.34691047668457 94.68923950195312 31.12206840515137 C 97.21786499023438 37.10042572021484 98.5 43.45188140869141 98.5 49.99999618530273 C 98.5 56.54811096191406 97.21786499023438 62.89956665039062 94.68923950195312 68.87792205810547 C 92.24655151367188 74.65309906005859 88.74931335449219 79.84004211425781 84.29468536376953 84.29468536376953 C 79.84004211425781 88.74931335449219 74.65309906005859 92.24655151367188 68.87792205810547 94.68923950195312 C 62.89956665039062 97.21786499023438 56.54811096191406 98.5 49.99999618530273 98.5 Z" stroke="none"/>
                                  <path d="M 49.99999618530273 2.999992370605469 C 43.65372085571289 2.999992370605469 37.49885940551758 4.242256164550781 31.70639801025391 6.6922607421875 C 26.11002349853516 9.059318542480469 21.08335113525391 12.4486083984375 16.76598358154297 16.76598358154297 C 12.4486083984375 21.08335113525391 9.059318542480469 26.11002349853516 6.6922607421875 31.70639801025391 C 4.242256164550781 37.49885940551758 2.999992370605469 43.65372085571289 2.999992370605469 49.99999618530273 C 2.999992370605469 56.34627151489258 4.242256164550781 62.50113296508789 6.6922607421875 68.29359436035156 C 9.059318542480469 73.88996887207031 12.4486083984375 78.91664123535156 16.76598358154297 83.2340087890625 C 21.08335113525391 87.55138397216797 26.11002349853516 90.940673828125 31.70639801025391 93.30773162841797 C 37.49885940551758 95.75773620605469 43.65372085571289 97 49.99999618530273 97 C 56.34627151489258 97 62.50113296508789 95.75773620605469 68.29359436035156 93.30773162841797 C 73.88996887207031 90.940673828125 78.91664123535156 87.55138397216797 83.2340087890625 83.2340087890625 C 87.55138397216797 78.91664123535156 90.940673828125 73.88996887207031 93.30773162841797 68.29359436035156 C 95.75773620605469 62.50113296508789 97 56.34627151489258 97 49.99999618530273 C 97 43.65372085571289 95.75773620605469 37.49885940551758 93.30773162841797 31.70639801025391 C 90.940673828125 26.11002349853516 87.55138397216797 21.08335113525391 83.2340087890625 16.76598358154297 C 78.91664123535156 12.4486083984375 73.88996887207031 9.059318542480469 68.29359436035156 6.6922607421875 C 62.50113296508789 4.242256164550781 56.34627151489258 2.999992370605469 49.99999618530273 2.999992370605469 M 49.99999618530273 -7.62939453125e-06 C 77.61422729492188 -7.62939453125e-06 100 22.38576507568359 100 49.99999618530273 C 100 77.61422729492188 77.61422729492188 100 49.99999618530273 100 C 22.38576507568359 100 -7.62939453125e-06 77.61422729492188 -7.62939453125e-06 49.99999618530273 C -7.62939453125e-06 22.38576507568359 22.38576507568359 -7.62939453125e-06 49.99999618530273 -7.62939453125e-06 Z" stroke="none" fill="#83793c"/>
                                </g>
                              </g>
                            </g>
                          </g>
                        </g>
                      </g>
                    </g>
                  </g>
                </g>
              </g>
            </g>
          </g>
        </g>
      </g>
    </g>
    <g id="calm_6000753" transform="translate(325.816 1905.5)">
      <g id="Grupo_1225085" data-name="Grupo 1225085" transform="translate(34.783 55.482)">
        <path id="Trazado_1055240" data-name="Trazado 1055240" d="M88.272,193.433H69.5a10.014,10.014,0,0,0-10.014,10.014v4.13h38.8v-4.13A10.014,10.014,0,0,0,88.272,193.433Z" transform="translate(-59.484 -193.433)" fill="#6bdddd"/>
      </g>
      <g id="Grupo_1225086" data-name="Grupo 1225086" transform="translate(34.217 54.916)">
        <path id="Trazado_1055241" data-name="Trazado 1055241" d="M96.853,206.71H58.05a.567.567,0,0,1-.566-.566v-4.13a10.592,10.592,0,0,1,10.581-10.581H86.838a10.592,10.592,0,0,1,10.581,10.581v4.13A.567.567,0,0,1,96.853,206.71Zm-38.236-1.133H96.286v-3.564a9.459,9.459,0,0,0-9.448-9.448H68.064a9.459,9.459,0,0,0-9.448,9.448v3.564Z" transform="translate(-57.484 -191.433)" fill="#212429"/>
      </g>
      <g id="Grupo_1225087" data-name="Grupo 1225087" transform="translate(47.781 52.481)">
        <path id="Trazado_1055242" data-name="Trazado 1055242" d="M111.791,183.944a18.925,18.925,0,0,1-6.4-1.11v3.742a6.4,6.4,0,1,0,12.806,0v-3.742A18.925,18.925,0,0,1,111.791,183.944Z" transform="translate(-105.388 -182.834)" fill="#f9cfcf"/>
      </g>
      <g id="Grupo_1225088" data-name="Grupo 1225088" transform="translate(47.215 51.915)">
        <path id="Trazado_1055243" data-name="Trazado 1055243" d="M110.357,192.11a6.977,6.977,0,0,1-6.969-6.969V181.4a.566.566,0,0,1,.757-.533,18.459,18.459,0,0,0,12.423,0,.566.566,0,0,1,.757.533v3.741A6.977,6.977,0,0,1,110.357,192.11Zm-5.837-9.923v2.954a5.837,5.837,0,1,0,11.673,0v-2.954a19.607,19.607,0,0,1-11.673,0Z" transform="translate(-103.388 -180.833)" fill="#212429"/>
      </g>
      <g id="Grupo_1225091" data-name="Grupo 1225091" transform="translate(29.314 21.687)">
        <g id="Grupo_1225089" data-name="Grupo 1225089" transform="translate(6.558)">
          <path id="Trazado_1055244" data-name="Trazado 1055244" d="M63.687,74.083c-.067.028-.132.052-.2.078-.054.2-.111.406-.16.615A2.271,2.271,0,0,0,63.687,74.083Z" transform="translate(-63.328 -74.083)" fill="#f9cfcf"/>
        </g>
        <g id="Grupo_1225090" data-name="Grupo 1225090" transform="translate(0 0.36)">
          <path id="Trazado_1055245" data-name="Trazado 1055245" d="M84,81.527h-.012a12.485,12.485,0,0,1-5.969-6.171,12.185,12.185,0,0,1-3.276,2.48A38.9,38.9,0,0,1,46.082,81.14c0,.13-.008.256-.008.387a5.809,5.809,0,0,0-5.906,5.812c0,2.973,2.146,5.812,6.483,5.812a18.968,18.968,0,0,0,36.777,0c4.378,0,6.483-2.873,6.483-5.812A5.812,5.812,0,0,0,84,81.527Z" transform="translate(-40.168 -75.354)" fill="#f9cfcf"/>
        </g>
      </g>
      <g id="Grupo_1225094" data-name="Grupo 1225094" transform="translate(28.747 21.121)">
        <g id="Grupo_1225092" data-name="Grupo 1225092" transform="translate(6.558)">
          <path id="Trazado_1055246" data-name="Trazado 1055246" d="M61.894,73.908a.566.566,0,0,1-.551-.7c.039-.166.083-.33.127-.492l.037-.139a.567.567,0,0,1,.336-.379l.089-.035.1-.039a.566.566,0,0,1,.773.654,2.77,2.77,0,0,1-.448.888.566.566,0,0,1-.462.238Z" transform="translate(-61.328 -72.083)" fill="#3762cc"/>
        </g>
        <g id="Grupo_1225093" data-name="Grupo 1225093" transform="translate(0 0.36)">
          <path id="Trazado_1055247" data-name="Trazado 1055247" d="M63.605,106.6A19.5,19.5,0,0,1,44.778,92.275c-4.538-.194-6.61-3.391-6.61-6.369a6.341,6.341,0,0,1,5.937-6.358.567.567,0,0,1,.694-.387A38.242,38.242,0,0,0,73.052,75.9a11.6,11.6,0,0,0,3.124-2.366.566.566,0,0,1,.919.133,11.92,11.92,0,0,0,5.587,5.862,6.354,6.354,0,0,1,6.361,6.378c0,2.978-2.072,6.176-6.61,6.369A19.5,19.5,0,0,1,63.605,106.6Zm-18.5-26.182a.566.566,0,0,1-.466.245A5.237,5.237,0,0,0,39.3,85.906c0,2.611,1.829,5.246,5.916,5.246a.566.566,0,0,1,.549.428,18.4,18.4,0,0,0,35.678,0,.566.566,0,0,1,.549-.428c4.087,0,5.916-2.635,5.916-5.246a5.237,5.237,0,0,0-5.339-5.246.66.66,0,0,1-.235-.047,12.528,12.528,0,0,1-5.888-5.748,12.718,12.718,0,0,1-2.874,2.04A39.4,39.4,0,0,1,45.106,80.416Zm38.03-.322h0Z" transform="translate(-38.168 -73.355)" fill="#212429"/>
        </g>
      </g>
      <g id="Grupo_1225097" data-name="Grupo 1225097" transform="translate(38.403 38.225)">
        <g id="Grupo_1225095" data-name="Grupo 1225095" transform="translate(0)">
          <ellipse id="Elipse_13547" data-name="Elipse 13547" cx="3.409" cy="1.903" rx="3.409" ry="1.903" fill="#f9a7a7"/>
        </g>
        <g id="Grupo_1225096" data-name="Grupo 1225096" transform="translate(24.744)">
          <ellipse id="Elipse_13548" data-name="Elipse 13548" cx="3.409" cy="1.903" rx="3.409" ry="1.903" fill="#f9a7a7"/>
        </g>
      </g>
      <g id="Grupo_1225102" data-name="Grupo 1225102" transform="translate(41.743 29.198)">
        <g id="Grupo_1225098" data-name="Grupo 1225098" transform="translate(19.9)">
          <path id="Trazado_1055248" data-name="Trazado 1055248" d="M156.832,108.248a2.491,2.491,0,0,1-2.491-2.491V103.1a2.491,2.491,0,1,1,4.983,0v2.657A2.491,2.491,0,0,1,156.832,108.248Z" transform="translate(-154.341 -100.608)" fill="#212429"/>
        </g>
        <g id="Grupo_1225099" data-name="Grupo 1225099" transform="translate(0)">
          <path id="Trazado_1055249" data-name="Trazado 1055249" d="M86.554,108.248a2.491,2.491,0,0,1-2.491-2.491V103.1a2.491,2.491,0,1,1,4.983,0v2.657A2.491,2.491,0,0,1,86.554,108.248Z" transform="translate(-84.063 -100.608)" fill="#212429"/>
        </g>
        <g id="Grupo_1225100" data-name="Grupo 1225100" transform="translate(19.9)">
          <path id="Trazado_1055250" data-name="Trazado 1055250" d="M156.832,108.248a2.491,2.491,0,0,1-2.491-2.491V103.1a2.491,2.491,0,1,1,4.983,0v2.657A2.491,2.491,0,0,1,156.832,108.248Z" transform="translate(-154.341 -100.608)" fill="#212429"/>
        </g>
        <g id="Grupo_1225101" data-name="Grupo 1225101" transform="translate(0)">
          <path id="Trazado_1055251" data-name="Trazado 1055251" d="M86.554,108.248a2.491,2.491,0,0,1-2.491-2.491V103.1a2.491,2.491,0,1,1,4.983,0v2.657A2.491,2.491,0,0,1,86.554,108.248Z" transform="translate(-84.063 -100.608)" fill="#212429"/>
        </g>
      </g>
      <g id="Grupo_1225103" data-name="Grupo 1225103" transform="translate(50.345 42.031)">
        <path id="Trazado_1055252" data-name="Trazado 1055252" d="M121.553,145.93a.567.567,0,0,1,.559.66,3.888,3.888,0,0,1-7.662,0,.567.567,0,0,1,.559-.66Z" transform="translate(-114.442 -145.93)" fill="#f9a7a7"/>
      </g>
      <g id="Grupo_1225120" data-name="Grupo 1225120" transform="translate(25.026 48.97)">
        <g id="Grupo_1225111" data-name="Grupo 1225111" transform="translate(0)">
          <g id="Grupo_1225104" data-name="Grupo 1225104" transform="translate(0.566 0.566)">
            <path id="Trazado_1055253" data-name="Trazado 1055253" d="M42.141,178.665a2.653,2.653,0,0,0-2.653,2.653v-6.641a1.558,1.558,0,0,0-3.116,0v-.686a1.558,1.558,0,1,0-3.116,0v.686a1.558,1.558,0,0,0-3.116,0v2.23a1.558,1.558,0,0,0-3.116,0v11.342a7,7,0,0,0,7,7h1.915a7,7,0,0,0,7-7v-8.789a.793.793,0,0,0-.793-.794Z" transform="translate(-27.024 -172.433)" fill="#f9cfcf"/>
          </g>
          <g id="Grupo_1225105" data-name="Grupo 1225105">
            <path id="Trazado_1055254" data-name="Trazado 1055254" d="M34.505,194.381H32.59a7.572,7.572,0,0,1-7.564-7.564V175.475a2.123,2.123,0,0,1,3.116-1.878v-.352a2.123,2.123,0,0,1,3.381-1.712,2.123,2.123,0,0,1,3.719,0,2.123,2.123,0,0,1,3.381,1.712v4.192a3.206,3.206,0,0,1,2.087-.77,1.362,1.362,0,0,1,1.36,1.36v8.789A7.573,7.573,0,0,1,34.505,194.381Zm-7.355-19.9a.993.993,0,0,0-.992.992v11.342a6.439,6.439,0,0,0,6.431,6.431H34.5a6.439,6.439,0,0,0,6.431-6.431v-8.789a.228.228,0,0,0-.228-.228,2.089,2.089,0,0,0-2.087,2.087.566.566,0,1,1-1.133,0v-6.641a.992.992,0,1,0-1.983,0,.566.566,0,0,1-1.133,0v-.686a.992.992,0,1,0-1.983,0v.686a.566.566,0,0,1-1.133,0,.991.991,0,1,0-1.983,0v2.23a.566.566,0,1,1-1.133,0A.992.992,0,0,0,27.15,174.483Z" transform="translate(-25.026 -170.435)" fill="#212429"/>
          </g>
          <g id="Grupo_1225106" data-name="Grupo 1225106" transform="translate(3.116 4.332)">
            <path id="Trazado_1055255" data-name="Trazado 1055255" d="M36.6,193.357a.567.567,0,0,1-.566-.566V186.3a.566.566,0,0,1,1.133,0v6.492A.566.566,0,0,1,36.6,193.357Z" transform="translate(-36.029 -185.733)" fill="#212429"/>
          </g>
          <g id="Grupo_1225107" data-name="Grupo 1225107" transform="translate(6.232 2.244)">
            <path id="Trazado_1055256" data-name="Trazado 1055256" d="M47.6,188.071a.567.567,0,0,1-.566-.566v-8.58a.566.566,0,1,1,1.133,0v8.58A.566.566,0,0,1,47.6,188.071Z" transform="translate(-47.033 -178.359)" fill="#212429"/>
          </g>
          <g id="Grupo_1225108" data-name="Grupo 1225108" transform="translate(9.347 2.244)">
            <path id="Trazado_1055257" data-name="Trazado 1055257" d="M58.6,188.071a.567.567,0,0,1-.566-.566v-8.58a.566.566,0,1,1,1.133,0v8.58A.566.566,0,0,1,58.6,188.071Z" transform="translate(-58.037 -178.359)" fill="#212429"/>
          </g>
          <g id="Grupo_1225109" data-name="Grupo 1225109" transform="translate(10.72 8.885)">
            <path id="Trazado_1055258" data-name="Trazado 1055258" d="M63.449,211.826a.567.567,0,0,1-.566-.566V208.78c0-.013,0-.026,0-.039a3.862,3.862,0,0,1,1.742-2.952V202.38a.566.566,0,1,1,1.133,0v3.733a.566.566,0,0,1-.3.5,2.718,2.718,0,0,0-1.44,2.186v2.459A.566.566,0,0,1,63.449,211.826Z" transform="translate(-62.883 -201.814)" fill="#212429"/>
          </g>
          <g id="Grupo_1225110" data-name="Grupo 1225110" transform="translate(2.136 10.824)">
            <path id="Trazado_1055259" data-name="Trazado 1055259" d="M41.36,209.792H33.135a.566.566,0,0,1,0-1.133H41.36a.566.566,0,1,1,0,1.133Z" transform="translate(-32.569 -208.659)" fill="#212429"/>
          </g>
        </g>
        <g id="Grupo_1225119" data-name="Grupo 1225119" transform="translate(41.274)">
          <g id="Grupo_1225112" data-name="Grupo 1225112" transform="translate(0.567 0.566)">
            <path id="Trazado_1055260" data-name="Trazado 1055260" d="M173.581,178.665a2.653,2.653,0,0,1,2.653,2.653v-6.641a1.558,1.558,0,0,1,3.116,0v-.686a1.558,1.558,0,1,1,3.116,0v.686a1.558,1.558,0,0,1,3.116,0v2.23a1.558,1.558,0,0,1,3.116,0v11.342a7,7,0,0,1-7,7h-1.915a7,7,0,0,1-7-7v-8.789a.793.793,0,0,1,.793-.794Z" transform="translate(-172.788 -172.433)" fill="#f9cfcf"/>
          </g>
          <g id="Grupo_1225113" data-name="Grupo 1225113" transform="translate(0)">
            <path id="Trazado_1055261" data-name="Trazado 1055261" d="M180.265,194.381H178.35a7.572,7.572,0,0,1-7.564-7.564v-8.789a1.362,1.362,0,0,1,1.36-1.36,3.206,3.206,0,0,1,2.087.77v-4.192a2.123,2.123,0,0,1,3.381-1.712,2.124,2.124,0,0,1,3.719,0,2.123,2.123,0,0,1,3.38,1.712v.352a2.123,2.123,0,0,1,3.116,1.878v11.342a7.572,7.572,0,0,1-7.564,7.564ZM172.146,177.8a.228.228,0,0,0-.228.228v8.789a6.439,6.439,0,0,0,6.431,6.431h1.915a6.439,6.439,0,0,0,6.431-6.431V175.475a.991.991,0,1,0-1.983,0,.566.566,0,1,1-1.133,0v-2.23a.992.992,0,0,0-1.983,0,.566.566,0,1,1-1.133,0v-.686a.992.992,0,0,0-1.983,0v.686a.566.566,0,1,1-1.133,0,.992.992,0,1,0-1.983,0v6.641a.566.566,0,0,1-1.133,0A2.089,2.089,0,0,0,172.146,177.8Z" transform="translate(-170.786 -170.435)" fill="#212429"/>
          </g>
          <g id="Grupo_1225114" data-name="Grupo 1225114" transform="translate(12.795 4.332)">
            <path id="Trazado_1055262" data-name="Trazado 1055262" d="M216.537,193.357a.567.567,0,0,1-.566-.566V186.3a.566.566,0,0,1,1.133,0v6.492A.566.566,0,0,1,216.537,193.357Z" transform="translate(-215.971 -185.733)" fill="#212429"/>
          </g>
          <g id="Grupo_1225115" data-name="Grupo 1225115" transform="translate(9.679 2.244)">
            <path id="Trazado_1055263" data-name="Trazado 1055263" d="M205.533,188.071a.567.567,0,0,1-.566-.566v-8.58a.566.566,0,1,1,1.133,0v8.58A.566.566,0,0,1,205.533,188.071Z" transform="translate(-204.967 -178.359)" fill="#212429"/>
          </g>
          <g id="Grupo_1225116" data-name="Grupo 1225116" transform="translate(6.563 2.244)">
            <path id="Trazado_1055264" data-name="Trazado 1055264" d="M194.529,188.071a.567.567,0,0,1-.566-.566v-8.58a.566.566,0,1,1,1.133,0v8.58A.566.566,0,0,1,194.529,188.071Z" transform="translate(-193.963 -178.359)" fill="#212429"/>
          </g>
          <g id="Grupo_1225117" data-name="Grupo 1225117" transform="translate(3.447 8.885)">
            <path id="Trazado_1055265" data-name="Trazado 1055265" d="M185.27,211.824a.567.567,0,0,1-.566-.566V208.8a2.718,2.718,0,0,0-1.44-2.186.566.566,0,0,1-.3-.5v-3.733a.566.566,0,0,1,1.133,0v3.409a3.862,3.862,0,0,1,1.742,2.952c0,.013,0,.026,0,.039v2.479A.567.567,0,0,1,185.27,211.824Z" transform="translate(-182.96 -201.812)" fill="#212429"/>
          </g>
          <g id="Grupo_1225118" data-name="Grupo 1225118" transform="translate(5.55 10.824)">
            <path id="Trazado_1055266" data-name="Trazado 1055266" d="M199.176,209.792h-8.225a.566.566,0,1,1,0-1.133h8.225a.566.566,0,1,1,0,1.133Z" transform="translate(-190.385 -208.659)" fill="#212429"/>
          </g>
        </g>
      </g>
      <g id="Grupo_1225121" data-name="Grupo 1225121" transform="translate(63.927 7.358)">
        <path id="Trazado_1055267" data-name="Trazado 1055267" d="M171.617,44.338a5.921,5.921,0,0,1,4.484,1.969c3.987-29.422-13.694-21.993-13.694-21.993s.392,16.247,9.211,20.024Z" transform="translate(-162.406 -23.478)" fill="#4671c6"/>
      </g>
      <g id="Grupo_1225122" data-name="Grupo 1225122" transform="translate(63.927 7.358)">
        <path id="Trazado_1055268" data-name="Trazado 1055268" d="M171.617,44.338a5.921,5.921,0,0,1,4.484,1.969c3.987-29.422-13.694-21.993-13.694-21.993s.392,16.247,9.211,20.024Z" transform="translate(-162.406 -23.478)" fill="#4671c6"/>
      </g>
      <g id="Grupo_1225123" data-name="Grupo 1225123" transform="translate(63.36 6.782)">
        <path id="Trazado_1055269" data-name="Trazado 1055269" d="M174.666,45.418a.566.566,0,0,1-.423-.19,5.348,5.348,0,0,0-4.061-1.779.565.565,0,0,1-.223-.046c-9.049-3.876-9.537-19.853-9.554-20.531a.566.566,0,0,1,.347-.536c.242-.1,5.972-2.449,10.37.922,4.233,3.244,5.614,10.534,4.1,21.669a.567.567,0,0,1-.4.466A.575.575,0,0,1,174.666,45.418Zm-4.364-3.1a6.517,6.517,0,0,1,3.942,1.365c1.222-10.083-.059-16.649-3.812-19.525-3.292-2.523-7.609-1.342-8.878-.911C161.692,25.732,162.769,38.975,170.3,42.317Z" transform="translate(-160.405 -21.447)" fill="#212429"/>
      </g>
      <g id="Grupo_1225124" data-name="Grupo 1225124" transform="translate(28.623 1.559)">
        <path id="Trazado_1055270" data-name="Trazado 1055270" d="M39.168,26.608a.393.393,0,0,0-.109.748C43.01,29.213,56.748,34.4,73,25.969a11.954,11.954,0,0,0,6.475-9.748,12.241,12.241,0,0,0-10.421-12.8c-8.854-1.442-20.814.145-27.245,16.05a6.2,6.2,0,0,1-3.758,3.215.4.4,0,0,0-.039.766,10.5,10.5,0,0,0,7.325-.322s-.609,2.574-6.167,3.479Z" transform="translate(-37.728 -3.001)" fill="#4671c6"/>
      </g>
      <g id="Grupo_1225125" data-name="Grupo 1225125" transform="translate(28.623 1.559)">
        <path id="Trazado_1055271" data-name="Trazado 1055271" d="M39.168,26.608a.393.393,0,0,0-.109.748C43.01,29.213,56.748,34.4,73,25.969a11.954,11.954,0,0,0,6.475-9.748,12.241,12.241,0,0,0-10.421-12.8c-8.854-1.442-20.814.145-27.245,16.05a6.2,6.2,0,0,1-3.758,3.215.4.4,0,0,0-.039.766,10.5,10.5,0,0,0,7.325-.322s-.609,2.574-6.167,3.479Z" transform="translate(-37.728 -3.001)" fill="#4671c6"/>
      </g>
      <g id="Grupo_1225126" data-name="Grupo 1225126" transform="translate(28.056 0.99)">
        <path id="Trazado_1055272" data-name="Trazado 1055272" d="M53.024,29.754a37.644,37.644,0,0,1-15.639-3.327.959.959,0,0,1,.259-1.82A9.8,9.8,0,0,0,42.37,22.79a11.124,11.124,0,0,1-5.964-.241.953.953,0,0,1-.677-.942.971.971,0,0,1,.75-.914,5.676,5.676,0,0,0,3.378-2.9C46.412,1.583,58.622-.061,67.709,1.418a12.746,12.746,0,0,1,10.9,13.4A12.451,12.451,0,0,1,71.825,25.03,40.485,40.485,0,0,1,53.024,29.754ZM38.365,25.629c4.376,1.942,17.533,6.384,32.938-1.6a11.326,11.326,0,0,0,6.171-9.285,11.619,11.619,0,0,0-9.947-12.2C58.848,1.123,47.181,2.7,40.9,18.24a6.893,6.893,0,0,1-3.6,3.387,9.833,9.833,0,0,0,6.383-.46.566.566,0,0,1,.773.652c-.027.116-.717,2.777-6.088,3.812Zm-.539.1h0Z" transform="translate(-35.728 -0.99)" fill="#212429"/>
      </g>
      <g id="Grupo_1225127" data-name="Grupo 1225127" transform="translate(49.779 41.465)">
        <path id="Trazado_1055273" data-name="Trazado 1055273" d="M116.848,148.949a4.44,4.44,0,0,1-4.389-3.7,1.133,1.133,0,0,1,1.117-1.322h6.543a1.133,1.133,0,0,1,1.117,1.322A4.44,4.44,0,0,1,116.848,148.949Zm-3.272-3.887a3.321,3.321,0,0,0,6.544,0h-6.544Z" transform="translate(-112.443 -143.93)" fill="#212429"/>
      </g>
    </g>
  </g>
</svg>
