<svg xmlns="http://www.w3.org/2000/svg" xmlns:xlink="http://www.w3.org/1999/xlink" width="118" height="118" viewBox="0 0 118 118">
  <defs>
    <filter id="Trazado_982547" x="0" y="0" width="118" height="118" filterUnits="userSpaceOnUse">
      <feOffset dy="3" input="SourceAlpha"/>
      <feGaussianBlur stdDeviation="3" result="blur"/>
      <feFlood flood-opacity="0.161"/>
      <feComposite operator="in" in2="blur"/>
      <feComposite in="SourceGraphic"/>
    </filter>
  </defs>
  <g id="Grupo_1225133" data-name="Grupo 1225133" transform="translate(-741 -1887.453)">
    <g id="Grupo_1224444" data-name="Grupo 1224444" transform="translate(0 -550.343)">
      <g id="Grupo_1223960" data-name="Grupo 1223960" transform="translate(0 -2682.959)">
        <g id="Grupo_1223828" data-name="Grupo 1223828" transform="translate(750 5126.756)">
          <g id="Grupo_1223741" data-name="Grupo 1223741">
            <g id="Grupo_1223199" data-name="Grupo 1223199">
              <g id="Grupo_1211216" data-name="Grupo 1211216" transform="translate(0)">
                <g id="Grupo_1210737" data-name="Grupo 1210737">
                  <g id="Grupo_1210537" data-name="Grupo 1210537">
                    <g id="Grupo_1164202" data-name="Grupo 1164202">
                      <g id="Grupo_1158168" data-name="Grupo 1158168">
                        <g id="Grupo_1152576" data-name="Grupo 1152576">
                          <g id="Grupo_1148633" data-name="Grupo 1148633">
                            <g id="Grupo_1148525" data-name="Grupo 1148525">
                              <g transform="matrix(1, 0, 0, 1, -9, -6)" filter="url(#Trazado_982547)">
                                <g id="Trazado_982547-2" data-name="Trazado 982547" transform="translate(9 6)" fill="#fdfbec">
                                  <path d="M 49.99999618530273 98.5 C 43.45188140869141 98.5 37.10042572021484 97.21786499023438 31.12206840515137 94.68923950195312 C 25.34691047668457 92.24655151367188 20.15996742248535 88.74931335449219 15.70532512664795 84.29468536376953 C 11.25068187713623 79.84004211425781 7.753438949584961 74.65309906005859 5.310753345489502 68.87792205810547 C 2.782124757766724 62.89956665039062 1.499996185302734 56.54811096191406 1.499996185302734 49.99999618530273 C 1.499996185302734 43.45188140869141 2.782124757766724 37.10042572021484 5.310753345489502 31.12206840515137 C 7.753438949584961 25.34691047668457 11.25068187713623 20.15996742248535 15.70532512664795 15.70532512664795 C 20.15996742248535 11.25068187713623 25.34691047668457 7.753438949584961 31.12206840515137 5.310753345489502 C 37.10042572021484 2.782124757766724 43.45188140869141 1.499996185302734 49.99999618530273 1.499996185302734 C 56.54811096191406 1.499996185302734 62.89956665039062 2.782124757766724 68.87792205810547 5.310753345489502 C 74.65309906005859 7.753438949584961 79.84004211425781 11.25068187713623 84.29468536376953 15.70532512664795 C 88.74931335449219 20.15996742248535 92.24655151367188 25.34691047668457 94.68923950195312 31.12206840515137 C 97.21786499023438 37.10042572021484 98.5 43.45188140869141 98.5 49.99999618530273 C 98.5 56.54811096191406 97.21786499023438 62.89956665039062 94.68923950195312 68.87792205810547 C 92.24655151367188 74.65309906005859 88.74931335449219 79.84004211425781 84.29468536376953 84.29468536376953 C 79.84004211425781 88.74931335449219 74.65309906005859 92.24655151367188 68.87792205810547 94.68923950195312 C 62.89956665039062 97.21786499023438 56.54811096191406 98.5 49.99999618530273 98.5 Z" stroke="none"/>
                                  <path d="M 49.99999618530273 2.999992370605469 C 43.65372085571289 2.999992370605469 37.49885940551758 4.242256164550781 31.70639801025391 6.6922607421875 C 26.11002349853516 9.059318542480469 21.08335113525391 12.4486083984375 16.76598358154297 16.76598358154297 C 12.4486083984375 21.08335113525391 9.059318542480469 26.11002349853516 6.6922607421875 31.70639801025391 C 4.242256164550781 37.49885940551758 2.999992370605469 43.65372085571289 2.999992370605469 49.99999618530273 C 2.999992370605469 56.34627151489258 4.242256164550781 62.50113296508789 6.6922607421875 68.29359436035156 C 9.059318542480469 73.88996887207031 12.4486083984375 78.91664123535156 16.76598358154297 83.2340087890625 C 21.08335113525391 87.55138397216797 26.11002349853516 90.940673828125 31.70639801025391 93.30773162841797 C 37.49885940551758 95.75773620605469 43.65372085571289 97 49.99999618530273 97 C 56.34627151489258 97 62.50113296508789 95.75773620605469 68.29359436035156 93.30773162841797 C 73.88996887207031 90.940673828125 78.91664123535156 87.55138397216797 83.2340087890625 83.2340087890625 C 87.55138397216797 78.91664123535156 90.940673828125 73.88996887207031 93.30773162841797 68.29359436035156 C 95.75773620605469 62.50113296508789 97 56.34627151489258 97 49.99999618530273 C 97 43.65372085571289 95.75773620605469 37.49885940551758 93.30773162841797 31.70639801025391 C 90.940673828125 26.11002349853516 87.55138397216797 21.08335113525391 83.2340087890625 16.76598358154297 C 78.91664123535156 12.4486083984375 73.88996887207031 9.059318542480469 68.29359436035156 6.6922607421875 C 62.50113296508789 4.242256164550781 56.34627151489258 2.999992370605469 49.99999618530273 2.999992370605469 M 49.99999618530273 -7.62939453125e-06 C 77.61422729492188 -7.62939453125e-06 100 22.38576507568359 100 49.99999618530273 C 100 77.61422729492188 77.61422729492188 100 49.99999618530273 100 C 22.38576507568359 100 -7.62939453125e-06 77.61422729492188 -7.62939453125e-06 49.99999618530273 C -7.62939453125e-06 22.38576507568359 22.38576507568359 -7.62939453125e-06 49.99999618530273 -7.62939453125e-06 Z" stroke="none" fill="#83793c"/>
                                </g>
                              </g>
                            </g>
                          </g>
                        </g>
                      </g>
                    </g>
                  </g>
                </g>
              </g>
            </g>
          </g>
        </g>
      </g>
    </g>
    <g id="skills_7799173_1_" data-name="skills_7799173 (1)" transform="translate(744.473 1900.799)">
      <path id="Trazado_1055274" data-name="Trazado 1055274" d="M110.744,68.452l3.274-.941a3.074,3.074,0,0,1,3.921,2.849l.116,3.4a3.075,3.075,0,0,0,.525,1.616l1.907,2.823a3.074,3.074,0,0,1-1.5,4.61l-3.2,1.163a3.073,3.073,0,0,0-1.374,1l-2.1,2.686a3.074,3.074,0,0,1-4.847,0l-2.1-2.686a3.074,3.074,0,0,0-1.374-1l-3.2-1.163a3.074,3.074,0,0,1-1.5-4.61l1.907-2.823a3.074,3.074,0,0,0,.525-1.616l.116-3.4a3.074,3.074,0,0,1,3.921-2.849l3.274.941A3.071,3.071,0,0,0,110.744,68.452Z" transform="translate(-65.488 -51.417)" fill="#f3e64d"/>
      <path id="Trazado_1055275" data-name="Trazado 1055275" d="M118.586,75.382a3.072,3.072,0,0,1-.525-1.616l-.116-3.4a3.074,3.074,0,0,0-3.921-2.849l-3.274.941a3.074,3.074,0,0,1-1.7,0l-1.612-.464a7.828,7.828,0,0,0,4,7.894v3.634c-3.183-.161-6.332-.4-9.492-.731a7.564,7.564,0,0,0-3.049.307,3.076,3.076,0,0,0,1.911,3.721l3.2,1.163a3.074,3.074,0,0,1,1.374,1l2.1,2.686a3.074,3.074,0,0,0,4.847,0l2.1-2.686a3.074,3.074,0,0,1,1.374-1l3.2-1.163a3.074,3.074,0,0,0,1.5-4.61Z" transform="translate(-65.494 -51.418)" fill="#f8d071"/>
      <path id="Trazado_1055276" data-name="Trazado 1055276" d="M266.272,68.452,263,67.511a3.074,3.074,0,0,0-3.921,2.849l-.116,3.4a3.074,3.074,0,0,1-.525,1.616L256.528,78.2a3.074,3.074,0,0,0,1.5,4.61l3.2,1.163a3.074,3.074,0,0,1,1.374,1l2.1,2.686a3.074,3.074,0,0,0,4.847,0l2.1-2.686a3.074,3.074,0,0,1,1.374-1l3.2-1.163a3.074,3.074,0,0,0,1.5-4.61l-1.907-2.823a3.074,3.074,0,0,1-.525-1.616l-.116-3.4a3.074,3.074,0,0,0-3.921-2.849l-3.274.941A3.071,3.071,0,0,1,266.272,68.452Z" transform="translate(-200.473 -51.417)" fill="#f3e64d"/>
      <path id="Trazado_1055277" data-name="Trazado 1055277" d="M258.437,75.382a3.074,3.074,0,0,0,.525-1.616l.116-3.4A3.074,3.074,0,0,1,263,67.512l3.274.941a3.074,3.074,0,0,0,1.7,0l1.612-.464a7.828,7.828,0,0,1-4,7.894v3.634c3.184-.161,6.332-.4,9.492-.731a7.564,7.564,0,0,1,3.049.307,3.075,3.075,0,0,1-1.911,3.721l-3.2,1.163a3.074,3.074,0,0,0-1.374,1l-2.1,2.686a3.074,3.074,0,0,1-4.847,0l-2.1-2.686a3.074,3.074,0,0,0-1.374-1l-3.2-1.163a3.074,3.074,0,0,1-1.5-4.61Z" transform="translate(-200.475 -51.418)" fill="#f8d071"/>
      <path id="Trazado_1055278" data-name="Trazado 1055278" d="M377.935,29.895l-1.173-2.12a2.187,2.187,0,0,0-3.406-.539l-1.771,1.654a2.189,2.189,0,0,1-1.077.549l-2.379.461a2.187,2.187,0,0,0-1.565,3.072l1.026,2.2a2.187,2.187,0,0,1,.189,1.194l-.3,2.405A2.187,2.187,0,0,0,369.92,41.2l2.405-.3a2.187,2.187,0,0,1,1.194.189l2.2,1.026a2.187,2.187,0,0,0,3.072-1.565l.461-2.379A2.186,2.186,0,0,1,379.8,37.1l1.654-1.771a2.187,2.187,0,0,0-.539-3.406l-2.12-1.173A2.187,2.187,0,0,1,377.935,29.895Z" transform="translate(-295.218 -16.437)" fill="#59d5ff"/>
      <path id="Trazado_1055279" data-name="Trazado 1055279" d="M38.895,29.895l1.173-2.12a2.187,2.187,0,0,1,3.406-.539l1.771,1.654a2.189,2.189,0,0,0,1.077.549L48.7,29.9a2.187,2.187,0,0,1,1.565,3.072l-1.026,2.2a2.187,2.187,0,0,0-.189,1.194l.3,2.405A2.187,2.187,0,0,1,46.911,41.2l-2.405-.3a2.187,2.187,0,0,0-1.194.189l-2.2,1.026a2.187,2.187,0,0,1-3.072-1.565l-.461-2.379a2.187,2.187,0,0,0-.549-1.077l-1.654-1.771a2.187,2.187,0,0,1,.539-3.406l2.12-1.173A2.186,2.186,0,0,0,38.895,29.895Z" transform="translate(-10.558 -16.437)" fill="#59d5ff"/>
      <g id="Grupo_1225129" data-name="Grupo 1225129" transform="translate(45.695 7.501)">
        <rect id="Rectángulo_422084" data-name="Rectángulo 422084" width="11.534" height="16.035" transform="translate(4.065 11.189)" fill="#b08bd8"/>
        <path id="Trazado_1055280" data-name="Trazado 1055280" d="M215.235,86.6v6.41a37.015,37.015,0,0,0,11.534,0V86.6Z" transform="translate(-211.17 -75.408)" fill="#827cd1"/>
        <path id="Trazado_1055281" data-name="Trazado 1055281" d="M196.333,22.16a38.226,38.226,0,0,0,6.557-.627,3.977,3.977,0,0,0,2.491-6.278,39.18,39.18,0,0,0-6.548-6.869,3.975,3.975,0,0,0-5,0,39.182,39.182,0,0,0-6.548,6.869,3.977,3.977,0,0,0,2.491,6.278A38.223,38.223,0,0,0,196.333,22.16Z" transform="translate(-186.501 -7.501)" fill="#b08bd8"/>
      </g>
      <path id="Trazado_1055282" data-name="Trazado 1055282" d="M150.207,379.413a4.467,4.467,0,0,0,4.294-5.7,20.618,20.618,0,0,0-39.626,0,4.467,4.467,0,0,0,4.294,5.7h31.038Z" transform="translate(-79.161 -301.605)" fill="#72d98b"/>
      <path id="Trazado_1055283" data-name="Trazado 1055283" d="M154.143,364.676a37.37,37.37,0,0,0,28.818,0,20.609,20.609,0,0,0-28.818,0Z" transform="translate(-113.025 -301.605)" fill="#00c67f"/>
      <path id="Trazado_1055284" data-name="Trazado 1055284" d="M209.355,378.481a9.2,9.2,0,1,1-18.4,0Z" transform="translate(-144.625 -318.5)" fill="#eeecff"/>
      <path id="Trazado_1055285" data-name="Trazado 1055285" d="M207.5,383.762a9.573,9.573,0,0,0,1.854-5.282h-18.4a9.573,9.573,0,0,0,1.854,5.282,39.025,39.025,0,0,0,14.7,0Z" transform="translate(-144.625 -318.499)" fill="#d3d3ff"/>
      <ellipse id="Elipse_13549" data-name="Elipse 13549" cx="7.644" cy="7.404" rx="7.644" ry="7.404" transform="translate(22.494 35.545)" fill="#da9d81"/>
      <ellipse id="Elipse_13550" data-name="Elipse 13550" cx="7.644" cy="7.404" rx="7.644" ry="7.404" transform="translate(73.273 35.545)" fill="#c7856a"/>
      <path id="Trazado_1055286" data-name="Trazado 1055286" d="M103.259,175.667a186.671,186.671,0,0,1-19.472-.989,3.759,3.759,0,0,0-3.805,2.153,20.4,20.4,0,0,0-1.891,8.573c0,12.434,11.268,20.249,25.168,20.249s25.168-7.815,25.168-20.249a20.4,20.4,0,0,0-1.891-8.573,3.759,3.759,0,0,0-3.805-2.153A186.671,186.671,0,0,1,103.259,175.667Z" transform="translate(-47.732 -143.511)" fill="#da9d81"/>
      <path id="Trazado_1055287" data-name="Trazado 1055287" d="M92.216,175.356c-3.187-.182-5.995-.426-8.431-.679a3.758,3.758,0,0,0-3.8,2.153,20.406,20.406,0,0,0-1.889,8.573c0,12.434,11.268,20.249,25.168,20.249a35.319,35.319,0,0,0,5.044-.356C94.373,200.606,91.286,187.934,92.216,175.356Z" transform="translate(-47.732 -143.509)" fill="#c7856a"/>
      <g id="Grupo_1225131" data-name="Grupo 1225131" transform="translate(39.491 42.385)">
        <g id="Grupo_1225130" data-name="Grupo 1225130" transform="translate(0 0)">
          <path id="Trazado_1055288" data-name="Trazado 1055288" d="M151.287,264.495c0,1.9-1.933,3.443-4.32,3.444s-4.323-1.539-4.324-3.44,1.933-3.443,4.32-3.444S151.286,262.594,151.287,264.495Z" transform="translate(-142.642 -260.071)" fill="#fff"/>
          <path id="Trazado_1055289" data-name="Trazado 1055289" d="M308.251,264.415c0,1.9,1.937,3.441,4.324,3.44s4.321-1.543,4.32-3.444-1.937-3.441-4.324-3.44S308.25,262.514,308.251,264.415Z" transform="translate(-284.823 -259.999)" fill="#fff"/>
          <path id="Trazado_1055290" data-name="Trazado 1055290" d="M234.519,256.959c0-2.618-1.9-2.863-4.238-2.862s-4.237.248-4.235,2.867a4.264,4.264,0,1,0,8.474,0Z" transform="translate(-214.246 -254.097)" fill="#425460"/>
        </g>
      </g>
      <g id="Grupo_1225132" data-name="Grupo 1225132" transform="translate(22.494 7.501)">
        <path id="Trazado_1055291" data-name="Trazado 1055291" d="M377.935,29.895l-1.173-2.12a2.187,2.187,0,0,0-3.406-.539l-1.771,1.654a2.189,2.189,0,0,1-1.077.549l-2.379.461a2.187,2.187,0,0,0-1.565,3.072l1.026,2.2a2.187,2.187,0,0,1,.189,1.194l-.3,2.405A2.187,2.187,0,0,0,369.92,41.2l2.405-.3a2.187,2.187,0,0,1,1.194.189l2.2,1.026a2.187,2.187,0,0,0,3.072-1.565l.461-2.379A2.186,2.186,0,0,1,379.8,37.1l1.654-1.771a2.187,2.187,0,0,0-.539-3.406l-2.12-1.173A2.187,2.187,0,0,1,377.935,29.895Z" transform="translate(-317.712 -23.937)" fill="none" stroke="#000" stroke-linecap="round" stroke-linejoin="round" stroke-miterlimit="10" stroke-width="1.2"/>
        <path id="Trazado_1055292" data-name="Trazado 1055292" d="M42.6,27.269a2.177,2.177,0,0,1,.874.5l1.771,1.654a2.189,2.189,0,0,0,1.077.549l2.379.461a2.187,2.187,0,0,1,1.565,3.072l-1.026,2.2a2.187,2.187,0,0,0-.189,1.194l.3,2.405a2.187,2.187,0,0,1-2.438,2.438l-2.405-.3a2.187,2.187,0,0,0-1.194.189l-2.2,1.026a2.187,2.187,0,0,1-3.072-1.565l-.461-2.379a2.187,2.187,0,0,0-.549-1.077l-1.654-1.771a2.187,2.187,0,0,1,.539-3.406l2.12-1.173a2.187,2.187,0,0,0,.855-.855l.2-.369" transform="translate(-33.052 -24.472)" fill="none" stroke="#000" stroke-linecap="round" stroke-linejoin="round" stroke-miterlimit="10" stroke-width="1.2"/>
        <path id="Trazado_1055293" data-name="Trazado 1055293" d="M196.333,22.16a38.226,38.226,0,0,0,6.557-.627,3.977,3.977,0,0,0,2.491-6.278,39.18,39.18,0,0,0-6.548-6.869,3.975,3.975,0,0,0-5,0,39.182,39.182,0,0,0-6.548,6.869,3.977,3.977,0,0,0,2.491,6.278A38.223,38.223,0,0,0,196.333,22.16Z" transform="translate(-163.3 -7.501)" fill="none" stroke="#000" stroke-linecap="round" stroke-linejoin="round" stroke-miterlimit="10" stroke-width="1.2"/>
        <path id="Trazado_1055294" data-name="Trazado 1055294" d="M151.258,68.515l-.506.146a3.074,3.074,0,0,1-1.7,0l-3.274-.941a3.138,3.138,0,0,0-.405-.087" transform="translate(-127.991 -59.125)" fill="none" stroke="#000" stroke-linecap="round" stroke-linejoin="round" stroke-miterlimit="10" stroke-width="1.2"/>
        <path id="Trazado_1055295" data-name="Trazado 1055295" d="M100.756,128.6,99.3,130.755a3.074,3.074,0,0,0,1.107,4.436" transform="translate(-87.982 -111.469)" fill="none" stroke="#000" stroke-linecap="round" stroke-linejoin="round" stroke-miterlimit="10" stroke-width="1.2"/>
        <path id="Trazado_1055296" data-name="Trazado 1055296" d="M325.03,68.515l.506.146a3.074,3.074,0,0,0,1.7,0l3.274-.941a3.141,3.141,0,0,1,.4-.087" transform="translate(-282.232 -59.125)" fill="none" stroke="#000" stroke-linecap="round" stroke-linejoin="round" stroke-miterlimit="10" stroke-width="1.2"/>
        <path id="Trazado_1055297" data-name="Trazado 1055297" d="M399.207,128.6l1.456,2.154a3.074,3.074,0,0,1-1.107,4.436" transform="translate(-345.915 -111.469)" fill="none" stroke="#000" stroke-linecap="round" stroke-linejoin="round" stroke-miterlimit="10" stroke-width="1.2"/>
        <path id="Trazado_1055298" data-name="Trazado 1055298" d="M103.259,175.667a186.671,186.671,0,0,1-19.472-.989,3.759,3.759,0,0,0-3.805,2.153,20.4,20.4,0,0,0-1.891,8.573c0,12.434,11.268,20.249,25.168,20.249s25.168-7.815,25.168-20.249a20.4,20.4,0,0,0-1.891-8.573,3.759,3.759,0,0,0-3.805-2.153A186.671,186.671,0,0,1,103.259,175.667Z" transform="translate(-70.226 -151.011)" fill="none" stroke="#000" stroke-linecap="round" stroke-linejoin="round" stroke-miterlimit="10" stroke-width="1.2"/>
        <path id="Trazado_1055299" data-name="Trazado 1055299" d="M31.346,205.834a7.947,7.947,0,0,0-1.209-.093,7.408,7.408,0,1,0,0,14.809,7.876,7.876,0,0,0,2.085-.281" transform="translate(-22.494 -177.697)" fill="none" stroke="#000" stroke-linecap="round" stroke-linejoin="round" stroke-miterlimit="10" stroke-width="1.2"/>
        <path id="Trazado_1055300" data-name="Trazado 1055300" d="M420.734,220.268a7.876,7.876,0,0,0,2.085.281,7.408,7.408,0,1,0,0-14.809,7.945,7.945,0,0,0-1.209.093" transform="translate(-364.397 -177.696)" fill="none" stroke="#000" stroke-linecap="round" stroke-linejoin="round" stroke-miterlimit="10" stroke-width="1.2"/>
        <path id="Trazado_1055301" data-name="Trazado 1055301" d="M336.361,398.513h1.611a4.467,4.467,0,0,0,4.294-5.7,20.655,20.655,0,0,0-8.864-11.765" transform="translate(-289.419 -328.205)" fill="none" stroke="#000" stroke-linecap="round" stroke-linejoin="round" stroke-miterlimit="10" stroke-width="1.2"/>
        <path id="Trazado_1055302" data-name="Trazado 1055302" d="M123.738,381.048a20.655,20.655,0,0,0-8.864,11.765,4.467,4.467,0,0,0,4.294,5.7H143.6" transform="translate(-101.655 -328.204)" fill="none" stroke="#000" stroke-linecap="round" stroke-linejoin="round" stroke-miterlimit="10" stroke-width="1.2"/>
        <path id="Trazado_1055303" data-name="Trazado 1055303" d="M191.543,385.155a9.161,9.161,0,0,0,18.237,0" transform="translate(-167.628 -331.73)" fill="none" stroke="#000" stroke-linecap="round" stroke-linejoin="round" stroke-miterlimit="10" stroke-width="1.2"/>
        <path id="Trazado_1055304" data-name="Trazado 1055304" d="M234.519,256.959c0-2.618-1.9-2.863-4.238-2.862s-4.237.248-4.235,2.867a4.264,4.264,0,1,0,8.474,0Z" transform="translate(-197.25 -219.212)" fill="none" stroke="#000" stroke-linecap="round" stroke-linejoin="round" stroke-miterlimit="10" stroke-width="1.2"/>
        <path id="Trazado_1055305" data-name="Trazado 1055305" d="M185.978,244.278a1.989,1.989,0,1,0-3.979-.009" transform="translate(-159.435 -209.07)" fill="none" stroke="#000" stroke-linecap="round" stroke-linejoin="round" stroke-miterlimit="10" stroke-width="1.2"/>
        <path id="Trazado_1055306" data-name="Trazado 1055306" d="M185.978,244.278a1.989,1.989,0,1,0-3.979-.009" transform="translate(-140.238 -209.07)" fill="none" stroke="#000" stroke-linecap="round" stroke-linejoin="round" stroke-miterlimit="10" stroke-width="1.2"/>
        <line id="Línea_1055" data-name="Línea 1055" y2="10.405" transform="translate(27.266 14.168)" fill="none" stroke="#000" stroke-linecap="round" stroke-linejoin="round" stroke-miterlimit="10" stroke-width="1.2"/>
        <line id="Línea_1056" data-name="Línea 1056" y1="10.405" transform="translate(38.8 14.168)" fill="none" stroke="#000" stroke-linecap="round" stroke-linejoin="round" stroke-miterlimit="10" stroke-width="1.2"/>
      </g>
    </g>
  </g>
</svg>
