<svg xmlns="http://www.w3.org/2000/svg" width="39.459" height="39.429" viewBox="0 0 39.459 39.429">
  <path id="game_13856473" d="M47.481,38.207V14.6a.821.821,0,0,0-.822-.822H43.371a.822.822,0,0,0-.822.822V35.974a6.536,6.536,0,0,0-2.466.481V29.4a.821.821,0,0,0-.822-.822h-.822v-7.4a.823.823,0,0,0,.71-1.237l-5.754-9.864a.856.856,0,0,0-1.421,0L26.22,19.94a.823.823,0,0,0,.711,1.237V29.4a.822.822,0,0,0,.822.822h.822v2.143a4.512,4.512,0,0,0-1.43,6.9H22.82V37.617h.822a.822.822,0,0,0,.77-1.11l-2.05-5.466h1.28a.822.822,0,0,0,.822-.822,6.576,6.576,0,1,0-13.153,0,.822.822,0,0,0,.822.822h1.28l-1.85,4.933H10.489a.822.822,0,0,0-.822.822V48.3a.822.822,0,0,0,.822.822H28.574a.822.822,0,0,0,0-1.644H22.82V40.906H40.905v6.576H35.151a.822.822,0,0,0,0,1.644h6.577a.833.833,0,0,0,.21-.029c.2.019.405.029.611.029a6.571,6.571,0,0,0,4.932-10.919Zm-4.932,9.275v-7.4a.813.813,0,0,0-.822-.822H40.083v-.977a4.936,4.936,0,0,1,5.187.155,4.972,4.972,0,0,1,.946.822,4.924,4.924,0,0,1-3.666,8.22Zm-14.8-11.1a2.879,2.879,0,0,1,1.644-2.6,2.972,2.972,0,0,1,1.233-.282,2.877,2.877,0,1,1,0,5.754,2.916,2.916,0,0,1-.411-.033,2.854,2.854,0,0,1-.822-.249,2.879,2.879,0,0,1-1.644-2.6Zm7.4,0a4.527,4.527,0,0,0-4.521-4.521c-.139,0-.275.009-.411.021V30.219h8.22v9.043H34.114A4.5,4.5,0,0,0,35.151,36.384ZM28.361,19.532l4.323-7.411,4.323,7.411Zm.213,1.645h8.22v7.4h-8.22v-7.4Zm15.619-5.754h1.644V36.858a6.544,6.544,0,0,0-1.644-.677ZM21.175,40.906v6.576H11.311V37.618h9.865v3.288ZM17.887,25.286a4.941,4.941,0,0,1,4.864,4.11H13.024A4.94,4.94,0,0,1,17.887,25.286Zm2.718,5.754,1.85,4.933H13.32l1.85-4.933ZM32.684,48.3a.822.822,0,1,1-.822-.822A.824.824,0,0,1,32.684,48.3Z" transform="translate(-9.667 -9.697)"/>
</svg>
