<svg xmlns="http://www.w3.org/2000/svg" xmlns:xlink="http://www.w3.org/1999/xlink" width="113" height="113" viewBox="0 0 113 113">
  <defs>
    <filter id="Trazado_982547" x="0" y="0" width="113" height="113" filterUnits="userSpaceOnUse">
      <feOffset dy="3" input="SourceAlpha"/>
      <feGaussianBlur stdDeviation="3" result="blur"/>
      <feFlood flood-opacity="0.161"/>
      <feComposite operator="in" in2="blur"/>
      <feComposite in="SourceGraphic"/>
    </filter>
  </defs>
  <g id="Grupo_1225167" data-name="Grupo 1225167" transform="translate(-8117 -2895.211)">
    <g id="Grupo_1225004" data-name="Grupo 1225004" transform="translate(8126 2901.211)">
      <g id="Grupo_1209049" data-name="Grupo 1209049" transform="translate(0 0)">
        <g id="Grupo_1208493" data-name="Grupo 1208493">
          <g id="Grupo_1202104" data-name="Grupo 1202104">
            <g id="Grupo_1201923" data-name="Grupo 1201923">
              <g id="Grupo_1176928" data-name="Grupo 1176928">
                <g id="Grupo_1172322" data-name="Grupo 1172322">
                  <g id="Grupo_1164700" data-name="Grupo 1164700">
                    <g id="Grupo_1160931" data-name="Grupo 1160931">
                      <g id="Grupo_1160749" data-name="Grupo 1160749">
                        <g id="Grupo_1158891" data-name="Grupo 1158891">
                          <g id="Grupo_1157406" data-name="Grupo 1157406">
                            <g id="Grupo_1155793" data-name="Grupo 1155793">
                              <g id="Grupo_1154704" data-name="Grupo 1154704">
                                <g id="Grupo_1150790" data-name="Grupo 1150790">
                                  <g id="Grupo_1154214" data-name="Grupo 1154214">
                                    <g id="Grupo_1152583" data-name="Grupo 1152583">
                                      <g id="Grupo_1146973" data-name="Grupo 1146973">
                                        <g id="Grupo_1146954" data-name="Grupo 1146954">
                                          <g transform="matrix(1, 0, 0, 1, -9, -6)" filter="url(#Trazado_982547)">
                                            <g id="Trazado_982547-2" data-name="Trazado 982547" transform="translate(9 6)" fill="#fcf8db">
                                              <path d="M 47.5000114440918 93.49987030029297 C 41.28938293457031 93.49987030029297 35.26534652709961 92.28384399414062 29.5951976776123 89.88558959960938 C 24.11773109436035 87.56881713867188 19.19814491271973 84.25183868408203 14.97310447692871 80.02680206298828 C 10.74805164337158 75.80176544189453 7.43107795715332 70.88218688964844 5.114304542541504 65.40472412109375 C 2.716038227081299 59.73458862304688 1.500011444091797 53.71054840087891 1.500011444091797 47.49993515014648 C 1.500011444091797 41.28932189941406 2.716038227081299 35.26528167724609 5.114304542541504 29.59514808654785 C 7.43107795715332 24.1176815032959 10.74805164337158 19.1981086730957 14.97310447692871 14.97306823730469 C 19.19814491271973 10.74802875518799 24.11773109436035 7.431055068969727 29.5951976776123 5.11428165435791 C 35.26534652709961 2.716028451919556 41.28938293457031 1.500001788139343 47.5000114440918 1.500001788139343 C 53.71063995361328 1.500001788139343 59.73467636108398 2.716028451919556 65.40482330322266 5.11428165435791 C 70.88229370117188 7.431055068969727 75.8018798828125 10.74802875518799 80.02691650390625 14.97306823730469 C 84.25196838378906 19.1981086730957 87.56894683837891 24.1176815032959 89.88571929931641 29.59514808654785 C 92.28398132324219 35.26528167724609 93.50001525878906 41.28932189941406 93.50001525878906 47.49993515014648 C 93.50001525878906 53.71054840087891 92.28398132324219 59.73458862304688 89.88571929931641 65.40472412109375 C 87.56894683837891 70.88218688964844 84.25196838378906 75.80176544189453 80.02691650390625 80.02680206298828 C 75.8018798828125 84.25183868408203 70.88229370117188 87.56881713867188 65.40482330322266 89.88558959960938 C 59.73467636108398 92.28384399414062 53.71063995361328 93.49987030029297 47.5000114440918 93.49987030029297 Z" stroke="none"/>
                                              <path d="M 47.5000114440918 3 C 41.49122619628906 3 35.66378021240234 4.1761474609375 30.17951965332031 6.495796203613281 C 24.880859375 8.7369384765625 20.12153625488281 11.94596862792969 16.03376770019531 16.03373718261719 C 11.94598388671875 20.12149047851562 8.736968994140625 24.88081359863281 6.495811462402344 30.17947387695312 C 4.176162719726562 35.66371917724609 3.000007629394531 41.49116516113281 3.000007629394531 47.49993515014648 C 3.000007629394531 53.50870513916016 4.176162719726562 59.33615112304688 6.495811462402344 64.82039642333984 C 8.736968994140625 70.11905670166016 11.94598388671875 74.87837982177734 16.03376770019531 78.96613311767578 C 20.12153625488281 83.05390167236328 24.880859375 86.26293182373047 30.17951965332031 88.50407409667969 C 35.66378021240234 90.82372283935547 41.49122619628906 91.99987030029297 47.5000114440918 91.99987030029297 C 53.50879669189453 91.99987030029297 59.33624267578125 90.82372283935547 64.82050323486328 88.50407409667969 C 70.11916351318359 86.26293182373047 74.87848663330078 83.05390167236328 78.96625518798828 78.96613311767578 C 83.05403900146484 74.87837982177734 86.2630615234375 70.11905670166016 88.50421142578125 64.82039642333984 C 90.82386016845703 59.33615112304688 92.00001525878906 53.50870513916016 92.00001525878906 47.49993515014648 C 92.00001525878906 41.49116516113281 90.82386016845703 35.66371917724609 88.50421142578125 30.17947387695312 C 86.2630615234375 24.88081359863281 83.05403900146484 20.12149047851562 78.96625518798828 16.03373718261719 C 74.87848663330078 11.94596862792969 70.11916351318359 8.7369384765625 64.82050323486328 6.495796203613281 C 59.33624267578125 4.1761474609375 53.50879669189453 3 47.5000114440918 3 M 47.5000114440918 0 C 73.73353576660156 0 95.00001525878906 21.26644134521484 95.00001525878906 47.49993515014648 C 95.00001525878906 73.73342895507812 73.73353576660156 94.99987030029297 47.5000114440918 94.99987030029297 C 21.26648712158203 94.99987030029297 7.62939453125e-06 73.73342895507812 7.62939453125e-06 47.49993515014648 C 7.62939453125e-06 21.26644134521484 21.26648712158203 0 47.5000114440918 0 Z" stroke="none" fill="#83793c"/>
                                            </g>
                                          </g>
                                        </g>
                                      </g>
                                    </g>
                                  </g>
                                </g>
                              </g>
                            </g>
                          </g>
                        </g>
                      </g>
                    </g>
                  </g>
                </g>
              </g>
            </g>
          </g>
        </g>
      </g>
    </g>
    <g id="lantern_1032561" transform="translate(8144.757 2918.13)">
      <path id="Trazado_1055347" data-name="Trazado 1055347" d="M92.515,187.27,81.31,176.059l-22.093,22.1,11.206,11.211Z" transform="translate(-51.994 -154.871)" fill="#008eb0"/>
      <path id="Trazado_1055348" data-name="Trazado 1055348" d="M16.839,359.718l-5.8,5.8,11.205,11.21,5.8-5.8Z" transform="translate(-9.616 -316.427)" fill="#a4ddf2"/>
      <path id="Trazado_1055349" data-name="Trazado 1055349" d="M13.787,437.562l-3.678,3.68,4.073,4.075,3.678-3.68Z" transform="translate(-8.796 -384.903)" fill="#008eb0"/>
      <path id="Trazado_1055350" data-name="Trazado 1055350" d="M295.018,67.72l-18.992-19,4.015-4.017,18.992,19Z" transform="translate(-242.711 -39.322)" fill="#47b095"/>
      <path id="Trazado_1055351" data-name="Trazado 1055351" d="M353.994,74.86A7.7,7.7,0,0,0,343.12,63.982Z" transform="translate(-301.73 -54.541)" fill="#ffcf7c"/>
      <path id="Trazado_1055352" data-name="Trazado 1055352" d="M246.778,109.994l-13.494-13.5,6.206-9.584,16.868,16.876Z" transform="translate(-205.113 -76.451)" fill="#a4ddf2"/>
      <path id="Trazado_1055353" data-name="Trazado 1055353" d="M208.428,245.009l3.125-3.127a3.156,3.156,0,0,0,0-4.462l-.13-.13a3.153,3.153,0,0,0-4.46,0l-3.125,3.127Z" transform="translate(-179.21 -207.92)" fill="#f48ba5"/>
      <path id="Trazado_1055354" data-name="Trazado 1055354" d="M199.632,237.415h0a1.2,1.2,0,0,1-.851-.353l-4.59-4.592a1.2,1.2,0,0,1,0-1.7l3.125-3.127a4.328,4.328,0,0,1,3.081-1.277h0a4.328,4.328,0,0,1,3.081,1.277l.13.13a4.365,4.365,0,0,1,0,6.163l-3.126,3.127A1.2,1.2,0,0,1,199.632,237.415Zm-2.889-5.8,2.889,2.89,2.274-2.275a1.955,1.955,0,0,0,0-2.76l-.13-.13a1.949,1.949,0,0,0-2.757,0Z" transform="translate(-170.414 -199.123)"/>
      <path id="Trazado_1055355" data-name="Trazado 1055355" d="M185.3,310.332a1.183,1.183,0,0,1-.235-.024,1.254,1.254,0,0,1-.226-.069,1.221,1.221,0,0,1-.207-.111,1.151,1.151,0,0,1-.183-.149,1.136,1.136,0,0,1-.149-.183,1.185,1.185,0,0,1-.111-.208,1.218,1.218,0,0,1-.07-.225,1.184,1.184,0,0,1-.023-.235,1.212,1.212,0,0,1,.353-.851,1.2,1.2,0,0,1,.39-.261,1.254,1.254,0,0,1,.226-.069,1.191,1.191,0,0,1,.471,0,1.272,1.272,0,0,1,.225.069,1.206,1.206,0,0,1,.743,1.112,1.194,1.194,0,0,1-.023.235,1.22,1.22,0,0,1-.07.225,1.193,1.193,0,0,1-.111.208,1.17,1.17,0,0,1-.332.332,1.216,1.216,0,0,1-.207.111,1.271,1.271,0,0,1-.225.069A1.207,1.207,0,0,1,185.3,310.332Z" transform="translate(-161.847 -270.867)"/>
      <path id="Trazado_1055356" data-name="Trazado 1055356" d="M57.174,54.055l-3.3-3.3A8.906,8.906,0,0,0,41.485,38.359l-3.3-3.3a1.2,1.2,0,0,0-1.7,0l-4.015,4.017a1.2,1.2,0,0,0,0,1.7l.374.374-5.677,8.767a1.2,1.2,0,0,0,.159,1.5l.294.294L6.372,72.966l-5.8,5.8a1.2,1.2,0,0,0,0,1.7L3.29,83.185.462,86.014a1.2,1.2,0,0,0,0,1.7L4.535,91.79a1.2,1.2,0,0,0,1.7,0l2.827-2.828,2.715,2.716a1.2,1.2,0,0,0,1.7,0l5.8-5.8L40.521,64.627l.293.293a1.2,1.2,0,0,0,1.506.159L51.083,59.4l.374.374a1.2,1.2,0,0,0,1.7,0l4.015-4.017A1.2,1.2,0,0,0,57.174,54.055ZM5.386,89.237,3.015,86.865l1.977-1.978L7.363,87.26ZM7.223,75.519l3.9,3.9-4.1,4.1-3.9-3.9Zm5.408,13.606-3.9-3.9,4.1-4.1,3.9,3.9Zm5.8-5.8-3.9-3.9,6.934-6.937a1.2,1.2,0,0,0-1.7-1.7l-6.933,6.936-3.9-3.9,20.391-20.4,9.5,9.508Zm23.4-20.8L29.711,50.406l4.868-7.518L49.343,57.66Zm9.307-21.435a6.5,6.5,0,0,1,.995,7.915L43.225,40.1A6.49,6.49,0,0,1,51.135,41.094Zm1.172,16.126-17.291-17.3,2.314-2.315,17.291,17.3Z" transform="translate(0 -30.526)"/>
      <path id="Trazado_1055357" data-name="Trazado 1055357" d="M448.171,36.869a1.2,1.2,0,0,1-.851-2.054l1.433-1.434a1.2,1.2,0,0,1,1.7,1.7l-1.433,1.434A1.2,1.2,0,0,1,448.171,36.869Z" transform="translate(-393.08 -29.054)"/>
      <path id="Trazado_1055358" data-name="Trazado 1055358" d="M380.38,4.435a1.2,1.2,0,0,1-1.2-1.2V1.2a1.2,1.2,0,1,1,2.407,0V3.231A1.2,1.2,0,0,1,380.38,4.435Z" transform="translate(-333.448)"/>
      <path id="Trazado_1055359" data-name="Trazado 1055359" d="M478.277,115.17h-2.027a1.2,1.2,0,1,1,0-2.407h2.027a1.2,1.2,0,0,1,0,2.407Z" transform="translate(-417.78 -99.192)"/>
    </g>
  </g>
</svg>
