<svg xmlns="http://www.w3.org/2000/svg" xmlns:xlink="http://www.w3.org/1999/xlink" width="118" height="118" viewBox="0 0 118 118">
  <defs>
    <filter id="Trazado_982547" x="0" y="0" width="118" height="118" filterUnits="userSpaceOnUse">
      <feOffset dy="3" input="SourceAlpha"/>
      <feGaussianBlur stdDeviation="3" result="blur"/>
      <feFlood flood-opacity="0.161"/>
      <feComposite operator="in" in2="blur"/>
      <feComposite in="SourceGraphic"/>
    </filter>
  </defs>
  <g id="Grupo_1225170" data-name="Grupo 1225170" transform="translate(-321 -3600.804)">
    <g id="Grupo_1225006" data-name="Grupo 1225006" transform="translate(0 1163.007)">
      <g id="Grupo_1223958" data-name="Grupo 1223958" transform="translate(0 -2682.959)">
        <g id="Grupo_1223827" data-name="Grupo 1223827" transform="translate(330 5126.756)">
          <g id="Grupo_1223741" data-name="Grupo 1223741">
            <g id="Grupo_1223199" data-name="Grupo 1223199">
              <g id="Grupo_1211216" data-name="Grupo 1211216" transform="translate(0)">
                <g id="Grupo_1210737" data-name="Grupo 1210737">
                  <g id="Grupo_1210537" data-name="Grupo 1210537">
                    <g id="Grupo_1164202" data-name="Grupo 1164202">
                      <g id="Grupo_1158168" data-name="Grupo 1158168">
                        <g id="Grupo_1152576" data-name="Grupo 1152576">
                          <g id="Grupo_1148633" data-name="Grupo 1148633">
                            <g id="Grupo_1148525" data-name="Grupo 1148525">
                              <g transform="matrix(1, 0, 0, 1, -9, -6)" filter="url(#Trazado_982547)">
                                <g id="Trazado_982547-2" data-name="Trazado 982547" transform="translate(9 6)" fill="#fdfbec">
                                  <path d="M 49.99999618530273 98.5 C 43.45188140869141 98.5 37.10042572021484 97.21786499023438 31.12206840515137 94.68923950195312 C 25.34691047668457 92.24655151367188 20.15996742248535 88.74931335449219 15.70532512664795 84.29468536376953 C 11.25068187713623 79.84004211425781 7.753438949584961 74.65309906005859 5.310753345489502 68.87792205810547 C 2.782124757766724 62.89956665039062 1.499996185302734 56.54811096191406 1.499996185302734 49.99999618530273 C 1.499996185302734 43.45188140869141 2.782124757766724 37.10042572021484 5.310753345489502 31.12206840515137 C 7.753438949584961 25.34691047668457 11.25068187713623 20.15996742248535 15.70532512664795 15.70532512664795 C 20.15996742248535 11.25068187713623 25.34691047668457 7.753438949584961 31.12206840515137 5.310753345489502 C 37.10042572021484 2.782124757766724 43.45188140869141 1.499996185302734 49.99999618530273 1.499996185302734 C 56.54811096191406 1.499996185302734 62.89956665039062 2.782124757766724 68.87792205810547 5.310753345489502 C 74.65309906005859 7.753438949584961 79.84004211425781 11.25068187713623 84.29468536376953 15.70532512664795 C 88.74931335449219 20.15996742248535 92.24655151367188 25.34691047668457 94.68923950195312 31.12206840515137 C 97.21786499023438 37.10042572021484 98.5 43.45188140869141 98.5 49.99999618530273 C 98.5 56.54811096191406 97.21786499023438 62.89956665039062 94.68923950195312 68.87792205810547 C 92.24655151367188 74.65309906005859 88.74931335449219 79.84004211425781 84.29468536376953 84.29468536376953 C 79.84004211425781 88.74931335449219 74.65309906005859 92.24655151367188 68.87792205810547 94.68923950195312 C 62.89956665039062 97.21786499023438 56.54811096191406 98.5 49.99999618530273 98.5 Z" stroke="none"/>
                                  <path d="M 49.99999618530273 2.999992370605469 C 43.65372085571289 2.999992370605469 37.49885940551758 4.242256164550781 31.70639801025391 6.6922607421875 C 26.11002349853516 9.059318542480469 21.08335113525391 12.4486083984375 16.76598358154297 16.76598358154297 C 12.4486083984375 21.08335113525391 9.059318542480469 26.11002349853516 6.6922607421875 31.70639801025391 C 4.242256164550781 37.49885940551758 2.999992370605469 43.65372085571289 2.999992370605469 49.99999618530273 C 2.999992370605469 56.34627151489258 4.242256164550781 62.50113296508789 6.6922607421875 68.29359436035156 C 9.059318542480469 73.88996887207031 12.4486083984375 78.91664123535156 16.76598358154297 83.2340087890625 C 21.08335113525391 87.55138397216797 26.11002349853516 90.940673828125 31.70639801025391 93.30773162841797 C 37.49885940551758 95.75773620605469 43.65372085571289 97 49.99999618530273 97 C 56.34627151489258 97 62.50113296508789 95.75773620605469 68.29359436035156 93.30773162841797 C 73.88996887207031 90.940673828125 78.91664123535156 87.55138397216797 83.2340087890625 83.2340087890625 C 87.55138397216797 78.91664123535156 90.940673828125 73.88996887207031 93.30773162841797 68.29359436035156 C 95.75773620605469 62.50113296508789 97 56.34627151489258 97 49.99999618530273 C 97 43.65372085571289 95.75773620605469 37.49885940551758 93.30773162841797 31.70639801025391 C 90.940673828125 26.11002349853516 87.55138397216797 21.08335113525391 83.2340087890625 16.76598358154297 C 78.91664123535156 12.4486083984375 73.88996887207031 9.059318542480469 68.29359436035156 6.6922607421875 C 62.50113296508789 4.242256164550781 56.34627151489258 2.999992370605469 49.99999618530273 2.999992370605469 M 49.99999618530273 -7.62939453125e-06 C 77.61422729492188 -7.62939453125e-06 100 22.38576507568359 100 49.99999618530273 C 100 77.61422729492188 77.61422729492188 100 49.99999618530273 100 C 22.38576507568359 100 -7.62939453125e-06 77.61422729492188 -7.62939453125e-06 49.99999618530273 C -7.62939453125e-06 22.38576507568359 22.38576507568359 -7.62939453125e-06 49.99999618530273 -7.62939453125e-06 Z" stroke="none" fill="#83793c"/>
                                </g>
                              </g>
                            </g>
                          </g>
                        </g>
                      </g>
                    </g>
                  </g>
                </g>
              </g>
            </g>
          </g>
        </g>
      </g>
    </g>
    <g id="group_779145" transform="translate(348.686 3592.85)">
      <path id="Trazado_1055393" data-name="Trazado 1055393" d="M39.244,130.759l-9.161-1.991v-2.7a21.818,21.818,0,0,0,1.387-2.5,16.67,16.67,0,0,1,1.083-1.961,11.3,11.3,0,0,0,3.577-5.618,4.951,4.951,0,0,0-.487-4.077,30.493,30.493,0,0,0-.583-6.967,7.912,7.912,0,0,0-1.866-5.693,5.559,5.559,0,0,0-3.377-1.462,6.01,6.01,0,0,1-1.033-.225A12.333,12.333,0,0,0,22.824,96a13.8,13.8,0,0,0-12.205,8.4,19.57,19.57,0,0,0-.491,6.3v1.016a5.788,5.788,0,0,0-.466,4.243,11.264,11.264,0,0,0,3.548,5.638,16.037,16.037,0,0,1,1.112,1.986,22.9,22.9,0,0,0,1.391,2.5v2.7L6.55,130.78A8.366,8.366,0,0,0,0,138.892v5a2.082,2.082,0,0,0,2.082,2.082H43.725a2.082,2.082,0,0,0,2.082-2.082v-5A8.366,8.366,0,0,0,39.244,130.759Z" transform="translate(0 -55.672)" fill="#455a64"/>
      <path id="Trazado_1055394" data-name="Trazado 1055394" d="M285.8,67.4l-9.095-2.02V62.541c7.142-.712,8.678-2.19,8.678-4.164a92.9,92.9,0,0,0-3.619-17.319,7.883,7.883,0,0,0-1.9-5.78,5.626,5.626,0,0,0-3.419-1.462,6.183,6.183,0,0,1-1.074-.242A12.61,12.61,0,0,0,269.329,32a14.65,14.65,0,0,0-9.873,4.7,10.072,10.072,0,0,1,4.023,2.628,13.793,13.793,0,0,1,3.494,9.091,34.018,34.018,0,0,1,.6,6.35,12.126,12.126,0,0,1,.366,6.8,15.524,15.524,0,0,1-3.577,7l1.9.416a14.617,14.617,0,0,1,11.377,12.984h12.6a2.082,2.082,0,0,0,2.082-2.082v-4.36A8.279,8.279,0,0,0,285.8,67.4Z" transform="translate(-225.692 0)" fill="#90a4ae"/>
      <path id="Trazado_1055395" data-name="Trazado 1055395" d="M288.843,81.971H275.934a2.082,2.082,0,0,1,0-4.164h10.827v-2.29a4.164,4.164,0,0,0-3.236-4.043L272.778,69.1a2.082,2.082,0,0,1-1.632-2.032V60.65a2.082,2.082,0,0,1,1.92-2.082,29.071,29.071,0,0,0,6.7-1.066,104.967,104.967,0,0,0-3.46-15.549,2.259,2.259,0,0,1-.083-.554c-.037-2.474-.441-2.915-.833-3.331-.062,0-.637-.083-1.024-.15a7.536,7.536,0,0,1-2.382-.679,8.187,8.187,0,0,0-4.014-1.074,10.077,10.077,0,0,0-6.53,2.915,2.091,2.091,0,1,1-3-2.915h0A14.321,14.321,0,0,1,267.939,32a12.577,12.577,0,0,1,6.046,1.587,6.483,6.483,0,0,0,1.07.233,5.659,5.659,0,0,1,3.377,1.412,7.987,7.987,0,0,1,1.941,5.83,93.69,93.69,0,0,1,3.6,17.3c0,2.324-2.465,3.548-8.662,4.193v2.84l9.111,2.011a8.354,8.354,0,0,1,6.5,8.112v4.372A2.082,2.082,0,0,1,288.843,81.971Z" transform="translate(-224.298)"/>
      <path id="Trazado_1055396" data-name="Trazado 1055396" d="M43.725,145.971H2.082A2.082,2.082,0,0,1,0,143.889v-5a8.37,8.37,0,0,1,6.559-8.137l9.161-1.986v-2.7a22.23,22.23,0,0,1-1.391-2.5,15.441,15.441,0,0,0-1.116-1.986,11.293,11.293,0,0,1-3.556-5.593,5.776,5.776,0,0,1,.466-4.248V110.7a19.572,19.572,0,0,1,.487-6.3A13.809,13.809,0,0,1,22.824,96a12.347,12.347,0,0,1,5.959,1.566,6.011,6.011,0,0,0,1.033.225A5.567,5.567,0,0,1,33.2,99.231a7.937,7.937,0,0,1,1.866,5.693,30.493,30.493,0,0,1,.583,6.967,5,5,0,0,1,.483,4.077,11.269,11.269,0,0,1-3.56,5.647,17.638,17.638,0,0,0-1.079,1.957,22.176,22.176,0,0,1-1.391,2.5v2.7l9.161,1.986h0a8.37,8.37,0,0,1,6.546,8.133v5A2.082,2.082,0,0,1,43.725,145.971Zm-39.56-4.164H41.642v-2.915a4.164,4.164,0,0,0-3.281-4.068l-10.79-2.34a2.082,2.082,0,0,1-1.637-2.036v-5.11a2.082,2.082,0,0,1,.62-1.487,14.989,14.989,0,0,0,1.216-2.157,12.194,12.194,0,0,1,1.886-3.052,7.562,7.562,0,0,0,2.407-3.51c.2-.949.083-1.178-.092-1.52a3.6,3.6,0,0,1-.475-1.72,26.309,26.309,0,0,0-.5-6.084,2.256,2.256,0,0,1-.083-.558c-.033-2.39-.441-2.836-.77-3.194h0c-.071,0-.633-.1-1-.158a7.138,7.138,0,0,1-2.357-.691,8,8,0,0,0-3.939-1.041,9.578,9.578,0,0,0-8.328,5.651,19.9,19.9,0,0,0-.242,4.806v1.249a3.6,3.6,0,0,1-.479,1.72c-.175.341-.291.57-.1,1.516A7.746,7.746,0,0,0,16.1,118.62a12.351,12.351,0,0,1,1.9,3.052,15.936,15.936,0,0,0,1.228,2.165,2.224,2.224,0,0,1,.616,1.478v5.11a2.082,2.082,0,0,1-1.637,2.036L7.417,134.8a4.164,4.164,0,0,0-3.252,4.089Z" transform="translate(0 -55.672)"/>
    </g>
  </g>
</svg>
