<svg xmlns="http://www.w3.org/2000/svg" xmlns:xlink="http://www.w3.org/1999/xlink" width="103" height="103" viewBox="0 0 103 103">
  <defs>
    <filter id="Trazado_982547" x="0" y="0" width="103" height="103" filterUnits="userSpaceOnUse">
      <feOffset dy="3" input="SourceAlpha"/>
      <feGaussianBlur stdDeviation="3" result="blur"/>
      <feFlood flood-opacity="0.161"/>
      <feComposite operator="in" in2="blur"/>
      <feComposite in="SourceGraphic"/>
    </filter>
  </defs>
  <g id="Grupo_1225083" data-name="Grupo 1225083" transform="translate(-821 -1000.007)">
    <g id="Grupo_1210960" data-name="Grupo 1210960" transform="translate(630 -191.605)">
      <g id="Grupo_1210290" data-name="Grupo 1210290" transform="translate(0 -2868)">
        <g id="Grupo_1207485" data-name="Grupo 1207485" transform="translate(0 396.112)">
          <g id="Grupo_1207313" data-name="Grupo 1207313" transform="translate(0 2919.5)">
            <g id="Grupo_1202212" data-name="Grupo 1202212" transform="translate(-80 -126.414)">
              <g id="Grupo_1174813" data-name="Grupo 1174813" transform="translate(280 876.414)">
                <g id="Grupo_1201680" data-name="Grupo 1201680">
                  <g id="Grupo_1201330" data-name="Grupo 1201330">
                    <g id="Grupo_1172010" data-name="Grupo 1172010">
                      <g id="Grupo_1171046" data-name="Grupo 1171046">
                        <g id="Grupo_1148525" data-name="Grupo 1148525">
                          <g transform="matrix(1, 0, 0, 1, -9, -6)" filter="url(#Trazado_982547)">
                            <g id="Trazado_982547-2" data-name="Trazado 982547" transform="translate(9 6)" fill="#fdfbec">
                              <path d="M 42.5 83.5 C 36.96437835693359 83.5 31.59512901306152 82.41617584228516 26.54141235351562 80.27863311767578 C 21.65934181213379 78.21369171142578 17.27447128295898 75.25723266601562 13.50862312316895 71.49137878417969 C 9.742764472961426 67.72553253173828 6.786305904388428 63.34066009521484 4.721364498138428 58.45858764648438 C 2.583823442459106 53.40486907958984 1.5 48.03562164306641 1.5 42.5 C 1.5 36.96437835693359 2.583823442459106 31.59512901306152 4.721364498138428 26.54141235351562 C 6.786305904388428 21.65934181213379 9.742764472961426 17.27448272705078 13.50862312316895 13.50862312316895 C 17.27447128295898 9.742776870727539 21.65934181213379 6.786305904388428 26.54141235351562 4.721364498138428 C 31.59512901306152 2.583823442459106 36.96437835693359 1.5 42.5 1.5 C 48.03562164306641 1.5 53.40486907958984 2.583823442459106 58.45858764648438 4.721364498138428 C 63.34066009521484 6.786305904388428 67.72553253173828 9.742776870727539 71.49137878417969 13.50862312316895 C 75.25723266601562 17.27448272705078 78.21369171142578 21.65934181213379 80.27863311767578 26.54141235351562 C 82.41617584228516 31.59512901306152 83.5 36.96437835693359 83.5 42.5 C 83.5 48.03562164306641 82.41617584228516 53.40486907958984 80.27863311767578 58.45858764648438 C 78.21369171142578 63.34066009521484 75.25723266601562 67.72553253173828 71.49137878417969 71.49137878417969 C 67.72553253173828 75.25723266601562 63.34066009521484 78.21369171142578 58.45858764648438 80.27863311767578 C 53.40486907958984 82.41617584228516 48.03562164306641 83.5 42.5 83.5 Z" stroke="none"/>
                              <path d="M 42.5 3 C 37.16621398925781 3 31.99356079101562 4.043960571289062 27.125732421875 6.102882385253906 C 22.42246627807617 8.092185974121094 18.19785308837891 10.94070434570312 14.56928253173828 14.56928253173828 C 10.94070434570312 18.19785308837891 8.092185974121094 22.42246627807617 6.102882385253906 27.125732421875 C 4.043960571289062 31.99356079101562 3 37.16621398925781 3 42.5 C 3 47.83378601074219 4.043960571289062 53.00643920898438 6.102882385253906 57.874267578125 C 8.092185974121094 62.57753372192383 10.94070434570312 66.80214691162109 14.56928253173828 70.43071746826172 C 18.19785308837891 74.05929565429688 22.42246627807617 76.90781402587891 27.125732421875 78.89711761474609 C 31.99356079101562 80.95603942871094 37.16621398925781 82 42.5 82 C 47.83378601074219 82 53.00643920898438 80.95603942871094 57.874267578125 78.89711761474609 C 62.57753372192383 76.90781402587891 66.80214691162109 74.05929565429688 70.43071746826172 70.43071746826172 C 74.05929565429688 66.80214691162109 76.90781402587891 62.57753372192383 78.89711761474609 57.874267578125 C 80.95603942871094 53.00643920898438 82 47.83378601074219 82 42.5 C 82 37.16621398925781 80.95603942871094 31.99356079101562 78.89711761474609 27.125732421875 C 76.90781402587891 22.42246627807617 74.05929565429688 18.19785308837891 70.43071746826172 14.56928253173828 C 66.80214691162109 10.94070434570312 62.57753372192383 8.092185974121094 57.874267578125 6.102882385253906 C 53.00643920898438 4.043960571289062 47.83378601074219 3 42.5 3 M 42.5 0 C 65.97210693359375 0 85 19.02789306640625 85 42.5 C 85 65.97210693359375 65.97210693359375 85 42.5 85 C 19.02789306640625 85 0 65.97210693359375 0 42.5 C 0 19.02789306640625 19.02789306640625 0 42.5 0 Z" stroke="none" fill="#83793c"/>
                            </g>
                          </g>
                        </g>
                      </g>
                    </g>
                  </g>
                </g>
              </g>
            </g>
          </g>
        </g>
      </g>
    </g>
    <g id="think-question_14781835_1_" data-name="think-question_14781835 (1)" transform="translate(840.263 1014.711)">
      <g id="Grupo_1225075" data-name="Grupo 1225075" transform="translate(7.505 7.5)">
        <path id="Trazado_1055174" data-name="Trazado 1055174" d="M35.669,357.587l-1.479-.622c-4.56-2.212-3.906-2.378-2.5-6.592,1.632-1.113,3.67-1.439,5.556-1.928.76-.2,3.708-1.046,4.271-1.16l2.1-.835a2.644,2.644,0,0,0,.291-1.458V340.2l8.644,3.421v1.372a2.229,2.229,0,0,0,.422,1.306l6.762,1.094a51.332,51.332,0,0,1,7.344,1.751l3.428,1.089-4.571,5.575-8.55,1.778Z" transform="translate(-28.202 -304.995)" fill="#bbcf51"/>
        <path id="Trazado_1055175" data-name="Trazado 1055175" d="M387.554,442.722a8.4,8.4,0,0,0-3.365-6.8c-.04-.029-.08-.057-.122-.084a39.594,39.594,0,0,0-2.76,3.271S387.554,443.378,387.554,442.722Z" transform="translate(-341.758 -390.514)" fill="#8b9d25"/>
        <path id="Trazado_1055176" data-name="Trazado 1055176" d="M15.015,443.273v.29H7.867a.319.319,0,0,1-.319-.33,8.657,8.657,0,0,1,3.365-6.8c.04-.029.08-.057.122-.084C12.8,438.324,14.866,440.49,15.015,443.273Z" transform="translate(-7.549 -390.971)" fill="#bbcf51"/>
        <path id="Trazado_1055177" data-name="Trazado 1055177" d="M25.341,215.4c0,3.956-3.926,7.653-7.9,7.653-1.524,0-3.719,0-5.853-3.479a7.192,7.192,0,0,1,11.053-7.722C22.8,212.434,25.341,214.762,25.341,215.4Z" transform="translate(-10.948 -189.082)" fill="#52668d"/>
        <path id="Trazado_1055178" data-name="Trazado 1055178" d="M27.753,228.535a7.2,7.2,0,0,1-14.143,1.837,7.18,7.18,0,0,0,11.053-7.722A7.148,7.148,0,0,1,27.753,228.535Z" transform="translate(-12.969 -199.884)" fill="#394e6d"/>
        <path id="Trazado_1055179" data-name="Trazado 1055179" d="M259.528,216.325c0,3.956-1.239,6.8-7.732,7.092-1.684.076-4.3-2.231-5.2-3.846a7.192,7.192,0,0,1,11.053-7.722C259.211,214.171,259.528,215.69,259.528,216.325Z" transform="translate(-221.09 -189.082)" fill="#52668d"/>
        <path id="Trazado_1055180" data-name="Trazado 1055180" d="M262.764,228.535a7.2,7.2,0,0,1-14.144,1.837,7.18,7.18,0,0,0,11.053-7.722A7.146,7.146,0,0,1,262.764,228.535Z" transform="translate(-223.111 -199.884)" fill="#394e6d"/>
        <path id="Trazado_1055181" data-name="Trazado 1055181" d="M85.4,17.438c0,6.044-.991,13.645-9,11.765L61.5,28.846v-6.5A14.283,14.283,0,0,1,75.02,8.11l.613.452.975-.452a14.144,14.144,0,0,1,6.445,1.959C86.5,14.193,85.4,16.023,85.4,17.438Z" transform="translate(-55.791 -8.045)" fill="#52668d"/>
        <path id="Trazado_1055182" data-name="Trazado 1055182" d="M216.083,39.034v7.05l-13.723-.33a19.477,19.477,0,0,0,6.647-19.135A14.432,14.432,0,0,1,216.083,39.034Z" transform="translate(-181.746 -24.597)" fill="#394e6d"/>
        <path id="Trazado_1055183" data-name="Trazado 1055183" d="M71.3,193.05a5.852,5.852,0,0,0,4.473-5.679h0a2.33,2.33,0,0,0-2.335-2.325H45.671a2.33,2.33,0,0,0-2.335,2.325h0a5.852,5.852,0,0,0,4.473,5.679Z" transform="translate(-39.549 -166.258)" fill="#f5bb93"/>
        <path id="Trazado_1055184" data-name="Trazado 1055184" d="M102.53,104.867l4.263-3.993a8.263,8.263,0,0,0,2.336-5.756V88.208A1.508,1.508,0,0,1,107.7,87.18l-.894-2.669a7.906,7.906,0,0,0-3.444-4.278l-5.834-3.44a.317.317,0,0,0-.322,0L91.417,80.2a7.914,7.914,0,0,0-3.49,4.307l-.893,2.669A1.508,1.508,0,0,1,85.6,88.208v6.911a8.273,8.273,0,0,0,2.633,6.048l3.966,3.7a7.553,7.553,0,0,0,5.164,2.032c.375,0,2.989.225,3.362.17Z" transform="translate(-77.343 -69.422)" fill="#f5b284"/>
        <g id="Grupo_1225073" data-name="Grupo 1225073" transform="translate(10.164 30.976)">
          <path id="Trazado_1055185" data-name="Trazado 1055185" d="M122.941,313.106l-.392.483-4.26,5.257-1.524-.965a7.138,7.138,0,0,0-3.552-1.114,5.87,5.87,0,0,1-2.907-.908l-3.77-2.395a1.333,1.333,0,0,1-.62-1.127c0-.015,0-.029,0-.044s.19-.385.285-.566a5.05,5.05,0,0,1,.67-.4c.189.1.7-.375,1.108-.114l-.857-.544a1.331,1.331,0,0,1-.62-1.127.24.24,0,0,1,0-.043c.041-.22.569-.293.664-.475.018-.036-.03-.047.158-.139,0,0,.831-.73,1.24-.47l-.547-.348a1.333,1.333,0,0,1-.621-1.129c0-.015,0-.029,0-.044.006-.193.295-.309.388-.49a1.685,1.685,0,0,1,.449-.4s.815-.456,1.226-.2l-5.24-3.328a1.331,1.331,0,0,1-.472-1.739c.527-.474.864-.593,1.085-.452l8.436,5.581c2.525,1.353,3.592.336,3.593.328.018-.087.3-.563.32-.646a1.593,1.593,0,0,0,.171-.448.164.164,0,0,0,.005-.024c.05-.238.1-.457.157-.661a6.7,6.7,0,0,1,1.154-2.377,2.942,2.942,0,0,1,.525-.58,2,2,0,0,1,.55-.3,4,4,0,0,1,1.223.083c.063.04-.793,3.088-.747,3.6,0,0,.145,4.048.17,4.348a3.09,3.09,0,0,0,1.7,2.675Z" transform="translate(-103.6 -300.234)" fill="#f5b284"/>
        </g>
        <path id="Trazado_1055186" data-name="Trazado 1055186" d="M254.8,418.767H242.752l-4.8-3,4.243-7.143,14.8,9.563C257.263,418.352,255.111,418.762,254.8,418.767Z" transform="translate(-213.57 -366.175)" fill="#bbcf51"/>
        <path id="Trazado_1055187" data-name="Trazado 1055187" d="M290.5,414.851h-3.491a.318.318,0,0,0,.167-.585l-13.2-8.437,1.007-1.589,15.689,10.026A.318.318,0,0,1,290.5,414.851Z" transform="translate(-245.779 -362.259)" fill="#8b9d25"/>
        <path id="Trazado_1055188" data-name="Trazado 1055188" d="M226.579,399.678l-4.559,6.113a.933.933,0,0,1-1.3.19l-1.581-1.171a.924.924,0,0,1-.192-1.293l4.525-6.066c.59-.48,1.264-1.266,1.566-1.042l1.7,1.257C227.019,397.874,227.123,398.78,226.579,399.678Z" transform="translate(-196.418 -355.221)" fill="#eaf6ff"/>
        <path id="Trazado_1055189" data-name="Trazado 1055189" d="M267.224,394.26l-.871,1.167a1.013,1.013,0,0,0-.417-.839l-1.7-1.257a1.01,1.01,0,0,0-.989-.131l.9-1.213a.931.931,0,0,1,1.3-.19l1.582,1.17A.925.925,0,0,1,267.224,394.26Z" transform="translate(-236.193 -350.97)" fill="#d8ecfe"/>
        <g id="Grupo_1225074" data-name="Grupo 1225074" transform="translate(28.444 0)">
          <path id="Trazado_1055190" data-name="Trazado 1055190" d="M426.752,270.64c0,1.179-1.414,1.7-2.6,1.7-.559,0-.995-.558-1.385-1.124a2.21,2.21,0,0,1-.051-.476,2.289,2.289,0,0,1,3.457-1.958A2.9,2.9,0,0,1,426.752,270.64Z" transform="translate(-407.233 -240.846)" fill="#eaf6ff"/>
          <path id="Trazado_1055191" data-name="Trazado 1055191" d="M427.725,273.448a2.288,2.288,0,0,1-4.525.476,2.143,2.143,0,0,0,3.589-1.571,2.113,2.113,0,0,0-.183-.862A2.273,2.273,0,0,1,427.725,273.448Z" transform="translate(-407.662 -243.556)" fill="#d8ecfe"/>
          <path id="Trazado_1055192" data-name="Trazado 1055192" d="M295.7,9.956c-.1-.01-.192-.017-.29-.021a.328.328,0,0,1-.254-.138c-.094-.133-.2-.262-.3-.386a5.475,5.475,0,0,0-6.4-1.428.325.325,0,0,1-.289-.011,4,4,0,0,0-5.686,2.292.313.313,0,0,1-.3.219,4.88,4.88,0,0,0-4.352,7.115.321.321,0,0,1-.1.413,3.116,3.116,0,0,0-.32,4.9.318.318,0,0,1,.1.3,4.507,4.507,0,0,0,.089,2c2.113,2.741,6.359,3.449,8.764,3.449,6.879,0,11.224-3.555,11.224-10.434C297.577,16.574,297.577,12.133,295.7,9.956Z" transform="translate(-276.36 -7.5)" fill="#eaf6ff"/>
          <path id="Trazado_1055193" data-name="Trazado 1055193" d="M401.039,333.459a1.517,1.517,0,0,1-1.626,1.355c-.431,0-.776-.218-1.228-.958a1.683,1.683,0,0,1-.015-.22,1.664,1.664,0,0,1,2.391-1.49A1.839,1.839,0,0,1,401.039,333.459Z" transform="translate(-385.281 -297.645)" fill="#eaf6ff"/>
          <path id="Trazado_1055194" data-name="Trazado 1055194" d="M401.62,335.05a1.663,1.663,0,0,1-3.31.22,1.477,1.477,0,0,0,2.564-.992,1.456,1.456,0,0,0-.187-.717A1.656,1.656,0,0,1,401.62,335.05Z" transform="translate(-385.406 -299.058)" fill="#d8ecfe"/>
          <path id="Trazado_1055195" data-name="Trazado 1055195" d="M310.319,40.995a.311.311,0,0,0-.018.324,4.872,4.872,0,0,1-1.971,6.615c-.041.022-.113.058-.18.091a.312.312,0,0,0-.176.251,4.3,4.3,0,0,1-.152.814,0,0,0,0,0,0,0,4.277,4.277,0,0,1-5.994,2.625.313.313,0,0,0-.356.056,5.161,5.161,0,0,1-8.527-2.235.314.314,0,0,0-.318-.225,4.58,4.58,0,0,1-4.646-3.352,12.459,12.459,0,0,0,18.107-15.251,4.393,4.393,0,0,1,3.721,5.746.313.313,0,0,0,.081.322,3.284,3.284,0,0,1,.429,4.215Z" transform="translate(-286.751 -28.255)" fill="#d8ecfe"/>
          <path id="Trazado_1055196" data-name="Trazado 1055196" d="M338.327,60.07c-1.1,8.773-5.7,8.652-9.715,8.652a7.424,7.424,0,1,1,9.715-8.652Z" transform="translate(-318.619 -49.348)" fill="#7ccbf1"/>
          <path id="Trazado_1055197" data-name="Trazado 1055197" d="M380.7,110.478a7.453,7.453,0,0,1-9.9,7,12.469,12.469,0,0,0,9.715-8.652A7.419,7.419,0,0,1,380.7,110.478Z" transform="translate(-360.807 -98.108)" fill="#4fabda"/>
        </g>
      </g>
      <g id="Grupo_1225081" data-name="Grupo 1225081" transform="translate(7.5 7.5)">
        <g id="Grupo_1225076" data-name="Grupo 1225076" transform="translate(0 42.508)">
          <path id="Trazado_1055198" data-name="Trazado 1055198" d="M7.5,419.039a8.241,8.241,0,0,1,3.37-6.869c1.652-1.18,3.746-1.51,5.678-2.011.582-.151,2.336-.637,3.465-.944" transform="translate(-7.5 -409.216)" fill="none" stroke="#000" stroke-linecap="round" stroke-linejoin="round" stroke-miterlimit="10" stroke-width="1"/>
        </g>
        <g id="Grupo_1225078" data-name="Grupo 1225078" transform="translate(31.345 42.39)">
          <g id="Grupo_1225077" data-name="Grupo 1225077">
            <path id="Trazado_1055199" data-name="Trazado 1055199" d="M318.043,418.046a8.241,8.241,0,0,0-3.37-6.869c-1.652-1.18-3.746-1.51-5.678-2.011-.582-.151-4.142-.754-5.27-1.061" transform="translate(-303.724 -408.106)" fill="none" stroke="#000" stroke-linecap="round" stroke-linejoin="round" stroke-miterlimit="10" stroke-width="1"/>
          </g>
          <path id="Trazado_1055200" data-name="Trazado 1055200" d="M384.242,436.341a29.162,29.162,0,0,0-2.581,3.135" transform="translate(-373.414 -433.353)" fill="none" stroke="#000" stroke-linecap="round" stroke-linejoin="round" stroke-miterlimit="10" stroke-width="1"/>
        </g>
        <path id="Trazado_1055201" data-name="Trazado 1055201" d="M40.487,436.341c1.766,1.974,3.832,4.14,3.981,6.925" transform="translate(-36.996 -390.963)" fill="none" stroke="#000" stroke-linecap="round" stroke-linejoin="round" stroke-miterlimit="10" stroke-width="1"/>
        <g id="Grupo_1225079" data-name="Grupo 1225079" transform="translate(0.407 22.504)">
          <path id="Trazado_1055202" data-name="Trazado 1055202" d="M23.072,231.878a7.175,7.175,0,1,1-8.228-11.708" transform="translate(-11.346 -220.17)" fill="none" stroke="#000" stroke-linecap="round" stroke-linejoin="round" stroke-miterlimit="10" stroke-width="1"/>
          <path id="Trazado_1055203" data-name="Trazado 1055203" d="M275.869,329.211A7.222,7.222,0,0,1,268.1,327.9" transform="translate(-240.932 -316.497)" fill="none" stroke="#000" stroke-linecap="round" stroke-linejoin="round" stroke-miterlimit="10" stroke-width="1"/>
          <path id="Trazado_1055204" data-name="Trazado 1055204" d="M369.381,243.429a7.145,7.145,0,0,1-.382,7.942" transform="translate(-331.154 -240.968)" fill="none" stroke="#000" stroke-linecap="round" stroke-linejoin="round" stroke-miterlimit="10" stroke-width="1"/>
        </g>
        <path id="Trazado_1055205" data-name="Trazado 1055205" d="M65.18,12.619a14.292,14.292,0,0,1,21.069-.161M61.5,26.644V22.162a14.153,14.153,0,0,1,1.569-6.5" transform="translate(-55.787 -7.861)" fill="none" stroke="#000" stroke-linecap="round" stroke-linejoin="round" stroke-miterlimit="10" stroke-width="1"/>
        <line id="Línea_1046" data-name="Línea 1046" y1="6.784" transform="translate(20.028 0.324)" fill="none" stroke="#000" stroke-linecap="round" stroke-linejoin="round" stroke-miterlimit="10" stroke-width="1"/>
        <path id="Trazado_1055206" data-name="Trazado 1055206" d="M47.809,193.049a5.852,5.852,0,0,1-4.473-5.679h0a2.33,2.33,0,0,1,2.335-2.325h2.138" transform="translate(-39.544 -166.258)" fill="none" stroke="#000" stroke-linecap="round" stroke-linejoin="round" stroke-miterlimit="10" stroke-width="1"/>
        <path id="Trazado_1055207" data-name="Trazado 1055207" d="M311.642,228.916a5.875,5.875,0,0,1-3.994,3.363" transform="translate(-275.888 -205.487)" fill="none" stroke="#000" stroke-linecap="round" stroke-linejoin="round" stroke-miterlimit="10" stroke-width="1"/>
        <path id="Trazado_1055208" data-name="Trazado 1055208" d="M105.727,81.975A7.911,7.911,0,0,0,103.36,79.8l-5.995-3.535-5.948,3.506a7.914,7.914,0,0,0-3.49,4.307l-.893,2.669A1.508,1.508,0,0,1,85.6,87.775v6.911a8.271,8.271,0,0,0,2.109,5.514" transform="translate(-77.338 -68.99)" fill="none" stroke="#000" stroke-linecap="round" stroke-linejoin="round" stroke-miterlimit="10" stroke-width="1"/>
        <path id="Trazado_1055209" data-name="Trazado 1055209" d="M273.731,213.806l1.284-1.2a8.263,8.263,0,0,0,2.336-5.756V201.7" transform="translate(-245.56 -181.151)" fill="none" stroke="#000" stroke-linecap="round" stroke-linejoin="round" stroke-miterlimit="10" stroke-width="1"/>
        <path id="Trazado_1055210" data-name="Trazado 1055210" d="M188.392,254.916a2.5,2.5,0,0,1-2.261,0" transform="translate(-167.229 -228.736)" fill="none" stroke="#000" stroke-linecap="round" stroke-linejoin="round" stroke-miterlimit="10" stroke-width="1"/>
        <path id="Trazado_1055211" data-name="Trazado 1055211" d="M136.571,159.288a4.311,4.311,0,0,0-4.136,0" transform="translate(-119.215 -142.754)" fill="none" stroke="#000" stroke-linecap="round" stroke-linejoin="round" stroke-miterlimit="10" stroke-width="1"/>
        <path id="Trazado_1055212" data-name="Trazado 1055212" d="M222.112,172.827a4.311,4.311,0,0,1,4.136,0" transform="translate(-199.403 -154.861)" fill="none" stroke="#000" stroke-linecap="round" stroke-linejoin="round" stroke-miterlimit="10" stroke-width="1"/>
        <path id="Trazado_1055218" data-name="Trazado 1055218" d="M222.112,172.3a4.311,4.311,0,0,0,4.136,0" transform="translate(-204.024 -142.56)" fill="none" stroke="#000" stroke-linecap="round" stroke-linejoin="round" stroke-miterlimit="10" stroke-width="1"/>
        <line id="Línea_1048" data-name="Línea 1048" y1="1.828" transform="translate(24.777 20.8)" fill="none" stroke="#000" stroke-linecap="round" stroke-linejoin="round" stroke-miterlimit="10" stroke-width="1"/>
        <line id="Línea_1049" data-name="Línea 1049" y1="1.828" transform="translate(15.288 20.8)" fill="none" stroke="#000" stroke-linecap="round" stroke-linejoin="round" stroke-miterlimit="10" stroke-width="1"/>
        <path id="Trazado_1055213" data-name="Trazado 1055213" d="M121.162,308.591a4.244,4.244,0,0,1-.348-2.31,8.068,8.068,0,0,0-.007-1.9l-.157-1.746a2.631,2.631,0,0,1,.3-1.472l.522-.984a.529.529,0,0,0-.049-.57.62.62,0,0,0-.164-.141,1.779,1.779,0,0,0-2.059.149,2.954,2.954,0,0,0-.525.581,6.977,6.977,0,0,0-1.31,3.038l-.005.025a1.609,1.609,0,0,1-2.435,1l-9.257-5.878a1.345,1.345,0,0,0-1.852.409h0a1.334,1.334,0,0,0,.41,1.846l7.485,4.753-2.245-1.426a1.345,1.345,0,0,0-1.852.409h0a1.334,1.334,0,0,0,.41,1.846l.548.348,1.7,1.078-1.7-1.078a1.345,1.345,0,0,0-1.852.409h0a1.334,1.334,0,0,0,.41,1.845l.857.544,1.149.73-1.149-.73a1.345,1.345,0,0,0-1.853.409h0a1.334,1.334,0,0,0,.409,1.846l3.77,2.394a5.86,5.86,0,0,0,2.906.908h0a7.134,7.134,0,0,1,2.726.661" transform="translate(-93.432 -267.417)" fill="none" stroke="#000" stroke-linecap="round" stroke-linejoin="round" stroke-miterlimit="10" stroke-width="1"/>
        <line id="Línea_1050" data-name="Línea 1050" x2="7.488" y2="4.709" transform="translate(38.175 47.622)" fill="none" stroke="#000" stroke-linecap="round" stroke-linejoin="round" stroke-miterlimit="10" stroke-width="1"/>
        <line id="Línea_1051" data-name="Línea 1051" x2="3.819" y2="2.402" transform="translate(31.218 43.248)" fill="none" stroke="#000" stroke-linecap="round" stroke-linejoin="round" stroke-miterlimit="10" stroke-width="1"/>
        <line id="Línea_1052" data-name="Línea 1052" x1="3.321" y1="2.088" transform="translate(25.839 50.502)" fill="none" stroke="#000" stroke-linecap="round" stroke-linejoin="round" stroke-miterlimit="10" stroke-width="1"/>
        <path id="Trazado_1055214" data-name="Trazado 1055214" d="M227.451,394.261l-5.429,7.279a.932.932,0,0,1-1.3.191l-1.582-1.171a.925.925,0,0,1-.191-1.293l5.429-7.279a.932.932,0,0,1,1.3-.191l1.582,1.171A.925.925,0,0,1,227.451,394.261Z" transform="translate(-196.414 -350.971)" fill="none" stroke="#000" stroke-linecap="round" stroke-linejoin="round" stroke-miterlimit="10" stroke-width="1"/>
        <ellipse id="Elipse_13544" data-name="Elipse 13544" cx="2.288" cy="2.279" rx="2.288" ry="2.279" transform="translate(43.936 27.613)" fill="none" stroke="#000" stroke-linecap="round" stroke-linejoin="round" stroke-miterlimit="10" stroke-width="1"/>
        <ellipse id="Elipse_13545" data-name="Elipse 13545" cx="1.662" cy="1.656" rx="1.662" ry="1.656" transform="translate(41.339 34.335)" fill="none" stroke="#000" stroke-linecap="round" stroke-linejoin="round" stroke-miterlimit="10" stroke-width="1"/>
        <path id="Trazado_1055215" data-name="Trazado 1055215" d="M299.814,20.4a3.284,3.284,0,0,0-.463-4.506,4.4,4.4,0,0,0-4.105-5.957,5.154,5.154,0,0,0-.394-.521A5.475,5.475,0,0,0,288.3,8.052h0a3.995,3.995,0,0,0-5.893,2.437,4.88,4.88,0,0,0-4.439,7.372,3.117,3.117,0,0,0-.43,5.166,4.567,4.567,0,0,0,4.95,5.512,5.16,5.16,0,0,0,8.751,2.319,4.277,4.277,0,0,0,6.191-2.521,0,0,0,0,1,0,0,4.265,4.265,0,0,0,.164-.987l.072-.032a4.872,4.872,0,0,0,2.147-6.92Z" transform="translate(-247.91 -7.5)" fill="none" stroke="#000" stroke-linecap="round" stroke-linejoin="round" stroke-miterlimit="10" stroke-width="1"/>
        <path id="Trazado_1055216" data-name="Trazado 1055216" d="M332.96,56.412a7.446,7.446,0,1,1-3.7-.02" transform="translate(-290.173 -51.218)" fill="none" stroke="#000" stroke-linecap="round" stroke-linejoin="round" stroke-miterlimit="10" stroke-width="1"/>
        <g id="Grupo_1225080" data-name="Grupo 1225080" transform="translate(38.92 8.525)">
          <path id="Trazado_1055217" data-name="Trazado 1055217" d="M375.312,90.033A1.976,1.976,0,1,1,377.288,92V93.64" transform="translate(-375.312 -88.064)" fill="none" stroke="#000" stroke-linecap="round" stroke-linejoin="round" stroke-miterlimit="10" stroke-width="1"/>
          <line id="Línea_1053" data-name="Línea 1053" transform="translate(1.976 7.904)" fill="none" stroke="#000" stroke-linecap="round" stroke-linejoin="round" stroke-miterlimit="10" stroke-width="1"/>
        </g>
      </g>
    </g>
  </g>
</svg>
