<svg xmlns="http://www.w3.org/2000/svg" xmlns:xlink="http://www.w3.org/1999/xlink" width="108" height="108" viewBox="0 0 108 108">
  <defs>
    <filter id="Trazado_904820" x="0" y="0" width="108" height="108" filterUnits="userSpaceOnUse">
      <feOffset dy="3" input="SourceAlpha"/>
      <feGaussianBlur stdDeviation="3" result="blur"/>
      <feFlood flood-opacity="0.161"/>
      <feComposite operator="in" in2="blur"/>
      <feComposite in="SourceGraphic"/>
    </filter>
  </defs>
  <g id="Grupo_1225161" data-name="Grupo 1225161" transform="translate(-211.058 -1583.395)">
    <g id="Grupo_1224641" data-name="Grupo 1224641" transform="translate(0.768 449.209)">
      <g id="Grupo_1224290" data-name="Grupo 1224290" transform="translate(219.29 1140.186)">
        <g id="Grupo_1208347" data-name="Grupo 1208347" transform="translate(0 0)">
          <g id="Grupo_1207936" data-name="Grupo 1207936">
            <g id="Grupo_1201662" data-name="Grupo 1201662">
              <g id="Grupo_1173585" data-name="Grupo 1173585">
                <g id="Grupo_1173428" data-name="Grupo 1173428">
                  <g id="Grupo_1171958" data-name="Grupo 1171958">
                    <g id="Grupo_1167341" data-name="Grupo 1167341">
                      <g id="Grupo_1166792" data-name="Grupo 1166792">
                        <g transform="matrix(1, 0, 0, 1, -9, -6)" filter="url(#Trazado_904820)">
                          <g id="Trazado_904820-2" data-name="Trazado 904820" transform="translate(9 6)" fill="#effbfe">
                            <path d="M 44.99999618530273 88.49999237060547 C 39.12687301635742 88.49999237060547 33.43022155761719 87.35006713867188 28.06829643249512 85.08216857910156 C 22.88852119445801 82.89130401611328 18.23629570007324 79.75457763671875 14.24084663391113 75.75914001464844 C 10.24540901184082 71.76369476318359 7.108683586120605 67.11146545410156 4.917821407318115 61.93169403076172 C 2.649921178817749 56.56976699829102 1.499996185302734 50.87311553955078 1.499996185302734 44.99999237060547 C 1.499996185302734 39.12686920166016 2.649921178817749 33.43021774291992 4.917821407318115 28.06829261779785 C 7.108683586120605 22.88851737976074 10.24540901184082 18.23630523681641 14.24084663391113 14.24085521697998 C 18.23629570007324 10.24540519714355 22.88852119445801 7.108692169189453 28.06829643249512 4.917829990386963 C 33.43022155761719 2.649929761886597 39.12687301635742 1.500004887580872 44.99999618530273 1.500004887580872 C 50.87311935424805 1.500004887580872 56.56977081298828 2.649929761886597 61.93169784545898 4.917829990386963 C 67.11147308349609 7.108692169189453 71.76369476318359 10.24540519714355 75.75914764404297 14.24085521697998 C 79.75458526611328 18.23630523681641 82.89131164550781 22.88851737976074 85.08216857910156 28.06829261779785 C 87.35007476806641 33.43021774291992 88.5 39.12686920166016 88.5 44.99999237060547 C 88.5 50.87311553955078 87.35007476806641 56.56976699829102 85.08216857910156 61.93169403076172 C 82.89131164550781 67.11146545410156 79.75458526611328 71.76369476318359 75.75914764404297 75.75914001464844 C 71.76369476318359 79.75457763671875 67.11147308349609 82.89130401611328 61.93169784545898 85.08216857910156 C 56.56977081298828 87.35006713867188 50.87311935424805 88.49999237060547 44.99999618530273 88.49999237060547 Z" stroke="none"/>
                            <path d="M 44.99999618530273 2.999992370605469 C 39.32870864868164 2.999992370605469 33.82865142822266 4.11004638671875 28.65262603759766 6.299331665039062 C 23.65165710449219 8.414566040039062 19.15968322753906 11.44333648681641 15.301513671875 15.30150604248047 C 11.44333648681641 19.15967559814453 8.414566040039062 23.65164947509766 6.299339294433594 28.65262222290039 C 4.110054016113281 33.82864761352539 2.999992370605469 39.32870483398438 2.999992370605469 44.99999237060547 C 2.999992370605469 50.67127990722656 4.110054016113281 56.17132186889648 6.299339294433594 61.34736633300781 C 8.414566040039062 66.34833526611328 11.44333648681641 70.84029388427734 15.301513671875 74.69846343994141 C 19.15968322753906 78.55663299560547 23.65165710449219 81.58540344238281 28.65262603759766 83.70063781738281 C 33.82865142822266 85.88992309570312 39.32870864868164 86.99997711181641 44.99999618530273 86.99997711181641 C 50.67128372192383 86.99997711181641 56.17134094238281 85.88992309570312 61.34736633300781 83.70063781738281 C 66.34834289550781 81.58540344238281 70.84030914306641 78.55663299560547 74.69847869873047 74.69846343994141 C 78.55665588378906 70.84029388427734 81.58542633056641 66.34833526611328 83.70065307617188 61.34736633300781 C 85.88993835449219 56.17132186889648 87 50.67127990722656 87 44.99999237060547 C 87 39.32870483398438 85.88993835449219 33.82864761352539 83.70065307617188 28.65262222290039 C 81.58542633056641 23.65164947509766 78.55665588378906 19.15967559814453 74.69847869873047 15.30150604248047 C 70.84030914306641 11.44333648681641 66.34834289550781 8.414566040039062 61.34736633300781 6.299331665039062 C 56.17134094238281 4.11004638671875 50.67128372192383 2.999992370605469 44.99999618530273 2.999992370605469 M 44.99999618530273 -7.62939453125e-06 C 69.85281372070312 -7.62939453125e-06 90 20.14717864990234 90 44.99999237060547 C 90 69.85279083251953 69.85281372070312 89.99997711181641 44.99999618530273 89.99997711181641 C 20.14717864990234 89.99997711181641 -7.62939453125e-06 69.85279083251953 -7.62939453125e-06 44.99999237060547 C -7.62939453125e-06 20.14717864990234 20.14717864990234 -7.62939453125e-06 44.99999618530273 -7.62939453125e-06 Z" stroke="none" fill="#497f88"/>
                          </g>
                        </g>
                      </g>
                    </g>
                  </g>
                </g>
              </g>
            </g>
          </g>
        </g>
      </g>
    </g>
    <g id="think-question_14781835_1_" data-name="think-question_14781835 (1)" transform="translate(230.69 1599.026)">
      <g id="Grupo_1225075" data-name="Grupo 1225075" transform="translate(7.505 7.5)">
        <path id="Trazado_1055174" data-name="Trazado 1055174" d="M35.969,358.627l-1.567-.659c-4.833-2.345-4.14-2.52-2.65-6.986,1.729-1.18,3.889-1.525,5.889-2.043.805-.209,3.93-1.109,4.526-1.229l2.221-.885a2.8,2.8,0,0,0,.309-1.545V340.2l9.161,3.626v1.455a2.362,2.362,0,0,0,.447,1.384l7.167,1.16a54.4,54.4,0,0,1,7.783,1.855l3.633,1.154-4.844,5.909-9.061,1.884Z" transform="translate(-28.056 -302.89)" fill="#bbcf51"/>
        <path id="Trazado_1055175" data-name="Trazado 1055175" d="M387.927,443.134a8.907,8.907,0,0,0-3.566-7.206c-.043-.03-.085-.061-.129-.089a41.959,41.959,0,0,0-2.925,3.466S387.927,443.829,387.927,443.134Z" transform="translate(-339.392 -387.803)" fill="#8b9d25"/>
        <path id="Trazado_1055176" data-name="Trazado 1055176" d="M15.462,443.688v.307H7.886a.338.338,0,0,1-.338-.35,9.174,9.174,0,0,1,3.566-7.206c.043-.03.085-.061.129-.089C13.116,438.443,15.3,440.737,15.462,443.688Z" transform="translate(-7.549 -388.257)" fill="#bbcf51"/>
        <path id="Trazado_1055177" data-name="Trazado 1055177" d="M26.177,215.686c0,4.193-4.161,8.111-8.371,8.111-1.615,0-3.942,0-6.2-3.687a7.622,7.622,0,0,1,11.715-8.184C23.483,212.546,26.177,215.013,26.177,215.686Z" transform="translate(-10.924 -187.797)" fill="#52668d"/>
        <path id="Trazado_1055178" data-name="Trazado 1055178" d="M28.6,228.887a7.626,7.626,0,0,1-14.989,1.947,7.609,7.609,0,0,0,11.715-8.184A7.575,7.575,0,0,1,28.6,228.887Z" transform="translate(-12.93 -198.522)" fill="#394e6d"/>
        <path id="Trazado_1055179" data-name="Trazado 1055179" d="M260.315,216.669c0,4.193-1.313,7.2-8.195,7.516-1.784.081-4.554-2.364-5.507-4.076a7.622,7.622,0,0,1,11.715-8.184C259.98,214.386,260.315,216,260.315,216.669Z" transform="translate(-219.579 -187.797)" fill="#52668d"/>
        <path id="Trazado_1055180" data-name="Trazado 1055180" d="M263.61,228.887a7.626,7.626,0,0,1-14.99,1.947,7.609,7.609,0,0,0,11.715-8.184A7.573,7.573,0,0,1,263.61,228.887Z" transform="translate(-221.585 -198.522)" fill="#394e6d"/>
        <path id="Trazado_1055181" data-name="Trazado 1055181" d="M86.83,18c0,6.406-1.05,14.461-9.534,12.468l-15.8-.379V23.2A15.137,15.137,0,0,1,75.829,8.11l.649.479,1.033-.479a14.989,14.989,0,0,1,6.831,2.076C87.991,14.557,86.83,16.5,86.83,18Z" transform="translate(-55.45 -8.042)" fill="#52668d"/>
        <path id="Trazado_1055182" data-name="Trazado 1055182" d="M216.9,39.777v7.472L202.36,46.9A20.642,20.642,0,0,0,209.4,26.62,15.3,15.3,0,0,1,216.9,39.777Z" transform="translate(-180.513 -24.476)" fill="#394e6d"/>
        <path id="Trazado_1055183" data-name="Trazado 1055183" d="M72.977,193.529a6.2,6.2,0,0,0,4.74-6.019h0a2.469,2.469,0,0,0-2.474-2.464H45.81a2.469,2.469,0,0,0-2.474,2.464h0a6.2,6.2,0,0,0,4.74,6.019Z" transform="translate(-39.323 -165.134)" fill="#f5bb93"/>
        <path id="Trazado_1055184" data-name="Trazado 1055184" d="M103.542,106.549l4.518-4.232a8.757,8.757,0,0,0,2.476-6.1V88.893a1.6,1.6,0,0,1-1.517-1.089l-.947-2.828a8.379,8.379,0,0,0-3.65-4.534L98.24,76.8a.336.336,0,0,0-.342,0l-6.133,3.615a8.387,8.387,0,0,0-3.7,4.565L87.119,87.8A1.6,1.6,0,0,1,85.6,88.893v7.324a8.768,8.768,0,0,0,2.79,6.41l4.2,3.922a8.005,8.005,0,0,0,5.473,2.154c.4,0,3.168.239,3.563.18Z" transform="translate(-76.849 -68.984)" fill="#f5b284"/>
        <g id="Grupo_1225073" data-name="Grupo 1225073" transform="translate(10.772 32.828)">
          <path id="Trazado_1055185" data-name="Trazado 1055185" d="M124.1,313.876l-.415.511-4.515,5.571-1.615-1.023a7.565,7.565,0,0,0-3.765-1.181,6.22,6.22,0,0,1-3.081-.962l-4-2.538a1.412,1.412,0,0,1-.657-1.194c0-.016,0-.031,0-.047,0,0,.2-.408.3-.6a5.352,5.352,0,0,1,.71-.428c.2.108.74-.4,1.174-.121l-.908-.576a1.411,1.411,0,0,1-.657-1.194.255.255,0,0,1,0-.045c.043-.233.6-.311.7-.5.019-.038-.031-.05.167-.148,0,0,.88-.774,1.314-.5l-.58-.369a1.413,1.413,0,0,1-.658-1.2c0-.016,0-.031,0-.047.007-.2.312-.328.411-.519a1.785,1.785,0,0,1,.476-.42s.864-.483,1.3-.207l-5.553-3.527a1.411,1.411,0,0,1-.5-1.843c.559-.5.916-.628,1.15-.479l8.94,5.914c2.676,1.434,3.806.356,3.808.347.019-.092.319-.6.339-.684a1.688,1.688,0,0,0,.182-.474.174.174,0,0,0,.006-.026c.053-.252.108-.484.166-.7a7.1,7.1,0,0,1,1.224-2.519,3.118,3.118,0,0,1,.556-.615,2.121,2.121,0,0,1,.583-.322,4.237,4.237,0,0,1,1.3.088c.067.043-.841,3.273-.791,3.813,0,0,.154,4.29.181,4.608a3.275,3.275,0,0,0,1.8,2.835Z" transform="translate(-103.6 -300.234)" fill="#f5b284"/>
        </g>
        <path id="Trazado_1055186" data-name="Trazado 1055186" d="M255.8,419.374H243.039l-5.089-3.184,4.5-7.57,15.688,10.135C258.418,418.934,256.137,419.369,255.8,419.374Z" transform="translate(-212.112 -363.636)" fill="#bbcf51"/>
        <path id="Trazado_1055187" data-name="Trazado 1055187" d="M291.485,415.486h-3.7a.337.337,0,0,0,.177-.62l-13.992-8.941,1.068-1.684,16.628,10.626A.337.337,0,0,1,291.485,415.486Z" transform="translate(-244.093 -359.748)" fill="#8b9d25"/>
        <path id="Trazado_1055188" data-name="Trazado 1055188" d="M227.046,399.876l-4.831,6.479a.989.989,0,0,1-1.375.2l-1.675-1.241a.979.979,0,0,1-.2-1.37l4.8-6.429c.625-.509,1.34-1.341,1.66-1.1l1.8,1.332C227.512,397.964,227.623,398.925,227.046,399.876Z" transform="translate(-195.081 -352.76)" fill="#eaf6ff"/>
        <path id="Trazado_1055189" data-name="Trazado 1055189" d="M267.462,394.418l-.923,1.237a1.074,1.074,0,0,0-.442-.889l-1.8-1.332a1.071,1.071,0,0,0-1.049-.139l.959-1.285a.986.986,0,0,1,1.374-.2l1.677,1.24A.981.981,0,0,1,267.462,394.418Z" transform="translate(-234.575 -348.539)" fill="#d8ecfe"/>
        <g id="Grupo_1225074" data-name="Grupo 1225074" transform="translate(30.145 0)">
          <path id="Trazado_1055190" data-name="Trazado 1055190" d="M426.993,270.771c0,1.249-1.5,1.8-2.751,1.8-.592,0-1.054-.591-1.468-1.191a2.343,2.343,0,0,1-.054-.5,2.426,2.426,0,0,1,3.664-2.075A3.073,3.073,0,0,1,426.993,270.771Z" transform="translate(-406.307 -239.195)" fill="#eaf6ff"/>
          <path id="Trazado_1055191" data-name="Trazado 1055191" d="M428,273.565a2.425,2.425,0,0,1-4.8.5A2.271,2.271,0,0,0,427,272.4a2.24,2.24,0,0,0-.194-.914A2.409,2.409,0,0,1,428,273.565Z" transform="translate(-406.733 -241.885)" fill="#d8ecfe"/>
          <path id="Trazado_1055192" data-name="Trazado 1055192" d="M296.853,10.1c-.1-.011-.2-.018-.307-.022a.347.347,0,0,1-.27-.146c-.1-.141-.207-.278-.32-.409a5.8,5.8,0,0,0-6.788-1.513A.345.345,0,0,1,288.863,8a4.235,4.235,0,0,0-6.026,2.429.332.332,0,0,1-.315.232,5.172,5.172,0,0,0-4.612,7.54.34.34,0,0,1-.1.438,3.3,3.3,0,0,0-.339,5.195.338.338,0,0,1,.1.314,4.776,4.776,0,0,0,.094,2.117c2.239,2.9,6.74,3.655,9.288,3.655,7.29,0,11.9-3.767,11.9-11.058C298.846,17.116,298.846,12.41,296.853,10.1Z" transform="translate(-276.36 -7.5)" fill="#eaf6ff"/>
          <path id="Trazado_1055193" data-name="Trazado 1055193" d="M401.21,333.548a1.608,1.608,0,0,1-1.723,1.437c-.456,0-.823-.231-1.3-1.015a1.781,1.781,0,0,1-.016-.233,1.764,1.764,0,0,1,2.534-1.579A1.949,1.949,0,0,1,401.21,333.548Z" transform="translate(-384.51 -295.592)" fill="#eaf6ff"/>
          <path id="Trazado_1055194" data-name="Trazado 1055194" d="M401.818,335.139a1.762,1.762,0,0,1-3.508.233,1.565,1.565,0,0,0,2.717-1.052,1.543,1.543,0,0,0-.2-.76A1.755,1.755,0,0,1,401.818,335.139Z" transform="translate(-384.634 -296.994)" fill="#d8ecfe"/>
          <path id="Trazado_1055195" data-name="Trazado 1055195" d="M311.655,41.61a.329.329,0,0,0-.019.343,5.163,5.163,0,0,1-2.089,7.01c-.044.024-.12.061-.191.1a.331.331,0,0,0-.187.266,4.555,4.555,0,0,1-.161.862,0,0,0,0,0,0,0,4.533,4.533,0,0,1-6.352,2.782.332.332,0,0,0-.377.06,5.469,5.469,0,0,1-9.037-2.368.333.333,0,0,0-.337-.238,4.854,4.854,0,0,1-4.924-3.553,13.2,13.2,0,0,0,19.19-16.163,4.656,4.656,0,0,1,3.943,6.09.332.332,0,0,0,.086.342,3.481,3.481,0,0,1,.455,4.467Z" transform="translate(-286.678 -28.108)" fill="#d8ecfe"/>
          <path id="Trazado_1055196" data-name="Trazado 1055196" d="M339.207,60.415c-1.164,9.3-6.038,9.17-10.3,9.17a7.868,7.868,0,1,1,10.3-9.17Z" transform="translate(-318.32 -49.052)" fill="#7ccbf1"/>
          <path id="Trazado_1055197" data-name="Trazado 1055197" d="M381.291,110.576A7.9,7.9,0,0,1,370.8,118a13.215,13.215,0,0,0,10.3-9.17A7.863,7.863,0,0,1,381.291,110.576Z" transform="translate(-360.209 -97.466)" fill="#4fabda"/>
        </g>
      </g>
      <g id="Grupo_1225081" data-name="Grupo 1225081" transform="translate(7.5 7.5)">
        <g id="Grupo_1225076" data-name="Grupo 1225076" transform="translate(0 45.05)">
          <path id="Trazado_1055198" data-name="Trazado 1055198" d="M7.5,419.626a8.734,8.734,0,0,1,3.571-7.279c1.751-1.251,3.97-1.6,6.018-2.131.617-.16,2.476-.675,3.672-1" transform="translate(-7.5 -409.216)" fill="none" stroke="#000" stroke-linecap="round" stroke-linejoin="round" stroke-miterlimit="10" stroke-width="1"/>
        </g>
        <g id="Grupo_1225078" data-name="Grupo 1225078" transform="translate(33.22 44.925)">
          <g id="Grupo_1225077" data-name="Grupo 1225077">
            <path id="Trazado_1055199" data-name="Trazado 1055199" d="M318.9,418.641a8.734,8.734,0,0,0-3.571-7.279c-1.751-1.251-3.97-1.6-6.018-2.131-.617-.16-4.389-.8-5.586-1.124" transform="translate(-303.724 -408.106)" fill="none" stroke="#000" stroke-linecap="round" stroke-linejoin="round" stroke-miterlimit="10" stroke-width="1"/>
          </g>
          <path id="Trazado_1055200" data-name="Trazado 1055200" d="M384.4,436.341a30.906,30.906,0,0,0-2.736,3.322" transform="translate(-372.921 -433.175)" fill="none" stroke="#000" stroke-linecap="round" stroke-linejoin="round" stroke-miterlimit="10" stroke-width="1"/>
        </g>
        <path id="Trazado_1055201" data-name="Trazado 1055201" d="M40.487,436.341c1.872,2.093,4.061,4.388,4.22,7.339" transform="translate(-36.788 -388.249)" fill="none" stroke="#000" stroke-linecap="round" stroke-linejoin="round" stroke-miterlimit="10" stroke-width="1"/>
        <g id="Grupo_1225079" data-name="Grupo 1225079" transform="translate(0.431 23.85)">
          <path id="Trazado_1055202" data-name="Trazado 1055202" d="M23.773,232.578a7.6,7.6,0,1,1-8.72-12.408" transform="translate(-11.346 -220.17)" fill="none" stroke="#000" stroke-linecap="round" stroke-linejoin="round" stroke-miterlimit="10" stroke-width="1"/>
          <path id="Trazado_1055203" data-name="Trazado 1055203" d="M276.334,329.289A7.654,7.654,0,0,1,268.1,327.9" transform="translate(-239.307 -315.815)" fill="none" stroke="#000" stroke-linecap="round" stroke-linejoin="round" stroke-miterlimit="10" stroke-width="1"/>
          <path id="Trazado_1055204" data-name="Trazado 1055204" d="M369.4,243.429a7.572,7.572,0,0,1-.4,8.417" transform="translate(-328.891 -240.821)" fill="none" stroke="#000" stroke-linecap="round" stroke-linejoin="round" stroke-miterlimit="10" stroke-width="1"/>
        </g>
        <path id="Trazado_1055205" data-name="Trazado 1055205" d="M65.4,12.9A15.147,15.147,0,0,1,87.73,12.73M61.5,27.765V23.015a15,15,0,0,1,1.663-6.886" transform="translate(-55.445 -7.859)" fill="none" stroke="#000" stroke-linecap="round" stroke-linejoin="round" stroke-miterlimit="10" stroke-width="1"/>
        <line id="Línea_1046" data-name="Línea 1046" y1="7.189" transform="translate(21.226 0.343)" fill="none" stroke="#000" stroke-linecap="round" stroke-linejoin="round" stroke-miterlimit="10" stroke-width="1"/>
        <path id="Trazado_1055206" data-name="Trazado 1055206" d="M48.076,193.528a6.2,6.2,0,0,1-4.74-6.019h0a2.469,2.469,0,0,1,2.474-2.464h2.266" transform="translate(-39.317 -165.134)" fill="none" stroke="#000" stroke-linecap="round" stroke-linejoin="round" stroke-miterlimit="10" stroke-width="1"/>
        <path id="Trazado_1055207" data-name="Trazado 1055207" d="M311.881,228.916a6.226,6.226,0,0,1-4.233,3.564" transform="translate(-273.988 -204.086)" fill="none" stroke="#000" stroke-linecap="round" stroke-linejoin="round" stroke-miterlimit="10" stroke-width="1"/>
        <path id="Trazado_1055208" data-name="Trazado 1055208" d="M106.93,82.316a8.384,8.384,0,0,0-2.508-2.3l-6.353-3.746-6.3,3.716a8.387,8.387,0,0,0-3.7,4.565l-.947,2.828A1.6,1.6,0,0,1,85.6,88.464v7.324a8.765,8.765,0,0,0,2.235,5.843" transform="translate(-76.843 -68.554)" fill="none" stroke="#000" stroke-linecap="round" stroke-linejoin="round" stroke-miterlimit="10" stroke-width="1"/>
        <path id="Trazado_1055209" data-name="Trazado 1055209" d="M273.731,214.53l1.361-1.275a8.757,8.757,0,0,0,2.476-6.1V201.7" transform="translate(-243.875 -179.922)" fill="none" stroke="#000" stroke-linecap="round" stroke-linejoin="round" stroke-miterlimit="10" stroke-width="1"/>
        <path id="Trazado_1055210" data-name="Trazado 1055210" d="M188.528,254.916a2.649,2.649,0,0,1-2.4,0" transform="translate(-166.099 -227.17)" fill="none" stroke="#000" stroke-linecap="round" stroke-linejoin="round" stroke-miterlimit="10" stroke-width="1"/>
        <path id="Trazado_1055211" data-name="Trazado 1055211" d="M136.818,159.319a4.569,4.569,0,0,0-4.383,0" transform="translate(-118.424 -141.796)" fill="none" stroke="#000" stroke-linecap="round" stroke-linejoin="round" stroke-miterlimit="10" stroke-width="1"/>
        <path id="Trazado_1055212" data-name="Trazado 1055212" d="M222.112,172.859a4.569,4.569,0,0,1,4.383,0" transform="translate(-198.045 -153.818)" fill="none" stroke="#000" stroke-linecap="round" stroke-linejoin="round" stroke-miterlimit="10" stroke-width="1"/>
        <path id="Trazado_1055218" data-name="Trazado 1055218" d="M222.112,172.3a4.569,4.569,0,0,0,4.383,0" transform="translate(-202.942 -140.782)" fill="none" stroke="#000" stroke-linecap="round" stroke-linejoin="round" stroke-miterlimit="10" stroke-width="1"/>
        <line id="Línea_1048" data-name="Línea 1048" y1="1.937" transform="translate(26.259 22.045)" fill="none" stroke="#000" stroke-linecap="round" stroke-linejoin="round" stroke-miterlimit="10" stroke-width="1"/>
        <line id="Línea_1049" data-name="Línea 1049" y1="1.937" transform="translate(16.202 22.045)" fill="none" stroke="#000" stroke-linecap="round" stroke-linejoin="round" stroke-miterlimit="10" stroke-width="1"/>
        <path id="Trazado_1055213" data-name="Trazado 1055213" d="M122.212,309.214a4.5,4.5,0,0,1-.369-2.448,8.55,8.55,0,0,0-.008-2.011l-.167-1.851a2.789,2.789,0,0,1,.314-1.56l.553-1.043a.561.561,0,0,0-.052-.6.656.656,0,0,0-.174-.149,1.886,1.886,0,0,0-2.182.158,3.131,3.131,0,0,0-.557.615,7.394,7.394,0,0,0-1.389,3.219l-.006.026a1.705,1.705,0,0,1-2.581,1.058l-9.81-6.229a1.425,1.425,0,0,0-1.963.434h0a1.413,1.413,0,0,0,.434,1.956l7.933,5.037-2.38-1.511a1.425,1.425,0,0,0-1.963.434h0a1.414,1.414,0,0,0,.434,1.956l.581.369,1.8,1.142-1.8-1.142a1.425,1.425,0,0,0-1.963.434h0a1.413,1.413,0,0,0,.434,1.956l.908.576,1.218.773-1.218-.773a1.425,1.425,0,0,0-1.964.434h0a1.414,1.414,0,0,0,.434,1.956l4,2.537a6.211,6.211,0,0,0,3.08.962h0a7.561,7.561,0,0,1,2.889.7" transform="translate(-92.823 -265.578)" fill="none" stroke="#000" stroke-linecap="round" stroke-linejoin="round" stroke-miterlimit="10" stroke-width="1"/>
        <line id="Línea_1050" data-name="Línea 1050" x2="7.936" y2="4.99" transform="translate(40.458 50.47)" fill="none" stroke="#000" stroke-linecap="round" stroke-linejoin="round" stroke-miterlimit="10" stroke-width="1"/>
        <line id="Línea_1051" data-name="Línea 1051" x2="4.048" y2="2.545" transform="translate(33.085 45.834)" fill="none" stroke="#000" stroke-linecap="round" stroke-linejoin="round" stroke-miterlimit="10" stroke-width="1"/>
        <line id="Línea_1052" data-name="Línea 1052" x1="3.52" y1="2.213" transform="translate(27.384 53.522)" fill="none" stroke="#000" stroke-linecap="round" stroke-linejoin="round" stroke-miterlimit="10" stroke-width="1"/>
        <path id="Trazado_1055214" data-name="Trazado 1055214" d="M227.97,394.419l-5.754,7.715a.988.988,0,0,1-1.374.2l-1.676-1.241a.98.98,0,0,1-.2-1.371l5.754-7.715a.988.988,0,0,1,1.374-.2l1.676,1.241A.98.98,0,0,1,227.97,394.419Z" transform="translate(-195.077 -348.54)" fill="none" stroke="#000" stroke-linecap="round" stroke-linejoin="round" stroke-miterlimit="10" stroke-width="1"/>
        <ellipse id="Elipse_13544" data-name="Elipse 13544" cx="2.425" cy="2.415" rx="2.425" ry="2.415" transform="translate(46.564 29.265)" fill="none" stroke="#000" stroke-linecap="round" stroke-linejoin="round" stroke-miterlimit="10" stroke-width="1"/>
        <ellipse id="Elipse_13545" data-name="Elipse 13545" cx="1.762" cy="1.755" rx="1.762" ry="1.755" transform="translate(43.812 36.389)" fill="none" stroke="#000" stroke-linecap="round" stroke-linejoin="round" stroke-miterlimit="10" stroke-width="1"/>
        <path id="Trazado_1055215" data-name="Trazado 1055215" d="M301.216,21.167a3.481,3.481,0,0,0-.491-4.776,4.662,4.662,0,0,0-4.351-6.313,5.462,5.462,0,0,0-.418-.552,5.8,5.8,0,0,0-6.944-1.44h0a4.234,4.234,0,0,0-6.245,2.583,5.172,5.172,0,0,0-4.7,7.813,3.3,3.3,0,0,0-.456,5.475,4.84,4.84,0,0,0,5.246,5.842,5.468,5.468,0,0,0,9.275,2.458,4.533,4.533,0,0,0,6.562-2.672,0,0,0,0,1,0,0,4.519,4.519,0,0,0,.173-1.046l.077-.034a5.164,5.164,0,0,0,2.275-7.334Z" transform="translate(-246.209 -7.5)" fill="none" stroke="#000" stroke-linecap="round" stroke-linejoin="round" stroke-miterlimit="10" stroke-width="1"/>
        <path id="Trazado_1055216" data-name="Trazado 1055216" d="M333.519,56.413a7.891,7.891,0,1,1-3.925-.021" transform="translate(-288.173 -50.909)" fill="none" stroke="#000" stroke-linecap="round" stroke-linejoin="round" stroke-miterlimit="10" stroke-width="1"/>
        <g id="Grupo_1225080" data-name="Grupo 1225080" transform="translate(41.248 9.035)">
          <path id="Trazado_1055217" data-name="Trazado 1055217" d="M375.312,90.151a2.094,2.094,0,1,1,2.094,2.087v1.736" transform="translate(-375.312 -88.064)" fill="none" stroke="#000" stroke-linecap="round" stroke-linejoin="round" stroke-miterlimit="10" stroke-width="1"/>
          <line id="Línea_1053" data-name="Línea 1053" transform="translate(2.094 8.376)" fill="none" stroke="#000" stroke-linecap="round" stroke-linejoin="round" stroke-miterlimit="10" stroke-width="1"/>
        </g>
      </g>
    </g>
  </g>
</svg>
