<svg xmlns="http://www.w3.org/2000/svg" xmlns:xlink="http://www.w3.org/1999/xlink" width="108" height="108" viewBox="0 0 108 108">
  <defs>
    <filter id="Trazado_904820" x="0" y="0" width="108" height="108" filterUnits="userSpaceOnUse">
      <feOffset dy="3" input="SourceAlpha"/>
      <feGaussianBlur stdDeviation="3" result="blur"/>
      <feFlood flood-opacity="0.161"/>
      <feComposite operator="in" in2="blur"/>
      <feComposite in="SourceGraphic"/>
    </filter>
  </defs>
  <g id="Grupo_1224999" data-name="Grupo 1224999" transform="translate(9 6)">
    <g id="Grupo_1207936" data-name="Grupo 1207936" transform="translate(0 0)">
      <g id="Grupo_1201662" data-name="Grupo 1201662">
        <g id="Grupo_1173585" data-name="Grupo 1173585">
          <g id="Grupo_1173428" data-name="Grupo 1173428">
            <g id="Grupo_1171958" data-name="Grupo 1171958">
              <g id="Grupo_1167341" data-name="Grupo 1167341">
                <g id="Grupo_1166792" data-name="Grupo 1166792">
                  <g transform="matrix(1, 0, 0, 1, -9, -6)" filter="url(#Trazado_904820)">
                    <g id="Trazado_904820-2" data-name="Trazado 904820" transform="translate(9 6)" fill="#edf3fc">
                      <path d="M 44.99999618530273 88.49999237060547 C 39.12687301635742 88.49999237060547 33.43022155761719 87.35006713867188 28.06829643249512 85.08216857910156 C 22.88852119445801 82.89130401611328 18.23629570007324 79.75457763671875 14.24084663391113 75.75914001464844 C 10.24540901184082 71.76369476318359 7.108683586120605 67.11146545410156 4.917821407318115 61.93169403076172 C 2.649921178817749 56.56976699829102 1.499996185302734 50.87311553955078 1.499996185302734 44.99999237060547 C 1.499996185302734 39.12686920166016 2.649921178817749 33.43021774291992 4.917821407318115 28.06829261779785 C 7.108683586120605 22.88851737976074 10.24540901184082 18.23630523681641 14.24084663391113 14.24085521697998 C 18.23629570007324 10.24540519714355 22.88852119445801 7.108692169189453 28.06829643249512 4.917829990386963 C 33.43022155761719 2.649929761886597 39.12687301635742 1.500004887580872 44.99999618530273 1.500004887580872 C 50.87311935424805 1.500004887580872 56.56977081298828 2.649929761886597 61.93169784545898 4.917829990386963 C 67.11147308349609 7.108692169189453 71.76369476318359 10.24540519714355 75.75914764404297 14.24085521697998 C 79.75458526611328 18.23630523681641 82.89131164550781 22.88851737976074 85.08216857910156 28.06829261779785 C 87.35007476806641 33.43021774291992 88.5 39.12686920166016 88.5 44.99999237060547 C 88.5 50.87311553955078 87.35007476806641 56.56976699829102 85.08216857910156 61.93169403076172 C 82.89131164550781 67.11146545410156 79.75458526611328 71.76369476318359 75.75914764404297 75.75914001464844 C 71.76369476318359 79.75457763671875 67.11147308349609 82.89130401611328 61.93169784545898 85.08216857910156 C 56.56977081298828 87.35006713867188 50.87311935424805 88.49999237060547 44.99999618530273 88.49999237060547 Z" stroke="none"/>
                      <path d="M 44.99999618530273 2.999992370605469 C 39.32870864868164 2.999992370605469 33.82865142822266 4.11004638671875 28.65262603759766 6.299331665039062 C 23.65165710449219 8.414566040039062 19.15968322753906 11.44333648681641 15.301513671875 15.30150604248047 C 11.44333648681641 19.15967559814453 8.414566040039062 23.65164947509766 6.299339294433594 28.65262222290039 C 4.110054016113281 33.82864761352539 2.999992370605469 39.32870483398438 2.999992370605469 44.99999237060547 C 2.999992370605469 50.67127990722656 4.110054016113281 56.17132186889648 6.299339294433594 61.34736633300781 C 8.414566040039062 66.34833526611328 11.44333648681641 70.84029388427734 15.301513671875 74.69846343994141 C 19.15968322753906 78.55663299560547 23.65165710449219 81.58540344238281 28.65262603759766 83.70063781738281 C 33.82865142822266 85.88992309570312 39.32870864868164 86.99997711181641 44.99999618530273 86.99997711181641 C 50.67128372192383 86.99997711181641 56.17134094238281 85.88992309570312 61.34736633300781 83.70063781738281 C 66.34834289550781 81.58540344238281 70.84030914306641 78.55663299560547 74.69847869873047 74.69846343994141 C 78.55665588378906 70.84029388427734 81.58542633056641 66.34833526611328 83.70065307617188 61.34736633300781 C 85.88993835449219 56.17132186889648 87 50.67127990722656 87 44.99999237060547 C 87 39.32870483398438 85.88993835449219 33.82864761352539 83.70065307617188 28.65262222290039 C 81.58542633056641 23.65164947509766 78.55665588378906 19.15967559814453 74.69847869873047 15.30150604248047 C 70.84030914306641 11.44333648681641 66.34834289550781 8.414566040039062 61.34736633300781 6.299331665039062 C 56.17134094238281 4.11004638671875 50.67128372192383 2.999992370605469 44.99999618530273 2.999992370605469 M 44.99999618530273 -7.62939453125e-06 C 69.85281372070312 -7.62939453125e-06 90 20.14717864990234 90 44.99999237060547 C 90 69.85279083251953 69.85281372070312 89.99997711181641 44.99999618530273 89.99997711181641 C 20.14717864990234 89.99997711181641 -7.62939453125e-06 69.85279083251953 -7.62939453125e-06 44.99999237060547 C -7.62939453125e-06 20.14717864990234 20.14717864990234 -7.62939453125e-06 44.99999618530273 -7.62939453125e-06 Z" stroke="none" fill="#2f4f7e"/>
                    </g>
                  </g>
                </g>
              </g>
            </g>
          </g>
        </g>
      </g>
    </g>
    <g id="inspire-idea_14781822_1_" data-name="inspire-idea_14781822 (1)" transform="translate(9.199 9.421)">
      <g id="Grupo_1173811" data-name="Grupo 1173811" transform="translate(7.75 7.5)">
        <path id="Trazado_1030754" data-name="Trazado 1030754" d="M118.589,346.742v-4.109a2.5,2.5,0,0,0,2.031-2.454v-7.065h12.9v7.065a2.5,2.5,0,0,0,2.031,2.454l.351,3.539Z" transform="translate(-106.065 -296.321)" fill="#ca6e59"/>
        <path id="Trazado_1030755" data-name="Trazado 1030755" d="M62.792,18.621c0,8.13-4.375,17.788-15.513,14.593l-9.294-4.227a3.67,3.67,0,0,1-.242-5.427l.938-.259.649-.645A3.878,3.878,0,0,1,40.107,16a.342.342,0,0,0,.2-.4,3.681,3.681,0,0,1-.1-.866,3.583,3.583,0,0,1,3.544-3.62,3.547,3.547,0,0,1,.689.069,1.682,1.682,0,0,1,.268-.271A1.431,1.431,0,0,0,45.3,9.668a3.994,3.994,0,0,1,5.595-.395.337.337,0,0,0,.506-.081,3.506,3.506,0,0,1,6,0,.337.337,0,0,0,.506.081,3.98,3.98,0,0,1,.8-.528C62.792,9.984,62.792,15.688,62.792,18.621Z" transform="translate(-33.393 -7.5)" fill="#73788c"/>
        <path id="Trazado_1030756" data-name="Trazado 1030756" d="M155.5,32.551a3.642,3.642,0,0,1-1.325,2.823L143.547,41.15h-9.5L130.64,39.6a16.7,16.7,0,0,0,11.424-24.47,3.955,3.955,0,0,1,1.8-.431,4.01,4.01,0,0,1,3,1.355l.186.912.676.608a3.544,3.544,0,0,1,.688-.069,3.583,3.583,0,0,1,3.545,3.62,3.7,3.7,0,0,1-.186,1.158,3.874,3.874,0,0,1,1.061,6.758A3.608,3.608,0,0,1,155.5,32.551Z" transform="translate(-116.754 -13.886)" fill="#5e6577"/>
        <path id="Trazado_1030757" data-name="Trazado 1030757" d="M70.869,201.017a6.186,6.186,0,0,0,4.712-6.008h0a2.46,2.46,0,0,0-2.46-2.46H70.869l-24.781,0H43.835a2.46,2.46,0,0,0-2.46,2.46h0a6.186,6.186,0,0,0,4.712,6.008Z" transform="translate(-37.576 -171.639)" fill="#ca6e59"/>
        <path id="Trazado_1030758" data-name="Trazado 1030758" d="M101.725,130.973a2.448,2.448,0,0,1,3.2,1.053,9.827,9.827,0,0,0,.82,1.245l.534.711c.226.66.729,3.742,1.428,3.742v9.385A7.829,7.829,0,0,1,105.029,153l-4.862,4.255a5.219,5.219,0,0,1-3.436,1.29H93.847a5.219,5.219,0,0,1-3.436-1.29L85.549,153a7.829,7.829,0,0,1-2.674-5.893v-9.385a1.662,1.662,0,0,0,1.544-1.135l1.071-4.177A2.447,2.447,0,0,1,88.861,131l.156.075,1.26.483a13.946,13.946,0,0,0,9.979,0l1.26-.483Z" transform="translate(-74.386 -116.814)" fill="#d78878"/>
        <path id="Trazado_1030759" data-name="Trazado 1030759" d="M170.924,300.452c-2.681,0-2.8-2.474-2.755-3.372a.338.338,0,0,1,.339-.32h4.825a.338.338,0,0,1,.339.329C173.693,297.993,173.516,300.452,170.924,300.452Z" transform="translate(-150.036 -264.075)" fill="#eaf6ff"/>
        <path id="Trazado_1030760" data-name="Trazado 1030760" d="M15.181,440.5l-7.092-.016a.338.338,0,0,1-.339-.339v-6.3a.34.34,0,0,1,.182-.3,10.958,10.958,0,0,1,2.955-1.017l.817-.164,7.207,2.673Z" transform="translate(-7.75 -384.353)" fill="#9be69d"/>
        <path id="Trazado_1030761" data-name="Trazado 1030761" d="M299.37,435.588l-2.736,4.464-9.444.007-3.417-5.984c.037-.038,6.908-2.2,6.908-2.2l.467.089a10.962,10.962,0,0,1,3.088,1.087Z" transform="translate(-252.583 -383.927)" fill="#9be69d"/>
        <path id="Trazado_1030762" data-name="Trazado 1030762" d="M123.929,418.39l1.032,5.185-3.73,4.516L109.9,428.1l-4.3-4.736,1.6-4.951A11.6,11.6,0,0,0,123.929,418.39Z" transform="translate(-94.55 -371.962)" fill="#eaf6ff"/>
        <path id="Trazado_1030763" data-name="Trazado 1030763" d="M50.34,410.127l-3.085-11.094a1.242,1.242,0,0,0-1.558-.855l-6.859,2.09A.537.537,0,0,0,38.5,401l1.447,3.276a.339.339,0,0,0,.234.193l3.525.809a.339.339,0,0,1,.2.524L42,408.546a.339.339,0,0,0-.041.308l.461,1.273Z" transform="translate(-34.986 -353.985)" fill="#bbf49b"/>
        <path id="Trazado_1030764" data-name="Trazado 1030764" d="M243.879,409.911l3.089-11.108a1.241,1.241,0,0,1,1.558-.855l6.859,2.089a.539.539,0,0,1,.336.733l-1.447,3.276a.339.339,0,0,1-.234.193l-3.525.808a.339.339,0,0,0-.2.524l1.913,2.742a.339.339,0,0,1,.041.308l-.462,1.289Z" transform="translate(-217.198 -353.782)" fill="#bbf49b"/>
        <g id="Grupo_1173808" data-name="Grupo 1173808" transform="translate(41.829 30.652)">
          <path id="Trazado_1030765" data-name="Trazado 1030765" d="M391.359,387.922v4.345a13.237,13.237,0,0,1-.3,2.634,9.251,9.251,0,0,1-1.07,1.926c-.685,1.153-.385,2.339-.38,3.679l-.868.555h-8.564V399.2a4.673,4.673,0,0,0-1.229-3.158,3.868,3.868,0,0,1-1.016-2.61v-1.872a2.292,2.292,0,0,1,.978-1.878Z" transform="translate(-377.933 -375.588)" fill="#d78878"/>
          <g id="Grupo_1173807" data-name="Grupo 1173807" transform="translate(10.451 7.296)">
            <path id="Trazado_1030766" data-name="Trazado 1030766" d="M473.4,344.079v4.308a.9.9,0,0,1-.363.809c-.271.271-1.224-.143-1.638-.14l-.737-.788-.238-2.8.782-.6a1.515,1.515,0,0,1,1.476-1.513C473.18,343.535,473.4,343.791,473.4,344.079Z" transform="translate(-470.425 -343.35)" fill="#d78878"/>
            <path id="Trazado_1030767" data-name="Trazado 1030767" d="M481.894,344.854v3.4a1.517,1.517,0,0,1-2.742.89l-.1-.1a1.516,1.516,0,0,0,1.5-1.516v-3.4a1.507,1.507,0,0,0-.22-.788h.041A1.515,1.515,0,0,1,481.894,344.854Z" transform="translate(-478.079 -343.34)" fill="#ca6e59"/>
          </g>
          <path id="Trazado_1030768" data-name="Trazado 1030768" d="M477.015,386.87V391.4a7.389,7.389,0,0,1-1.04,3.78,7.393,7.393,0,0,0-1.038,3.808l0,.8a.339.339,0,0,1-.339.34h-1.043l0-1.139a7.4,7.4,0,0,1,1.04-3.808,7.389,7.389,0,0,0,1.04-3.78v-4.337Z" transform="translate(-462.749 -374.655)" fill="#ca6e59"/>
          <path id="Trazado_1030769" data-name="Trazado 1030769" d="M391.656,281.485v12.24c0,.879-1.438,1.6-2.318,1.6l.747-2-1.033-.983V281.485a1.6,1.6,0,0,1,.942-1.455A1.478,1.478,0,0,1,391.656,281.485Z" transform="translate(-387.796 -279.888)" fill="#d78878"/>
          <path id="Trazado_1030770" data-name="Trazado 1030770" d="M417.954,332.307v4.016c0,.647-1.051,1.208-1.607,1.458a1.6,1.6,0,0,1-.946-1.458l-.39-.086v-3.791l.39-.138a1.6,1.6,0,0,1,.946-1.457C417.687,331.021,417.954,331.66,417.954,332.307Z" transform="translate(-410.821 -324.965)" fill="#d78878"/>
          <path id="Trazado_1030771" data-name="Trazado 1030771" d="M447.566,332.307v4.259c0,.646-1.169,1.207-1.725,1.457a1.6,1.6,0,0,1-.946-1.457l-.381-.243v-3.843l.381-.173a1.6,1.6,0,0,1,.946-1.457C447.356,331.056,447.566,331.66,447.566,332.307Z" transform="translate(-436.991 -324.965)" fill="#d78878"/>
          <path id="Trazado_1030772" data-name="Trazado 1030772" d="M399.775,280.368v11.588a.723.723,0,0,1-1.44,0V280.368a1.6,1.6,0,0,0-.941-1.455,1.573,1.573,0,0,1,.655-.142h.128A1.6,1.6,0,0,1,399.775,280.368Z" transform="translate(-395.195 -278.77)" fill="#ca6e59"/>
          <path id="Trazado_1030773" data-name="Trazado 1030773" d="M429.213,331.2v4.016a1.6,1.6,0,0,1-1.6,1.6h-.129a1.562,1.562,0,0,1-.652-.141,1.6,1.6,0,0,0,.946-1.458V331.2a1.6,1.6,0,0,0-.946-1.457,1.562,1.562,0,0,1,.652-.141h.129A1.6,1.6,0,0,1,429.213,331.2Z" transform="translate(-421.308 -323.857)" fill="#ca6e59"/>
          <path id="Trazado_1030774" data-name="Trazado 1030774" d="M458.633,331.2v4.259a1.6,1.6,0,0,1-1.6,1.6h-.128a1.557,1.557,0,0,1-.652-.141,1.6,1.6,0,0,0,.945-1.457V331.2a1.6,1.6,0,0,0-.945-1.457,1.558,1.558,0,0,1,.652-.141h.128A1.6,1.6,0,0,1,458.633,331.2Z" transform="translate(-447.404 -323.857)" fill="#ca6e59"/>
          <path id="Trazado_1030775" data-name="Trazado 1030775" d="M400.27,367.239a3.436,3.436,0,0,1-.073.7c-.3,1.421-2.412,1.6-3.91,1.753a4.781,4.781,0,0,0-2.832-.386c-.9.277-1.458,1.716-1.472,1.706l-2.933-1.534v-1.445L391.882,366a3.173,3.173,0,0,1,1.813-.59l4.7-.044A1.875,1.875,0,0,1,400.27,367.239Z" transform="translate(-387.794 -355.581)" fill="#ca6e59"/>
          <path id="Trazado_1030776" data-name="Trazado 1030776" d="M390.9,381.42l1.338-1.8a.339.339,0,0,1,.231-.134l2.891-.35a2.295,2.295,0,0,0,1.582-2.2.772.772,0,0,0-.777-.755h-4.254a2.872,2.872,0,0,0-1.647.519l-3.671,2.569Z" transform="translate(-385.616 -365.172)" fill="#d78878"/>
        </g>
        <g id="Grupo_1173810" data-name="Grupo 1173810" transform="translate(31.047 1.597)">
          <path id="Trazado_1030777" data-name="Trazado 1030777" d="M305.181,30.688a13.163,13.163,0,0,1-13.07,13.366c-2.384,0-7.619-1.75-8.3-3.65l.129-.52a.335.335,0,0,0-.029-.236,12.338,12.338,0,0,1,19.105-14.937A11.712,11.712,0,0,1,305.181,30.688Z" transform="translate(-282.516 -21.635)" fill="#eaf6ff"/>
          <path id="Trazado_1030778" data-name="Trazado 1030778" d="M308.127,60.733a12.357,12.357,0,0,1-18.52,7.89.337.337,0,0,0-.24-.044l-5.088.97a.34.34,0,0,1-.393-.415l1.131-4.576a13.306,13.306,0,0,0,19.2-15.693A12.308,12.308,0,0,1,308.127,60.733Z" transform="translate(-283.723 -45.788)" fill="#d8ecfe"/>
          <g id="Grupo_1173809" data-name="Grupo 1173809" transform="translate(5.971 3.074)">
            <path id="Trazado_1030779" data-name="Trazado 1030779" d="M346.637,55.846c0,3.306-3.472,6.5-6.846,6.5-.512,0-1.065.348-1.959-.972a7.188,7.188,0,0,0-.884-1.555A6.124,6.124,0,0,1,340.4,49.682C345.039,49.682,346.637,52.905,346.637,55.846Z" transform="translate(-335.361 -49.587)" fill="#ffe177"/>
            <path id="Trazado_1030780" data-name="Trazado 1030780" d="M365.533,54.961a6.1,6.1,0,0,1-1.558,4.08,7.394,7.394,0,0,0-1.483,4.409v.383l-6.166.02v-.338a10.35,10.35,0,0,0-.758-3.369,6.2,6.2,0,0,0,1.484.178c3.374,0,6.3-2.2,6.3-5.5a6.021,6.021,0,0,0-5.021-5.889,6.129,6.129,0,0,1,7.206,6.029Z" transform="translate(-353.285 -48.837)" fill="#ffd15b"/>
            <path id="Trazado_1030781" data-name="Trazado 1030781" d="M367.108,179.51l.959,1.872c0,1.016-.609,1.872-2.8,1.872h-.48a1.839,1.839,0,0,1-1.839-1.839V179.51h4.157Z" transform="translate(-359.834 -164.745)" fill="#5e6577"/>
            <path id="Trazado_1030782" data-name="Trazado 1030782" d="M387.168,179.511v1.905a1.839,1.839,0,0,1-1.839,1.839h-1.855a1.838,1.838,0,0,0,1.838-1.839v-1.905Z" transform="translate(-378.038 -164.746)" fill="#4d5263"/>
            <path id="Trazado_1030783" data-name="Trazado 1030783" d="M354.85,160.669c0,.407.247.868,0,1.136a7.4,7.4,0,0,1-2.458.583h-4.523a1.423,1.423,0,0,1-1.365-1.474,1.536,1.536,0,0,1,.4-1.043,1.316,1.316,0,0,1,.966-.432h4.523C353.146,159.439,354.85,159.854,354.85,160.669Z" transform="translate(-345.245 -146.942)" fill="#73788c"/>
            <path id="Trazado_1030784" data-name="Trazado 1030784" d="M402.453,160.914a1.534,1.534,0,0,1-.4,1.042,1.316,1.316,0,0,1-.966.432h-2.477a1.314,1.314,0,0,0,.966-.432,1.534,1.534,0,0,0,.4-1.042,1.423,1.423,0,0,0-1.365-1.475h2.477A1.423,1.423,0,0,1,402.453,160.914Z" transform="translate(-391.464 -146.942)" fill="#5e6577"/>
          </g>
        </g>
      </g>
      <g id="Grupo_1173820" data-name="Grupo 1173820" transform="translate(7.75 7.5)">
        <g id="Grupo_1173812" data-name="Grupo 1173812" transform="translate(3.8 20.913)">
          <path id="Trazado_1030785" data-name="Trazado 1030785" d="M46.032,201.031a6.186,6.186,0,0,1-4.656-5.994h0a2.46,2.46,0,0,1,2.46-2.46h2.253" transform="translate(-41.376 -192.577)" fill="none" stroke="#000" stroke-linecap="round" stroke-linejoin="round" stroke-miterlimit="10" stroke-width="1"/>
          <path id="Trazado_1030786" data-name="Trazado 1030786" d="M307.363,232.041a6.2,6.2,0,0,1-4.306,3.987" transform="translate(-273.489 -227.582)" fill="none" stroke="#000" stroke-linecap="round" stroke-linejoin="round" stroke-miterlimit="10" stroke-width="1"/>
        </g>
        <path id="Trazado_1030787" data-name="Trazado 1030787" d="M209.872,132.339a13.943,13.943,0,0,0,3.031-.785l1.26-.483.209-.1a2.447,2.447,0,0,1,3.357,1.421" transform="translate(-187.033 -116.814)" fill="none" stroke="#000" stroke-linecap="round" stroke-linejoin="round" stroke-miterlimit="10" stroke-width="1"/>
        <path id="Trazado_1030788" data-name="Trazado 1030788" d="M107.7,142.415v4.825a7.829,7.829,0,0,1-2.674,5.893l-4.862,4.255a5.219,5.219,0,0,1-3.436,1.291H93.847a5.219,5.219,0,0,1-3.436-1.291l-4.862-4.255a7.829,7.829,0,0,1-2.674-5.893v-9.385a1.662,1.662,0,0,0,1.544-1.135l1.071-4.177a2.447,2.447,0,0,1,3.371-1.415l.156.075,1.26.483a13.936,13.936,0,0,0,3.013.782" transform="translate(-74.386 -116.945)" fill="none" stroke="#000" stroke-linecap="round" stroke-linejoin="round" stroke-miterlimit="10" stroke-width="1"/>
        <g id="Grupo_1173814" data-name="Grupo 1173814" transform="translate(13.731 19.839)">
          <g id="Grupo_1173813" data-name="Grupo 1173813">
            <path id="Trazado_1030789" data-name="Trazado 1030789" d="M184.465,262.089a2.619,2.619,0,0,1-2.375,0" transform="translate(-176.12 -253.161)" fill="none" stroke="#000" stroke-linecap="round" stroke-linejoin="round" stroke-miterlimit="10" stroke-width="1"/>
            <path id="Trazado_1030790" data-name="Trazado 1030790" d="M133.611,183.63a4.519,4.519,0,0,0-4.345,0" transform="translate(-129.266 -183.073)" fill="none" stroke="#000" stroke-linecap="round" stroke-linejoin="round" stroke-miterlimit="10" stroke-width="1"/>
            <path id="Trazado_1030791" data-name="Trazado 1030791" d="M221.831,183.63a4.519,4.519,0,0,0-4.345,0" transform="translate(-207.518 -183.073)" fill="none" stroke="#000" stroke-linecap="round" stroke-linejoin="round" stroke-miterlimit="10" stroke-width="1"/>
            <line id="Línea_813" data-name="Línea 813" y1="1.925" transform="translate(12.141 3.263)" fill="none" stroke="#000" stroke-linecap="round" stroke-linejoin="round" stroke-miterlimit="10" stroke-width="1"/>
            <line id="Línea_814" data-name="Línea 814" y1="1.925" transform="translate(2.172 3.263)" fill="none" stroke="#000" stroke-linecap="round" stroke-linejoin="round" stroke-miterlimit="10" stroke-width="1"/>
          </g>
          <path id="Trazado_1030792" data-name="Trazado 1030792" d="M170.924,300.452c-3.275,0-2.727-3.692-2.727-3.692h5.454S174.1,300.452,170.924,300.452Z" transform="translate(-163.767 -283.914)" fill="none" stroke="#000" stroke-linecap="round" stroke-linejoin="round" stroke-miterlimit="10" stroke-width="1"/>
        </g>
        <path id="Trazado_1030793" data-name="Trazado 1030793" d="M67.75,12.387a3.494,3.494,0,0,0-3.383-1.2,4.067,4.067,0,0,0-3.862-2.875,4,4,0,0,0-2.9,1.249,3.514,3.514,0,0,0-6.4,0,4,4,0,0,0-2.9-1.249,4.067,4.067,0,0,0-3.862,2.875,3.492,3.492,0,0,0-.689-.069,3.582,3.582,0,0,0-3.544,3.62,3.684,3.684,0,0,0,.186,1.158,3.874,3.874,0,0,0-1.061,6.759,3.651,3.651,0,0,0-1.345,6.331" transform="translate(-33.397 -7.5)" fill="none" stroke="#000" stroke-linecap="round" stroke-linejoin="round" stroke-miterlimit="10" stroke-width="1"/>
        <path id="Trazado_1030794" data-name="Trazado 1030794" d="M61.926,142.289a3.547,3.547,0,0,1-1.6-.648" transform="translate(-54.386 -126.484)" fill="none" stroke="#000" stroke-linecap="round" stroke-linejoin="round" stroke-miterlimit="10" stroke-width="1"/>
        <path id="Trazado_1030795" data-name="Trazado 1030795" d="M105.6,40.2a3.363,3.363,0,0,1,2.131,1.416" transform="translate(-94.543 -36.504)" fill="none" stroke="#000" stroke-linecap="round" stroke-linejoin="round" stroke-miterlimit="10" stroke-width="1"/>
        <path id="Trazado_1030796" data-name="Trazado 1030796" d="M268.258,40.183a3.368,3.368,0,0,0-1.712,1.3" transform="translate(-237.304 -36.49)" fill="none" stroke="#000" stroke-linecap="round" stroke-linejoin="round" stroke-miterlimit="10" stroke-width="1"/>
        <path id="Trazado_1030797" data-name="Trazado 1030797" d="M304.553,34.492q-.057.358-.135.717a12.72,12.72,0,0,1-19.18,8.052l-5.905,1.126,1.458-5.9A12.688,12.688,0,0,1,289.87,20" transform="translate(-248.612 -18.589)" fill="none" stroke="#000" stroke-linecap="round" stroke-linejoin="round" stroke-miterlimit="10" stroke-width="1"/>
        <path id="Trazado_1030798" data-name="Trazado 1030798" d="M407.545,19.544q.456.065.913.164a12.7,12.7,0,0,1,9.857,10.423" transform="translate(-362.37 -18.183)" fill="none" stroke="#000" stroke-linecap="round" stroke-linejoin="round" stroke-miterlimit="10" stroke-width="1"/>
        <g id="Grupo_1173815" data-name="Grupo 1173815" transform="translate(37.018 4.674)">
          <path id="Trazado_1030799" data-name="Trazado 1030799" d="M338.017,61.149a7.222,7.222,0,0,0-1.078-2.074,6.118,6.118,0,1,1,9.094-.031,7.545,7.545,0,0,0-1.1,2.08" transform="translate(-335.355 -48.863)" fill="none" stroke="#000" stroke-linecap="round" stroke-linejoin="round" stroke-miterlimit="10" stroke-width="1"/>
          <line id="Línea_815" data-name="Línea 815" y1="4.498" transform="translate(6.117 7.764)" fill="none" stroke="#000" stroke-linecap="round" stroke-linejoin="round" stroke-miterlimit="10" stroke-width="1"/>
          <path id="Trazado_1030800" data-name="Trazado 1030800" d="M368.924,186.134v.7a2.26,2.26,0,0,1-2.26,2.26h-1.486a2.26,2.26,0,0,1-2.26-2.26v-.7" transform="translate(-359.804 -170.623)" fill="none" stroke="#000" stroke-linecap="round" stroke-linejoin="round" stroke-miterlimit="10" stroke-width="1"/>
          <path id="Trazado_1030801" data-name="Trazado 1030801" d="M356.5,160.78h-6.088a1.547,1.547,0,0,1-1.547-1.547v-.091a1.547,1.547,0,0,1,1.547-1.547H356.5a1.547,1.547,0,0,1,1.547,1.547v.091A1.547,1.547,0,0,1,356.5,160.78Z" transform="translate(-347.34 -145.309)" fill="none" stroke="#000" stroke-linecap="round" stroke-linejoin="round" stroke-miterlimit="10" stroke-width="1"/>
          <line id="Línea_816" data-name="Línea 816" x2="3.916" transform="translate(4.241 7.754)" fill="none" stroke="#000" stroke-linecap="round" stroke-linejoin="round" stroke-miterlimit="10" stroke-width="1"/>
        </g>
        <path id="Trazado_1030802" data-name="Trazado 1030802" d="M346.53,432.2l.284.054a10.943,10.943,0,0,1,3.087,1.087" transform="translate(-308.25 -384.207)" fill="none" stroke="#000" stroke-linecap="round" stroke-linejoin="round" stroke-miterlimit="10" stroke-width="1"/>
        <path id="Trazado_1030803" data-name="Trazado 1030803" d="M250.768,358.351v4.213a2.5,2.5,0,0,0,2.031,2.454" transform="translate(-223.308 -318.707)" fill="none" stroke="#000" stroke-linecap="round" stroke-linejoin="round" stroke-miterlimit="10" stroke-width="1"/>
        <path id="Trazado_1030804" data-name="Trazado 1030804" d="M118.589,417.362h0a11.6,11.6,0,0,0,16.966,0h0" transform="translate(-106.065 -371.05)" fill="none" stroke="#000" stroke-linecap="round" stroke-linejoin="round" stroke-miterlimit="10" stroke-width="1"/>
        <path id="Trazado_1030805" data-name="Trazado 1030805" d="M11.332,366.788l-.444.089a10.942,10.942,0,0,0-3.137,1.114m14.555-9.64v4.213a2.5,2.5,0,0,1-2.031,2.454l-.13.025" transform="translate(-7.75 -318.707)" fill="none" stroke="#000" stroke-linecap="round" stroke-linejoin="round" stroke-miterlimit="10" stroke-width="1"/>
        <g id="Grupo_1173816" data-name="Grupo 1173816" transform="translate(3.159 44.138)">
          <path id="Trazado_1030806" data-name="Trazado 1030806" d="M46.276,405.408,44.5,399.033a1.242,1.242,0,0,0-1.558-.855l-6.859,2.09a.537.537,0,0,0-.336.733l1.516,3.432,4.181.959-2.3,3.3.521,1.455" transform="translate(-35.703 -398.124)" fill="none" stroke="#000" stroke-linecap="round" stroke-linejoin="round" stroke-miterlimit="10" stroke-width="1"/>
          <line id="Línea_817" data-name="Línea 817" x1="0.257" y1="0.925" transform="translate(11.632 11.095)" fill="none" stroke="#000" stroke-linecap="round" stroke-linejoin="round" stroke-miterlimit="10" stroke-width="1"/>
          <path id="Trazado_1030807" data-name="Trazado 1030807" d="M244.868,410.145l3.091-11.111a1.241,1.241,0,0,1,1.558-.855l6.859,2.089a.539.539,0,0,1,.336.733l-1.516,3.432-4.181.959,2.3,3.3-.522,1.454" transform="translate(-221.234 -398.125)" fill="none" stroke="#000" stroke-linecap="round" stroke-linejoin="round" stroke-miterlimit="10" stroke-width="1"/>
        </g>
        <g id="Grupo_1173819" data-name="Grupo 1173819" transform="translate(41.836 30.684)">
          <g id="Grupo_1173817" data-name="Grupo 1173817" transform="translate(11.233 7.296)">
            <path id="Trazado_1030808" data-name="Trazado 1030808" d="M480.445,345.14a1.514,1.514,0,0,0-1.514-1.514h0a1.516,1.516,0,0,0-1.516,1.516v3.4a1.516,1.516,0,0,0,1.516,1.516h0a1.516,1.516,0,0,0,1.516-1.516Z" transform="translate(-477.412 -343.626)" fill="none" stroke="#000" stroke-linecap="round" stroke-linejoin="round" stroke-miterlimit="10" stroke-width="1"/>
            <path id="Trazado_1030809" data-name="Trazado 1030809" d="M490.831,400.563" transform="translate(-489.315 -394.129)" fill="none" stroke="#000" stroke-linecap="round" stroke-linejoin="round" stroke-miterlimit="10" stroke-width="1"/>
          </g>
          <g id="Grupo_1173818" data-name="Grupo 1173818" transform="translate(12.187 12.257)">
            <path id="Trazado_1030810" data-name="Trazado 1030810" d="M487.936,387.53v4.532A7.361,7.361,0,0,1,486.9,395.8h0a7.4,7.4,0,0,0-1.039,3.808l0,1.139" transform="translate(-485.858 -387.53)" fill="none" stroke="#000" stroke-linecap="round" stroke-linejoin="round" stroke-miterlimit="10" stroke-width="1"/>
          </g>
          <path id="Trazado_1030811" data-name="Trazado 1030811" d="M433.859,414.75a6.2,6.2,0,0,1,1.324,5.668l-.047.181" transform="translate(-427.547 -399.417)" fill="none" stroke="#000" stroke-linecap="round" stroke-linejoin="round" stroke-miterlimit="10" stroke-width="1"/>
          <path id="Trazado_1030812" data-name="Trazado 1030812" d="M389.115,292.886V280.655a1.6,1.6,0,0,1,1.6-1.6h.128a1.6,1.6,0,0,1,1.6,1.6v9.938" transform="translate(-387.859 -279.057)" fill="none" stroke="#000" stroke-linecap="round" stroke-linejoin="round" stroke-miterlimit="10" stroke-width="1"/>
          <path id="Trazado_1030813" data-name="Trazado 1030813" d="M418.532,331.491a1.6,1.6,0,0,1,1.6-1.6h.128a1.6,1.6,0,0,1,1.6,1.6v3.637" transform="translate(-413.952 -324.149)" fill="none" stroke="#000" stroke-linecap="round" stroke-linejoin="round" stroke-miterlimit="10" stroke-width="1"/>
          <path id="Trazado_1030814" data-name="Trazado 1030814" d="M447.947,335.089v-3.6a1.6,1.6,0,0,1,1.6-1.6h.128a1.6,1.6,0,0,1,1.6,1.6v1.526" transform="translate(-440.043 -324.149)" fill="none" stroke="#000" stroke-linecap="round" stroke-linejoin="round" stroke-miterlimit="10" stroke-width="1"/>
          <path id="Trazado_1030815" data-name="Trazado 1030815" d="M383.285,381.709l1.425-1.917,2.855-.368a2.294,2.294,0,0,0,1.582-2.18.777.777,0,0,0-.777-.776H384.3a2.871,2.871,0,0,0-1.647.519l-3.671,2.569a2.294,2.294,0,0,0-.979,1.879v1.872a3.863,3.863,0,0,0,1.016,2.61,4.675,4.675,0,0,1,1.229,3.159v1.86" transform="translate(-377.999 -365.461)" fill="none" stroke="#000" stroke-linecap="round" stroke-linejoin="round" stroke-miterlimit="10" stroke-width="1"/>
        </g>
      </g>
    </g>
  </g>
</svg>
