<svg xmlns="http://www.w3.org/2000/svg" xmlns:xlink="http://www.w3.org/1999/xlink" width="108" height="108" viewBox="0 0 108 108">
  <defs>
    <filter id="Trazado_904820" x="0" y="0" width="108" height="108" filterUnits="userSpaceOnUse">
      <feOffset dy="3" input="SourceAlpha"/>
      <feGaussianBlur stdDeviation="3" result="blur"/>
      <feFlood flood-opacity="0.161"/>
      <feComposite operator="in" in2="blur"/>
      <feComposite in="SourceGraphic"/>
    </filter>
  </defs>
  <g id="Grupo_1225084" data-name="Grupo 1225084" transform="translate(-201 -322)">
    <g id="Grupo_1224408" data-name="Grupo 1224408" transform="translate(0.478 -158.679)">
      <g id="Grupo_1209296" data-name="Grupo 1209296" transform="translate(209.522 486.679)">
        <g id="Grupo_1208347" data-name="Grupo 1208347" transform="translate(0 0)">
          <g id="Grupo_1207936" data-name="Grupo 1207936">
            <g id="Grupo_1201662" data-name="Grupo 1201662">
              <g id="Grupo_1173585" data-name="Grupo 1173585">
                <g id="Grupo_1173428" data-name="Grupo 1173428">
                  <g id="Grupo_1171958" data-name="Grupo 1171958">
                    <g id="Grupo_1167341" data-name="Grupo 1167341">
                      <g id="Grupo_1166792" data-name="Grupo 1166792">
                        <g transform="matrix(1, 0, 0, 1, -9, -6)" filter="url(#Trazado_904820)">
                          <g id="Trazado_904820-2" data-name="Trazado 904820" transform="translate(9 6)" fill="#effbfe">
                            <path d="M 44.99999618530273 88.49999237060547 C 39.12687301635742 88.49999237060547 33.43022155761719 87.35006713867188 28.06829643249512 85.08216857910156 C 22.88852119445801 82.89130401611328 18.23629570007324 79.75457763671875 14.24084663391113 75.75914001464844 C 10.24540901184082 71.76369476318359 7.108683586120605 67.11146545410156 4.917821407318115 61.93169403076172 C 2.649921178817749 56.56976699829102 1.499996185302734 50.87311553955078 1.499996185302734 44.99999237060547 C 1.499996185302734 39.12686920166016 2.649921178817749 33.43021774291992 4.917821407318115 28.06829261779785 C 7.108683586120605 22.88851737976074 10.24540901184082 18.23630523681641 14.24084663391113 14.24085521697998 C 18.23629570007324 10.24540519714355 22.88852119445801 7.108692169189453 28.06829643249512 4.917829990386963 C 33.43022155761719 2.649929761886597 39.12687301635742 1.500004887580872 44.99999618530273 1.500004887580872 C 50.87311935424805 1.500004887580872 56.56977081298828 2.649929761886597 61.93169784545898 4.917829990386963 C 67.11147308349609 7.108692169189453 71.76369476318359 10.24540519714355 75.75914764404297 14.24085521697998 C 79.75458526611328 18.23630523681641 82.89131164550781 22.88851737976074 85.08216857910156 28.06829261779785 C 87.35007476806641 33.43021774291992 88.5 39.12686920166016 88.5 44.99999237060547 C 88.5 50.87311553955078 87.35007476806641 56.56976699829102 85.08216857910156 61.93169403076172 C 82.89131164550781 67.11146545410156 79.75458526611328 71.76369476318359 75.75914764404297 75.75914001464844 C 71.76369476318359 79.75457763671875 67.11147308349609 82.89130401611328 61.93169784545898 85.08216857910156 C 56.56977081298828 87.35006713867188 50.87311935424805 88.49999237060547 44.99999618530273 88.49999237060547 Z" stroke="none"/>
                            <path d="M 44.99999618530273 2.999992370605469 C 39.32870864868164 2.999992370605469 33.82865142822266 4.11004638671875 28.65262603759766 6.299331665039062 C 23.65165710449219 8.414566040039062 19.15968322753906 11.44333648681641 15.301513671875 15.30150604248047 C 11.44333648681641 19.15967559814453 8.414566040039062 23.65164947509766 6.299339294433594 28.65262222290039 C 4.110054016113281 33.82864761352539 2.999992370605469 39.32870483398438 2.999992370605469 44.99999237060547 C 2.999992370605469 50.67127990722656 4.110054016113281 56.17132186889648 6.299339294433594 61.34736633300781 C 8.414566040039062 66.34833526611328 11.44333648681641 70.84029388427734 15.301513671875 74.69846343994141 C 19.15968322753906 78.55663299560547 23.65165710449219 81.58540344238281 28.65262603759766 83.70063781738281 C 33.82865142822266 85.88992309570312 39.32870864868164 86.99997711181641 44.99999618530273 86.99997711181641 C 50.67128372192383 86.99997711181641 56.17134094238281 85.88992309570312 61.34736633300781 83.70063781738281 C 66.34834289550781 81.58540344238281 70.84030914306641 78.55663299560547 74.69847869873047 74.69846343994141 C 78.55665588378906 70.84029388427734 81.58542633056641 66.34833526611328 83.70065307617188 61.34736633300781 C 85.88993835449219 56.17132186889648 87 50.67127990722656 87 44.99999237060547 C 87 39.32870483398438 85.88993835449219 33.82864761352539 83.70065307617188 28.65262222290039 C 81.58542633056641 23.65164947509766 78.55665588378906 19.15967559814453 74.69847869873047 15.30150604248047 C 70.84030914306641 11.44333648681641 66.34834289550781 8.414566040039062 61.34736633300781 6.299331665039062 C 56.17134094238281 4.11004638671875 50.67128372192383 2.999992370605469 44.99999618530273 2.999992370605469 M 44.99999618530273 -7.62939453125e-06 C 69.85281372070312 -7.62939453125e-06 90 20.14717864990234 90 44.99999237060547 C 90 69.85279083251953 69.85281372070312 89.99997711181641 44.99999618530273 89.99997711181641 C 20.14717864990234 89.99997711181641 -7.62939453125e-06 69.85279083251953 -7.62939453125e-06 44.99999237060547 C -7.62939453125e-06 20.14717864990234 20.14717864990234 -7.62939453125e-06 44.99999618530273 -7.62939453125e-06 Z" stroke="none" fill="#497f88"/>
                          </g>
                        </g>
                      </g>
                    </g>
                  </g>
                </g>
              </g>
            </g>
          </g>
        </g>
      </g>
    </g>
    <g id="window_3075710" transform="translate(224.936 338.971)">
      <path id="Trazado_1055219" data-name="Trazado 1055219" d="M67.8,55h44.2V85.116H67.8Z" transform="translate(-59.841 -42.377)" fill="#a2ddfd"/>
      <path id="Trazado_1055220" data-name="Trazado 1055220" d="M43.533,183.63h5.722v12.844H43.533Z" transform="translate(-38.421 -155.899)" fill="#fbf1cf"/>
      <path id="Trazado_1055221" data-name="Trazado 1055221" d="M43.533,191.483a7.938,7.938,0,0,0,5.722-1.247V183.63H43.533Z" transform="translate(-38.421 -155.899)" fill="#fae0bd"/>
      <path id="Trazado_1055222" data-name="Trazado 1055222" d="M19.887,44.4V55.538a1.463,1.463,0,0,1-.786,1.29,4.434,4.434,0,1,0,6.508,3.919V44.4Z" transform="translate(-14.774 -33.017)" fill="#fbf1cf"/>
      <path id="Trazado_1055223" data-name="Trazado 1055223" d="M419.746,183.63h5.722v12.844h-5.722Z" transform="translate(-370.452 -155.899)" fill="#fbf1cf"/>
      <path id="Trazado_1055224" data-name="Trazado 1055224" d="M425.469,191.483a7.938,7.938,0,0,1-5.722-1.247V183.63h5.722Z" transform="translate(-370.453 -155.899)" fill="#fae0bd"/>
      <path id="Trazado_1055225" data-name="Trazado 1055225" d="M425.469,44.4V55.538a1.463,1.463,0,0,0,.786,1.29,4.434,4.434,0,1,1-6.508,3.919V44.4Z" transform="translate(-370.453 -33.017)" fill="#fbf1cf"/>
      <path id="Trazado_1055226" data-name="Trazado 1055226" d="M419.747,44.4v8.84a8.654,8.654,0,0,0,4.809,1.458,8.832,8.832,0,0,0,.912-.048V44.4h-5.722Z" transform="translate(-370.453 -33.016)" fill="#fae0bd"/>
      <path id="Trazado_1055227" data-name="Trazado 1055227" d="M43.533,54.646a8.832,8.832,0,0,0,.912.048,8.655,8.655,0,0,0,4.809-1.459V44.4H43.533Z" transform="translate(-38.421 -33.017)" fill="#fae0bd"/>
      <path id="Trazado_1055228" data-name="Trazado 1055228" d="M36.684,24.257a80.521,80.521,0,0,0,18.566-1.84,1.7,1.7,0,0,1,1.567.557,5.143,5.143,0,0,0,9.05-3.414,5.208,5.208,0,0,0-5.256-5.075c-7.868.021-8.747,2.272-23.927,2.272s-16.058-2.25-23.927-2.272A5.208,5.208,0,0,0,7.5,19.56a5.143,5.143,0,0,0,9.05,3.414,1.7,1.7,0,0,1,1.567-.557A80.519,80.519,0,0,0,36.684,24.257Z" transform="translate(-6.62 -6.618)" fill="#fbf1cf"/>
      <path id="Trazado_1055229" data-name="Trazado 1055229" d="M117.729,367.445H85.218a4.307,4.307,0,0,1-4.307-4.307v-13h41.125v13A4.307,4.307,0,0,1,117.729,367.445Z" transform="translate(-71.409 -302.852)" fill="#fbf1cf"/>
      <path id="Trazado_1055230" data-name="Trazado 1055230" d="M95.389,350.137H80.911v13a4.307,4.307,0,0,0,4.307,4.307H98.757c-2.892-3.665-3.738-12.535-3.369-17.308Z" transform="translate(-71.409 -302.852)" fill="#fae0bd"/>
      <path id="Trazado_1055231" data-name="Trazado 1055231" d="M149.274,111.39c0,2.26-2.257,5.974,1.988,6.6,3.526.517,3.173,4.818,1.246,5.838a.426.426,0,0,0-.183.569c1.193,2.394-.455,4.989-4.347,3.566h-19.4c-3.892,1.423-5.541-1.173-4.347-3.566a.426.426,0,0,0-.183-.569c-1.927-1.019-2.28-5.321,1.246-5.838,4.245-.622,1.988-4.336,1.988-6.6Z" transform="translate(-108.216 -92.143)" fill="#e7889d"/>
      <path id="Trazado_1055232" data-name="Trazado 1055232" d="M200.327,177.7c0-5.395-2.422-13.82-4.546-16.487h-8c-2.124,2.667-4.546,11.093-4.546,16.487Z" transform="translate(-161.717 -136.111)" fill="#7cdcc4"/>
      <path id="Trazado_1055233" data-name="Trazado 1055233" d="M198.22,167.461a17.318,17.318,0,0,0,13.571,0A21.024,21.024,0,0,0,209,161.209h-8A21.021,21.021,0,0,0,198.22,167.461Z" transform="translate(-174.942 -136.111)" fill="#58d1b4"/>
      <path id="Trazado_1055234" data-name="Trazado 1055234" d="M81.1,291.362H31.464a1.755,1.755,0,0,1-1.755-1.755v-1.215a1.755,1.755,0,0,1,1.755-1.755H81.1a1.755,1.755,0,0,1,1.755,1.755v1.215A1.755,1.755,0,0,1,81.1,291.362Z" transform="translate(-26.22 -246.809)" fill="#cb9d82"/>
      <path id="Trazado_1055235" data-name="Trazado 1055235" d="M101.655,326.871H54.274v3.052a2.412,2.412,0,0,0,2.413,2.413H99.243a2.413,2.413,0,0,0,2.413-2.413v-3.052Z" transform="translate(-47.901 -282.318)" fill="#b7856b"/>
      <path id="Trazado_1055236" data-name="Trazado 1055236" d="M162.6,168.528a2.453,2.453,0,0,1-2.453-2.453,25.088,25.088,0,0,1,4.848-13.45,2.453,2.453,0,0,1,3.887,2.995,20.547,20.547,0,0,0-3.828,10.456A2.453,2.453,0,0,1,162.6,168.528Z" transform="translate(-141.34 -127.691)" fill="#ffcabd"/>
      <path id="Trazado_1055237" data-name="Trazado 1055237" d="M279.926,168.528a2.453,2.453,0,0,1-2.453-2.453,20.547,20.547,0,0,0-3.828-10.456,2.453,2.453,0,0,1,3.887-2.995,25.087,25.087,0,0,1,4.848,13.45A2.453,2.453,0,0,1,279.926,168.528Z" transform="translate(-241.058 -127.691)" fill="#ffcabd"/>
      <ellipse id="Elipse_13546" data-name="Elipse 13546" cx="11.797" cy="9.964" rx="11.797" ry="9.964" transform="translate(18.267 9.283)" fill="#ffdcce"/>
      <path id="Trazado_1055238" data-name="Trazado 1055238" d="M183.781,33.1c-1.651-3.82-5.991-6.547-11.085-6.547s-9.434,2.727-11.085,6.547c3.062,1.154,8.63-.492,10.792-1.49a.7.7,0,0,1,.586,0C175.151,32.6,180.718,34.249,183.781,33.1Z" transform="translate(-142.632 -17.265)" fill="#e7889d"/>
      <path id="Trazado_1055239" data-name="Trazado 1055239" d="M37.4,22.355a.881.881,0,0,0,.881-.881V20.065a.881.881,0,0,0-1.762,0v1.409A.881.881,0,0,0,37.4,22.355ZM29.183,55.082v4.448a.881.881,0,1,0,1.762,0V55.082a.881.881,0,1,0-1.762,0Zm10.953,0v4.448a.881.881,0,1,0,1.762,0V55.082a.881.881,0,1,0-1.762,0Zm-21.905,0v4.448a.881.881,0,1,0,1.762,0V55.082a.881.881,0,1,0-1.762,0ZM56.215,23.033a.584.584,0,0,1-.318-.512V18.765a6.025,6.025,0,0,0,4.231-5.834,6.094,6.094,0,0,0-6.123-5.945h-.017a37.626,37.626,0,0,0-7.9.88A65.867,65.867,0,0,1,34.76,9.174a14.668,14.668,0,0,0-9.392,0A65.864,65.864,0,0,1,14.042,7.866a37.632,37.632,0,0,0-7.9-.88,6.254,6.254,0,0,0-1.34.143A.881.881,0,0,0,5.177,8.85a4.5,4.5,0,0,1,.958-.1A36.172,36.172,0,0,1,13.71,9.6a65.728,65.728,0,0,0,8.466,1.168,11.008,11.008,0,0,0-4.225,5.28c-2.632-.377-4.238-.778-6.313-1.114a2.6,2.6,0,0,0-2.376.853,4.263,4.263,0,0,1-7.5-2.83,4.158,4.158,0,0,1,.694-2.247A.881.881,0,0,0,.987,9.734,5.916,5.916,0,0,0,0,12.931a6.026,6.026,0,0,0,4.231,5.834v3.756a.583.583,0,0,1-.318.512,5.315,5.315,0,0,0,.318,9.551V39.15a2.64,2.64,0,0,0-1.624,2.433V42.8a2.639,2.639,0,0,0,2.636,2.636h.249v2.171a3.3,3.3,0,0,0,3.128,3.289v9.392a5.194,5.194,0,0,0,5.188,5.188H43.3a.881.881,0,0,0,0-1.762H13.809a3.43,3.43,0,0,1-3.426-3.426V50.9H49.746v9.388a3.436,3.436,0,0,1-2.5,3.3.881.881,0,1,0,.474,1.7,5.2,5.2,0,0,0,3.79-5V50.894a3.3,3.3,0,0,0,3.128-3.289V45.434h.249A2.639,2.639,0,0,0,57.52,42.8V41.583A2.64,2.64,0,0,0,55.9,39.15V32.584a5.315,5.315,0,0,0,.318-9.551ZM46.417,9.6a36.179,36.179,0,0,1,7.576-.848h.012a4.327,4.327,0,0,1,4.361,4.206,4.263,4.263,0,0,1-7.5,2.829,2.6,2.6,0,0,0-2.376-.853c-1.994.322-3.768.749-6.313,1.114a11.008,11.008,0,0,0-4.225-5.28A65.716,65.716,0,0,0,46.417,9.6Zm3.758,22.086a5.265,5.265,0,0,0,3.96,1.348v5.917h-3.96Zm-8.042,5.4a3.354,3.354,0,0,0,2.933-4.855,4.3,4.3,0,0,0,1.48-4.092,3.792,3.792,0,0,0-3.372-3.168c-1.228-.18-1.594-.616-1.724-.959a9.445,9.445,0,0,0,1.172-6.254c2.4-.353,3.91-.71,5.792-1.03V38.947h-6.26a8.094,8.094,0,0,0-.02-1.861ZM16.247,30.9c-1.2-.632-1.692-3.8.962-4.188a4.161,4.161,0,0,0,2.545-1.164,11.63,11.63,0,0,0,1.485,1.474,28.042,28.042,0,0,0-2.995,8.313,1.757,1.757,0,0,1-1.453-.637,2.023,2.023,0,0,1,.014-2.059A1.3,1.3,0,0,0,16.247,30.9Zm6.434-2.845a13.467,13.467,0,0,0,2.864,1.321,21.374,21.374,0,0,0-2.712,9,1.572,1.572,0,0,1-3.145,0,23.926,23.926,0,0,1,2.993-10.326Zm1.913,10.326a19.833,19.833,0,0,1,2.721-8.549,14.8,14.8,0,0,0,5.5,0,19.833,19.833,0,0,1,2.721,8.549,3.339,3.339,0,0,0,.049.564H24.546a3.352,3.352,0,0,0,.049-.564Zm9.989-9a13.473,13.473,0,0,0,2.864-1.321A23.926,23.926,0,0,1,40.44,38.384a1.572,1.572,0,0,1-3.145,0,21.373,21.373,0,0,0-2.712-9Zm4.306-2.354a11.624,11.624,0,0,0,1.484-1.473,4.162,4.162,0,0,0,2.545,1.163,2.02,2.02,0,0,1,1.891,1.724,2.47,2.47,0,0,1-.929,2.464,1.3,1.3,0,0,0-.559,1.74,2.022,2.022,0,0,1,.014,2.059,1.757,1.757,0,0,1-1.453.637A28.032,28.032,0,0,0,38.889,27.025Zm-8.825-16.86a11.3,11.3,0,0,1,9.8,5.089c-2.584.407-6.816-.639-9.14-1.712a1.578,1.578,0,0,0-1.325,0c-2.337,1.079-6.565,2.118-9.14,1.712a11.3,11.3,0,0,1,9.8-5.089ZM19.518,16.9c3.094.687,7.873-.514,10.546-1.725C32.2,16.144,37.2,17.656,40.61,16.9c1.851,5.757-3.384,11.428-10.546,11.428-7.227,0-12.382-5.722-10.546-11.429Zm-7.8-.172c1.831.311,3.445.685,5.792,1.03a9.444,9.444,0,0,0,1.172,6.254c-.131.343-.5.779-1.724.959a3.792,3.792,0,0,0-3.372,3.168,4.3,4.3,0,0,0,1.48,4.092,3.354,3.354,0,0,0,2.933,4.855,8.073,8.073,0,0,0-.02,1.861h-6.26V16.729ZM2.853,27.948A3.571,3.571,0,0,1,4.738,24.59a2.341,2.341,0,0,0,1.255-2.068V19.034h.031a6.015,6.015,0,0,0,3.929-1.46V27.731a3.553,3.553,0,0,1-7.1.218Zm7.1,3.733v7.266H5.993V33.03A5.265,5.265,0,0,0,9.953,31.682ZM52.874,47.605a1.533,1.533,0,0,1-1.532,1.532H8.786a1.533,1.533,0,0,1-1.532-1.532V45.434H52.874ZM55.759,42.8a.875.875,0,0,1-.874.874H5.244a.875.875,0,0,1-.874-.874V41.583a.875.875,0,0,1,.82-.872H5.2l.042,0h13.63a3.326,3.326,0,0,0,4.772,0H36.482a3.326,3.326,0,0,0,4.772,0c3.521,0,13.6,0,13.672,0a.875.875,0,0,1,.833.872Zm1.516-14.85a3.553,3.553,0,0,1-7.1-.218V17.575a6.01,6.01,0,0,0,3.96,1.459v3.487A2.341,2.341,0,0,0,55.39,24.59a3.57,3.57,0,0,1,1.885,3.359ZM30.064,23.194a3.446,3.446,0,0,0,2.6-1.183.881.881,0,0,0-1.328-1.157,1.682,1.682,0,0,1-2.539,0,.881.881,0,0,0-1.328,1.157,3.445,3.445,0,0,0,2.6,1.183Zm-7.334-.839a.881.881,0,0,0,.881-.881V20.065a.881.881,0,0,0-1.762,0v1.409A.881.881,0,0,0,22.73,22.355Z"/>
    </g>
  </g>
</svg>
