<svg xmlns="http://www.w3.org/2000/svg" xmlns:xlink="http://www.w3.org/1999/xlink" width="113" height="113" viewBox="0 0 113 113">
  <defs>
    <filter id="Trazado_982547" x="0" y="0" width="113" height="113" filterUnits="userSpaceOnUse">
      <feOffset dy="3" input="SourceAlpha"/>
      <feGaussianBlur stdDeviation="3" result="blur"/>
      <feFlood flood-opacity="0.161"/>
      <feComposite operator="in" in2="blur"/>
      <feComposite in="SourceGraphic"/>
    </filter>
  </defs>
  <g id="Grupo_1225041" data-name="Grupo 1225041" transform="translate(-323.5 -876.251)">
    <g id="Grupo_1224643" data-name="Grupo 1224643" transform="translate(332.5 882.251)">
      <g id="Grupo_1224291" data-name="Grupo 1224291">
        <g id="Grupo_1224091" data-name="Grupo 1224091">
          <g id="Grupo_1223183" data-name="Grupo 1223183" transform="translate(0)">
            <g id="Grupo_1211217" data-name="Grupo 1211217">
              <g id="Grupo_1210736" data-name="Grupo 1210736">
                <g id="Grupo_1210537" data-name="Grupo 1210537">
                  <g id="Grupo_1164202" data-name="Grupo 1164202">
                    <g id="Grupo_1158168" data-name="Grupo 1158168">
                      <g id="Grupo_1152576" data-name="Grupo 1152576">
                        <g id="Grupo_1148633" data-name="Grupo 1148633">
                          <g id="Grupo_1148525" data-name="Grupo 1148525">
                            <g transform="matrix(1, 0, 0, 1, -9, -6)" filter="url(#Trazado_982547)">
                              <g id="Trazado_982547-2" data-name="Trazado 982547" transform="translate(9 6)" fill="#fdfbec">
                                <path d="M 47.49999618530273 93.5 C 41.28936767578125 93.5 35.26533126831055 92.28396606445312 29.59518241882324 89.88570404052734 C 24.11771583557129 87.56893157958984 19.19812965393066 84.251953125 14.97308921813965 80.02690124511719 C 10.74803638458252 75.80186462402344 7.431062698364258 70.88227844238281 5.114289283752441 65.40480804443359 C 2.716022968292236 59.73466110229492 1.499996185302734 53.71062469482422 1.499996185302734 47.49999618530273 C 1.499996185302734 41.28936767578125 2.716022968292236 35.26533126831055 5.114289283752441 29.59518241882324 C 7.431062698364258 24.11771583557129 10.74803638458252 19.19812965393066 14.97308921813965 14.97308921813965 C 19.19812965393066 10.74803638458252 24.11771583557129 7.431062698364258 29.59518241882324 5.114289283752441 C 35.26533126831055 2.716022968292236 41.28936767578125 1.499996185302734 47.49999618530273 1.499996185302734 C 53.71062469482422 1.499996185302734 59.73466110229492 2.716022968292236 65.40480804443359 5.114289283752441 C 70.88227844238281 7.431062698364258 75.80186462402344 10.74803638458252 80.02690124511719 14.97308921813965 C 84.251953125 19.19812965393066 87.56893157958984 24.11771583557129 89.88570404052734 29.59518241882324 C 92.28396606445312 35.26533126831055 93.5 41.28936767578125 93.5 47.49999618530273 C 93.5 53.71062469482422 92.28396606445312 59.73466110229492 89.88570404052734 65.40480804443359 C 87.56893157958984 70.88227844238281 84.251953125 75.80186462402344 80.02690124511719 80.02690124511719 C 75.80186462402344 84.251953125 70.88227844238281 87.56893157958984 65.40480804443359 89.88570404052734 C 59.73466110229492 92.28396606445312 53.71062469482422 93.5 47.49999618530273 93.5 Z" stroke="none"/>
                                <path d="M 47.49999618530273 2.999992370605469 C 41.4912109375 2.999992370605469 35.66376495361328 4.1761474609375 30.17950439453125 6.495796203613281 C 24.88084411621094 8.736953735351562 20.12152099609375 11.94598388671875 16.03375244140625 16.03375244140625 C 11.94598388671875 20.12152099609375 8.736953735351562 24.88084411621094 6.495796203613281 30.17950439453125 C 4.1761474609375 35.66376495361328 2.999992370605469 41.4912109375 2.999992370605469 47.49999618530273 C 2.999992370605469 53.50878143310547 4.1761474609375 59.33622741699219 6.495796203613281 64.82048797607422 C 8.736953735351562 70.11914825439453 11.94598388671875 74.87847137451172 16.03375244140625 78.96623992919922 C 20.12152099609375 83.05400848388672 24.88084411621094 86.26304626464844 30.17950439453125 88.50419616699219 C 35.66376495361328 90.82384490966797 41.4912109375 92 47.49999618530273 92 C 53.50878143310547 92 59.33622741699219 90.82384490966797 64.82048797607422 88.50419616699219 C 70.11914825439453 86.26304626464844 74.87847137451172 83.05400848388672 78.96623992919922 78.96623992919922 C 83.05400848388672 74.87847137451172 86.26304626464844 70.11914825439453 88.50419616699219 64.82048797607422 C 90.82384490966797 59.33622741699219 92 53.50878143310547 92 47.49999618530273 C 92 41.4912109375 90.82384490966797 35.66376495361328 88.50419616699219 30.17950439453125 C 86.26304626464844 24.88084411621094 83.05400848388672 20.12152099609375 78.96623992919922 16.03375244140625 C 74.87847137451172 11.94598388671875 70.11914825439453 8.736953735351562 64.82048797607422 6.495796203613281 C 59.33622741699219 4.1761474609375 53.50878143310547 2.999992370605469 47.49999618530273 2.999992370605469 M 47.49999618530273 -7.62939453125e-06 C 73.7335205078125 -7.62939453125e-06 95 21.26647186279297 95 47.49999618530273 C 95 73.7335205078125 73.7335205078125 95 47.49999618530273 95 C 21.26647186279297 95 -7.62939453125e-06 73.7335205078125 -7.62939453125e-06 47.49999618530273 C -7.62939453125e-06 21.26647186279297 21.26647186279297 -7.62939453125e-06 47.49999618530273 -7.62939453125e-06 Z" stroke="none" fill="#83793c"/>
                              </g>
                            </g>
                          </g>
                        </g>
                      </g>
                    </g>
                  </g>
                </g>
              </g>
            </g>
          </g>
        </g>
      </g>
    </g>
    <g id="Filled_00000023280372391972235190000005984012943596059305_" transform="translate(338.04 887.791)">
      <g id="Grupo_1225038" data-name="Grupo 1225038" transform="translate(7.5 7.5)">
        <path id="Trazado_1055071" data-name="Trazado 1055071" d="M152.174,87.5A16.674,16.674,0,0,0,135.5,104.174h5.558a11.116,11.116,0,1,1,22.232,0h5.558A16.674,16.674,0,0,0,152.174,87.5Z" transform="translate(-117.714 -76.384)" fill="#fff"/>
        <g id="Grupo_1225035" data-name="Grupo 1225035" transform="translate(17.786 22.409)">
          <path id="Trazado_1055072" data-name="Trazado 1055072" d="M141.882,169.951a8.715,8.715,0,0,0-4.806-.735q-.334-.239-.687-.448a16.652,16.652,0,0,0-.888,5.382h5.558A11.076,11.076,0,0,1,141.882,169.951Z" transform="translate(-135.501 -168.768)" fill="#e3e9ee"/>
          <path id="Trazado_1055073" data-name="Trazado 1055073" d="M330.4,174.15h5.558a16.653,16.653,0,0,0-.888-5.382q-.353.209-.687.448a8.715,8.715,0,0,0-4.806.735A11.081,11.081,0,0,1,330.4,174.15Z" transform="translate(-302.61 -168.768)" fill="#e3e9ee"/>
        </g>
        <path id="Trazado_1055074" data-name="Trazado 1055074" d="M117.732,47.5A22.232,22.232,0,0,0,95.5,69.732h5.558a16.674,16.674,0,1,1,33.349,0h5.558A22.232,22.232,0,0,0,117.732,47.5Z" transform="translate(-83.272 -41.942)" fill="#a8e1f8"/>
        <g id="Grupo_1225036" data-name="Grupo 1225036" transform="translate(12.228 19.922)">
          <path id="Trazado_1055075" data-name="Trazado 1055075" d="M369.109,153.356a16.651,16.651,0,0,1,.888,5.382h5.558a22.179,22.179,0,0,0-1.435-7.869,11.114,11.114,0,0,0-1.43,1.234A9.6,9.6,0,0,0,369.109,153.356Z" transform="translate(-331.09 -150.869)" fill="#75d2f5"/>
          <path id="Trazado_1055076" data-name="Trazado 1055076" d="M101.946,153.356a9.591,9.591,0,0,0-3.581-1.253,11.108,11.108,0,0,0-1.43-1.234,22.179,22.179,0,0,0-1.435,7.869h5.558A16.655,16.655,0,0,1,101.946,153.356Z" transform="translate(-95.5 -150.869)" fill="#75d2f5"/>
        </g>
        <path id="Trazado_1055077" data-name="Trazado 1055077" d="M83.291,7.5A27.791,27.791,0,0,0,55.5,35.291h5.558a22.232,22.232,0,1,1,44.465,0h5.558A27.791,27.791,0,0,0,83.291,7.5Z" transform="translate(-48.83 -7.5)" fill="#feef8f"/>
        <g id="Grupo_1225037" data-name="Grupo 1225037" transform="translate(6.67 17.88)">
          <path id="Trazado_1055078" data-name="Trazado 1055078" d="M55.5,146.089h5.558a22.179,22.179,0,0,1,1.435-7.869,11.161,11.161,0,0,0-5.171-2.041A27.721,27.721,0,0,0,55.5,146.089Z" transform="translate(-55.5 -136.179)" fill="#fde31d"/>
          <path id="Trazado_1055079" data-name="Trazado 1055079" d="M410.347,136.179a11.161,11.161,0,0,0-5.171,2.041,22.179,22.179,0,0,1,1.435,7.869h5.558A27.721,27.721,0,0,0,410.347,136.179Z" transform="translate(-356.588 -136.179)" fill="#fde31d"/>
        </g>
        <path id="Trazado_1055080" data-name="Trazado 1055080" d="M328.012,170.5a4.538,4.538,0,0,1,2.276.608,5.4,5.4,0,0,1,4.452-2.325,5.492,5.492,0,0,1,.715.048,7.013,7.013,0,1,1,6.013,10.569H328.013a4.45,4.45,0,1,1,0-8.9Z" transform="translate(-279.592 -143.545)" fill="#e3e9ee"/>
        <path id="Trazado_1055081" data-name="Trazado 1055081" d="M341.467,205.363H328.012A4.519,4.519,0,0,1,324.026,203a4.38,4.38,0,0,0-.526,2.084,4.481,4.481,0,0,0,4.512,4.45h13.455a7,7,0,0,0,7.044-6.948,6.859,6.859,0,0,0-.323-2.084A7.037,7.037,0,0,1,341.467,205.363Z" transform="translate(-279.591 -173.682)" fill="#c6d2db"/>
        <path id="Trazado_1055082" data-name="Trazado 1055082" d="M28,170.5a4.538,4.538,0,0,0-2.276.608,5.4,5.4,0,0,0-4.452-2.325,5.492,5.492,0,0,0-.715.048A7.013,7.013,0,1,0,14.544,179.4H28a4.45,4.45,0,1,0,0-8.9Z" transform="translate(-7.5 -143.545)" fill="#e3e9ee"/>
        <path id="Trazado_1055083" data-name="Trazado 1055083" d="M14.544,205.363H28A4.519,4.519,0,0,0,31.986,203a4.38,4.38,0,0,1,.526,2.084A4.481,4.481,0,0,1,28,209.532H14.544A7,7,0,0,1,7.5,202.584a6.857,6.857,0,0,1,.323-2.084A7.037,7.037,0,0,0,14.544,205.363Z" transform="translate(-7.5 -173.682)" fill="#c6d2db"/>
        <path id="Trazado_1055084" data-name="Trazado 1055084" d="M173.983,253.646s.973,1.528,5.7,1.528c-1.667-6.253.973-16.674-4.308-16.674-3.057,0-5.975,3.335-5.975,3.335h-8.615s-2.918-3.335-5.975-3.335c-5.28,0-2.64,10.421-4.308,16.674,4.724,0,5.7-1.528,5.7-1.528Z" transform="translate(-130.63 -206.402)" fill="#eb975d"/>
        <path id="Trazado_1055085" data-name="Trazado 1055085" d="M173.983,317.5H156.2s-.894,1.4-5.113,1.519a21.326,21.326,0,0,1-.584,4.178c4.724,0,5.7-1.529,5.7-1.529h17.786s.973,1.529,5.7,1.529a21.321,21.321,0,0,1-.584-4.178C174.877,318.9,173.983,317.5,173.983,317.5Z" transform="translate(-130.63 -274.425)" fill="#b25e1e"/>
        <path id="Trazado_1055086" data-name="Trazado 1055086" d="M140.5,400.174v-.695a15.979,15.979,0,0,1,15.98-15.98h0a15.979,15.979,0,0,1,15.98,15.98v.695Z" transform="translate(-122.019 -331.254)" fill="#fdddeb"/>
        <path id="Trazado_1055087" data-name="Trazado 1055087" d="M140.88,473.5a16.027,16.027,0,0,0-.38,3.474v.695h31.959v-.695a16.039,16.039,0,0,0-.38-3.474Z" transform="translate(-122.019 -408.748)" fill="#fbb9d7"/>
        <path id="Trazado_1055088" data-name="Trazado 1055088" d="M199.532,293.5c0,2.918-3.85,4.169-9.032,4.169v3.474a9.032,9.032,0,0,0,9.032,9.032h0a9.032,9.032,0,0,0,9.032-9.032v-3.474C203.382,297.669,199.532,296.418,199.532,293.5Z" transform="translate(-165.072 -253.76)" fill="#ffe5c2"/>
        <path id="Trazado_1055089" data-name="Trazado 1055089" d="M199.532,331.836h0a9.031,9.031,0,0,1-9-8.337H190.5v3.474A9.032,9.032,0,0,0,199.532,336h0a9.032,9.032,0,0,0,9.032-9.032V323.5h-.029A9.031,9.031,0,0,1,199.532,331.836Z" transform="translate(-165.072 -279.59)" fill="#fed2a4"/>
        <path id="Trazado_1055090" data-name="Trazado 1055090" d="M199.532,253.5h0a9.032,9.032,0,0,0-9.032,9.032v.695c5.182,0,9.032-1.251,9.032-4.169,0,2.918,3.85,4.169,9.032,4.169v-.695A9.032,9.032,0,0,0,199.532,253.5Z" transform="translate(-165.072 -219.318)" fill="#eb975d"/>
      </g>
      <g id="Grupo_1225039" data-name="Grupo 1225039" transform="translate(7.5 7.5)">
        <path id="Trazado_1055091" data-name="Trazado 1055091" d="M66.49,26.182a27.8,27.8,0,0,1,52.527,0" transform="translate(-58.293 -7.5)" fill="none" stroke="#000" stroke-miterlimit="10" stroke-width="1.2" stroke-dasharray="350 15"/>
        <path id="Trazado_1055092" data-name="Trazado 1055092" d="M103.72,62.683a22.239,22.239,0,0,1,42.18,0" transform="translate(-90.35 -41.942)" fill="none" stroke="#000" stroke-miterlimit="10" stroke-width="1.2"/>
        <path id="Trazado_1055093" data-name="Trazado 1055093" d="M140.04,99.613a16.681,16.681,0,0,1,32.087,0" transform="translate(-121.623 -76.384)" fill="none" stroke="#000" stroke-miterlimit="10" stroke-width="1.2" stroke-dasharray="220 15"/>
        <path id="Trazado_1055094" data-name="Trazado 1055094" d="M179.35,135.2a11.119,11.119,0,0,1,21.162,0" transform="translate(-155.471 -110.826)" fill="none" stroke="#000" stroke-miterlimit="10" stroke-width="1.2"/>
        <path id="Trazado_1055095" data-name="Trazado 1055095" d="M31.539,172.186a4.555,4.555,0,0,0-5.814-1.082,5.4,5.4,0,0,0-4.452-2.325,5.492,5.492,0,0,0-.715.048A7.013,7.013,0,1,0,14.544,179.4H24.869" transform="translate(-7.5 -143.545)" fill="none" stroke="#000" stroke-miterlimit="10" stroke-width="1.2"/>
        <path id="Trazado_1055096" data-name="Trazado 1055096" d="M330.5,172.186a4.555,4.555,0,0,1,5.814-1.082,5.4,5.4,0,0,1,4.452-2.325,5.492,5.492,0,0,1,.715.048,7.013,7.013,0,1,1,6.013,10.569H337.17" transform="translate(-285.618 -143.545)" fill="none" stroke="#000" stroke-miterlimit="10" stroke-width="1.2"/>
        <path id="Trazado_1055097" data-name="Trazado 1055097" d="M149.962,393.474a15.982,15.982,0,0,0-9.462,14.594v.695h31.959v-.695A15.982,15.982,0,0,0,163,393.474" transform="translate(-122.019 -339.842)" fill="none" stroke="#000" stroke-miterlimit="10" stroke-width="1.2" stroke-dasharray="220 15"/>
        <path id="Trazado_1055098" data-name="Trazado 1055098" d="M190.5,266.7v-4.169a9.032,9.032,0,0,1,9.032-9.032h0a9.032,9.032,0,0,1,9.032,9.032V266.7a9.032,9.032,0,0,1-9.032,9.032h0A9.032,9.032,0,0,1,190.5,266.7Z" transform="translate(-165.072 -219.318)" fill="none" stroke="#000" stroke-miterlimit="10" stroke-width="1.2"/>
        <line id="Línea_1038" data-name="Línea 1038" y2="5.105" transform="translate(42.968 63.388)" fill="none" stroke="#000" stroke-miterlimit="10" stroke-width="1.2"/>
        <line id="Línea_1039" data-name="Línea 1039" y1="5.105" transform="translate(25.952 63.388)" fill="none" stroke="#000" stroke-miterlimit="10" stroke-width="1.2"/>
        <path id="Trazado_1055099" data-name="Trazado 1055099" d="M199.532,293.5c0,2.918-3.85,4.169-9.032,4.169" transform="translate(-165.072 -253.76)" fill="none" stroke="#000" stroke-miterlimit="10" stroke-width="1.2"/>
        <path id="Trazado_1055100" data-name="Trazado 1055100" d="M264.532,292.5c-5.182,0-9.032-1.251-9.032-4.169V287.5" transform="translate(-221.04 -248.593)" fill="none" stroke="#000" stroke-miterlimit="10" stroke-width="1.2"/>
        <path id="Trazado_1055101" data-name="Trazado 1055101" d="M156.2,253.646s-.973,1.528-5.7,1.528c1.667-6.253-.973-16.674,4.308-16.674,3.057,0,5.975,3.335,5.975,3.335" transform="translate(-130.63 -206.402)" fill="none" stroke="#000" stroke-miterlimit="10" stroke-width="1.2" stroke-dasharray="110 15"/>
        <path id="Trazado_1055102" data-name="Trazado 1055102" d="M291.085,253.646s.973,1.528,5.7,1.528c-1.667-6.253.973-16.674-4.308-16.674-3.057,0-5.975,3.335-5.975,3.335" transform="translate(-247.732 -206.402)" fill="none" stroke="#000" stroke-miterlimit="10" stroke-width="1.2" stroke-dasharray="110 15"/>
        <line id="Línea_1040" data-name="Línea 1040" y2="1.702" transform="translate(31.057 46.372)" fill="none" stroke="#000" stroke-miterlimit="10" stroke-width="1.2"/>
        <line id="Línea_1041" data-name="Línea 1041" y2="1.702" transform="translate(37.863 46.372)" fill="none" stroke="#000" stroke-miterlimit="10" stroke-width="1.2"/>
      </g>
      <g id="Grupo_1225040" data-name="Grupo 1225040" transform="translate(16.436 38.557)">
        <line id="Línea_1042" data-name="Línea 1042" x1="1.702" transform="translate(49.347)" fill="none" stroke="#fff" stroke-miterlimit="10" stroke-width="1.2"/>
        <line id="Línea_1043" data-name="Línea 1043" x1="1.702" transform="translate(45.944)" fill="none" stroke="#fff" stroke-miterlimit="10" stroke-width="1.2"/>
        <line id="Línea_1044" data-name="Línea 1044" x2="1.702" transform="translate(0)" fill="none" stroke="#fff" stroke-miterlimit="10" stroke-width="1.2"/>
        <line id="Línea_1045" data-name="Línea 1045" x2="1.702" transform="translate(3.403)" fill="none" stroke="#fff" stroke-miterlimit="10" stroke-width="1.2"/>
      </g>
    </g>
  </g>
</svg>
