<svg xmlns="http://www.w3.org/2000/svg" xmlns:xlink="http://www.w3.org/1999/xlink" width="113" height="113" viewBox="0 0 113 113">
  <defs>
    <filter id="Trazado_982547" x="0" y="0" width="113" height="113" filterUnits="userSpaceOnUse">
      <feOffset dy="3" input="SourceAlpha"/>
      <feGaussianBlur stdDeviation="3" result="blur"/>
      <feFlood flood-opacity="0.161"/>
      <feComposite operator="in" in2="blur"/>
      <feComposite in="SourceGraphic"/>
    </filter>
    <clipPath id="clip-path">
      <path id="path13542" d="M0-682.665H70.664V-612H0Z" transform="translate(0 682.665)"/>
    </clipPath>
  </defs>
  <g id="Grupo_1225177" data-name="Grupo 1225177" transform="translate(-900.509 -4740.996)">
    <g id="Grupo_1224648" data-name="Grupo 1224648" transform="translate(0 1927)">
      <g id="Grupo_1224293" data-name="Grupo 1224293" transform="translate(0 859.245)">
        <g id="Grupo_1224093" data-name="Grupo 1224093" transform="translate(226.51 -2620.317)">
          <g id="Grupo_1223184" data-name="Grupo 1223184" transform="translate(683 4581.069)">
            <g id="Grupo_1211216" data-name="Grupo 1211216" transform="translate(0)">
              <g id="Grupo_1210737" data-name="Grupo 1210737">
                <g id="Grupo_1210537" data-name="Grupo 1210537">
                  <g id="Grupo_1164202" data-name="Grupo 1164202">
                    <g id="Grupo_1158168" data-name="Grupo 1158168">
                      <g id="Grupo_1152576" data-name="Grupo 1152576">
                        <g id="Grupo_1148633" data-name="Grupo 1148633">
                          <g id="Grupo_1148525" data-name="Grupo 1148525">
                            <g transform="matrix(1, 0, 0, 1, -9, -6)" filter="url(#Trazado_982547)">
                              <g id="Trazado_982547-2" data-name="Trazado 982547" transform="translate(9 6)" fill="#fdfbec">
                                <path d="M 47.49999618530273 93.5 C 41.28936767578125 93.5 35.26533126831055 92.28396606445312 29.59518241882324 89.88570404052734 C 24.11771583557129 87.56893157958984 19.19812965393066 84.251953125 14.97308921813965 80.02690124511719 C 10.74803638458252 75.80186462402344 7.431062698364258 70.88227844238281 5.114289283752441 65.40480804443359 C 2.716022968292236 59.73466110229492 1.499996185302734 53.71062469482422 1.499996185302734 47.49999618530273 C 1.499996185302734 41.28936767578125 2.716022968292236 35.26533126831055 5.114289283752441 29.59518241882324 C 7.431062698364258 24.11771583557129 10.74803638458252 19.19812965393066 14.97308921813965 14.97308921813965 C 19.19812965393066 10.74803638458252 24.11771583557129 7.431062698364258 29.59518241882324 5.114289283752441 C 35.26533126831055 2.716022968292236 41.28936767578125 1.499996185302734 47.49999618530273 1.499996185302734 C 53.71062469482422 1.499996185302734 59.73466110229492 2.716022968292236 65.40480804443359 5.114289283752441 C 70.88227844238281 7.431062698364258 75.80186462402344 10.74803638458252 80.02690124511719 14.97308921813965 C 84.251953125 19.19812965393066 87.56893157958984 24.11771583557129 89.88570404052734 29.59518241882324 C 92.28396606445312 35.26533126831055 93.5 41.28936767578125 93.5 47.49999618530273 C 93.5 53.71062469482422 92.28396606445312 59.73466110229492 89.88570404052734 65.40480804443359 C 87.56893157958984 70.88227844238281 84.251953125 75.80186462402344 80.02690124511719 80.02690124511719 C 75.80186462402344 84.251953125 70.88227844238281 87.56893157958984 65.40480804443359 89.88570404052734 C 59.73466110229492 92.28396606445312 53.71062469482422 93.5 47.49999618530273 93.5 Z" stroke="none"/>
                                <path d="M 47.49999618530273 2.999992370605469 C 41.4912109375 2.999992370605469 35.66376495361328 4.1761474609375 30.17950439453125 6.495796203613281 C 24.88084411621094 8.736953735351562 20.12152099609375 11.94598388671875 16.03375244140625 16.03375244140625 C 11.94598388671875 20.12152099609375 8.736953735351562 24.88084411621094 6.495796203613281 30.17950439453125 C 4.1761474609375 35.66376495361328 2.999992370605469 41.4912109375 2.999992370605469 47.49999618530273 C 2.999992370605469 53.50878143310547 4.1761474609375 59.33622741699219 6.495796203613281 64.82048797607422 C 8.736953735351562 70.11914825439453 11.94598388671875 74.87847137451172 16.03375244140625 78.96623992919922 C 20.12152099609375 83.05400848388672 24.88084411621094 86.26304626464844 30.17950439453125 88.50419616699219 C 35.66376495361328 90.82384490966797 41.4912109375 92 47.49999618530273 92 C 53.50878143310547 92 59.33622741699219 90.82384490966797 64.82048797607422 88.50419616699219 C 70.11914825439453 86.26304626464844 74.87847137451172 83.05400848388672 78.96623992919922 78.96623992919922 C 83.05400848388672 74.87847137451172 86.26304626464844 70.11914825439453 88.50419616699219 64.82048797607422 C 90.82384490966797 59.33622741699219 92 53.50878143310547 92 47.49999618530273 C 92 41.4912109375 90.82384490966797 35.66376495361328 88.50419616699219 30.17950439453125 C 86.26304626464844 24.88084411621094 83.05400848388672 20.12152099609375 78.96623992919922 16.03375244140625 C 74.87847137451172 11.94598388671875 70.11914825439453 8.736953735351562 64.82048797607422 6.495796203613281 C 59.33622741699219 4.1761474609375 53.50878143310547 2.999992370605469 47.49999618530273 2.999992370605469 M 47.49999618530273 -7.62939453125e-06 C 73.7335205078125 -7.62939453125e-06 95 21.26647186279297 95 47.49999618530273 C 95 73.7335205078125 73.7335205078125 95 47.49999618530273 95 C 21.26647186279297 95 -7.62939453125e-06 73.7335205078125 -7.62939453125e-06 47.49999618530273 C -7.62939453125e-06 21.26647186279297 21.26647186279297 -7.62939453125e-06 47.49999618530273 -7.62939453125e-06 Z" stroke="none" fill="#83793c"/>
                              </g>
                            </g>
                          </g>
                        </g>
                      </g>
                    </g>
                  </g>
                </g>
              </g>
            </g>
          </g>
        </g>
      </g>
    </g>
    <g id="g13536" transform="translate(921.677 5439.829)">
      <g id="g13538" transform="translate(0 -682.665)">
        <g id="g13540" clip-path="url(#clip-path)">
          <g id="g13546" transform="translate(14.03 42.825)">
            <path id="path13548" d="M-370.17,0V24.831c0,.05,0,.1-.006.148a1.964,1.964,0,0,1-2.074,1.656h-38.719a1.942,1.942,0,0,1-1.942-1.942V.138L-411.255,0h13.2l6.45.138,6.45-.138Z" transform="translate(412.911)" fill="#ffa95f"/>
          </g>
          <g id="g13550" transform="translate(13.892 42.825)">
            <path id="path13552" d="M-15.539-210.354v-24.288h-1.794v24.831a1.942,1.942,0,0,0,1.942,1.942h39a1.941,1.941,0,0,0,1.934-1.794H-14.849a.69.69,0,0,1-.69-.69" transform="translate(17.333 234.642)" fill="#ff9161"/>
          </g>
          <g id="g13554" transform="translate(29.02 42.825)">
            <path id="path13556" d="M-109.156-39.308-111.9-39.7a.138.138,0,0,0-.083.014l-3.4,1.749a.139.139,0,0,1-.13,0l-3.177-1.746a.138.138,0,0,0-.085-.016l-1.053.138-1.775.113a.137.137,0,0,1-.157-.121v-4.143l1.932-.138H-109v4.4a.139.139,0,0,1-.158.137" transform="translate(121.76 43.847)" fill="#f9f8f9"/>
          </g>
          <g id="g13558" transform="translate(28.882 42.825)">
            <path id="path13560" d="M-17.93,0H-20V4.4a.138.138,0,0,0,.157.137l1.913-.251Z" transform="translate(20)" fill="#e8e8e8"/>
          </g>
          <g id="g13562" transform="translate(26.967 55.796)">
            <path id="path13564" d="M-34.843-17.255a2.082,2.082,0,0,0-1.39-1.963,2.133,2.133,0,0,0-.691.021,1.853,1.853,0,0,0-1.943,1.943,1.853,1.853,0,0,0,1.943,1.943,2.129,2.129,0,0,0,.691.021,2.082,2.082,0,0,0,1.39-1.963" transform="translate(38.867 19.248)" fill="#f9f8f9"/>
          </g>
          <g id="g13566" transform="translate(26.829 55.708)">
            <path id="path13568" d="M-11.953-18.019a2.08,2.08,0,0,1,1.391-1.961,2.074,2.074,0,0,0-.69-.12,2.081,2.081,0,0,0-2.081,2.081,2.081,2.081,0,0,0,2.081,2.08,2.071,2.071,0,0,0,.69-.12,2.08,2.08,0,0,1-1.391-1.961" transform="translate(13.333 20.1)" fill="#e8e8e8"/>
          </g>
          <g id="g13570" transform="translate(26.983 1.067)">
            <path id="path13572" d="M-145.811-73.5a8.487,8.487,0,0,0-8.888-8.478,8.445,8.445,0,0,0-5.188,2.1,8.327,8.327,0,0,0-2.744,5.857,8.194,8.194,0,0,0,2.872,6.758,5.579,5.579,0,0,1,1.9,4.189v.07h7.116v-.069a4.584,4.584,0,0,1,.3-1.173,5.709,5.709,0,0,1,1.769-2.9,8.466,8.466,0,0,0,2.863-6.356" transform="translate(162.647 81.991)" fill="#ffe07d"/>
          </g>
          <g id="g13574" transform="translate(26.845 2.912)">
            <path id="path13576" d="M-73.5-137.944c-.023,0-1.566-.031-1.589-.032a.973.973,0,0,1-.875-.7A6.88,6.88,0,0,0-78-141.957a8.941,8.941,0,0,1-2.734-7.172,8.567,8.567,0,0,1,1.962-4.743,8.473,8.473,0,0,0-3.2,6.123,8.47,8.47,0,0,0,2.9,6.923,5.51,5.51,0,0,1,1.873,4.162v.07l3.7.138,3.7-.138v-.069a5.464,5.464,0,0,1,.161-1.311h-2.269Z" transform="translate(81.986 153.872)" fill="#ffd064"/>
          </g>
          <g id="g13578" transform="translate(32.689 24.224)">
            <path id="path13580" d="M-46.984-1.2V.427a2.026,2.026,0,0,1-.631,1.44,5.044,5.044,0,0,1-2.151.693A2.432,2.432,0,0,1-52.409.289V-1.333h2.7Z" transform="translate(52.409 1.333)" fill="#e8e8e8"/>
          </g>
          <g id="g13582" transform="translate(32.551 24.224)">
            <path id="path13584" d="M-42.019-27.749A2.566,2.566,0,0,1-44.8-30.021v-.794l-1.077-.138-.993.138v1.623a2.566,2.566,0,0,0,2.781,2.272,3.051,3.051,0,0,0,2.151-.831c-.027,0-.053,0-.08,0" transform="translate(46.871 30.953)" fill="#dcdbdd"/>
          </g>
          <g id="g13586" transform="translate(30.533 20.19)">
            <path id="path13588" d="M-72.37-34.939h-7.114a1.242,1.242,0,0,1-1.242-1.242v-1.412a1.242,1.242,0,0,1,1.242-1.242l.69-.138h6.562a1.242,1.242,0,0,1,1.242,1.242v.86l-.138.69a1.242,1.242,0,0,1-1.242,1.242" transform="translate(80.726 38.973)" fill="#e8e8e8"/>
          </g>
          <g id="g13590" transform="translate(30.395 20.19)">
            <path id="path13592" d="M-23.906-18.2a.69.69,0,0,1-.69-.69v-1.412h-.828a1.242,1.242,0,0,0-1.242,1.242v1.688a1.242,1.242,0,0,0,1.242,1.242h7.39a1.242,1.242,0,0,0,1.242-1.242V-18.2Z" transform="translate(26.667 20.307)" fill="#dcdbdd"/>
          </g>
          <g id="g13594" transform="translate(47.064 34.591)">
            <path id="path13596" d="M-51.4-34.664h-5.245a.69.69,0,0,1-.69-.69v-2.484a.69.69,0,0,1,.69-.69l1.242-.138h4.141a.69.69,0,0,1,.69.69v1.38l-.138,1.242a.69.69,0,0,1-.69.69" transform="translate(57.335 38.667)" fill="#d3effd"/>
          </g>
          <g id="g13598" transform="translate(44.322 19.498)">
            <path id="path13600" d="M-42.082-5.976l-4.672,8.055a1.38,1.38,0,0,0,1.2,2.07l1.028.138h8.453a1.38,1.38,0,0,0,1.2-2.07L-39.108-5.1l-.583-.872a1.38,1.38,0,0,0-2.39,0" transform="translate(46.941 6.666)" fill="#d3effd"/>
          </g>
          <g id="g13602" transform="translate(16.976 34.591)">
            <path id="path13604" d="M-51.4-34.664h-5.245a.69.69,0,0,1-.69-.69v-2.484a.69.69,0,0,1,.69-.69l1.242-.138h4.141a.69.69,0,0,1,.69.69v1.38l-.138,1.242a.69.69,0,0,1-.69.69" transform="translate(57.335 38.667)" fill="#d3effd"/>
          </g>
          <g id="g13606" transform="translate(46.926 34.591)">
            <path id="path13608" d="M-21.516-17.93a.414.414,0,0,1-.414-.414V-20h-1.38a.69.69,0,0,0-.69.69v2.76a.69.69,0,0,0,.69.69h5.521a.69.69,0,0,0,.69-.69v-1.38Z" transform="translate(24 20)" fill="#b2e5fb"/>
          </g>
          <g id="g13610" transform="translate(16.838 34.591)">
            <path id="path13612" d="M-21.516-17.93a.414.414,0,0,1-.414-.414V-20h-1.38a.69.69,0,0,0-.69.69v2.76a.69.69,0,0,0,.69.69h5.521a.69.69,0,0,0,.69-.69v-1.38Z" transform="translate(24 20)" fill="#b2e5fb"/>
          </g>
          <g id="g13614" transform="translate(14.234 19.498)">
            <path id="path13616" d="M-42.082-5.976l-4.672,8.055a1.38,1.38,0,0,0,1.2,2.07l1.028.138h8.453a1.38,1.38,0,0,0,1.2-2.07L-39.108-5.1l-.583-.872a1.38,1.38,0,0,0-2.391,0" transform="translate(46.941 6.666)" fill="#d3effd"/>
          </g>
          <g id="g13618" transform="translate(44.184 19.36)">
            <path id="path13620" d="M-69.033-14.727l-.583-1.01a1.38,1.38,0,0,0-2.39,0l-4.81,8.331a1.38,1.38,0,0,0,1.2,2.07h1.167Z" transform="translate(77.003 16.427)" fill="#b2e5fb"/>
          </g>
          <g id="g13622" transform="translate(14.096 19.36)">
            <path id="path13624" d="M-69.033-14.727l-.583-1.01a1.38,1.38,0,0,0-2.39,0l-4.81,8.331a1.38,1.38,0,0,0,1.2,2.07h1.167Z" transform="translate(77.003 16.427)" fill="#b2e5fb"/>
          </g>
          <g id="g13626" transform="translate(23.8 42.825)">
            <path id="path13628" d="M0,0H32.971V11.8" fill="none" stroke="#000" stroke-linecap="round" stroke-linejoin="round" stroke-miterlimit="10" stroke-width="1.2"/>
          </g>
          <g id="g13630" transform="translate(13.892 42.825)">
            <path id="path13632" d="M-371.365-144.339v8.165a1.942,1.942,0,0,1-1.942,1.942h-39a1.942,1.942,0,0,1-1.942-1.942V-161h5.08" transform="translate(414.244 161.005)" fill="none" stroke="#000" stroke-linecap="round" stroke-linejoin="round" stroke-miterlimit="10" stroke-width="1.2"/>
          </g>
          <g id="g13634" transform="translate(56.772 35.784)">
            <path id="path13636" d="M0-60.983l7.041-7.041" transform="translate(0 68.024)" fill="none" stroke="#000" stroke-linecap="round" stroke-linejoin="round" stroke-miterlimit="10" stroke-width="1.2"/>
          </g>
          <g id="g13638" transform="translate(6.851 35.784)">
            <path id="path13640" d="M-60.983-60.983l-7.041-7.041" transform="translate(68.024 68.024)" fill="none" stroke="#000" stroke-linecap="round" stroke-linejoin="round" stroke-miterlimit="10" stroke-width="1.2"/>
          </g>
          <g id="g13642" transform="translate(46.926 34.591)">
            <path id="path13644" d="M-53.79-35.859h-5.521a.69.69,0,0,1-.69-.69v-2.76a.69.69,0,0,1,.69-.69h5.521a.69.69,0,0,1,.69.69v2.76A.69.69,0,0,1-53.79-35.859Z" transform="translate(60.001 40)" fill="none" stroke="#000" stroke-linecap="round" stroke-linejoin="round" stroke-miterlimit="10" stroke-width="1.2"/>
          </g>
          <g id="g13646" transform="translate(44.184 19.36)">
            <path id="path13648" d="M-74.6-24.369l-1.226-2.124a1.38,1.38,0,0,0-2.391,0l-4.81,8.331a1.38,1.38,0,0,0,1.2,2.07h9.62a1.38,1.38,0,0,0,1.2-2.07l-1.164-2.016" transform="translate(83.213 27.183)" fill="none" stroke="#000" stroke-linecap="round" stroke-linejoin="round" stroke-miterlimit="10" stroke-width="1.2"/>
          </g>
          <g id="g13650" transform="translate(16.838 34.591)">
            <path id="path13652" d="M-53.79-35.859h-5.521a.69.69,0,0,1-.69-.69v-2.76a.69.69,0,0,1,.69-.69h5.521a.69.69,0,0,1,.69.69v2.76A.69.69,0,0,1-53.79-35.859Z" transform="translate(60.001 40)" fill="none" stroke="#000" stroke-linecap="round" stroke-linejoin="round" stroke-miterlimit="10" stroke-width="1.2"/>
          </g>
          <g id="g13654" transform="translate(14.096 19.36)">
            <path id="path13656" d="M-43.277-5.976l-4.81,8.331a1.38,1.38,0,0,0,1.2,2.07h9.62a1.38,1.38,0,0,0,1.2-2.07l-4.81-8.331A1.38,1.38,0,0,0-43.277-5.976Z" transform="translate(48.274 6.666)" fill="none" stroke="#000" stroke-linecap="round" stroke-linejoin="round" stroke-miterlimit="10" stroke-width="1.2"/>
          </g>
          <g id="g13658" transform="translate(28.882 42.867)">
            <path id="path13660" d="M-111.721,0V4.359a.139.139,0,0,1-.158.137l-2.745-.388a.136.136,0,0,0-.083.014l-3.4,1.749a.139.139,0,0,1-.13,0l-3.177-1.746a.138.138,0,0,0-.085-.016l-2.966.39a.139.139,0,0,1-.157-.138V.018" transform="translate(124.621)" fill="none" stroke="#000" stroke-linecap="round" stroke-linejoin="round" stroke-miterlimit="10" stroke-width="1.2"/>
          </g>
          <g id="g13662" transform="translate(26.829 55.708)">
            <path id="path13664" d="M-36.039-18.019A2.081,2.081,0,0,0-38.119-20.1,2.081,2.081,0,0,0-40.2-18.019a2.081,2.081,0,0,0,2.081,2.081A2.081,2.081,0,0,0-36.039-18.019Z" transform="translate(40.2 20.1)" fill="none" stroke="#000" stroke-linecap="round" stroke-linejoin="round" stroke-miterlimit="10" stroke-width="1.2"/>
          </g>
          <g id="g13666" transform="translate(23.03 51.547)">
            <path id="path13668" d="M-101.851-35.889a6.244,6.244,0,0,0-5.88-4.144,6.244,6.244,0,0,0-5.88,4.142" transform="translate(113.612 40.033)" fill="none" stroke="#000" stroke-linecap="round" stroke-linejoin="round" stroke-miterlimit="10" stroke-width="1.2"/>
          </g>
          <g id="g13670" transform="translate(23.03 59.87)">
            <path id="path13672" d="M0-.165A6.244,6.244,0,0,0,5.88,3.977,6.245,6.245,0,0,0,11.766-.184" transform="translate(0 0.184)" fill="none" stroke="#000" stroke-linecap="round" stroke-linejoin="round" stroke-miterlimit="10" stroke-width="1.2"/>
          </g>
          <g id="g13674" transform="translate(39.174 55.708)">
            <path id="path13676" d="M0,0H4.439" fill="none" stroke="#000" stroke-linecap="round" stroke-linejoin="round" stroke-miterlimit="10" stroke-width="1.2"/>
          </g>
          <g id="g13678" transform="translate(39.174 59.869)">
            <path id="path13680" d="M0,0H8.461" fill="none" stroke="#000" stroke-linecap="round" stroke-linejoin="round" stroke-miterlimit="10" stroke-width="1.2"/>
          </g>
          <g id="g13682" transform="translate(32.551 24.362)">
            <path id="path13684" d="M-48.18,0h0V1.623a2.566,2.566,0,0,1-2.781,2.272,2.566,2.566,0,0,1-2.782-2.272V0" transform="translate(53.743)" fill="none" stroke="#000" stroke-linecap="round" stroke-linejoin="round" stroke-miterlimit="10" stroke-width="1.2"/>
          </g>
          <g id="g13686" transform="translate(30.395 20.19)">
            <path id="path13688" d="M-74.761-36.134h-7.39a1.242,1.242,0,0,1-1.242-1.242v-1.688a1.242,1.242,0,0,1,1.242-1.242h7.39a1.242,1.242,0,0,1,1.242,1.242v1.688A1.242,1.242,0,0,1-74.761-36.134Z" transform="translate(83.393 40.307)" fill="none" stroke="#000" stroke-linecap="round" stroke-linejoin="round" stroke-miterlimit="10" stroke-width="1.2"/>
          </g>
          <g id="g13690" transform="translate(26.845 7.465)">
            <path id="path13692" d="M-2.247,0a8.376,8.376,0,0,0-.244,1.57,8.47,8.47,0,0,0,2.872,6.9,5.579,5.579,0,0,1,1.9,4.189" transform="translate(2.506)" fill="none" stroke="#000" stroke-linecap="round" stroke-linejoin="round" stroke-miterlimit="10" stroke-width="1.2"/>
          </g>
          <g id="g13694" transform="translate(29.551 1.067)">
            <path id="path13696" d="M-82.081-165.016a5.633,5.633,0,0,1,1.928-4.211,8.465,8.465,0,0,0,2.863-6.356,8.487,8.487,0,0,0-8.888-8.478,8.452,8.452,0,0,0-5.38,2.276" transform="translate(91.558 184.069)" fill="none" stroke="#000" stroke-linecap="round" stroke-linejoin="round" stroke-miterlimit="10" stroke-width="1.2"/>
          </g>
          <g id="g13698" transform="translate(32.033 10.092)">
            <path id="path13700" d="M-28.569-87.454l3.257-9.168a.7.7,0,0,0-.9-.885l-1.877.7a1.392,1.392,0,0,1-.966,0l-1.877-.7a.7.7,0,0,0-.9.885l3.257,9.168" transform="translate(31.868 97.552)" fill="none" stroke="#000" stroke-linecap="round" stroke-linejoin="round" stroke-miterlimit="10" stroke-width="1.2"/>
          </g>
        </g>
      </g>
    </g>
  </g>
</svg>
