<svg xmlns="http://www.w3.org/2000/svg" xmlns:xlink="http://www.w3.org/1999/xlink" width="328" height="313" viewBox="0 0 328 313">
  <defs>
    <clipPath id="clip-path">
      <rect id="Rectángulo_422128" data-name="Rectángulo 422128" width="328" height="313" transform="translate(7899 7909)" fill="#cfd6e1"/>
    </clipPath>
    <clipPath id="clip-path-2">
      <rect id="Rectángulo_422131" data-name="Rectángulo 422131" width="230.4" height="313" fill="none"/>
    </clipPath>
  </defs>
  <g id="Enmascarar_grupo_1098769" data-name="Enmascarar grupo 1098769" transform="translate(-7899 -7909)" clip-path="url(#clip-path)">
    <g id="Grupo_1225604" data-name="Grupo 1225604" transform="translate(7950.802 7909)">
      <g id="Grupo_1225603" data-name="Grupo 1225603" clip-path="url(#clip-path-2)">
        <path id="Trazado_1057248" data-name="Trazado 1057248" d="M230.177,209.1c-.047-.325-1.674-4.7-1.674-4.7l-3.533-6.881.325-1.766-.837-1.069-.837-2.138.233-2-4.509-4.7-2.557-1.535-.883-2.51-2.371-.6-1.813-.139.558-.976,8.926-8.555.279-1.395-1.07-1.255-.976-2.278c-.279-.65-1.535-3.44-1.535-3.44l-2.045.232-.6-1.209-.7-2-.292-1.348-.452-2.093-1.627-1.3.325-2.743-1.069-3.115a8.447,8.447,0,0,1-.93-1.349c0-.185.79-2.789.79-2.789l-.232-3.393a17.633,17.633,0,0,1,.511-2.557,7.062,7.062,0,0,0,.232-1.767l-.7-2.7.837-1.348,3.533-3.115-.046-3.3.557-3.394,2.139-1.442.511-2.65-.744-1.209.186-1.906s-3.347-1.442-3.766-1.535-4.509-.139-4.509-.139l-2.092,2.045-2.37-.7-1.535.6-1.673.7-2.7-.464-3.673,1.441-.883.232-1.86-1.255s-2.789-.511-3.208-.511a11.717,11.717,0,0,0-1.906.511l-1.952-.139-2.789,2.184-.79-.139-.416-.763-.142-.26h-.418l-13.017-15.3-4.044.79-2.65-1.3-2.6-1.395-2.092-.7-3.812.7-2.092,1.441-1.209.558-1.581-1.116-4.184.14-3.394.372-1.209-.976-2.185.279-1.348.325-2.4.205-1.41.12s-.288-.45-.673-1.055c-.785-1.236-1.978-3.129-1.978-3.223,0-.139-.371-2.092-.371-2.092l-1.581-.837h-3.162l-.279-3.3-.557-4.184.883-2.417,1.162-.976s.14.186.279-.046-1.441-5.811-1.441-5.811l.185-1.581L120.6,73.349l-2.743-10.181-1.907.326-.837-.79-.093-1.86-.744-.883-2.232.511-.79,1.628-2.464.139-.883-.883L111.89,54.8h.744l.5-2.542,2.108-2.976a5.628,5.628,0,0,1-.558-1.425,18.945,18.945,0,0,1,.93-2.542l1.1-6.389.329-1.917,2.728-4.587a15.6,15.6,0,0,1,.744-2.231c.186-.186,2.294-1.983,2.294-1.983a17.667,17.667,0,0,1,.805-2.976c.186,0,4.711-.682,4.711-.682l4.773-9.856,11.529-3.223,2.046-2.107,2.045-.558a8.246,8.246,0,0,0-.062-1.674c-.124-.371-1.611-3.037-1.611-3.037l-.5-1.611-4.277-1.24L139.537.5l-1.922.992-1.363.558h-.992l-.868.371-.062,1.426.744.868-.868,1.054-1.116.062-.124-1.239.062-.744-1.674.372H129.5V5.954l-.186,3.471L127.7,11.347l-6.2,1.674-3.782.93-2.851,2.913s-3.471,2.6-3.843,2.976a40.575,40.575,0,0,1-3.657,2.045l-3.843.682-.349-.01-4.114-.114-4.9-1.8-2.045.805-1.426,2.294.5,3.162-2.34,4.277-1.348.976L86.708,31l.093-1.535,1.441-.79.326-.65-1.906-.372-7.028-2.373-.131-.044-2.046,2.045-2.464,2.789-3.55,1.516-.913.39-2.185,2.7-1.3.79.093,4.789-.974,3.717-.281,1.072L64.9,49.453l-.418,1.023.93,1.581a6.148,6.148,0,0,1,.6,1.163,13.525,13.525,0,0,1-.046,2.045l-.883,1.674-1.239.219-1.132.2-2.51-.79-2.417,2L55.746,60.1l-.232,1.859-1.72,3.162-2.65,2.324-.812.266-1.466.479-2.743,3.347-3.115.7s-1.534,0-1.674.047a10.535,10.535,0,0,0-.976,1.3l.186.837,1.534.139,1.488,2.51-.233,2.139.93,3.115-.046,2L43.658,85.9l-2,.186-1.116-1.3.186-.93.7-.278.279-1.535-1.023-.372s-.6.233-.6.047.232-1.627.232-1.627l-.077-.062L38.5,78.649l-1.023-.418s-1.116-1.72-1.162-1.86S34.407,74.7,34.407,74.7l-.93-2-1.023-1.256-1.58,3.069.744,1.55,1.55,2.417a8.07,8.07,0,0,0,.31,2.294c.248.186,1.611,1.55,1.611,1.55l.682,2.045-1.8.744-1.55.806.31,1.55-.806,1.674L29.51,90.877l-.682,2.045-.992.186s-.868-.372-.744-1.86a6.432,6.432,0,0,0-.557-2.913L24.8,87.963l-.371.93.31,1.426s.434,1.054.558,1.363a5.354,5.354,0,0,1,.186,1.054l-.434.62-1.364.62-.557.744-.682,3.409,3.348,2.851.744,2.789-.744,1.426,1.426.806.744,2.045.62,1.488s1.983-.31,2.17-.31a5.292,5.292,0,0,1,1.736.992c0,.186-.5,3.223-.5,3.223s-.186,1.363-.31,2.356-2.541,1.239-2.541,1.239l.31,1.984,1.177,1.673,2.232,1.426.991,1.736.372,2.046-.5,1.859-1.984,1.054-2.231-.124-.93.992.372,1.55,1.363.5.744,1.054.31,3.409v3.6s.434,3.409.5,3.595.992,2.17.992,2.17l-.186,5.641-1.24,1.426-2.108,1.24-.31,2.108.714,1.976.339.937.682.682,1.3-.372.992-.682.619-.805,1.922.619-.434,1.24L34.1,161.045l1.3.744,1.922-.5-.124,1.488-1.24,2.542a15.046,15.046,0,0,1-.992,2.108c-.248.248-2.665,2.17-2.851,2.479-.118.2-.561,1.069-.869,1.679l-.308.615L29.014,174l-2.665,4.277-.5,3.223-2.541,2.479-2.928.462-.606.1-3.657-.5-1.3.558-3.347,1.426-.744.805-2.045,3.657-.992,3.037.372,1.178.558,1.8.93.372-.434,1.054-.062.682.62,1.116-.249.868-.805.558s-1.116-.062-1.426-.062H6.389l-1.3-.682-1.054-.248s-1.611,1.054-1.8,1.177S.5,204.064.5,204.064l.5.992a9.758,9.758,0,0,0,1.116,1.3c.186.062,1.674,1.177,1.674,1.177l1.3,2.108,6.013,3.409,3.223,3.286,3.781,2.6,4.154,1.3,2.231-.682h1.8v.31s-.31,1.363-.31,1.55,1.736,1.054,1.736,1.054l1.3,1.24L29.7,226.5l.744,2.356h4.525l1.674-.93.327.327,1.1,1.1,4.773,1.177,4.649.062,3.223.371.558-2.107.991-1.426,2.046.062,2.417.868,1.3,1.116,1.054,1.674,1.86,1.922L63.6,234.5l3.409.062,3.843,3.037h.992l.682-1.426,2.231-.062,2.046,2.046,1.116.93,1.55-.62,2.17.186,1.054,2.045,2.294,2.48,1.983.991.682,1.054.254.42,1.172,1.936.434,2.48.744,2.727.31,1.116,5.083,2.6,3.6,1.55,1.859,2.231,1.054-.124,2.48,2.108.371,2.914-.991,2.231,2.727,1.3,2.789,1.054,1.054-.558,1.363,1.983.186,4.277a1.252,1.252,0,0,0-.805.682c-.249.558-.558,1.24-.558,1.24l1.55,2.48,3.409.991s3.471.31,3.657.31,4.649-.062,4.649-.062l4.649.62,3.843-1.054,4.649-2.913,1.736-1.922,3.719,2.108,1.24,1.239,4.4.93a1.376,1.376,0,0,1,.31-.186c.248-.124,1.859-1.364,1.859-1.364l2.294-1.3,3.843,1.426s2.727,2.046,2.976,2.17,6.57,1.983,6.57,1.983l3.037,1.426.806,1.674L158.5,305.041l2.417,1.55,1.86.5,1.3-.805h2.17l1.921,1.425,4.34,5.083,9.049-50.272.775-5.764v-1.3l-1.395-2.883-1.673-2.976-.744-2.138.465-2.046-1.767-2.045-3.812-2.324-2.231-1.953-1.116-1.953v-13.11l4.556-.464,2.51-1.395,3.069-1.3,1.488,1.859,3.44.558,1.3-.558-.093-1.673-1.116-4.463-.557-2.138-2.232-.372-1.859.837-2.232-.279-2.6-1.116H174.25V203.011l.371-.066,2.233-.4,2.51-1.673,4.091,1.581h22.036l-1.069-1.3-.93-1.209,2.138-2.789,2.139,1.72.046,2.231,3.208,1.72.6-1.488-.6-1.441,1.814-1.348h1.348l4.882-4.231,1.813.511.093,1.906.372,2.51,2.138,3.022,1.069,1.3.557,2.138a16.131,16.131,0,0,1,.79,2.185c0,.325-.139,2.65-.139,2.836s.046,1.628.046,1.628a7.331,7.331,0,0,0,1.256.837c.186,0,1.813-.232,2-.279a9.959,9.959,0,0,0,1.069-1.674s.093-1.813.047-2.138" transform="translate(-0.145 -0.145)" fill="#fff"/>
        <path id="Trazado_1057249" data-name="Trazado 1057249" d="M143.091,24.489l-.837,4.835.93,1.256,4.184-.558,2.65-.232v.6l-.418,1.86.651.046.976.047.651.744,1.395.6a1.181,1.181,0,0,1-.372.883,13.642,13.642,0,0,0-1.069,1.348l-.464,1.3.511.93.465.279,1.534-.186,2.976.232.942.445.329-1.917,2.728-4.587a15.605,15.605,0,0,1,.744-2.232c.186-.185,2.294-1.983,2.294-1.983a17.728,17.728,0,0,1,.805-2.975c.186,0,4.711-.682,4.711-.682l4.773-9.856,11.53-3.223,2.045-2.108,2.046-.557a8.257,8.257,0,0,0-.062-1.674c-.124-.372-1.611-3.037-1.611-3.037l-.5-1.612-4.277-1.239L180.624.5l-1.922.992-1.363.557h-.992l-.868.372-.062,1.426.744.868-.868,1.053-1.116.062-.124-1.24.062-.744-1.674.371h-1.859V5.955L170.4,9.426l-1.612,1.922-6.2,1.674-3.782.93-2.851,2.914s-3.471,2.6-3.843,2.976a40.752,40.752,0,0,1-3.657,2.045l-3.843.682-.349-.01-.054.258Z" transform="translate(-41.232 -0.145)" fill="none" stroke="#5d7884" stroke-linecap="round" stroke-linejoin="round" stroke-width="1"/>
        <path id="Trazado_1057250" data-name="Trazado 1057250" d="M101.174,45.617l.434,1.736,1.488.992a3.074,3.074,0,0,0,1.116.868,17.788,17.788,0,0,1,2.479,1.55l.806.744,1.488-2.851.744-1.859.868-.558.434-3.719-.249-2.48-.062-1.488-2.131-3.179-.131-.045-2.045,2.046-2.464,2.789-3.55,1.516.528,1.707Z" transform="translate(-29.1 -10.239)" fill="none" stroke="#5d7884" stroke-linecap="round" stroke-linejoin="round" stroke-width="1"/>
        <path id="Trazado_1057251" data-name="Trazado 1057251" d="M108.735,52.144l2.976,1.953-.372,1.394-.651,1.395v1.767l.279,1.3,1.581,1.953a8.29,8.29,0,0,1-.186,1.023,7.792,7.792,0,0,0,0,1.488l.465.557,1.674,1.209,2.7,2.511.744.092,2.324.279,2.6,1.767,1.581,1.767,3.719,1.023,2.51-.744-.464-2.045L127.8,69.252,126.215,67.3l-.93-3.254-.092-1.395.65-.372h2.883l2.231-.557-2.045-4.184-3.348-2.7-1.116-2.7.837-1.767,3.627-3.533,3.44-1.209,1.488-1.953.186-2.045.372-1.767-.93-1.069-.93-1.256.837-4.835,1.116-1.674.054-.258-4.115-.114-4.9-1.8-2.046.805-1.425,2.294.5,3.162-2.34,4.277-1.349.976-.79-1.162.093-1.535,1.442-.79.325-.651-1.906-.372L111,33.5l2.131,3.179.062,1.488.248,2.479-.434,3.719-.868.558-.744,1.86-1.488,2.851-.805-.744v1.953Z" transform="translate(-31.516 -8.367)" fill="none" stroke="#5d7884" stroke-linecap="round" stroke-linejoin="round" stroke-width="1"/>
        <path id="Trazado_1057252" data-name="Trazado 1057252" d="M147.673,86.755l-.062.992.186,1.55-.806,1.673.62.992.124,1.8-.805.992-.558.558-1.116,1.116s.186,1.3.248,1.488.744.744.744.744l.62.62v.62l-.5.805.186.62.682.558s.372.124.5-.062a12.814,12.814,0,0,0,.5-1.3s-.186-1.054.062-1.054a2.4,2.4,0,0,1,.682.186l.31,1.8-.372,1.426a9.041,9.041,0,0,1-.558,1.363,5.114,5.114,0,0,0-.4,1.147l.511,1.209.651.7.883.744.326.883-.047,1.163-.883.511-.139,1.395-.79.976-.883,1.116-.883.232-1.116-.325-1.3-1.069-.65.139.139.465,1.163,1.441,1.441,1.023,1.627.837,1.395.186.883-.232.558-.7.65-1.069h2.836l1.069.511.511.744a4.981,4.981,0,0,0,.372,1.256,6.768,6.768,0,0,0,.976.744l.372,1.442s.883.093.883.418.14,1.349.14,1.349l-.279,1.069.7.883-.511,1.534-.465.744,1.488,1.07.93.139h.326c.139,0,1.673-.047,1.673-.047l1.767.047-.325,1.116a1.015,1.015,0,0,0-.14.372c0,.139.7.464.7.464l.976-.278.6.511a3.389,3.389,0,0,0,1.163.232c.232-.093,1.162.047,1.3-.325a2.5,2.5,0,0,0,.186-.883,8.51,8.51,0,0,1,.325-1.209l.79.418,1.162.232-.093-1.395.233-.557,1.838.247c-.785-1.236-1.978-3.129-1.978-3.223,0-.139-.371-2.092-.371-2.092l-1.581-.837H165.9l-.278-3.3-.558-4.184.883-2.417,1.162-.976s.14.186.279-.046-1.441-5.811-1.441-5.811l.186-1.581-4.045-3.766-2.743-10.181-1.906.325-.837-.79-.093-1.86-.744-.883-2.231.511-.79,1.627-2.464.14-.883-.883-.046.759Z" transform="translate(-41.63 -24.414)" fill="none" stroke="#5d7884" stroke-linecap="round" stroke-linejoin="round" stroke-width="1"/>
        <path id="Trazado_1057253" data-name="Trazado 1057253" d="M183.653,145.924l-1.363,3.533L180.8,151.5a4.229,4.229,0,0,1-.062,1.488,10.825,10.825,0,0,1-.62.991H178.2l-.558.248a4.132,4.132,0,0,1,.062,1.054c-.062.372-1.425,1.116-1.425,1.116s-1.116-.062-1.116.682a2.665,2.665,0,0,0,.434,1.363l1.859,1.859,1.984,1.178,1.859.062,1.612-.806,2.355-1.177a4.369,4.369,0,0,0,3.348-.558c1.363-1.053.744-1.3,1.363-1.053s2.417.867,2.417.867a9.952,9.952,0,0,0,2.294-.062,17.96,17.96,0,0,0,2.231-1.3l1.674-.62,2.914,1.178,2.6.31,2.6.31,3.657-.124a2.07,2.07,0,0,0,1.116-.372c.5-.371,1.673-1.116,1.673-1.116l3.223-.557,2.108-.062,1.488,1.3a8.276,8.276,0,0,1,1.24.992c.31.372.93,1.054.93,1.054s1.177.991,1.488,1.24a12.609,12.609,0,0,0,1.674.805l2.665.124,2.108-.434,1.859-1.116.653-.763-.142-.261h-.418l-13.017-15.3-4.044.79-2.65-1.3-2.6-1.394-2.092-.7-3.812.7-2.092,1.441-1.209.557-1.581-1.116-4.184.14-3.394.371-1.209-.976-2.185.278-1.348.326-2.4.2v.508Z" transform="translate(-50.77 -40.997)" fill="none" stroke="#5d7884" stroke-linecap="round" stroke-linejoin="round" stroke-width="1"/>
        <path id="Trazado_1057254" data-name="Trazado 1057254" d="M234.257,168.916a6.165,6.165,0,0,1-.5,1.674,17.152,17.152,0,0,1-2.728,1.983l-.682,1.488-1.8,1.116-1.984.62-1.116.186-2.479.371-1.612,1.24-1.55,1.55-.991.992-.186,1.736s-2.231,1.3-2.417,1.363-2.232.868-2.232.868l-.434,1.426-2.17,3.285v38.68l2.108.868s1.24-.062,1.426-.062,2.045.5,2.045.5l1.983.31,1.612-.744,2.17.248,1.611-.744a7.488,7.488,0,0,1,1.55-1.3,10.143,10.143,0,0,0,1.364-.744l-.124-1.983-.434-1.488,2.108-.992,1.55-1.921-.31-1.116.186-1.177,2.542-.248.806.124,1.363-.93.372-.682,1.363-1.24a1.573,1.573,0,0,0,.744.248c.371,0,2.293-.062,2.293-.062s.063.682.248-.62l.186-1.3s-.434-.31.248-.5,1.86-.5,1.86-.5l1.983.31,1.488-.434,1.983,1.177,1.8.558s.371-.186,1.239-.558,1.922-.744,1.922-.744l1.3-.682a3.363,3.363,0,0,1,2.108-.124,4.589,4.589,0,0,0,2.231,0l1.178-.557s.434-.992.868-1.178,1.922-.805,1.922-.805l.93-.93a6.089,6.089,0,0,0,.93-.682,13.2,13.2,0,0,1,3.162-.806,13.79,13.79,0,0,1,2.231.434,8.52,8.52,0,0,0,1.116.31,13.045,13.045,0,0,1,1.364.62c.557.31.124.682.868.371s.93-.31,1.239-.868.186-.557.744-.93c.121-.081.313-.2.53-.34l-.452-2.093-1.627-1.3.325-2.743-1.069-3.115a8.437,8.437,0,0,1-.93-1.348c0-.186.79-2.789.79-2.789l-.232-3.394a17.605,17.605,0,0,1,.511-2.557,7.062,7.062,0,0,0,.232-1.767l-.7-2.7.837-1.348,3.534-3.115-.047-3.3.558-3.394,2.138-1.441.511-2.65-.744-1.209.186-1.906s-3.348-1.441-3.766-1.534-4.509-.139-4.509-.139l-2.092,2.045-2.371-.7-1.534.6-1.674.7-2.7-.465-3.672,1.442-.883.232-1.86-1.255s-2.789-.512-3.208-.512a11.7,11.7,0,0,0-1.906.512l-1.953-.14L244.3,166.39l-.79-.139-.416-.763-.653.763-1.86,1.116-2.107.434-2.666-.124s-.277-.114-.606-.259l-.261.321Z" transform="translate(-61.269 -46.88)" fill="none" stroke="#5d7884" stroke-linecap="round" stroke-linejoin="round" stroke-width="1"/>
        <path id="Trazado_1057255" data-name="Trazado 1057255" d="M293.085,273.729c-.047-.325-1.674-4.7-1.674-4.7l-3.533-6.881.325-1.766-.837-1.07-.837-2.138.233-2-4.509-4.7L279.7,248.95l-.883-2.51-2.371-.6-1.813-.139.558-.976,8.926-8.554.279-1.395-1.07-1.255-.976-2.278c-.279-.651-1.535-3.44-1.535-3.44l-2.045.232-.6-1.209-.7-2-.292-1.348c-.216.137-.408.26-.53.34-.557.372-.434.372-.744.93s-.5.557-1.24.868-.31-.062-.868-.372a13.235,13.235,0,0,0-1.364-.62,8.485,8.485,0,0,1-1.116-.31,13.79,13.79,0,0,0-2.231-.434,13.182,13.182,0,0,0-3.161.805,6.141,6.141,0,0,1-.93.682l-.93.93s-1.488.62-1.922.806-.868,1.177-.868,1.177l-1.177.558a4.6,4.6,0,0,1-2.232,0,3.357,3.357,0,0,0-2.107.124l-1.3.682s-1.054.372-1.922.744-1.24.557-1.24.557l-1.8-.557-1.984-1.178-1.487.434-1.984-.31s-1.177.31-1.859.5-.248.5-.248.5l-.186,1.3c-.186,1.3-.248.619-.248.619s-1.922.063-2.294.063a1.569,1.569,0,0,1-.744-.248l-1.364,1.239-.371.682-1.364.93-.805-.124-2.542.248-.186,1.178.31,1.116-1.55,1.922-2.108.991.434,1.488.124,1.983a10.167,10.167,0,0,1-1.363.744,7.491,7.491,0,0,0-1.55,1.3l-1.612.744-.043,0-.468.873-6.462,3.3.6.79,1.442-.186.93,1.814,2.185,2.045.139,1.441,2.836.837,2.138-.093,2.185-.651.93-.464,2.139-.093,1.023,1.023-.14.93-1.58.7-.326,1.72-.185,1.581-1.581.7a3.325,3.325,0,0,0-.047.744,5.63,5.63,0,0,0,.7.744,6.647,6.647,0,0,1,1.535,1.256,6.237,6.237,0,0,0,1.906,1.255l1.069-.139.837-.093,1.254,1.05,2.233-.4,2.51-1.673,4.091,1.581H268.4l-1.069-1.3-.93-1.209,2.138-2.789,2.139,1.72.046,2.231,3.208,1.72.6-1.488-.6-1.441,1.814-1.348h1.348l4.882-4.231,1.813.511.093,1.906.372,2.51,2.138,3.022,1.069,1.3.557,2.138a16.132,16.132,0,0,1,.79,2.185c0,.325-.139,2.65-.139,2.836s.046,1.628.046,1.628a7.331,7.331,0,0,0,1.256.837c.186,0,1.813-.232,2-.279a9.96,9.96,0,0,0,1.069-1.674S293.131,274.055,293.085,273.729Z" transform="translate(-63.053 -64.773)" fill="none" stroke="#5d7884" stroke-linecap="round" stroke-linejoin="round" stroke-width="1"/>
        <path id="Trazado_1057256" data-name="Trazado 1057256" d="M215.875,351.6l-1.3-.62L213.52,352.1h-.372l-.682-1.488a12.035,12.035,0,0,0-.991-1.3c-.372-.371-.806-.124-1.116-.124s-.5.744-.5.744l-.682.372-.868-.868v-1.116l-.558-1.363h-.93l-.682.185-.93.124v1.55a3.025,3.025,0,0,1-.558,1.116l-.806-.062s-1.363-.806-1.673-.992a1.894,1.894,0,0,1-.93-1.363c0-.62.558,0,.558,0l.248-1.983-.806-1.612.744-1.3s-.062-.5-.124-1.425-.186-.186-.248-.806.186-.434.186-.434l1.425-.806a4.061,4.061,0,0,0,.558-.93c0-.186-1.24-.372-1.24-.372l-1.8.744-1.3.186-1.24-.558-.124-.682c-.124-.682-.806-.124-.806-.124l-1.116-.805-.744-.93s-1.859-.5-2.479-.619-.5.5-.5.5l-.744.744h-.682l-.806-.5-.185-1.488-.806-1.116.062-.744-.062-.991-.5-.992-1.673-1.054-.31-.371-1.3-.744-.744-.124-.744.557-2.417-1.425-.557.868-2.046.434-1.8.93-3.037,2.294-.558,1.363-.682,1.55-2.045-.62-2.852.31-.371,1.611-.372.372-1.674,1.24-.93,2.107-.682,1.3H162.5l-1.177-1.736-3.162,3.162-1.983-1.86-1.55-.868-1.674.93-1.426.31-.5-.682-.93-1.178-1.116.063-.248,1.364-.5.743a7.825,7.825,0,0,1-1.983-.124,3.647,3.647,0,0,1-.744-.868l-2.108-.868a3.437,3.437,0,0,0-1.55-.31c-.558.124-1.426.434-1.736.5s-.992-.5-.992-.5l-.062-.557-.682-.62a14.791,14.791,0,0,1-1.426-1.24.856.856,0,0,0-.868-.186l-1.24,1.054-.991-.186-10.284,2.961,1.172,1.936.434,2.479.744,2.728.31,1.116,5.083,2.6,3.6,1.55,1.859,2.232,1.054-.124,2.48,2.108.371,2.913-.991,2.232,2.727,1.3,2.79,1.054,1.054-.558,1.363,1.983.186,4.277a1.252,1.252,0,0,0-.805.682c-.249.558-.558,1.24-.558,1.24L148,374.6l3.409.992s3.471.31,3.657.31,4.649-.062,4.649-.062l4.649.62,3.843-1.054,4.649-2.913,1.736-1.922,3.719,2.108,1.24,1.239,4.4.93a1.4,1.4,0,0,1,.31-.185c.248-.124,1.859-1.364,1.859-1.364l2.294-1.3,3.843,1.426s2.727,2.045,2.976,2.17,6.57,1.983,6.57,1.983L204.842,379l.806,1.674L194.18,399.764l2.417,1.55,1.86.5,1.3-.805h2.17l1.922,1.425,4.339,5.083,9.05-50.272.775-5.765v-.71l-1.209,1.02Z" transform="translate(-35.82 -94.867)" fill="none" stroke="#5d7884" stroke-linecap="round" stroke-linejoin="round" stroke-width="1"/>
        <path id="Trazado_1057257" data-name="Trazado 1057257" d="M228.509,303.178l2.51-1.395,3.069-1.3,1.488,1.86,3.44.557,1.3-.557-.093-1.674-1.116-4.463-.557-2.138-2.232-.372-1.859.837-2.232-.279-2.6-1.116h-1.488V282.629l.371-.066-1.255-1.05-.837.093-1.07.14a6.229,6.229,0,0,1-1.906-1.256,6.644,6.644,0,0,0-1.534-1.255,5.6,5.6,0,0,1-.7-.744,3.288,3.288,0,0,1,.046-.744l1.581-.7.156-1.317-.93-.543-1.673.682-1.984,1.054-2.417.806-2.976,1.116a4.828,4.828,0,0,1-.805-.062c-.248-.062-2.542-.5-2.542-.5a7.639,7.639,0,0,0-2.542.186,28.932,28.932,0,0,0-1.859,2.417l-2.789,1.054-1.8-.434-1.488-.682-.31,1.488-.93,1.86-.868,1.859a6.241,6.241,0,0,0-.682,2.046c0,.744.062,2.108.062,2.108s.124,1.859.124,2.045-.062.806-.062.806l-1.983.682-1.178.806-.868,1.177-.5.124-.248.062-.558.557-.124,1.178-4.649,4.153,1.488,1.922,1.8,1.488.062,1.859a13.127,13.127,0,0,1,1.611,1.612,14.6,14.6,0,0,0,2.356,1.363,15.684,15.684,0,0,0,2.728,1.178c.371,0,3.161.124,3.161.124l.354,1,2.187,1.29.744-.558.744.124,1.3.744.31.372,1.673,1.054.5.991.063.992-.062.744.806,1.116.186,1.487.806.5h.682l.744-.744s-.124-.62.5-.5,2.479.62,2.479.62l.744.93,1.116.806s.682-.558.806.124l.124.682,1.24.557,1.3-.186,1.8-.743s1.24.186,1.24.372a4.076,4.076,0,0,1-.558.93l-1.425.806s-.248-.186-.186.434.186-.124.248.805.124,1.426.124,1.426l-.744,1.3.806,1.612-.248,1.983s-.558-.62-.558,0a1.9,1.9,0,0,0,.93,1.364c.31.186,1.673.992,1.673.992l.806.062a3.032,3.032,0,0,0,.557-1.116v-1.55l.93-.124.682-.186h.93l.558,1.363v1.116l.868.868.682-.372s.186-.744.5-.744.744-.248,1.116.124a11.976,11.976,0,0,1,.992,1.3l.682,1.488h.372l1.054-1.116,1.3.62.93.185,1.209-1.02v-.591l-1.395-2.883-1.674-2.976-.744-2.138.465-2.045-1.767-2.046-3.812-2.324-2.231-1.953-1.116-1.952v-13.11Z" transform="translate(-54.033 -79.763)" fill="none" stroke="#5d7884" stroke-linecap="round" stroke-linejoin="round" stroke-width="1"/>
        <path id="Trazado_1057258" data-name="Trazado 1057258" d="M36.081,299.061l-1.24-1.363s-.186-.744,0-.93a19.186,19.186,0,0,0,.992-1.673l1.983-1.86s.186-.806.372-1.488-.062-.868-.062-.868l-.93-2.356,1.178-1.425,2.665-1.24.93-.744-.5-1.177-.31-1.177.371-1.984.62-.619-.186-1.054-1.55-1.054-.682-.806-2.294.124a15.834,15.834,0,0,1-1.363.991,10.457,10.457,0,0,1-1.488-.062l-1.55-.248-.434-.992.5-.806.806-1.363.93-1.054.372-1.239-.124-.682-.868-.371-.744-1.24.248-.558V269l-1.8-1.116-2.356.557-2.17.063-1.983-1.116L24.3,266.146l-1.3-2.6-.435-1.984-1.921-.991-.262-1.211-.606.1-3.657-.5-1.3.558-3.348,1.426-.744.805L8.682,265.4l-.991,3.037.371,1.178.558,1.8.93.372-.434,1.054-.062.682.62,1.116-.248.868-.806.558S7.5,276,7.195,276H6.389l-1.3-.682-1.054-.248s-1.612,1.054-1.8,1.177S.5,278.977.5,278.977l.5.992a9.7,9.7,0,0,0,1.116,1.3c.186.062,1.674,1.177,1.674,1.177l1.3,2.108,6.013,3.409,3.223,3.285,3.782,2.6,4.153,1.3,2.231-.682h1.8v.31s-.31,1.364-.31,1.55,1.736,1.054,1.736,1.054l1.3,1.24.682,2.79.744,2.356h4.525l1.674-.93.327.327-.141-2.744Z" transform="translate(-0.145 -75.057)" fill="none" stroke="#5d7884" stroke-linecap="round" stroke-linejoin="round" stroke-width="1"/>
        <path id="Trazado_1057259" data-name="Trazado 1057259" d="M103.619,323.289l-1.953.558-3.254-.558-1.581-1.581.186-1.952-.093-1.767-3.347-1.767-.651-.279-2.231-.93-.558-1.766-.651-1.209-.465-.93-1.209.093h-.93l-.465-1.859v-1.581l-.372-1.209-1.673-.186-2.789-2.139-2.7-.464-1.488.093-2.325.186-1.023-.837-1.3-2.231-1.674-.651-1.3.744-2.883.093-3.441-.186h-.557s-1.953-1.488-1.953-1.86a13.33,13.33,0,0,1,.465-1.859,6.813,6.813,0,0,0,.093-2.046c-.186-.372-.837-2.138-.837-2.138l-1.023-.465-1.209,1.023-2.479,1.24-.93.744-2.665,1.239-1.178,1.426.93,2.356s.248.186.062.868-.372,1.488-.372,1.488l-1.983,1.859a19.335,19.335,0,0,1-.991,1.674c-.186.186,0,.93,0,.93l1.239,1.364.744,1.363.141,2.744,1.1,1.1L56.82,315.2l4.649.062,3.223.372.558-2.108.991-1.425,2.046.062,2.417.868,1.3,1.116,1.054,1.674,1.859,1.922,2.666,1.425,3.409.062,3.843,3.037h.992l.682-1.426,2.231-.062,2.046,2.045,1.116.93,1.55-.62,2.17.186,1.054,2.045,2.294,2.479,1.983.992.682,1.054.254.42,10.175-2.93-6.122-3.719Z" transform="translate(-14.127 -84.811)" fill="none" stroke="#5d7884" stroke-linecap="round" stroke-linejoin="round" stroke-width="1"/>
        <path id="Trazado_1057260" data-name="Trazado 1057260" d="M91.009,76.762l1.55.744,1.922.991.62,1.3.868,1.674,2.417.557s.31,1.364.31,1.55a8.644,8.644,0,0,1-.62,1.3l-.558.124H95.1a5.312,5.312,0,0,0-.806.186l.62,1.3.806,1.054.434,1.116v.868a19.332,19.332,0,0,1,.557,2.231,2.44,2.44,0,0,0,.249.868l.619.063,1.55.434-.186.557c-.062.186.31.682.31.682l1.116-.434,1.364-1.177,1.425-.186,1.3.558,1.55,1.116a12.926,12.926,0,0,1,.434,1.983c.062.744.5.62.5.62l2.045-1.054,1.054-1.054a2.344,2.344,0,0,1,.434-.682c.186-.124.31-.744.31-.744s.063-1.054.063-1.24v-.868l-.682-2.046-.249-.868.558-.557.186-.868-.124-1.612-.93-1.425-1.983-1.054-1.488-.744-.992-1.488-.248-1.053-.744-.93.062-3.161-.248-.5-.558-1.053L102.6,72.8l-2.17-.62-1.426-1.363-1.3-.31H95.782l.434-.806-.062-1.488-.248-2.045-.31-.434-1.363-.31-.62-.744-.5-2.479-.372-.682-.726.138-.281,1.072-.976,4.416-.418,1.023.93,1.581a6.159,6.159,0,0,1,.6,1.162,13.535,13.535,0,0,1-.046,2.046l-.883,1.674-1.239.219.495,1.176Z" transform="translate(-26.002 -17.829)" fill="none" stroke="#5d7884" stroke-linecap="round" stroke-linejoin="round" stroke-width="1"/>
        <path id="Trazado_1057261" data-name="Trazado 1057261" d="M73.5,95.258l.744,2.324L73.13,98.791l-1.395,1.674-1.209,3.255-.093,2.045-1.023,1.581-.464,3.44-.93,1.86a10.538,10.538,0,0,0,.837,3.069,10.78,10.78,0,0,0,1.766,2.417,40.727,40.727,0,0,0,4,1.023,30.045,30.045,0,0,0,4.091-.093c.558-.186,3.812-1.209,3.812-1.209a3.25,3.25,0,0,1,1.767-1.395c1.023-.186,2.789-1.952,2.789-1.952l.186-2.325.93-2.789,2.789-2.231,1.488-1.767,1.673.186,3.069.372,1.953-1.488.65-.837.483-1.737a.905.905,0,0,1-.142-.464,12.926,12.926,0,0,0-.434-1.983l-1.55-1.116-1.3-.558-1.426.186-1.363,1.177-1.116.434s-.372-.5-.31-.682l.185-.557-1.55-.434-.62-.062a2.445,2.445,0,0,1-.248-.868,19.332,19.332,0,0,0-.557-2.231v-.868l-.434-1.116-.806-1.054-.62-1.3a5.312,5.312,0,0,1,.806-.186H91.23l.558-.124a8.648,8.648,0,0,0,.619-1.3c0-.186-.31-1.55-.31-1.55l-2.417-.557L88.813,85l-.62-1.3L86.271,82.7l-1.55-.744-.806-.744-.495-1.177-1.132.2-2.51-.79-2.417,2-2.046,1.534-.232,1.86L73.363,88l-2.65,2.325-.812.265,1.463,4.2Z" transform="translate(-19.714 -23.029)" fill="none" stroke="#5d7884" stroke-linecap="round" stroke-linejoin="round" stroke-width="1"/>
        <path id="Trazado_1057262" data-name="Trazado 1057262" d="M40.326,184.98s2.108.062,2.17-.31a2.386,2.386,0,0,1,.186-.62l2.542.371.62.868,1.8.992.682-.434,1.8.992,1.426,1.3.992.371,1.921-.371,1.984-1.55,1.736-.619.31-1.24-.682-.434-1.054-.93v-1.55l-1.177-1.3,1.859-.5,2.6-6.261,1.8-.62L63.2,172.4l.744-1.922,1.364-.372-.372-2.356-.868-1.611-1.116-1.612-.372-2.045.682-.992,1.426-.682.434-.991s.186-1.488.186-1.8a9.448,9.448,0,0,0-.186-1.177l-.868-1.3.31-1.178.062-2.913-.31-.558-1.488-.744-.434-1.054.062-1.054-.31-.682-.372-.248-2.108.31-2.293.186-1.054.5H54.087l-.806-.557-.5-3.6L52.1,142.4l-1.116-.992-.31-1.736-1.3-2.045-.682-.992-.434-.805.557-.558,2.48-.682.744-.5v-.806l-.682-.93v-.31l1.983-.248,1.488-.062.992.62a2.583,2.583,0,0,0,.991,0c.248-.124,0-.682,0-.682l.806-1.116-.682-2.479-.248-1.363-1.178-.868-1.239.31-1.24-1.488-.744-1.674-2.417-2.479-2.17-.868-1.425-2.108-.806-.682.806-.682.991-.682.062-1.364,1.488-2.045v-.868l.372-2.231-1.736-1.38-1.023-.418s-1.116-1.72-1.163-1.859-1.906-1.674-1.906-1.674l-.93-2L41.411,100.4l-1.581,3.069.744,1.55,1.55,2.417a8.1,8.1,0,0,0,.31,2.294c.248.186,1.611,1.55,1.611,1.55l.682,2.046-1.8.744-1.55.806.31,1.55-.805,1.674-2.418,1.736-.682,2.045-.991.186s-.868-.372-.744-1.86a6.435,6.435,0,0,0-.557-2.913l-1.736-.372-.372.93.31,1.425s.434,1.054.558,1.363a5.354,5.354,0,0,1,.186,1.054l-.434.62-1.364.62-.557.744-.682,3.409,3.347,2.851.744,2.789-.744,1.426,1.426.806L36.916,137l.62,1.488s1.983-.31,2.17-.31a5.291,5.291,0,0,1,1.736.991c0,.186-.5,3.223-.5,3.223s-.186,1.363-.31,2.356-2.541,1.24-2.541,1.24l.31,1.983,1.177,1.674,2.232,1.425.992,1.736.371,2.046-.5,1.859L40.7,157.768l-2.232-.124-.93.991.372,1.55,1.363.5.744,1.054.31,3.409v3.6s.434,3.409.5,3.595.992,2.17.992,2.17l-.186,5.641-1.24,1.425-2.107,1.24-.31,2.108.714,1.976c.665-.76,1.361-1.569,1.393-1.666A.422.422,0,0,1,40.326,184.98Z" transform="translate(-9.101 -29.1)" fill="none" stroke="#5d7884" stroke-linecap="round" stroke-linejoin="round" stroke-width="1"/>
        <path id="Trazado_1057263" data-name="Trazado 1057263" d="M43.361,230.9l.682,1.3,1.674.434H46.4l.93.93,2.046.62,1.488-.062,1.55.248,1.24.558,1.177-.186.992-.992,2.417-.062a1.721,1.721,0,0,0,.805-.186c.249-.186.806-.62.806-.62l.992-2.293-.124-1.3,1.488-.062.93.558,1.674.806,2.046.805h.619l.992-.31s-.062-.992-.062-1.3-.248-1.24-.248-1.55a12.563,12.563,0,0,1,.5-1.736l.557-1.054a8.755,8.755,0,0,1,.558-1.674l1.983-1.983.434-2.294,1.674-2.79-.31-.991a5.994,5.994,0,0,1-.62-1.116c0-.186.62-2.232.62-2.232l.185-2.417-.5-1.023-1.116-.341a9.12,9.12,0,0,1,.155-1.147c.062-.093.279-.775.279-.775l-.186-1.209.31-.837,1.983.278.217-.217.651-1.3-1.395-.279-1.116.062-.434-.775-1.24.217-.5-.527.527-.744-.063-.775-1.239-.217a10.614,10.614,0,0,1-.744-.961,14.134,14.134,0,0,0-1.083-1.084l.029.185-1.363.372-.744,1.922-1.364.744-1.8.62-2.6,6.261-1.86.5,1.178,1.3v1.55l1.053.93.682.434-.31,1.24-1.736.619-1.983,1.55-1.922.372-.991-.372-1.426-1.3-1.8-.992-.682.434-1.8-.992-.62-.868-2.541-.371a2.386,2.386,0,0,0-.186.619c-.062.372-2.17.31-2.17.31a.424.424,0,0,0-.249.248c-.032.1-.728.906-1.393,1.666l.339.937.682.682,1.3-.372.992-.682.619-.805,1.922.619-.434,1.24-1.054,1.488,1.3.744,1.922-.5-.124,1.488-1.24,2.542a15.129,15.129,0,0,1-.992,2.108c-.248.248-2.665,2.17-2.851,2.479-.119.2-.561,1.069-.869,1.679l.063.057Z" transform="translate(-12.074 -57.475)" fill="none" stroke="#5d7884" stroke-linecap="round" stroke-linejoin="round" stroke-width="1"/>
        <path id="Trazado_1057264" data-name="Trazado 1057264" d="M63.164,283.5a7.128,7.128,0,0,0-1.116-.991l-1.488-1.426.31-2.914,1.178-1.55.248-.93-.992-.372H59.2c-.186,0-1.984-.682-1.984-.682l.186-1.55.434-1.178-.557-1.736-1.612-.557-1.054-.5s.124-1.921.062-2.107a14.367,14.367,0,0,1-.248-1.612c0-.186.868-.805.868-.805l1.3.062,2.045.557,1.116-1.3a16,16,0,0,0-.62-1.487.51.51,0,0,1,0-.558l.806-1.426.93-1.3,1.612.868,1.674-1.239,1.425-1.3h.992l1.363,1.487.62.249.93-.186-.124-1.116s-.558-1.8-.558-1.984.5-.557.5-.557l.806-1.178.248-.93L68.8,252.2l-.248-1.054s-2.356-1.8-2.542-1.859a13.136,13.136,0,0,1-1.3-1.488l-.682-1.736.248-.93-.263-1.351-.356.112h-.62l-2.045-.806-1.674-.806-.93-.557-1.488.062.124,1.3-.992,2.294s-.558.434-.806.62a1.727,1.727,0,0,1-.805.185l-2.418.062-.991.991-1.178.186-1.239-.557-1.55-.249-1.487.063-2.046-.62-.93-.93H41.9l-1.674-.435-.682-1.3-.124-1.921-.063-.057c-.176.349-.308.614-.308.614l-1.922,1.8-2.666,4.277-.5,3.223-2.542,2.48-2.927.462.262,1.211,1.922.992.434,1.983,1.3,2.6,1.116,1.24,1.983,1.116,2.17-.062,2.356-.558,1.8,1.116v.744l-.248.557.744,1.24.868.372.124.682-.372,1.24-.93,1.054-.805,1.363-.5.806.434.991,1.55.248a10.554,10.554,0,0,0,1.488.063,16.013,16.013,0,0,0,1.364-.992l2.293-.124.682.806,1.55,1.054.185,1.054-.62.62-.371,1.983.31,1.177.5,1.178,2.479-1.24,1.209-1.023,1.023.465s.651,1.766.837,2.138a6.831,6.831,0,0,1-.093,2.045,13.317,13.317,0,0,0-.465,1.86c0,.372,1.953,1.86,1.953,1.86h.557l3.441.186,2.883-.093.43-.246-.183-.869S63.288,283.751,63.164,283.5Z" transform="translate(-8.26 -69.975)" fill="none" stroke="#5d7884" stroke-linecap="round" stroke-linejoin="round" stroke-width="1"/>
        <path id="Trazado_1057265" data-name="Trazado 1057265" d="M75.419,272.466l1.674-.279,1.488-2.045,1.766-2.6,2.6-2.046s2.139-1.673,2.139-1.952a18.829,18.829,0,0,1,.744-2.883,36.649,36.649,0,0,1,2.7-2.7l1.333-1.829.557-1.736,1.86-.682,1.674-.992.744-2.231s-.124-1.922-.124-2.108a9.038,9.038,0,0,1,1.239-1.363l.93-.868.619-1.922s1.922-1.86,2.17-1.983.806-.558,1.364-.868a4.691,4.691,0,0,0,1.177-1.488s.62-2.417.806-2.851,1.054-2.789,1.054-2.789l.744-1.3.434-2.79-.744-.62-.744.372L103,231.09l-1.364,1.674-1.348.325-.14.744.233.464-.651.883-.093.651a1.124,1.124,0,0,1,.047.325,2.919,2.919,0,0,1-.14.6l-1.255,1.255-2,1.721-2-.233a1.19,1.19,0,0,1-.279-.557,4.026,4.026,0,0,1,.418-.976l.7-.744s-.7-.6-.883-.6-.976.092-.976.092-1.442-.65-1.767-.046-.511.93-.511.93l-.93.558-.557-.372-.7-.79-1.3.279-.7-.232-.6.651-.79,1.581-.744.511-.093,1.116-2.6,2.557-1.767,1.023-2.138.837-1.814-.557-1.063-.665.1.262a13.135,13.135,0,0,0,1.3,1.487c.186.062,2.542,1.86,2.542,1.86l.248,1.054,1.55,1.054-.248.93-.805,1.178s-.5.371-.5.557.558,1.983.558,1.983l.124,1.116-.93.186-.62-.248-1.363-1.488h-.991l-1.426,1.3-1.674,1.24-1.611-.868-.93,1.3-.805,1.426a.509.509,0,0,0,0,.557c.185.31.62,1.488.62,1.488l-1.116,1.3-2.045-.558-1.3-.062s-.868.62-.868.806a14.491,14.491,0,0,0,.248,1.611c.062.186-.062,2.108-.062,2.108l1.054.5,1.611.558.558,1.736-.434,1.178-.186,1.55s1.8.682,1.983.682h2.108l.991.372-.248.93,1.116-.713Z" transform="translate(-18.841 -66.531)" fill="none" stroke="#5d7884" stroke-linecap="round" stroke-linejoin="round" stroke-width="1"/>
        <path id="Trazado_1057266" data-name="Trazado 1057266" d="M149.332,293.384c-.124-.186-1.24-1.922-1.24-1.922a14.773,14.773,0,0,0-.5-1.611c-.124-.186-1.674-1.426-1.674-1.426l-1.24-1.922-2.231-.806-1.674-.062-.805-1.3-2.294.93.124,2.356a5.133,5.133,0,0,1-1.488,1.612,19.642,19.642,0,0,1-2.417.93c-.249.062-1.55-.806-1.55-.806l-2.356-2.293-2.231-1.8-.62-1.983-1.116-.991-.682-1.674-1.611-.992-.62-3.037-.558-.186-3.657,1.488-2.17-.248-.93-.93-1.364-.93s-1.054-.992-1.24-1.24a2.74,2.74,0,0,0-.93-.5l-1.488-.124-3.905-1.736-1.612-6.261-.868-1.426-.124-1.859.062-1.116-.372-1.178.372-1.922.992-.805.31-1.426V254.58l-1.674-1.054-1.116-1.116-1.736-.5-1.5-.57-.364,1.128-.93.868a9.04,9.04,0,0,0-1.24,1.364c0,.186.124,2.108.124,2.108l-.744,2.231-1.674.992-1.86.682-.557,1.736-1.333,1.829a36.646,36.646,0,0,0-2.7,2.7,18.835,18.835,0,0,0-.744,2.883c0,.278-2.138,1.952-2.138,1.952l-2.6,2.046-1.767,2.6L79.6,278.507l-1.674.279H76.249l-1.116.713-1.178,1.55-.31,2.913,1.488,1.426a7.1,7.1,0,0,1,1.116.992c.124.248.992,1.611.992,1.611l.183.869.871-.5,1.674.651,1.3,2.232,1.023.837,2.325-.186,1.488-.093,2.7.465,2.789,2.138,1.673.186.372,1.209v1.581l.465,1.86h.93l1.209-.093.465.93.65,1.209.558,1.767,2.231.93.651.279,3.347,1.766.093,1.767-.186,1.953,1.581,1.58,3.254.558,1.953-.558,2.324.372,6.122,3.72.109-.031.991.186,1.24-1.054a.856.856,0,0,1,.868.186,14.874,14.874,0,0,0,1.425,1.239l.682.62.062.558s.682.557.991.5,1.178-.372,1.736-.5a3.431,3.431,0,0,1,1.55.31l2.107.868a3.638,3.638,0,0,0,.744.868,7.831,7.831,0,0,0,1.983.124l.5-.744.249-1.363,1.116-.062.93,1.177.5.682,1.426-.31,1.674-.93,1.55.868,1.983,1.859,3.162-3.161,1.177,1.736h1.426l.682-1.3.93-2.108,1.674-1.24.371-.372.372-1.611,2.851-.31,2.046.619.682-1.55.558-1.363,3.037-2.294,1.8-.93,2.045-.434.558-.868.23.136-.354-1s-2.789-.124-3.161-.124a15.686,15.686,0,0,1-2.728-1.177,14.656,14.656,0,0,1-2.356-1.363,13.121,13.121,0,0,0-1.611-1.612l-.062-1.859-1.8-1.488-1.488-1.922.1-.086-1.956-.844A14.553,14.553,0,0,1,149.332,293.384Z" transform="translate(-21.346 -72.852)" fill="none" stroke="#5d7884" stroke-linecap="round" stroke-linejoin="round" stroke-width="1"/>
        <path id="Trazado_1057267" data-name="Trazado 1057267" d="M218.84,167.091c-.31-.248-1.488-1.24-1.488-1.24s-.62-.682-.93-1.054a8.308,8.308,0,0,0-1.24-.991l-1.488-1.3-2.108.062-3.223.558s-1.177.744-1.673,1.116a2.073,2.073,0,0,1-1.116.371l-3.657.124-2.6-.31-2.6-.31-2.914-1.177-1.674.62a17.958,17.958,0,0,1-2.231,1.3,9.953,9.953,0,0,1-2.294.062s-1.8-.62-2.417-.868,0,0-1.363,1.054a4.368,4.368,0,0,1-3.348.557l-2.355,1.178-1.612.805-1.859-.062-1.984-1.177-.979-.979-.694.391a4.691,4.691,0,0,0,.744,1.209c.279.185.465,1.209.465,1.209l-.372,1.3-.465,1.116-.93.372s-.372.557-.093.65a10.668,10.668,0,0,0,1.3.186l1.3.465,1.116,1.859.279.465-1.488,1.859.372,1.581-.558.279-.93-.558-.744-.837-1.023.744-1.023,1.859-.837.93-1.116.464-.837,1.395-.557.837-.744-1.3-1.395-1.394s-.371-.465-.557,0A14.083,14.083,0,0,1,162.06,182l-1.116,1.953-.186,1.395.651.93-.744,1.674-1.116-.093-.557,2.138-.372,1.953,1.209,3.626,1.767,1.767,2.417,3.347,2.324.651s.279-.558,1.488-.744,2.6-.371,2.6-.371l1.953-1.209,1.395-1.116,3.626.093.557.93,2.232-.279,1.209-1.209.651-1.395,1.86-.837,2.138-.465,2.976-1.023,2.138-1.86,2.325-1.116,2.6-.785v-.92l2.17-3.285.434-1.425s2.045-.806,2.231-.868,2.417-1.364,2.417-1.364l.186-1.736.992-.991,1.55-1.55,1.611-1.239,2.48-.372,1.116-.186,1.983-.62,1.8-1.116.682-1.488a17.117,17.117,0,0,0,2.727-1.983,6.131,6.131,0,0,0,.5-1.674l.682-1.177.261-.322A6.769,6.769,0,0,1,218.84,167.091Z" transform="translate(-45.975 -47.101)" fill="none" stroke="#5d7884" stroke-linecap="round" stroke-linejoin="round" stroke-width="1"/>
        <path id="Trazado_1057268" data-name="Trazado 1057268" d="M211.815,264.876l-2.138.093-.93.465-2.184.65-2.139.093-2.836-.837-.14-1.442-2.185-2.045-.93-1.813-1.441.186-.6-.79,6.462-3.3.469-.873-2.127-.244-1.611.744-1.983-.31s-1.86-.5-2.046-.5-1.425.062-1.425.062l-2.108-.868v-.366L186.9,254l-1.3.186s-2.976-.279-3.812-.279l-2.6,1.023-4.556-.651-2.417-.558-1.767.93-1.395-.372-1.952,1.86-1.953,2.138-3.161,1.116L159.839,258a11.2,11.2,0,0,0-1.581,1.488,7.52,7.52,0,0,1-1.395,1.209v1.488l-1.209.372-4,1.209-4,.372-3.44-.465V280.33l1.581.973.682,1.674,1.116.991.62,1.983,2.231,1.8,2.356,2.293s1.3.868,1.55.806a19.487,19.487,0,0,0,2.417-.93,5.124,5.124,0,0,0,1.488-1.612l-.124-2.356,2.293-.93.806,1.3,1.674.062,2.231.805,1.24,1.922s1.55,1.24,1.674,1.426a14.823,14.823,0,0,1,.5,1.611s1.116,1.736,1.24,1.922a14.533,14.533,0,0,0,2.541.558l1.956.844,4.553-4.067.124-1.178.558-.557.248-.062.5-.124.868-1.178,1.178-.805,1.983-.682s.062-.62.062-.806-.124-2.046-.124-2.046-.062-1.363-.062-2.107a6.241,6.241,0,0,1,.682-2.046l.868-1.859.93-1.86.31-1.488,1.488.682,1.8.434,2.789-1.054a28.973,28.973,0,0,1,1.86-2.417,7.639,7.639,0,0,1,2.542-.186s2.293.434,2.541.5a4.837,4.837,0,0,0,.806.062l2.976-1.116,2.417-.806,1.983-1.054,1.674-.682.93.543.031-.263.325-1.72,1.581-.7.139-.93Z" transform="translate(-41.801 -73.539)" fill="none" stroke="#5d7884" stroke-linecap="round" stroke-linejoin="round" stroke-width="1"/>
        <path id="Trazado_1057269" data-name="Trazado 1057269" d="M88.153,216.774s.279-1.441.372-1.767a4.558,4.558,0,0,1,.93-1.673,2.632,2.632,0,0,0,.883-1.907c0-.837-.093-1.859-.093-1.859l2.045-1.163s1.3-.557,1.349-1.023.418-2.371.418-2.371l-1.952.372-1.907.279-1.487-.325-.752-.017h.008l-.65,1.3-.217.217-1.983-.278-.31.837.186,1.209s-.217.682-.278.775a9,9,0,0,0-.156,1.147l1.116.341.5,1.023-.186,2.417s-.62,2.046-.62,2.232a5.994,5.994,0,0,0,.62,1.116l.111.354.9-.958Z" transform="translate(-24.509 -59.422)" fill="none" stroke="#5d7884" stroke-linecap="round" stroke-linejoin="round" stroke-width="1"/>
        <path id="Trazado_1057270" data-name="Trazado 1057270" d="M87.516,199.013l1.906-.279,1.787-.34-.067-1.984s-.65-.372-.79-.418a1.979,1.979,0,0,1-.557-.6,4.96,4.96,0,0,0-.721-.6l-4.137-.186-.279-.651-.209-1.185-.139-.372-.93.558-.3,1.046-.279.511-.395.186a3.419,3.419,0,0,1-.814-.511,1.939,1.939,0,0,1-.65-1.139,7.624,7.624,0,0,1-.023-1.023,1.209,1.209,0,0,1,.256-.557l1.023-.209.326-.837a8.272,8.272,0,0,0,.093-1.185c-.023-.4-.07-.814-.07-.814l.279-.418.558-.279.511.372.93.418.465-.023.535-.976-.07-.976-.557-.651-.721-.279-1.255.372-.512.488s-.418.047-.744.07.023-.163.023-.163l-.023-.86.163-1.324-.79-.047-1.185-.093s-.953-.186-1.023-.232a4.993,4.993,0,0,1-.279-.837v-.744l-.489-.163-.371.2c-.055.538-.141,1.221-.141,1.221l-.434.991-1.425.682-.682.992.371,2.045,1.116,1.612.868,1.611L78,193.59a14.275,14.275,0,0,1,1.083,1.084,10.625,10.625,0,0,0,.744.961l1.24.217.062.775-.527.744.5.527,1.24-.217.434.775,1.116-.062,1.386.278.752.017Z" transform="translate(-21.827 -52.772)" fill="none" stroke="#5d7884" stroke-linecap="round" stroke-linejoin="round" stroke-width="1"/>
        <path id="Trazado_1057271" data-name="Trazado 1057271" d="M157.568,146.972s.124.775.124.868-.186,1.054-.186,1.054l.155.62.341.5-.279.806-.31.4-.868.62-.124.589.5.62-.155.372-1.859.991h-.651l-.186-.682-.155-.62-1.611-1.023-.868.186-.093.5.5.558,1.085.961.124.589-.465,1.426-.093,1.8-3.316,3.533-.093.651L147.4,163.4l-1.519.155-.744-.527-1.116.217-.527.527-.558,1.457-1.425.62-.682.279-.62,1.58-.961-.744-.062-.992,1.27-1.518.527-.868-.248-1.023-1.519-1.581-1.3-.4-.155.961.186.775-.992.62-.248,1.3.186.651.31.837-.961,2.324-.805-.31-.589-.713h-.341l-1.518.4-.589.65-1.271-.093-1.363-.341-.744-.248-.62-.93-1.395-.279-.682-.992s-.558-.248-.651-.124a3.751,3.751,0,0,1-1.023.248l-.093-.682a3.865,3.865,0,0,0,.186-.62,7.727,7.727,0,0,0-.744-1.054l.124-.992-.372-.31-1.116.341-.775-.186-.775-1.084-1.116-1.24-.62-1.3-.806.62-.682,1.611-.124,1.333.682.806.063.837-.465.682.062.806-.682.589-.155.837.527,1.116,1.457-.062.4-.217,1.239.341,1.147.062.682-1.27.744.65.5.992.124.961-.5.713a5.31,5.31,0,0,1,.651.744c0,.093-.124,2.046-.124,2.046l1.395.278,1.8.527.589.992,1.3.713,1.084-.837.434-1.332.186-.682,2.7-1.487v1.084l-.341.868,1.581.372,1.457.372.465,1.457.434,1.054,1.177,1.054.186,1.27.124,1.333.5.589L138.6,181l-1.147.465.062,1.426.805.775,2.418.31.31,1.085.589,1.332,1.426.527.65.713,1.271.65,2.125-.689-.483-1.449L147,184.2l.557-2.139,1.116.093.744-1.674-.651-.93.186-1.395,1.116-1.952a14.114,14.114,0,0,0,.837-1.488c.186-.465.557,0,.557,0l1.395,1.395.744,1.3.557-.837.837-1.395,1.116-.464.837-.93,1.023-1.859,1.023-.744.744.837.93.557.558-.278-.372-1.581,1.488-1.86-.279-.464-1.116-1.86-1.3-.465a10.668,10.668,0,0,1-1.3-.186c-.279-.093.093-.65.093-.65l.93-.372.465-1.116.372-1.3s-.186-1.023-.465-1.209a4.691,4.691,0,0,1-.744-1.209l.694-.391-.88-.88a2.666,2.666,0,0,1-.434-1.364c0-.744,1.116-.682,1.116-.682s1.363-.744,1.425-1.116a4.13,4.13,0,0,0-.062-1.054l.558-.248h1.922a10.771,10.771,0,0,0,.62-.992,4.229,4.229,0,0,0,.062-1.488l1.488-2.045,1.363-3.533.558-2.046v-.508l-1.41.121s-.288-.45-.673-1.055l-1.838-.246-.233.557.093,1.395-1.162-.232-.79-.418a8.483,8.483,0,0,0-.325,1.209,2.5,2.5,0,0,1-.186.883c-.14.371-1.07.232-1.3.325a3.387,3.387,0,0,1-1.163-.233l-.6-.511-.361.1-.15.749Z" transform="translate(-33.983 -41.301)" fill="none" stroke="#5d7884" stroke-linecap="round" stroke-linejoin="round" stroke-width="1"/>
        <path id="Trazado_1057272" data-name="Trazado 1057272" d="M179.456,201.942l-2.324,1.116-2.139,1.86-2.975,1.023-2.139.465-1.859.837-.651,1.395-1.209,1.209-2.231.279-.558-.93-3.626-.092-1.395,1.116-1.953,1.209s-1.395.186-2.6.371-1.488.744-1.488.744l-2.324-.651-2.417-3.347-1.767-1.767-.726-2.177-.159.052-1.346,8.974-.806-.744a18.893,18.893,0,0,0-2.293-1.3c-.248,0-2.356.434-2.356.434l-2.17-.372-.744-1.8-1.239-1.922-1.364-.372-1.674,1.116.372,2.727.558,1.86.186,1.425-2.914.868-3.843,1.674-1.922.806-1.3,2.976-1.674,1.177-1.054,1.488-1.412.166-.138.888-.744,1.3s-.868,2.356-1.054,2.789-.805,2.851-.805,2.851A4.686,4.686,0,0,1,114,233.153c-.557.31-1.116.744-1.363.868s-2.17,1.983-2.17,1.983l-.256.794,1.5.57,1.736.5,1.116,1.116,1.674,1.054v1.611l-.31,1.426-.991.805-.372,1.922.372,1.178-.062,1.116.124,1.859.868,1.426,1.611,6.261,3.905,1.736,1.488.124a2.736,2.736,0,0,1,.93.5c.185.248,1.239,1.24,1.239,1.24l1.364.93.93.93,2.17.248,3.657-1.488.557.186.62,3.037.031.019V248.433l3.44.465,4-.372,4-1.209,1.209-.372v-1.488a7.519,7.519,0,0,0,1.395-1.209,11.2,11.2,0,0,1,1.581-1.488l2.139,1.395,3.161-1.116,1.953-2.138,1.952-1.86,1.395.372,1.767-.93,2.417.558,4.556.651,2.6-1.023c.837,0,3.812.279,3.812.279l1.3-.186,5.021-.212V201.157Z" transform="translate(-31.943 -58.305)" fill="none" stroke="#5d7884" stroke-linecap="round" stroke-linejoin="round" stroke-width="1"/>
        <path id="Trazado_1057273" data-name="Trazado 1057273" d="M109.06,94.948l1.8.744,1.3,2.232.682,2.107.372,1.488.868.558.062,1.24-1.735.557-.558.744.248,1.55.062,2.851.93.806s.124.062.682-.062,1.488-1.673,1.488-1.673l.371-1.116.93,1.859s-.93.558-.992.744-.31,1.611-.31,1.611l.31,2.976.744,1.054,1.735.186s1.984-1.364,2.108-1.55,2.294-2.17,2.294-2.17l1.054-.805.371-2.666-.185-2.293,1.239-.93.124-2.417.5-1.55-.868-2.231-.248-2.232,1.3-1.736.992-.682.31-2.6V88.5l-.511-1.952-1.256-1.86a12.9,12.9,0,0,0,.279-1.581,11.563,11.563,0,0,0-1.023-2.138l.139-1.442-.227-1.69-.842.249-3.719-1.023L118.3,75.3l-2.6-1.767-2.325-.278-.744-.093-2.7-2.51-1.674-1.209-.464-.557a7.792,7.792,0,0,1,0-1.488,8.249,8.249,0,0,0,.185-1.023l-1.58-1.953-.279-1.3V61.351l.65-1.395.372-1.395-2.976-1.953.372-1.3V53.355a17.849,17.849,0,0,0-2.479-1.55,3.064,3.064,0,0,1-1.116-.868l-1.487-.991-.434-1.736-.249-2.232-.528-1.706-.913.39-2.185,2.7-1.3.79.093,4.789-.974,3.718.726-.138.372.682.5,2.48.62.744,1.363.31.31.434L97.1,63.21l.062,1.488-.434.806h1.922l1.3.31,1.425,1.363,2.17.62.805,1.054.558,1.054.248.5-.062,3.162.744.93.248,1.054.992,1.488,1.488.744,1.983,1.054.93,1.426.124,1.611-.186.868-.558.558.249.868.682,2.045v.869c0,.185-.062,1.239-.062,1.239s-.124.62-.31.744a2.334,2.334,0,0,0-.434.682l-1.054,1.054-2.045,1.054a.347.347,0,0,1-.355-.157l-.429,1.546.846.347Z" transform="translate(-26.944 -12.832)" fill="none" stroke="#5d7884" stroke-linecap="round" stroke-linejoin="round" stroke-width="1"/>
        <path id="Trazado_1057274" data-name="Trazado 1057274" d="M138.045,95.369l.511.581.07.582.721.488v.721l-.256.674-.79.349-.511.883v.581a2.893,2.893,0,0,0,.256.535l1.883-.023.651-.139,1.3,1.069,1.116.325.883-.233.883-1.116.79-.976.14-1.395.883-.512.046-1.162-.325-.883-.883-.744-.651-.7-.511-1.209a5.114,5.114,0,0,1,.4-1.147,9.025,9.025,0,0,0,.557-1.364l.372-1.425-.31-1.8a2.408,2.408,0,0,0-.682-.185c-.249,0-.062,1.054-.062,1.054a12.786,12.786,0,0,1-.5,1.3c-.124.185-.5.062-.5.062l-.682-.558-.186-.62.5-.805v-.62l-.62-.62s-.682-.558-.744-.744-.248-1.487-.248-1.487L142.671,83l.557-.557.806-.992-.124-1.8-.619-.992.805-1.673-.186-1.55.063-.991,1.674-.372.046-.759,3.983-6.555h.744l.5-2.541,2.108-2.976a5.624,5.624,0,0,1-.558-1.426,18.946,18.946,0,0,1,.93-2.542l1.1-6.389-.942-.445-2.976-.232-1.535.186-.464-.279-.511-.93.464-1.3a13.623,13.623,0,0,1,1.069-1.349,1.181,1.181,0,0,0,.372-.883l-1.395-.6-.651-.744-.976-.047-.651-.046.418-1.86v-.6l-2.65.232-4.184.558.93,1.069-.372,1.766-.186,2.046-1.487,1.952-3.441,1.209L131.7,54.11l-.837,1.767,1.116,2.7,3.347,2.7,2.046,4.184-2.232.558h-2.882l-.651.371.093,1.4.93,3.254,1.581,1.953,2.417,1.58.465,2.046-1.669.494.227,1.691-.139,1.441a11.572,11.572,0,0,1,1.023,2.139,12.939,12.939,0,0,1-.278,1.58l1.255,1.86.511,1.952v3.038l-.31,2.6-.4.276.131,1.079Z" transform="translate(-37.93 -12.099)" fill="none" stroke="#5d7884" stroke-linecap="round" stroke-linejoin="round" stroke-width="1"/>
        <path id="Trazado_1057275" data-name="Trazado 1057275" d="M158.558,141.512l-.155-.62s.186-.961.186-1.054-.124-.868-.124-.868l-.248-.65.15-.749-.615.175s-.7-.325-.7-.464a1.015,1.015,0,0,1,.14-.372l.325-1.116-1.767-.047s-1.534.047-1.674.047h-.325l-.93-.14-1.488-1.069.465-.744.511-1.534-.7-.883.279-1.07s-.14-1.023-.14-1.348-.883-.418-.883-.418l-.371-1.442a6.768,6.768,0,0,1-.976-.744,4.99,4.99,0,0,1-.372-1.256l-.511-.744-1.069-.511h-2.836l-.651,1.069-.557.7-.883.233-1.395-.186-1.627-.837-1.442-1.023-1.162-1.441-.14-.465-1.883.023a2.893,2.893,0,0,1-.256-.535v-.581l.511-.883.79-.349.256-.674v-.721l-.721-.488-.07-.582L135,116.57l-.6-.6-.131-1.079-.589.406-1.3,1.736.248,2.231.868,2.231-.5,1.55-.124,2.418-1.24.93.186,2.294-.372,2.665-.315.24.5.876-.062,1.674.805,1.488v.744a9.12,9.12,0,0,1-1.177.806c-.31.124-1.426.372-1.426.372l-.31.991-1.363,1.24-.682,1.116-.682.868-2.231.31-1.488.682-.31.744v1.611a11.887,11.887,0,0,0,0,2.108c.124.186-.062,1.116-.062,1.116l-1.425.5-.872,1.543.531,1.114,1.116,1.24.775,1.084.775.186,1.116-.341.372.31-.124.992a7.726,7.726,0,0,1,.744,1.054,3.842,3.842,0,0,1-.186.62l.093.682a3.75,3.75,0,0,0,1.023-.248c.093-.124.651.124.651.124l.682.992,1.395.279.62.93.744.248,1.363.341,1.271.093.589-.65,1.518-.4h.341l.589.713.805.31.961-2.325-.31-.837-.186-.651.248-1.3.992-.619-.186-.775.155-.961,1.3.4,1.519,1.581.248,1.023-.527.868-1.27,1.519.062.991.961.744.62-1.581.682-.279,1.425-.62.558-1.457.527-.527,1.116-.217.744.527,1.519-.155,1.674-1.116.093-.651,3.316-3.534.093-1.8.465-1.426-.124-.589-1.085-.961-.5-.558.093-.5.868-.186,1.611,1.023.155.62.186.682h.651l1.859-.992.155-.372-.5-.62.124-.589.868-.62.31-.4.279-.806Z" transform="translate(-34.88 -33.299)" fill="none" stroke="#5d7884" stroke-linecap="round" stroke-linejoin="round" stroke-width="1"/>
        <path id="Trazado_1057276" data-name="Trazado 1057276" d="M76.418,158.1l.907-.139,1.883.464a6.4,6.4,0,0,0,.79-.139,3.314,3.314,0,0,0,.209-.7l-.185-1.139-.116-2.209.93-.046.814.953.674.535s.279-.3.418-.465.767-.232.767-.232l.582.209.651,1.535.582.906.278,1.023.256.767,1.209-.209.93-1.069.581-.93.674-.093.209-1.348.7-.558,1.069-.186a7.737,7.737,0,0,1,.976-1.046c.186-.07.744-.256.93-.325a7.093,7.093,0,0,1,1.069-.093l.535.814.675.7,1.045-.325.558-1.256,1.3-.471-.209-.443.155-.837.682-.589-.062-.806.464-.682-.062-.837-.682-.806.124-1.333.682-1.611.806-.62.089.187.871-1.543,1.426-.5s.186-.93.062-1.116a11.955,11.955,0,0,1,0-2.108v-1.611l.31-.744,1.487-.682,2.232-.31.682-.868.682-1.116,1.363-1.24.31-.992s1.116-.248,1.425-.371a9.088,9.088,0,0,0,1.178-.806V129.9l-.806-1.488.062-1.674-.5-.876-.739.566s-2.17,1.983-2.294,2.17-2.108,1.55-2.108,1.55l-1.736-.186-.744-1.054-.31-2.976s.249-1.425.31-1.611.991-.744.991-.744l-.93-1.859-.372,1.116s-.93,1.55-1.487,1.674-.682.062-.682.062l-.93-.806L100,120.912l-.248-1.55.557-.744,1.736-.557-.062-1.24-.868-.557-.372-1.488-.682-2.108-1.3-2.231-1.8-.744-1.116-1.363L95,107.983l-.053.191-.651.837L92.342,110.5l-3.069-.372L87.6,109.94l-1.487,1.767-2.789,2.231-.93,2.789-.186,2.324s-1.766,1.767-2.789,1.953a3.247,3.247,0,0,0-1.767,1.395s-3.255,1.023-3.812,1.209a30.049,30.049,0,0,1-4.091.093,40.674,40.674,0,0,1-4-1.023,10.8,10.8,0,0,1-1.767-2.417,10.557,10.557,0,0,1-.837-3.069l.93-1.86.465-3.44,1.023-1.581.093-2.046,1.209-3.254,1.395-1.674,1.116-1.209-.744-2.324-2.139-.465-1.463-4.2-1.466.479-2.743,3.348-3.115.7s-1.534,0-1.673.047a10.465,10.465,0,0,0-.976,1.3l.186.837,1.534.14,1.488,2.51-.232,2.138.93,3.115-.046,2-.558,1.581-2,.186-1.116-1.3.186-.93.7-.279.279-1.534-1.023-.372s-.6.232-.6.046.232-1.627.232-1.627l-.077-.062-.371,2.231v.868l-1.488,2.046-.062,1.363-.991.682-.806.682.806.682,1.425,2.108,2.17.868,2.418,2.48.744,1.673,1.24,1.488,1.24-.31,1.177.868.248,1.363.682,2.48-.806,1.116s.249.557,0,.682a2.583,2.583,0,0,1-.991,0l-.992-.62-1.488.062-1.983.248v.31l.682.93v.806l-.744.5-2.479.682L54,134.3l.434.806.682.991,1.3,2.046.31,1.736,1.116.991.682,1.55.5,3.6.806.558h2.231l1.054-.5,2.294-.185,2.108-.31.371.248.31.682-.062,1.054.434,1.054,1.488.744.31.557-.062,2.914L70,154.013l.868,1.3a9.442,9.442,0,0,1,.186,1.178c0,.1-.02.323-.046.577l.371-.2.489.163v.744a5.029,5.029,0,0,0,.278.837c.07.047,1.023.232,1.023.232l1.185.093.79.047-.026.214.724-.423Z" transform="translate(-14.844 -27.577)" fill="none" stroke="#5d7884" stroke-linecap="round" stroke-linejoin="round" stroke-width="1"/>
        <path id="Trazado_1057277" data-name="Trazado 1057277" d="M94.218,193.239l.325-1.581-.046-1.395.372-.883,1.58-.464h1.442l1.023-.93.418-1.3,1.116-.557,3.022-.14,2.464-.092,1.627-2.464-.185-1.86.046-1.441-.631-3.066-.508.183-.557,1.256-1.046.325-.675-.7-.535-.814a7.093,7.093,0,0,0-1.069.093c-.186.07-.744.256-.93.325a7.737,7.737,0,0,0-.976,1.046l-1.069.186-.7.558-.209,1.348-.674.093-.581.93-.93,1.069-1.209.21-.256-.767-.279-1.023-.582-.906-.651-1.534-.581-.209s-.628.07-.768.232-.418.465-.418.465l-.674-.535-.814-.953-.93.046.116,2.209.185,1.139a3.314,3.314,0,0,1-.209.7,6.4,6.4,0,0,1-.79.139l-1.883-.464-.907.139-.581.674-.724.423-.136,1.111.023.86s-.349.186-.023.163.744-.07.744-.07l.511-.489,1.256-.371.721.278.557.651.07.976-.534.976-.465.023-.93-.418-.511-.372-.557.279-.279.418s.047.418.07.814a8.164,8.164,0,0,1-.093,1.185l-.325.837-1.023.209a1.208,1.208,0,0,0-.256.558,7.615,7.615,0,0,0,.023,1.023,1.93,1.93,0,0,0,.651,1.139,3.419,3.419,0,0,0,.814.511l.395-.186.279-.511.3-1.046.93-.557.139.371.209,1.185.279.651,4.137.186a4.96,4.96,0,0,1,.721.6,1.963,1.963,0,0,0,.557.6c.14.046.79.418.79.418l.006.17.785-.4Z" transform="translate(-24.112 -51.321)" fill="none" stroke="#5d7884" stroke-linecap="round" stroke-linejoin="round" stroke-width="1"/>
        <path id="Trazado_1057278" data-name="Trazado 1057278" d="M108.839,212.744l.031-1.612-.62-1.053-.837-1.023-.93-.124-.4.775-.806.744h-.589l-.31-.805-1.736-.124-.868-1.177.5-2.666.557-2.231.062-1.24-.433-.868V200.16l.93-.62.682-1.3.372-1.178-.372-2.727-.062-2.17-.372-.744-.136-1.865-1.383.052-3.022.14-1.116.557-.418,1.3-1.023.93H95.093L93.513,193l-.371.883.046,1.395-.325,1.581v1.488l-.785.4.06,1.814.166-.031s-.371,1.906-.418,2.37-1.348,1.023-1.348,1.023l-2.046,1.163s.093,1.023.093,1.86a2.631,2.631,0,0,1-.883,1.906,4.561,4.561,0,0,0-.93,1.674c-.093.325-.372,1.766-.372,1.766l-1.162.279-.9.959.2.638-1.674,2.789-.433,2.293-1.984,1.983a8.805,8.805,0,0,0-.558,1.674l-.557,1.054a12.58,12.58,0,0,0-.5,1.736c0,.31.248,1.24.248,1.55s.062,1.3.062,1.3l-.636.2.263,1.351-.247.93.578,1.474,1.064.665,1.813.557,2.138-.837,1.767-1.023,2.6-2.557.093-1.116.744-.511.79-1.581.605-.651.7.232,1.3-.279.7.79.557.372.93-.558s.186-.325.511-.93,1.767.047,1.767.047.79-.093.976-.093.883.6.883.6l-.7.744a4.035,4.035,0,0,0-.419.976,1.19,1.19,0,0,0,.279.557l2,.233,2-1.721,1.256-1.255a2.931,2.931,0,0,0,.139-.6,1.14,1.14,0,0,0-.046-.325l.093-.651.651-.883-.232-.464.139-.744,1.349-.325,1.363-1.674.62-1.177.353-.177-.353-4.132Z" transform="translate(-22.756 -54.942)" fill="none" stroke="#5d7884" stroke-linecap="round" stroke-linejoin="round" stroke-width="1"/>
        <path id="Trazado_1057279" data-name="Trazado 1057279" d="M124.551,220.04s.279-.79.325-.93a10.04,10.04,0,0,1,.806-.976l1.023-.574.279-.341.357-.805,1.286-.976s-.046-.418-.077-.527a3.619,3.619,0,0,0-.45-.543l.016-1.3.17-.6.511-.573-.155-1.023.388-2.2.7-.574.4-.526.263-.465.077-1.038-.263-1.085.062-1.41-.357-1.146c-.062-.2-.371-.14-.666-.14a2.044,2.044,0,0,0-.62.124l-.682.961-.372.713a6.646,6.646,0,0,1-.573.527c-.062.015-.868,1.131-.868,1.131l-.418.79.65.527.4.744V208.8l-.294.868-.434.93.295.605-.249,1.643.233.464.062.434-.356.574-.077.62-.232.17-.233.278-.077.558-.093.48-.464.031-.388-.2-.557-.278-.326.062-.527.124s-.2.574-.217.7a7.458,7.458,0,0,0,.31,1.023l.062,1.162-.341.667s.062.557.062.805a4.633,4.633,0,0,0,.109.729l-.527.5-.7.434-.659,1.426-.087.553,1.412-.166,1.054-1.487.9-.634-.033-.993Z" transform="translate(-35.09 -58.628)" fill="#fff"/>
        <path id="Trazado_1057280" data-name="Trazado 1057280" d="M124.551,220.04s.279-.79.325-.93a10.04,10.04,0,0,1,.806-.976l1.023-.574.279-.341.357-.805,1.286-.976s-.046-.418-.077-.527a3.619,3.619,0,0,0-.45-.543l.016-1.3.17-.6.511-.573-.155-1.023.388-2.2.7-.574.4-.526.263-.465.077-1.038-.263-1.085.062-1.41-.357-1.146c-.062-.2-.371-.14-.666-.14a2.044,2.044,0,0,0-.62.124l-.682.961-.372.713a6.646,6.646,0,0,1-.573.527c-.062.015-.868,1.131-.868,1.131l-.418.79.65.527.4.744V208.8l-.294.868-.434.93.295.605-.249,1.643.233.464.062.434-.356.574-.077.62-.232.17-.233.278-.077.558-.093.48-.464.031-.388-.2-.557-.278-.326.062-.527.124s-.2.574-.217.7a7.458,7.458,0,0,0,.31,1.023l.062,1.162-.341.667s.062.557.062.805a4.633,4.633,0,0,0,.109.729l-.527.5-.7.434-.659,1.426-.087.553,1.412-.166,1.054-1.487.9-.634-.033-.993Z" transform="translate(-35.09 -58.628)" fill="none" stroke="#5d7884" stroke-linecap="round" stroke-linejoin="round" stroke-width="1"/>
        <path id="Trazado_1057281" data-name="Trazado 1057281" d="M143.252,197.995l-1.27-.651-.651-.712-1.425-.527-.589-1.333-.31-1.084-2.417-.31-.806-.775-.062-1.426,1.146-.464.558-.992-.5-.589-.124-1.333-.186-1.27-1.177-1.054-.434-1.054-.465-1.457-1.457-.372-1.581-.371.341-.868v-1.085l-2.7,1.488-.186.682-.433,1.333-1.085.837-1.3-.713-.589-.991-1.8-.527-1.395-.279s.124-1.953.124-2.045a5.318,5.318,0,0,0-.651-.744l.5-.713-.124-.961-.5-.991-.744-.651-.682,1.271-1.146-.063-1.24-.341-.4.217-1.457.062-.317-.672-.794.287.631,3.066-.047,1.442.186,1.859-1.627,2.464-1.081.04.136,1.866.371.744.063,2.17.371,2.728-.371,1.178-.682,1.3-.93.62v1.178l.434.868-.062,1.24-.558,2.231-.5,2.665.868,1.178,1.736.124.31.806h.589l.806-.744.4-.775.93.124.837,1.023.619,1.054-.031,1.612-1.3,1.27.352,4.132.391-.2.744.62-.21,1.348.659-1.426.7-.434.526-.5a4.662,4.662,0,0,1-.108-.729c0-.248-.062-.805-.062-.805l.342-.667-.062-1.162a7.458,7.458,0,0,1-.31-1.023c.016-.124.217-.7.217-.7l.527-.124.325-.062.558.279.388.2.464-.031.093-.481.077-.557.233-.279.232-.17.077-.62.356-.574-.062-.433-.233-.465.248-1.643-.294-.6.434-.93.294-.868V200.18l-.4-.744-.651-.526.418-.79s.805-1.116.868-1.131a6.65,6.65,0,0,0,.573-.527l.372-.713.682-.961a2.044,2.044,0,0,1,.62-.124c.294,0,.6-.062.666.14l.356,1.147-.062,1.41.263,1.085-.077,1.038-.263.465-.4.527-.7.573-.387,2.2.155,1.023-.511.573-.17.6-.016,1.3a3.619,3.619,0,0,1,.45.543c.031.109.077.527.077.527l-1.286.976-.356.805-.279.341-1.023.574a10.042,10.042,0,0,0-.806.976c-.046.139-.325.93-.325.93l-.155.837.033.993.773-.544,1.3-2.976,1.922-.805,3.843-1.674,2.914-.868-.186-1.426L131.6,204.1l-.372-2.728,1.674-1.116,1.363.372,1.24,1.922.744,1.8,2.17.372s2.108-.434,2.356-.434a18.894,18.894,0,0,1,2.293,1.3l.806.744,1.346-8.975Z" transform="translate(-32.25 -51.01)" fill="none" stroke="#5d7884" stroke-linecap="round" stroke-linejoin="round" stroke-width="1"/>
      </g>
    </g>
  </g>
</svg>
