<svg xmlns="http://www.w3.org/2000/svg" xmlns:xlink="http://www.w3.org/1999/xlink" width="328" height="313" viewBox="0 0 328 313">
  <defs>
    <clipPath id="clip-path">
      <rect id="Rectángulo_422129" data-name="Rectángulo 422129" width="328" height="313" transform="translate(7899 8413)" fill="#cfd6e1"/>
    </clipPath>
    <clipPath id="clip-path-2">
      <rect id="Rectángulo_422132" data-name="Rectángulo 422132" width="277.055" height="283.324" fill="none"/>
    </clipPath>
  </defs>
  <g id="Enmascarar_grupo_1098770" data-name="Enmascarar grupo 1098770" transform="translate(-7899 -8413)" clip-path="url(#clip-path)">
    <g id="Grupo_1225607" data-name="Grupo 1225607" transform="translate(7924.473 8427.838)">
      <path id="Trazado_1057282" data-name="Trazado 1057282" d="M97.774,0,93.03.169,92.1,5.338l-15,6.439L75.914,9.32l-12.2-1.694,5,9.659,6.609,3.982.424,1.779L59.223,33.128l-.931-2.965L49.31,32.535l-.763-6.863L46.43,21.944l-5.761,2.8L40.5,26.689,28.892,25.672l1.017,4.406,4.745,1.1.763,3.05H27.959v5l4.322,2.627L30.925,44.4l2.288,2.542L28.637,69.815l-6.354-1.356-2.8,3.388-6.778-.169L7.371,76.593l-1.016,9.32L.593,87.861l1.949,2.458L0,92.436l6.863,11.1-1.525,3.559,7.71,3.558,11.1-3.134.17,11.184H39.059l2.2-3.474,2.2,1.272,13.471-6.778,2.965-.169.678,4.745-1.186,1.271,1.949,2.542-1.61,2.626,5.931,6.44,10.675,2.881L93.707,137.6l3.558,19.318,12.71-.424-.678,6.778,5.084,2.372,1.185,4.49-2.372,13.557-3.389,1.016,3.473,4.406-.423,9.574,9.235,1.27,5.676-1.61,2.966,13.9,5.507-1.61,2.712,2.542-2.881,10.591h5.168l2.288,5.592L142,235.012l-14.827,8.661L115.4,258.331l5.677-1.1,5.677,7.625,2.711-2.2,12.878,7.795,4.575,5.931-3.558,2.542.254,4.406,6.439-3.474,3.982-9.15,11.269-8.3,5.422-11.269,6.524-4.405L179.281,238l-.932-10.421,11.014-11.353,11.692-5.338,6.016-6.27,17.454.763,2.542-5.168,5.507-2.458.763-8.133,8.727-9.405.424-8.9,3.813-5.338L247.316,152l-1.1-17.708,7.625-3.981,6.948-14.658,7.032-3.05-.169-2.881,7.371-8.982,2.033-13.386L271.886,75.83l-12.369-1.271L240.2,58.716l-11.607,1.271L226.3,57.529l-12.116-2.881-3.389,3.3-6.354-10.082L201.31,49.9l-16.86-7.88L179.7,43.465l.594-3.389-8.9-4.321-2.8,1.356-.678-3.22,2.033-7.118-4.49-4.829-1.61,1.61-3.22-8.9-2.372-9.319-.678,5.253-5.93,5.761-1.7,7.54-7.455-2.711-6.863-.085-9.066-1.017,2.457,5.338L117.77,23.47l-10.76,5.846-6.863-2.542L98.028,16.607l2.966-7.541-3.05-3.22Z" transform="translate(0 0)" fill="#042e8b"/>
      <path id="Trazado_1057283" data-name="Trazado 1057283" d="M329.191,118.349l1.063-2.088-3.371-6.207,1.072-6.9L323.894,99.4l.758-12.323-2.3.251-2.288-2.457L318.3,90.515h-1.992l-3.678,5.517,1.533,6.9-2.912,3.908,2.146,7.356h-6.9l-11.494,6.054-3.985,9.425,1.15,4.215v5.824l-.022.031,2.321.122,1.915,5.441,6.361-2.759,1.533.536,3.6-5.824-1.915-1.762,3.142-2.069,7.816,1.073,7.37-6.075,5.273-4.346-1.456-3.6Z" transform="translate(-93.764 -27.346)" fill="#47d15c"/>
      <g id="Grupo_1225606" data-name="Grupo 1225606">
        <g id="Grupo_1225605" data-name="Grupo 1225605" clip-path="url(#clip-path-2)">
          <path id="Trazado_1057284" data-name="Trazado 1057284" d="M381.344,128.386l-6.434-1.93s2.305-4.558,2.413-4.88-3.861.268-3.861.268l-4.4,3.164-1.876-2.681.268,8.955-1.916,1.666,5.777,1.069,5.336-4.129,2.118,1.77-2.118,4.075.67,3.11,5.094-3.861,7.239-3.754,4.326.832.846-5.568-.781-1.74-11.2-1.3Z" transform="translate(-117.774 -39.14)" fill="#47d15c"/>
          <path id="Trazado_1057285" data-name="Trazado 1057285" d="M390.443,111.271,378.073,110l-10.1,8.628,1.877,2.681,4.4-3.164s3.968-.59,3.861-.268-2.413,4.88-2.413,4.88l6.434,1.93,1.5-4.934,11.2,1.3Z" transform="translate(-118.557 -35.441)" fill="#03c020"/>
          <path id="Trazado_1057286" data-name="Trazado 1057286" d="M368.906,102.469,349.589,86.625l-9.311,1.019-.758,12.323,4.061,3.754-1.073,6.9,3.371,6.207-1.062,2.087,7.339.764,3.217,3.592,1.784-1.551,1.916-1.666L358.8,111.1Z" transform="translate(-109.39 -27.91)" fill="#acd143"/>
          <path id="Trazado_1057287" data-name="Trazado 1057287" d="M246.273,56.916l-11.441-5.347-4.745,1.44.593-3.389-8.9-4.321-2.8,1.356-.678-3.22-1.1-.11-1.805,3.61-5.042,2.054L207.33,57.2l-3.5.062L194.12,37.91l-8.465-1.743s-.155-3.235-.281-5.6l-8.41-.943,2.457,5.338-11.269-1.949-10.76,5.846-1.015,7.187v4.6l7.663,8.889,11.034,4.291-16.168,33.1,2.735,4.095,9.908,14.833,45.413,3.727,6.31-14.148,1.762-6.743,6.82-8.353-2.146-5.21,7.509-4.291Z" transform="translate(-50.383 -9.545)" fill="#acd143"/>
          <path id="Trazado_1057288" data-name="Trazado 1057288" d="M130.432,26.773l-2.118-10.167,2.965-7.541-3.05-3.22L128.06,0l-4.745.169-.932,5.168-15,6.439L106.2,9.32,94,7.625l5,9.659,6.609,3.982.424,1.779L110,24.166l1.3,21,6.82,5.594.919-8.659,6.513,2.069,2.682-7.356,8.046-.306,1.015-7.187Z" transform="translate(-30.286)" fill="#47d15c"/>
          <path id="Trazado_1057289" data-name="Trazado 1057289" d="M207.9,30.9l9.71,19.357,3.5-.062,3.035-8.216,5.042-2.054,1.8-3.61,1.1.11,2.033-7.117-4.49-4.829-1.61,1.61-3.22-8.9-2.372-9.32-.678,5.253-5.931,5.761-1.695,7.541-7.456-2.711-6.863-.085-.655-.074c.126,2.364.281,5.6.281,5.6Z" transform="translate(-64.167 -2.537)" fill="#03c020"/>
          <path id="Trazado_1057290" data-name="Trazado 1057290" d="M264.567,98.1l8.046,2.988L271.54,113.2l3.754,6.819,3.218-1.762.384,2.835-4.061,5.977,5.287,7.663,3.5.184.023-.031v-5.824l-1.15-4.214,3.984-9.426,11.494-6.054h6.9l-2.146-7.356,2.912-3.908-1.533-6.9,3.678-5.517h1.993l1.768-5.64-12.116-2.881-3.389,3.3-6.354-10.082-3.135,2.033-5.419-2.533-9.055,23.921Z" transform="translate(-85.241 -22.517)" fill="#03c020"/>
          <path id="Trazado_1057291" data-name="Trazado 1057291" d="M312.437,231.424l4.6-11.187-9.885.077-3.525-4.215L284.852,209l-10.192,6.693-7.509-1.894v8.123l-4.368,9.5,1.993,4.636-3.755,4.176-3.831-1.609L242.4,241.769l-1.741,5.608-1,3.23-1.318,1.047,7.28-1.686,5.363.69-.23,2.758,13.333-2.758,2.759,9.961h4.6l-2.376,7.126,2.988,5.363,10.345-5.134,12.567-2.145,5.441-2.3.613-5.146,2.084-1.852.674-3.807,2.3.843,3.754-6.284-1.456-8.582,6.973-1.993Z" transform="translate(-76.791 -67.338)" fill="#47d15c"/>
          <path id="Trazado_1057292" data-name="Trazado 1057292" d="M241.763,265.62" transform="translate(-77.894 -85.58)" fill="#47d15c"/>
          <path id="Trazado_1057293" data-name="Trazado 1057293" d="M381.461,135.224l-7.239,3.754-5.094,3.861-.67-3.11,2.118-4.075-2.118-1.77-5.335,4.129-5.778-1.068-1.783,1.551-3.218-3.593-7.339-.763-1.083,2.127,1.456,3.6-5.273,4.347,3.767,6.132,8.847-6.6,8.794,5.576,3.432-3.27,4.558,3.27,4.4-.161,4.665-3.485,4.476.094,1.558-1.9,1.188-7.819Z" transform="translate(-109.578 -43.136)" fill="#039520"/>
          <path id="Trazado_1057294" data-name="Trazado 1057294" d="M241.763,265.62" transform="translate(-77.894 -85.58)" fill="#47d15c"/>
          <path id="Trazado_1057295" data-name="Trazado 1057295" d="M275.726,148.322l-3.5-.184-5.288-7.663L271,134.5l-.383-2.835-3.218,1.762-3.755-6.819,1.073-12.107-8.046-2.988,2.145,5.21-6.82,8.353-1.762,6.743-6.31,14.148-3.191,7.154-.677,14.225,4.968-2.654-.69,2.988,6.437,2.682,1.149-2.682,6.437,3.371L272.028,168l-1.413-12.579Z" transform="translate(-77.343 -35.927)" fill="#47d15c"/>
          <path id="Trazado_1057296" data-name="Trazado 1057296" d="M264.092,194.335l-.119-1.06L250.3,196.327l-6.436-3.371-1.15,2.682-6.436-2.682.689-2.988L232,192.621l-.779,16.349-11.877,8.735-4.291,6.82,2.682,11.111,15.424,5.609,1.741-5.609,14.788-3.142,3.832,1.609,3.755-4.176-1.993-4.636,4.368-9.5v-8.122l7.509,1.893Z" transform="translate(-69.287 -61.206)" fill="#03c020"/>
          <path id="Trazado_1057297" data-name="Trazado 1057297" d="M339.161,251.876l1.456,8.582-3.754,6.283-2.3-.843-.674,3.807,1.9,3.243,4.826.337.3-3.158,8.727-9.4.424-8.9-3.928-1.943Z" transform="translate(-107.576 -80.51)" fill="#039520"/>
          <path id="Trazado_1057298" data-name="Trazado 1057298" d="M325.948,282.371l-1.9-3.243-2.084,1.851-.613,5.147-5.441,2.3-12.567,2.145,1.462,3.977,17.454.763,2.542-5.168,5.507-2.457.466-4.976Z" transform="translate(-97.734 -89.932)" fill="#03c020"/>
          <path id="Trazado_1057299" data-name="Trazado 1057299" d="M265.125,292.583l-2.988-5.363,2.376-7.126h-4.6l-2.759-9.962-13.333,2.759.23-2.759-5.363-.689-7.28,1.686-3.372,2.375-5.363,11.954-4.6,1.993-1.246,1.686h12.817l3.831,2.375h7.356l2.759,12.413,5.9.92-.077,2.145,4.5,1.514,5.307-5.47,11.692-5.338,6.016-6.27-1.462-3.976Z" transform="translate(-69.861 -86.812)" fill="#acd143"/>
          <path id="Trazado_1057300" data-name="Trazado 1057300" d="M244.312,314.2l-5.9-.92-2.759-12.413H228.3l-3.831-2.375H211.649l-8.018,10.848-2.881,10.591h5.168l2.288,5.592,16.72,2.777-1.609-1.609,5.824-3.295,7.509,2.223,1.686-2.223,4.693.348,5.708-5.883-4.5-1.514Z" transform="translate(-64.68 -96.173)" fill="#03c020"/>
          <path id="Trazado_1057301" data-name="Trazado 1057301" d="M388.742,151.288l-4.665,3.485-4.4.161-4.558-3.271-3.432,3.271,12.832,7.734,3.052-1.324-.169-2.881,5.813-7.082Z" transform="translate(-119.755 -48.744)" fill="#03c020"/>
          <path id="Trazado_1057302" data-name="Trazado 1057302" d="M349.24,170.688l-3.558-.959-1.877-5.469,2.9-1.18-2.9-9.062-8.794-5.577-8.848,6.6L322.4,148.9l-7.37,6.075-7.816-1.072-3.142,2.069,1.916,1.762-3.6,5.824-1.533-.536-6.36,2.758-1.915-5.44-2.322-.122-5.111,7.095,1.413,12.579.119,1.06,3.065,15.227,10.192-6.693,18.773,7.1,3.525,4.214,9.885-.076-4.6,11.187,2.912,5.287,3.928,1.943,3.813-5.338,1.017-13.98-1.1-17.708,7.625-3.982Z" transform="translate(-91.87 -47.826)" fill="#acd143"/>
          <path id="Trazado_1057303" data-name="Trazado 1057303" d="M374.585,165.73l-2.9,1.179,1.877,5.47,3.558.959,3.418-7.211,3.979-1.726-12.832-7.734Z" transform="translate(-119.755 -50.477)" fill="#47d15c"/>
          <path id="Trazado_1057304" data-name="Trazado 1057304" d="M200.64,251.918l-5.134-9.655-9.2,1.992L178.8,240.5l-7.356,4.291-4.291.53.607,2.3-2.372,13.556L162,262.19l3.474,4.406-.424,9.574,9.235,1.271,5.677-1.61,2.965,13.9,5.507-1.61,2.711,2.542,8.018-10.848,1.246-1.686,4.6-1.992,5.363-11.954,3.372-2.376,1.318-1.047,1-3.229Z" transform="translate(-52.195 -77.487)" fill="#47d15c"/>
          <path id="Trazado_1057305" data-name="Trazado 1057305" d="M121.828,170.688l.46-6.973-10.267.69-1.3-17.548-2.605,1.993-5.977-6.59-5.287.23-3.6,6.361H87.959v3.065l-4.061-.384-1.379,1.456-5.517-1-2.648,3.266,3.509,1.821,3.029-1.524,2.965-.169.678,4.745L83.349,161.4l1.949,2.542-1.61,2.627,5.931,6.439,10.675,2.881,17.369,7.541,7.92-9.6Z" transform="translate(-23.956 -45.835)" fill="#acd143"/>
          <path id="Trazado_1057306" data-name="Trazado 1057306" d="M50.4,152.355,28.754,141.119,2.542,133.251,0,135.369l6.863,11.1-1.525,3.559,7.71,3.558,11.1-3.135.169,11.184H39.059l2.2-3.474,2.2,1.271,10.442-5.254Z" transform="translate(0 -42.932)" fill="#47d15c"/>
          <path id="Trazado_1057307" data-name="Trazado 1057307" d="M162.407,149.793,152.5,134.96c-.583,3.869-1.586,10.388-1.586,10.388L128,144.5l1.3,17.548,10.268-.689-.46,6.973,3.756,3.142-7.92,9.6,3.559,19.318,12.709-.424-.678,6.778,5.084,2.372.58,2.195,4.291-.53,7.355-4.291,7.51,3.755,9.194-1.992,5.134,9.655L187,206.8l4.291-6.82,11.877-8.736.779-16.349.678-14.225,3.19-7.154Z" transform="translate(-41.241 -43.483)" fill="#039520"/>
          <path id="Trazado_1057308" data-name="Trazado 1057308" d="M239.469,337.459l-7.509-2.222-5.824,3.295,1.609,1.609-16.72-2.778-1.525,5.658,12.344,1.18,9.348,8.123,6.973,1-1.915,5.134,1.972.683,6.524-4.406,2.033-8.727-.932-10.421-4.693-.347Z" transform="translate(-67.499 -108.01)" fill="#47d15c"/>
          <path id="Trazado_1057309" data-name="Trazado 1057309" d="M225.52,357.022l-6.973-1L209.2,347.9l-12.344-1.18-14.827,8.66L170.25,370.041l5.677-1.1,5.677,7.625,2.711-2.2,12.878,7.795,4.575,5.931-3.559,2.542.254,4.406,6.439-3.474,3.982-9.15,11.269-8.3,5.422-11.269-1.972-.684Z" transform="translate(-54.853 -111.711)" fill="#039520"/>
          <path id="Trazado_1057310" data-name="Trazado 1057310" d="M50.68,119.854l2.647-3.266,5.517,1,1.379-1.456,4.061.384v-3.065h5.287l3.6-6.361,5.288-.23,5.977,6.59,2.605-1.993,22.911.843s1-6.518,1.585-10.388L108.8,97.813l16.168-33.1L113.938,60.42l-7.663-8.888v-4.6l-8.046.307L95.548,54.6l-6.513-2.069-.92,8.659L81.3,55.593l-1.3-21-3.966-1.12L59.506,43.56l-.932-2.965-8.981,2.372L48.83,36.1l-2.118-3.729-5.761,2.8-.169,1.949L29.174,36.1l1.017,4.406,4.745,1.1.763,3.05H28.242v5l4.321,2.627-1.356,2.542,2.288,2.542L28.919,80.246,22.565,78.89l-2.8,3.389-6.778-.169L7.653,87.024l-1.017,9.32L.875,98.293l1.949,2.457,26.212,7.868Z" transform="translate(-0.282 -10.431)" fill="#03c020"/>
        </g>
      </g>
    </g>
  </g>
</svg>
