<svg xmlns="http://www.w3.org/2000/svg" width="294.334" height="99.377" viewBox="0 0 294.334 99.377">
  <g id="Grupo_1225631" data-name="Grupo 1225631" transform="translate(-1125 -8555.201)">
    <g id="Grupo_1225630" data-name="Grupo 1225630">
      <path id="influencer-their-pet-creating-content-online-spaces-social-media" d="M0,0H294.334V60.947H0Z" transform="translate(1125 8580.822)" fill="#27454a"/>
      <path id="influencer-their-pet-creating-content-online-spaces-social-media-2" data-name="influencer-their-pet-creating-content-online-spaces-social-media" d="M0,0H249.567V86.564H0Z" transform="translate(1147.383 8568.014)" fill="#6ae2f6"/>
    </g>
    <g id="board_1731639_1_" data-name="board_1731639 (1)" transform="translate(1222 8555.201)">
      <path id="Trazado_1055321" data-name="Trazado 1055321" d="M219.234,305.617a9.617,9.617,0,1,0-14.426,8.32v10.914h9.617V313.937A9.6,9.6,0,0,0,219.234,305.617Zm0,0" transform="translate(-159.929 -236.694)" fill="#b8cbd9"/>
      <path id="Trazado_1055322" data-name="Trazado 1055322" d="M200,305.617a9.6,9.6,0,0,0,4.809,8.32V315.1c6.323-.988,11.22-7.718,11.22-15.891,0-.26-.021-.513-.031-.771a9.606,9.606,0,0,0-16,7.182Zm0,0" transform="translate(-159.929 -236.694)" fill="#e8eff4"/>
      <path id="Trazado_1055323" data-name="Trazado 1055323" d="M224,408h9.617v6.411H224Zm0,0" transform="translate(-179.12 -326.254)" fill="#4472b2"/>
      <path id="Trazado_1055324" data-name="Trazado 1055324" d="M120,24h51.291V59.263H120Zm0,0" transform="translate(-95.957 -19.191)" fill="#b8cbd9"/>
      <path id="Trazado_1055325" data-name="Trazado 1055325" d="M120,53.44a32.621,32.621,0,0,0,12.823,2.617c17.7,0,32.057-13.993,32.057-31.256,0-.271-.034-.532-.041-.8H120Zm0,0" transform="translate(-95.957 -19.192)" fill="#e8eff4"/>
      <path id="Trazado_1055326" data-name="Trazado 1055326" d="M192,8h22.44v6.411H192Zm0,0" transform="translate(-153.531 -6.397)" fill="#674025"/>
      <path id="Trazado_1055327" data-name="Trazado 1055327" d="M155.22,200,144,211.22h8.014L163.234,200" transform="translate(-115.149 -159.929)" fill="#976947"/>
      <path id="Trazado_1055328" data-name="Trazado 1055328" d="M264.014,200l11.22,11.22H267.22L256,200" transform="translate(-204.709 -159.929)" fill="#976947"/>
      <path id="Trazado_1055329" data-name="Trazado 1055329" d="M120,344h3.206a3.206,3.206,0,1,1,0,6.411H120" transform="translate(-95.957 -275.077)" fill="#efbe9a"/>
      <path id="Trazado_1055330" data-name="Trazado 1055330" d="M36.851,424.029v-6.411A9.617,9.617,0,0,0,27.234,408H17.617A9.617,9.617,0,0,0,8,417.617v6.411" transform="translate(-6.397 -326.254)" fill="#d1a339"/>
      <path id="Trazado_1055331" data-name="Trazado 1055331" d="M32.043,424.029v-6.411A9.617,9.617,0,0,0,22.426,408H17.617A9.617,9.617,0,0,0,8,417.617v6.411" transform="translate(-6.397 -326.254)" fill="#f0d365"/>
      <g id="Grupo_1225113" data-name="Grupo 1225113" transform="translate(1.603 62.511)">
        <path id="Trazado_1055332" data-name="Trazado 1055332" d="M56,408v1.6a4.809,4.809,0,1,0,9.617,0V408" transform="translate(-46.383 -388.766)" fill="#db9b7c"/>
        <path id="Trazado_1055333" data-name="Trazado 1055333" d="M14.411,344H11.206a3.206,3.206,0,1,0,0,6.411h3.206" transform="translate(-8 -337.589)" fill="#db9b7c"/>
        <path id="Trazado_1055334" data-name="Trazado 1055334" d="M56.029,312v11.22a8.014,8.014,0,1,1-16.029,0V312" transform="translate(-33.589 -312)" fill="#db9b7c"/>
      </g>
      <path id="Trazado_1055335" data-name="Trazado 1055335" d="M46.411,331.072a8.015,8.015,0,0,0,6.411-7.852V312H40v11.22A8.015,8.015,0,0,0,46.411,331.072Zm0,0" transform="translate(-31.986 -249.488)" fill="#efbe9a"/>
      <path id="Trazado_1055336" data-name="Trazado 1055336" d="M40.029,286.411c0,3.541-6.076,6.411-9.617,6.411H24v-6.411A6.412,6.412,0,0,1,30.411,280h9.617a6.412,6.412,0,0,1,6.411,6.411v6.411a6.412,6.412,0,0,1-6.411-6.411" transform="translate(-19.191 -223.9)" fill="#a66d43"/>
      <path id="Trazado_1055337" data-name="Trazado 1055337" d="M40.029,286.411a6.366,6.366,0,0,0,.274,1.757,7.145,7.145,0,0,0,.119-8.128c-.133-.008-.258-.04-.393-.04H30.411A6.412,6.412,0,0,0,24,286.411v4.824a13.36,13.36,0,0,0,6.411,1.587C33.952,292.823,40.029,289.952,40.029,286.411Zm0,0" transform="translate(-19.191 -223.9)" fill="#c18e59"/>
      <path id="Trazado_1055338" data-name="Trazado 1055338" d="M456,344h3.206a3.206,3.206,0,0,1,0,6.411H456" transform="translate(-364.637 -275.077)" fill="#efbe9a"/>
      <path id="Trazado_1055339" data-name="Trazado 1055339" d="M372.851,424.029v-6.411A9.617,9.617,0,0,0,363.234,408h-9.617A9.617,9.617,0,0,0,344,417.617v6.411" transform="translate(-275.077 -326.254)" fill="#b64f86"/>
      <path id="Trazado_1055340" data-name="Trazado 1055340" d="M368.043,424.029v-6.411A9.617,9.617,0,0,0,358.426,408h-4.809A9.617,9.617,0,0,0,344,417.617v6.411" transform="translate(-275.077 -326.254)" fill="#e087a6"/>
      <path id="Trazado_1055341" data-name="Trazado 1055341" d="M392,408v1.6a4.809,4.809,0,1,0,9.617,0V408" transform="translate(-313.46 -326.254)" fill="#db9b7c"/>
      <path id="Trazado_1055342" data-name="Trazado 1055342" d="M350.411,344h-3.206a3.206,3.206,0,1,0,0,6.411h3.206" transform="translate(-275.077 -275.077)" fill="#db9b7c"/>
      <path id="Trazado_1055343" data-name="Trazado 1055343" d="M392.029,312v11.22a8.014,8.014,0,1,1-16.029,0V312" transform="translate(-300.666 -249.489)" fill="#db9b7c"/>
      <path id="Trazado_1055344" data-name="Trazado 1055344" d="M382.411,331.072a8.015,8.015,0,0,0,6.411-7.852V312H376v11.22A8.015,8.015,0,0,0,382.411,331.072Zm0,0" transform="translate(-300.666 -249.488)" fill="#efbe9a"/>
      <path id="Trazado_1055345" data-name="Trazado 1055345" d="M376.029,286.411c0,3.541-6.076,6.411-9.617,6.411H360v-6.411A6.412,6.412,0,0,1,366.411,280h9.617a6.412,6.412,0,0,1,6.411,6.411v6.411a6.412,6.412,0,0,1-6.411-6.411" transform="translate(-287.872 -223.9)" fill="#a66d43"/>
      <path id="Trazado_1055346" data-name="Trazado 1055346" d="M376.029,286.411a6.365,6.365,0,0,0,.274,1.757,7.145,7.145,0,0,0,.119-8.128c-.133-.008-.258-.04-.393-.04h-9.617A6.412,6.412,0,0,0,360,286.411v4.824a13.36,13.36,0,0,0,6.411,1.587C369.952,292.823,376.029,289.952,376.029,286.411Zm0,0" transform="translate(-287.872 -223.9)" fill="#c18e59"/>
      <path id="Trazado_1055347" data-name="Trazado 1055347" d="M40.043,288.029a8.015,8.015,0,0,1-6.817-3.805,14.993,14.993,0,0,1-9.212,3.805H17.6a1.6,1.6,0,0,1-1.6-1.6v-6.411A8.024,8.024,0,0,1,24.014,272h9.617a8.024,8.024,0,0,1,8.014,8.014v6.411A1.6,1.6,0,0,1,40.043,288.029Zm-20.837-3.206h4.809c3.164,0,8.014-2.579,8.014-4.809a1.6,1.6,0,0,1,3.206,0,4.818,4.818,0,0,0,3.206,4.535v-4.535a4.815,4.815,0,0,0-4.809-4.809H24.014a4.815,4.815,0,0,0-4.809,4.809Zm0,0" transform="translate(-12.794 -217.503)"/>
      <path id="Trazado_1055348" data-name="Trazado 1055348" d="M41.617,352.029A9.627,9.627,0,0,1,32,342.411V337.6h3.206v4.809a6.411,6.411,0,1,0,12.823,0V336h3.206v6.411A9.627,9.627,0,0,1,41.617,352.029Zm0,0" transform="translate(-25.589 -268.68)"/>
      <path id="Trazado_1055349" data-name="Trazado 1055349" d="M8.014,345.617H4.809a4.809,4.809,0,0,1,0-9.617h1.6v3.206h-1.6a1.6,1.6,0,1,0,0,3.206H8.014Zm0,0" transform="translate(0 -268.68)"/>
      <path id="Trazado_1055350" data-name="Trazado 1055350" d="M123.206,345.617H120v-3.206h3.206a1.6,1.6,0,1,0,0-3.206h-1.6V336h1.6a4.809,4.809,0,0,1,0,9.617Zm0,0" transform="translate(-95.957 -268.68)"/>
      <path id="Trazado_1055351" data-name="Trazado 1055351" d="M30.454,419.234H1.6a1.6,1.6,0,0,1-1.6-1.6V411.22A11.234,11.234,0,0,1,11.22,400h9.617a11.234,11.234,0,0,1,11.22,11.22v6.411A1.6,1.6,0,0,1,30.454,419.234ZM3.206,416.029H28.851V411.22a8.024,8.024,0,0,0-8.014-8.014H11.22a8.024,8.024,0,0,0-8.014,8.014Zm0,0" transform="translate(0 -319.857)"/>
      <path id="Trazado_1055352" data-name="Trazado 1055352" d="M54.411,416.014A6.418,6.418,0,0,1,48,409.6V408h3.206v1.6a3.206,3.206,0,1,0,6.411,0V408h3.206v1.6A6.418,6.418,0,0,1,54.411,416.014Zm0,0" transform="translate(-38.383 -326.254)"/>
      <path id="Trazado_1055353" data-name="Trazado 1055353" d="M32,448h3.206v8.014H32Zm0,0" transform="translate(-25.589 -358.24)"/>
      <path id="Trazado_1055354" data-name="Trazado 1055354" d="M112,448h3.206v8.014H112Zm0,0" transform="translate(-89.56 -358.24)"/>
      <path id="Trazado_1055355" data-name="Trazado 1055355" d="M376.043,288.029a8.015,8.015,0,0,1-6.817-3.805,14.993,14.993,0,0,1-9.212,3.805H353.6a1.6,1.6,0,0,1-1.6-1.6v-6.411A8.024,8.024,0,0,1,360.014,272h9.617a8.024,8.024,0,0,1,8.014,8.014v6.411A1.6,1.6,0,0,1,376.043,288.029Zm-20.837-3.206h4.809c3.164,0,8.014-2.579,8.014-4.809a1.6,1.6,0,0,1,3.206,0,4.818,4.818,0,0,0,3.206,4.535v-4.535a4.815,4.815,0,0,0-4.809-4.809h-9.617a4.815,4.815,0,0,0-4.809,4.809Zm0,0" transform="translate(-281.474 -217.503)"/>
      <path id="Trazado_1055356" data-name="Trazado 1055356" d="M377.617,352.029A9.627,9.627,0,0,1,368,342.411V337.6h3.206v4.809a6.411,6.411,0,1,0,12.823,0V336h3.206v6.411A9.627,9.627,0,0,1,377.617,352.029Zm0,0" transform="translate(-294.269 -268.68)"/>
      <path id="Trazado_1055357" data-name="Trazado 1055357" d="M344.014,345.617h-3.206a4.809,4.809,0,1,1,0-9.617h1.6v3.206h-1.6a1.6,1.6,0,0,0,0,3.206h3.206Zm0,0" transform="translate(-268.68 -268.68)"/>
      <path id="Trazado_1055358" data-name="Trazado 1055358" d="M459.206,345.617H456v-3.206h3.206a1.6,1.6,0,0,0,0-3.206h-1.6V336h1.6a4.809,4.809,0,0,1,0,9.617Zm0,0" transform="translate(-364.637 -268.68)"/>
      <path id="Trazado_1055359" data-name="Trazado 1055359" d="M366.454,419.234H337.6a1.6,1.6,0,0,1-1.6-1.6V411.22A11.234,11.234,0,0,1,347.22,400h9.617a11.234,11.234,0,0,1,11.22,11.22v6.411A1.6,1.6,0,0,1,366.454,419.234Zm-27.249-3.206h25.646V411.22a8.024,8.024,0,0,0-8.014-8.014H347.22a8.024,8.024,0,0,0-8.014,8.014Zm0,0" transform="translate(-268.68 -319.857)"/>
      <path id="Trazado_1055360" data-name="Trazado 1055360" d="M390.411,416.014A6.418,6.418,0,0,1,384,409.6V408h3.206v1.6a3.206,3.206,0,1,0,6.411,0V408h3.206v1.6A6.418,6.418,0,0,1,390.411,416.014Zm0,0" transform="translate(-307.063 -326.254)"/>
      <path id="Trazado_1055361" data-name="Trazado 1055361" d="M368,448h3.206v8.014H368Zm0,0" transform="translate(-294.269 -358.24)"/>
      <path id="Trazado_1055362" data-name="Trazado 1055362" d="M448,448h3.206v8.014H448Zm0,0" transform="translate(-358.24 -358.24)"/>
      <path id="Trazado_1055363" data-name="Trazado 1055363" d="M208.043,9.617H185.6a1.6,1.6,0,0,1-1.6-1.6V1.6A1.6,1.6,0,0,1,185.6,0h22.44a1.6,1.6,0,0,1,1.6,1.6V8.014A1.6,1.6,0,0,1,208.043,9.617ZM187.206,6.411H206.44V3.206H187.206Zm0,0" transform="translate(-147.134 0)"/>
      <path id="Trazado_1055364" data-name="Trazado 1055364" d="M164.894,54.468H113.6a1.6,1.6,0,0,1-1.6-1.6V17.6a1.6,1.6,0,0,1,1.6-1.6h14.426v3.206H115.206V51.263h48.086V19.206H150.469V16h14.426a1.6,1.6,0,0,1,1.6,1.6V52.866A1.6,1.6,0,0,1,164.894,54.468Zm0,0" transform="translate(-89.56 -12.794)"/>
      <path id="Trazado_1055365" data-name="Trazado 1055365" d="M144,64h25.646v3.206H144Zm0,0" transform="translate(-115.149 -51.177)"/>
      <path id="Trazado_1055366" data-name="Trazado 1055366" d="M144,96h25.646v3.206H144Zm0,0" transform="translate(-115.149 -76.766)"/>
      <path id="Trazado_1055367" data-name="Trazado 1055367" d="M144,128h41.674v3.206H144Zm0,0" transform="translate(-115.149 -102.354)"/>
      <path id="Trazado_1055368" data-name="Trazado 1055368" d="M144,160h41.674v3.206H144Zm0,0" transform="translate(-115.149 -127.943)"/>
      <path id="Trazado_1055369" data-name="Trazado 1055369" d="M299.531,63.668a1.639,1.639,0,0,1-.213-.014,1.6,1.6,0,0,1-1.309-1.082l-1.6-4.809,3.041-1.014.567,1.7,4.594-6.891,2.667,1.778-6.411,9.617A1.6,1.6,0,0,1,299.531,63.668Zm0,0" transform="translate(-237.019 -41.229)"/>
      <path id="Trazado_1055370" data-name="Trazado 1055370" d="M145.616,208.3H137.6a1.6,1.6,0,0,1-1.133-2.736l11.22-11.22,2.267,2.267-8.484,8.484h3.481l10.75-10.75,2.267,2.267-11.22,11.22A1.6,1.6,0,0,1,145.616,208.3Zm0,0" transform="translate(-108.75 -155.406)"/>
      <path id="Trazado_1055371" data-name="Trazado 1055371" d="M270.711,208.3H262.7a1.6,1.6,0,0,1-1.133-.47l-11.22-11.22,2.267-2.267,10.75,10.75h3.481l-8.484-8.484,2.267-2.267,11.22,11.22a1.6,1.6,0,0,1-1.133,2.736Zm0,0" transform="translate(-200.186 -155.406)"/>
      <path id="Trazado_1055372" data-name="Trazado 1055372" d="M208.029,320.057h-9.617a1.6,1.6,0,0,1-1.6-1.6V308.417a11.22,11.22,0,1,1,12.823,0v10.037A1.6,1.6,0,0,1,208.029,320.057Zm-8.014-3.206h6.411v-9.313a1.6,1.6,0,0,1,.8-1.386,8.014,8.014,0,1,0-8.011,0,1.6,1.6,0,0,1,.8,1.386Zm0,0" transform="translate(-153.531 -230.297)"/>
      <path id="Trazado_1055373" data-name="Trazado 1055373" d="M200,400h19.234v3.206H200Zm0,0" transform="translate(-159.929 -319.857)"/>
      <path id="Trazado_1055374" data-name="Trazado 1055374" d="M240,440h3.206v4.809H240Zm0,0" transform="translate(-191.914 -351.843)"/>
      <path id="Trazado_1055375" data-name="Trazado 1055375" d="M240,336h3.206v14.426H240Zm0,0" transform="translate(-191.914 -268.68)"/>
      <path id="Trazado_1055376" data-name="Trazado 1055376" d="M152,352h11.22v3.206H152Zm0,0" transform="translate(-121.546 -281.474)"/>
      <path id="Trazado_1055377" data-name="Trazado 1055377" d="M288,352h11.22v3.206H288Zm0,0" transform="translate(-230.297 -281.474)"/>
    </g>
  </g>
</svg>
