<svg xmlns="http://www.w3.org/2000/svg" xmlns:xlink="http://www.w3.org/1999/xlink" width="113" height="113" viewBox="0 0 113 113">
  <defs>
    <filter id="Trazado_982547" x="0" y="0" width="113" height="113" filterUnits="userSpaceOnUse">
      <feOffset dy="3" input="SourceAlpha"/>
      <feGaussianBlur stdDeviation="3" result="blur"/>
      <feFlood flood-opacity="0.161"/>
      <feComposite operator="in" in2="blur"/>
      <feComposite in="SourceGraphic"/>
    </filter>
  </defs>
  <g id="Grupo_1225629" data-name="Grupo 1225629" transform="translate(-271 -9590.975)">
    <g id="Grupo_1225618" data-name="Grupo 1225618">
      <g id="Grupo_1225028" data-name="Grupo 1225028" transform="translate(0 6776.979)">
        <g id="Grupo_1224291" data-name="Grupo 1224291" transform="translate(0 859.245)">
          <g id="Grupo_1224091" data-name="Grupo 1224091" transform="translate(-84.49 -2620.317)">
            <g id="Grupo_1223183" data-name="Grupo 1223183" transform="translate(364.49 4581.069)">
              <g id="Grupo_1211217" data-name="Grupo 1211217" transform="translate(0)">
                <g id="Grupo_1210736" data-name="Grupo 1210736">
                  <g id="Grupo_1210537" data-name="Grupo 1210537">
                    <g id="Grupo_1164202" data-name="Grupo 1164202">
                      <g id="Grupo_1158168" data-name="Grupo 1158168">
                        <g id="Grupo_1152576" data-name="Grupo 1152576">
                          <g id="Grupo_1148633" data-name="Grupo 1148633">
                            <g id="Grupo_1148525" data-name="Grupo 1148525">
                              <g transform="matrix(1, 0, 0, 1, -9, -6)" filter="url(#Trazado_982547)">
                                <g id="Trazado_982547-2" data-name="Trazado 982547" transform="translate(9 6)" fill="#fdfbec">
                                  <path d="M 47.49999618530273 93.5 C 41.28936767578125 93.5 35.26533126831055 92.28396606445312 29.59518241882324 89.88570404052734 C 24.11771583557129 87.56893157958984 19.19812965393066 84.251953125 14.97308921813965 80.02690124511719 C 10.74803638458252 75.80186462402344 7.431062698364258 70.88227844238281 5.114289283752441 65.40480804443359 C 2.716022968292236 59.73466110229492 1.499996185302734 53.71062469482422 1.499996185302734 47.49999618530273 C 1.499996185302734 41.28936767578125 2.716022968292236 35.26533126831055 5.114289283752441 29.59518241882324 C 7.431062698364258 24.11771583557129 10.74803638458252 19.19812965393066 14.97308921813965 14.97308921813965 C 19.19812965393066 10.74803638458252 24.11771583557129 7.431062698364258 29.59518241882324 5.114289283752441 C 35.26533126831055 2.716022968292236 41.28936767578125 1.499996185302734 47.49999618530273 1.499996185302734 C 53.71062469482422 1.499996185302734 59.73466110229492 2.716022968292236 65.40480804443359 5.114289283752441 C 70.88227844238281 7.431062698364258 75.80186462402344 10.74803638458252 80.02690124511719 14.97308921813965 C 84.251953125 19.19812965393066 87.56893157958984 24.11771583557129 89.88570404052734 29.59518241882324 C 92.28396606445312 35.26533126831055 93.5 41.28936767578125 93.5 47.49999618530273 C 93.5 53.71062469482422 92.28396606445312 59.73466110229492 89.88570404052734 65.40480804443359 C 87.56893157958984 70.88227844238281 84.251953125 75.80186462402344 80.02690124511719 80.02690124511719 C 75.80186462402344 84.251953125 70.88227844238281 87.56893157958984 65.40480804443359 89.88570404052734 C 59.73466110229492 92.28396606445312 53.71062469482422 93.5 47.49999618530273 93.5 Z" stroke="none"/>
                                  <path d="M 47.49999618530273 2.999992370605469 C 41.4912109375 2.999992370605469 35.66376495361328 4.1761474609375 30.17950439453125 6.495796203613281 C 24.88084411621094 8.736953735351562 20.12152099609375 11.94598388671875 16.03375244140625 16.03375244140625 C 11.94598388671875 20.12152099609375 8.736953735351562 24.88084411621094 6.495796203613281 30.17950439453125 C 4.1761474609375 35.66376495361328 2.999992370605469 41.4912109375 2.999992370605469 47.49999618530273 C 2.999992370605469 53.50878143310547 4.1761474609375 59.33622741699219 6.495796203613281 64.82048797607422 C 8.736953735351562 70.11914825439453 11.94598388671875 74.87847137451172 16.03375244140625 78.96623992919922 C 20.12152099609375 83.05400848388672 24.88084411621094 86.26304626464844 30.17950439453125 88.50419616699219 C 35.66376495361328 90.82384490966797 41.4912109375 92 47.49999618530273 92 C 53.50878143310547 92 59.33622741699219 90.82384490966797 64.82048797607422 88.50419616699219 C 70.11914825439453 86.26304626464844 74.87847137451172 83.05400848388672 78.96623992919922 78.96623992919922 C 83.05400848388672 74.87847137451172 86.26304626464844 70.11914825439453 88.50419616699219 64.82048797607422 C 90.82384490966797 59.33622741699219 92 53.50878143310547 92 47.49999618530273 C 92 41.4912109375 90.82384490966797 35.66376495361328 88.50419616699219 30.17950439453125 C 86.26304626464844 24.88084411621094 83.05400848388672 20.12152099609375 78.96623992919922 16.03375244140625 C 74.87847137451172 11.94598388671875 70.11914825439453 8.736953735351562 64.82048797607422 6.495796203613281 C 59.33622741699219 4.1761474609375 53.50878143310547 2.999992370605469 47.49999618530273 2.999992370605469 M 47.49999618530273 -7.62939453125e-06 C 73.7335205078125 -7.62939453125e-06 95 21.26647186279297 95 47.49999618530273 C 95 73.7335205078125 73.7335205078125 95 47.49999618530273 95 C 21.26647186279297 95 -7.62939453125e-06 73.7335205078125 -7.62939453125e-06 47.49999618530273 C -7.62939453125e-06 21.26647186279297 21.26647186279297 -7.62939453125e-06 47.49999618530273 -7.62939453125e-06 Z" stroke="none" fill="#83793c"/>
                                </g>
                              </g>
                            </g>
                          </g>
                        </g>
                      </g>
                    </g>
                  </g>
                </g>
              </g>
            </g>
          </g>
        </g>
      </g>
    </g>
    <g id="love_5156102" transform="translate(296.033 9613.008)">
      <g id="Grupo_1225627" data-name="Grupo 1225627" transform="translate(0.923 0.961)">
        <path id="Trazado_1057648" data-name="Trazado 1057648" d="M119.5,71.737c1.6.737,5.54,11.383,5.54,11.383,1.4,4.228.3,9.808-1.433,14.64a.368.368,0,0,0,.347.491l1.633.12h18.772a.368.368,0,0,0,.361-.295c.756-3.706,1.979-8.843,7.652-8.074,2.689.364,5.332.807,6.608.6,1.819-.3,3.632-1.1,4.164-3.258a3.446,3.446,0,0,0-.532-2.859.833.833,0,0,1,.266-1.031,3.7,3.7,0,0,1,.872-.427.972.972,0,0,0,.653-.979,1.738,1.738,0,0,0-.757-1.243.122.122,0,0,1-.019-.178,9.551,9.551,0,0,1,1.274-1.2l.025-.02a.985.985,0,0,0-.043-1.541c-.8-.6-2.61-2.211-.279-2.928,1.511-.465,2.215-1.2,2.218-2.324,0-.964-.612-1.518-1.416-2.137a12.271,12.271,0,0,1-3.454-3.813,1.525,1.525,0,0,1-.079-1.34c.444-1.041,1.568-2.123,1.323-3.177-.2-.865-1.093-1.865-1.228-3.934-.567-8.7-7.009-13.933-15.026-15.532a21.708,21.708,0,0,0-2.706-.357l-.671-.048-1.386.514L132.653,41.5Z" transform="translate(-105.735 -37.36)" fill="#ffd18d"/>
        <path id="Trazado_1057649" data-name="Trazado 1057649" d="M149.871,58.2a23.21,23.21,0,0,0-6.306-15.922L132.653,41.5,119.5,71.737c1.179.544,3.093,6.482,4.015,9.558h0c.327,1.092.53,1.824.53,1.824,1.4,4.228.994,9.928-.734,14.76a.367.367,0,0,0,.348.49h1.929a24.481,24.481,0,0,0,.757-15.932.735.735,0,0,1,.693-.947A23.344,23.344,0,0,0,149.871,58.2Z" transform="translate(-105.735 -37.36)" fill="#fbbd80"/>
        <path id="Trazado_1057650" data-name="Trazado 1057650" d="M53.332,28.657A20.839,20.839,0,0,0,17.375,14.314s-.664.862-1.027,1.315a20.387,20.387,0,0,0-4.112,13.028c0,11.509,8.743,20.036,20.252,20.036,6.24,0,11.7-2.019,15.521-6.365.267-.3.738-.772,1.05-1.1.194-.2.319-.358.319-.358a20.747,20.747,0,0,0,3.953-12.215Z" transform="translate(-11.654 -7.818)" fill="#f9f8f9"/>
        <path id="Trazado_1057651" data-name="Trazado 1057651" d="M45.242,86.766a20.839,20.839,0,1,1-31.96-26.6,20.839,20.839,0,0,0,31.96,26.6Z" transform="translate(-7.501 -53.735)" fill="#e8e8e8"/>
        <g id="Grupo_1225626" data-name="Grupo 1225626" transform="translate(8.344 9.219)">
          <path id="Trazado_1057652" data-name="Trazado 1057652" d="M103.262,108.508A6.983,6.983,0,0,0,96.4,101.4a6.892,6.892,0,0,0-5.155,2.3.372.372,0,0,1-.555,0,6.818,6.818,0,0,0-5.135-2.274c-3.734.027-6.379,3.059-6.454,6.853-.146,7.465,10.287,12.966,11.771,13.713a.365.365,0,0,0,.334,0c.345-.18,2.224-1.049,2.224-1.049C96.994,118.709,103.185,114.04,103.262,108.508Z" transform="translate(-78.64 -99.117)" fill="#e27f86"/>
          <path id="Trazado_1057653" data-name="Trazado 1057653" d="M90.176,121.943c-1.1.69-1.953,1.147-2.3,1.327a.361.361,0,0,1-.334,0c-1.485-.746-12.3-6.451-12.154-13.915a7.1,7.1,0,0,1,5.735-6.817,7.12,7.12,0,0,0-2.908,5.588C78.076,115.324,88.124,120.885,90.176,121.943Z" transform="translate(-75.389 -100.116)" fill="#df646e"/>
          <path id="Trazado_1057654" data-name="Trazado 1057654" d="M198.69,178.2a4,4,0,0,0-3.938-4.075,3.952,3.952,0,0,0-2.934,1.3.245.245,0,0,1-.363,0,3.909,3.909,0,0,0-2.922-1.28l-.106,0a10.939,10.939,0,0,0-1.255.346,3.73,3.73,0,0,0-2.22,3.646c-.083,4.255,5.7,7.212,6.606,7.672a.243.243,0,0,0,.224,0c.271-.142,1.878-.87,1.878-.87,2.07-1.391,4.99-3.86,5.03-6.735Z" transform="translate(-171.484 -162.899)" fill="#ffbee7"/>
          <path id="Trazado_1057655" data-name="Trazado 1057655" d="M190.944,185.064a20.829,20.829,0,0,1-1.912,1.148.244.244,0,0,1-.224,0c-.91-.46-7.037-3.718-6.953-7.972a4.051,4.051,0,0,1,3.856-3.971,4.079,4.079,0,0,0-1.4,2.988c-.076,3.9,5.079,6.971,6.63,7.8Z" transform="translate(-168.768 -163.032)" fill="#f7aae2"/>
          <path id="Trazado_1057656" data-name="Trazado 1057656" d="M87.962,84.976a2.116,2.116,0,0,0-2.08-2.153,2.083,2.083,0,0,0-1.468.6.251.251,0,0,1-.354,0,2.062,2.062,0,0,0-1.445-.592.2.2,0,0,1-.037.024A1.994,1.994,0,0,0,80.7,84.989c-.043,2.175,2.832,3.507,3.463,3.833a.244.244,0,0,0,.227,0c.263-.141,1.612-.795,1.612-.795A4.424,4.424,0,0,0,87.962,84.976Z" transform="translate(-80.046 -82.823)" fill="#ffbee7"/>
          <path id="Trazado_1057657" data-name="Trazado 1057657" d="M84.606,88.084a11.61,11.61,0,0,1-1.652,1.087.24.24,0,0,1-.227,0c-.632-.326-3.662-2.007-3.619-4.183a2.139,2.139,0,0,1,2.093-2.1h.017a2.144,2.144,0,0,0-.267.993C80.907,86.1,84.064,87.808,84.606,88.084Z" transform="translate(-78.65 -82.882)" fill="#f7aae2"/>
        </g>
      </g>
      <g id="Grupo_1225628" data-name="Grupo 1225628" transform="translate(0.001)">
        <path id="Trazado_1057658" data-name="Trazado 1057658" d="M325.778,428.115c-6.488-.956-8.03,4.966-8.82,9.117a.922.922,0,1,0,1.807.364c.9-4.546,2.114-8.359,6.761-7.654a.922.922,0,1,0,.252-1.826Z" transform="translate(-277.983 -375.403)"/>
        <path id="Trazado_1057659" data-name="Trazado 1057659" d="M423.971,124.459c.7-.236,2.837-.955,2.842-3.2a3.616,3.616,0,0,0-1.772-2.875,11.748,11.748,0,0,1-2.884-3.006,1.623,1.623,0,0,1-.01-1.719c.483-.786,1.316-1.885,1.021-3.113s-1.1-2.079-1.2-3.8a16.663,16.663,0,0,0-3.474-9.378.922.922,0,0,0-1.452,1.136,14.851,14.851,0,0,1,3.086,8.361c.134,1.928.84,2.75,1.249,4.1.1.337-.376,1.1-.8,1.731a3.476,3.476,0,0,0,.03,3.682,13.468,13.468,0,0,0,3.307,3.467c.83.642,1.057.946,1.056,1.413,0,.347,0,.927-1.587,1.46a2.177,2.177,0,0,0-1.635,1.7,3.342,3.342,0,0,0,1.4,2.849.25.25,0,0,1,.1.159.533.533,0,0,1-.14.352,1.72,1.72,0,0,1-.886.639.9.9,0,0,0-.761.73.931.931,0,0,0,.468.979c.173.1.577.348.6.543a.243.243,0,0,1-.139.216,5.111,5.111,0,0,0-.971.5,1.756,1.756,0,0,0-.545,2.24,2.723,2.723,0,0,1,.441,2.2c-.351,1.435-1.436,2.254-3.413,2.579a8.909,8.909,0,0,1-2.024-.039.922.922,0,0,0-.179,1.835,10.773,10.773,0,0,0,2.5.023c2.72-.447,4.37-1.78,4.9-3.96a4.273,4.273,0,0,0-.554-3.418,5.544,5.544,0,0,1,.582-.271,2.074,2.074,0,0,0,1.225-2.124,2.042,2.042,0,0,0-.362-.945,3.839,3.839,0,0,0,.574-.6,2.278,2.278,0,0,0,.5-1.719,2.077,2.077,0,0,0-.816-1.381,1.712,1.712,0,0,1-.7-1.083C423.575,124.66,423.691,124.553,423.971,124.459Z" transform="translate(-363.881 -85.087)"/>
        <path id="Trazado_1057660" data-name="Trazado 1057660" d="M333.229,45.5a.922.922,0,0,0-.183-1.291,23.027,23.027,0,0,0-10.865-4.2.922.922,0,1,0-.24,1.828,21.188,21.188,0,0,1,10,3.849.922.922,0,0,0,1.291-.183Z" transform="translate(-281.667 -35.082)"/>
        <path id="Trazado_1057661" data-name="Trazado 1057661" d="M143.548,372.541a.922.922,0,0,0-.587,1.164c1.318,4.006.965,9.771-.9,14.688a.922.922,0,1,0,1.724.654c2.037-5.369,2.393-11.468.928-15.919A.922.922,0,0,0,143.548,372.541Z" transform="translate(-124.546 -326.71)"/>
        <path id="Trazado_1057662" data-name="Trazado 1057662" d="M21.757,0A21.766,21.766,0,0,0,1.936,30.737a.922.922,0,1,0,1.679-.762A19.916,19.916,0,1,1,21.757,41.668,20,20,0,0,1,5.692,33.523a.922.922,0,0,0-1.487,1.091A21.756,21.756,0,1,0,21.757,0Z" transform="translate(-0.001)"/>
        <path id="Trazado_1057663" data-name="Trazado 1057663" d="M78.676,99.956a.922.922,0,0,0,.81-.006,35.622,35.622,0,0,0,3.6-2.142,21.027,21.027,0,0,0,3.421,2.148.922.922,0,0,0,.81-.006c.306-.152,7.495-3.789,7.564-8.754a5.024,5.024,0,0,0-2.721-4.5,8.167,8.167,0,0,0-1.707-6.618.922.922,0,0,0-1.418,1.178A6.241,6.241,0,0,1,90.37,86.2,5.029,5.029,0,0,0,86.9,87.3a4.825,4.825,0,0,0-3.11-1.1,4.978,4.978,0,0,0-4.877,4.877,7.722,7.722,0,0,0,2.719,5.477c-1.124.732-2.062,1.259-2.568,1.532C76.977,97,67.546,91.7,67.675,85.143a6.173,6.173,0,0,1,1-3.239,11.376,11.376,0,0,0,1.867,1.16.922.922,0,0,0,.81-.006c.361-.18,3.077-1.59,3.96-3.719a5.938,5.938,0,0,1,3.04,2.032.922.922,0,0,0,.721.348h0a.922.922,0,0,0,.721-.347,5.975,5.975,0,0,1,4.69-2.283,6.557,6.557,0,0,1,1.44.181.922.922,0,1,0,.458-1.786,7.636,7.636,0,0,0-1.874-.239,7.788,7.788,0,0,0-5.436,2.186,7.731,7.731,0,0,0-3.528-1.937,3.039,3.039,0,0,0-.836-1.632,2.969,2.969,0,0,0-2.121-.9h-.009a2.99,2.99,0,0,0-1.64.487,3.292,3.292,0,0,0-1.645-.479,3.067,3.067,0,0,0-3.008,3,4.067,4.067,0,0,0,1.034,2.645,8.026,8.026,0,0,0-1.49,4.488C65.665,93.617,78.144,99.7,78.676,99.956Zm2.084-8.841a3.122,3.122,0,0,1,3.047-3.069h.022a2.992,2.992,0,0,1,2.353,1.144.922.922,0,0,0,.721.348h0a.922.922,0,0,0,.721-.347,3.036,3.036,0,0,1,2.382-1.161,3.129,3.129,0,0,1,3.028,3.141c-.041,2.974-4.124,5.816-6.139,6.918C84.845,97,80.7,94.17,80.76,91.115Zm-11.451-14.3a1.289,1.289,0,0,1,.911.44.922.922,0,0,0,.721.348h0a.923.923,0,0,0,.721-.347,1.171,1.171,0,0,1,.918-.449h0a1.138,1.138,0,0,1,.811.349,1.208,1.208,0,0,1,.35.87c-.018,1.263-1.8,2.567-2.812,3.162-1.027-.583-2.828-1.877-2.8-3.177a1.211,1.211,0,0,1,1.178-1.2Z" transform="translate(-57.738 -65.749)"/>
      </g>
    </g>
  </g>
</svg>
