<svg xmlns="http://www.w3.org/2000/svg" xmlns:xlink="http://www.w3.org/1999/xlink" width="113" height="113" viewBox="0 0 113 113">
  <defs>
    <filter id="Trazado_982547" x="0" y="0" width="113" height="113" filterUnits="userSpaceOnUse">
      <feOffset dy="3" input="SourceAlpha"/>
      <feGaussianBlur stdDeviation="3" result="blur"/>
      <feFlood flood-opacity="0.161"/>
      <feComposite operator="in" in2="blur"/>
      <feComposite in="SourceGraphic"/>
    </filter>
  </defs>
  <g id="Grupo_1225164" data-name="Grupo 1225164" transform="translate(-793.49 -2888.211)">
    <g id="Grupo_1225001" data-name="Grupo 1225001" transform="translate(802.49 2894.211)">
      <g id="Grupo_1208492" data-name="Grupo 1208492" transform="translate(0 0)">
        <g id="Grupo_1177675" data-name="Grupo 1177675">
          <g id="Grupo_1176928" data-name="Grupo 1176928">
            <g id="Grupo_1172322" data-name="Grupo 1172322">
              <g id="Grupo_1164700" data-name="Grupo 1164700">
                <g id="Grupo_1160931" data-name="Grupo 1160931">
                  <g id="Grupo_1160749" data-name="Grupo 1160749">
                    <g id="Grupo_1158891" data-name="Grupo 1158891">
                      <g id="Grupo_1157406" data-name="Grupo 1157406">
                        <g id="Grupo_1155793" data-name="Grupo 1155793">
                          <g id="Grupo_1154704" data-name="Grupo 1154704">
                            <g id="Grupo_1150790" data-name="Grupo 1150790">
                              <g id="Grupo_1154214" data-name="Grupo 1154214">
                                <g id="Grupo_1152583" data-name="Grupo 1152583">
                                  <g id="Grupo_1146973" data-name="Grupo 1146973">
                                    <g id="Grupo_1146954" data-name="Grupo 1146954">
                                      <g transform="matrix(1, 0, 0, 1, -9, -6)" filter="url(#Trazado_982547)">
                                        <g id="Trazado_982547-2" data-name="Trazado 982547" transform="translate(9 6)" fill="#fcf8db">
                                          <path d="M 47.5000114440918 93.49987030029297 C 41.28938293457031 93.49987030029297 35.26534652709961 92.28384399414062 29.5951976776123 89.88558959960938 C 24.11773109436035 87.56881713867188 19.19814491271973 84.25183868408203 14.97310447692871 80.02680206298828 C 10.74805164337158 75.80176544189453 7.43107795715332 70.88218688964844 5.114304542541504 65.40472412109375 C 2.716038227081299 59.73458862304688 1.500011444091797 53.71054840087891 1.500011444091797 47.49993515014648 C 1.500011444091797 41.28932189941406 2.716038227081299 35.26528167724609 5.114304542541504 29.59514808654785 C 7.43107795715332 24.1176815032959 10.74805164337158 19.1981086730957 14.97310447692871 14.97306823730469 C 19.19814491271973 10.74802875518799 24.11773109436035 7.431055068969727 29.5951976776123 5.11428165435791 C 35.26534652709961 2.716028451919556 41.28938293457031 1.500001788139343 47.5000114440918 1.500001788139343 C 53.71063995361328 1.500001788139343 59.73467636108398 2.716028451919556 65.40482330322266 5.11428165435791 C 70.88229370117188 7.431055068969727 75.8018798828125 10.74802875518799 80.02691650390625 14.97306823730469 C 84.25196838378906 19.1981086730957 87.56894683837891 24.1176815032959 89.88571929931641 29.59514808654785 C 92.28398132324219 35.26528167724609 93.50001525878906 41.28932189941406 93.50001525878906 47.49993515014648 C 93.50001525878906 53.71054840087891 92.28398132324219 59.73458862304688 89.88571929931641 65.40472412109375 C 87.56894683837891 70.88218688964844 84.25196838378906 75.80176544189453 80.02691650390625 80.02680206298828 C 75.8018798828125 84.25183868408203 70.88229370117188 87.56881713867188 65.40482330322266 89.88558959960938 C 59.73467636108398 92.28384399414062 53.71063995361328 93.49987030029297 47.5000114440918 93.49987030029297 Z" stroke="none"/>
                                          <path d="M 47.5000114440918 3 C 41.49122619628906 3 35.66378021240234 4.1761474609375 30.17951965332031 6.495796203613281 C 24.880859375 8.7369384765625 20.12153625488281 11.94596862792969 16.03376770019531 16.03373718261719 C 11.94598388671875 20.12149047851562 8.736968994140625 24.88081359863281 6.495811462402344 30.17947387695312 C 4.176162719726562 35.66371917724609 3.000007629394531 41.49116516113281 3.000007629394531 47.49993515014648 C 3.000007629394531 53.50870513916016 4.176162719726562 59.33615112304688 6.495811462402344 64.82039642333984 C 8.736968994140625 70.11905670166016 11.94598388671875 74.87837982177734 16.03376770019531 78.96613311767578 C 20.12153625488281 83.05390167236328 24.880859375 86.26293182373047 30.17951965332031 88.50407409667969 C 35.66378021240234 90.82372283935547 41.49122619628906 91.99987030029297 47.5000114440918 91.99987030029297 C 53.50879669189453 91.99987030029297 59.33624267578125 90.82372283935547 64.82050323486328 88.50407409667969 C 70.11916351318359 86.26293182373047 74.87848663330078 83.05390167236328 78.96625518798828 78.96613311767578 C 83.05403900146484 74.87837982177734 86.2630615234375 70.11905670166016 88.50421142578125 64.82039642333984 C 90.82386016845703 59.33615112304688 92.00001525878906 53.50870513916016 92.00001525878906 47.49993515014648 C 92.00001525878906 41.49116516113281 90.82386016845703 35.66371917724609 88.50421142578125 30.17947387695312 C 86.2630615234375 24.88081359863281 83.05403900146484 20.12149047851562 78.96625518798828 16.03373718261719 C 74.87848663330078 11.94596862792969 70.11916351318359 8.7369384765625 64.82050323486328 6.495796203613281 C 59.33624267578125 4.1761474609375 53.50879669189453 3 47.5000114440918 3 M 47.5000114440918 0 C 73.73353576660156 0 95.00001525878906 21.26644134521484 95.00001525878906 47.49993515014648 C 95.00001525878906 73.73342895507812 73.73353576660156 94.99987030029297 47.5000114440918 94.99987030029297 C 21.26648712158203 94.99987030029297 7.62939453125e-06 73.73342895507812 7.62939453125e-06 47.49993515014648 C 7.62939453125e-06 21.26644134521484 21.26648712158203 0 47.5000114440918 0 Z" stroke="none" fill="#83793c"/>
                                        </g>
                                      </g>
                                    </g>
                                  </g>
                                </g>
                              </g>
                            </g>
                          </g>
                        </g>
                      </g>
                    </g>
                  </g>
                </g>
              </g>
            </g>
          </g>
        </g>
      </g>
    </g>
    <g id="boy_933069" transform="translate(821.725 2913.447)">
      <g id="Grupo_1225163" data-name="Grupo 1225163" transform="translate(1.104 1.104)">
        <rect id="Rectángulo_422085" data-name="Rectángulo 422085" width="54.321" height="54.321" fill="#e5e5e5"/>
        <rect id="Rectángulo_422086" data-name="Rectángulo 422086" width="45.488" height="45.488" transform="translate(4.416 4.416)" fill="#0083cc"/>
        <path id="Trazado_1055329" data-name="Trazado 1055329" d="M209.571,106.908a5.763,5.763,0,1,0-5.763-5.763A5.774,5.774,0,0,0,209.571,106.908Z" transform="translate(-182.41 -85.956)" fill="#ffd278"/>
        <rect id="Rectángulo_422087" data-name="Rectángulo 422087" width="10.88" height="16.207" transform="translate(21.721 24.384)" fill="#f60"/>
        <g id="Grupo_1225162" data-name="Grupo 1225162" transform="translate(21.721 9.427)">
          <rect id="Rectángulo_422088" data-name="Rectángulo 422088" width="10.88" height="6.357" transform="translate(0 24.806)" fill="#3c5485"/>
          <path id="Trazado_1055330" data-name="Trazado 1055330" d="M216.179,95.382a5.757,5.757,0,0,1,4.812,2.591c-4.623,4.008-9.745.214-9.754.207A5.759,5.759,0,0,1,216.179,95.382Z" transform="translate(-210.739 -95.382)" fill="#3c5485"/>
        </g>
      </g>
      <path id="Trazado_1055331" data-name="Trazado 1055331" d="M55.425,0H1.1A1.1,1.1,0,0,0,0,1.1V55.425a1.1,1.1,0,0,0,1.1,1.1H55.425a1.1,1.1,0,0,0,1.1-1.1V1.1A1.1,1.1,0,0,0,55.425,0Zm-1.1,54.321H2.208V2.208H54.321Z"/>
      <path id="Trazado_1055332" data-name="Trazado 1055332" d="M41.1,87.7h37.17a1.1,1.1,0,0,0,0-2.208H42.208V42.208h43.28V86.593a1.1,1.1,0,0,0,2.208,0V41.1a1.1,1.1,0,0,0-1.1-1.1H41.1A1.1,1.1,0,0,0,40,41.1V86.593A1.1,1.1,0,0,0,41.1,87.7Z" transform="translate(-35.584 -35.584)"/>
      <path id="Trazado_1055333" data-name="Trazado 1055333" d="M406.9,452h-.052a1.1,1.1,0,0,0,0,2.208h.052a1.1,1.1,0,0,0,0-2.208Z" transform="translate(-360.95 -402.097)"/>
      <path id="Trazado_1055334" data-name="Trazado 1055334" d="M189.433,93.308a6.867,6.867,0,1,0-4.9-11.668,5.321,5.321,0,0,1-1.2-2.012,1.1,1.1,0,0,0-2.107.66,7.625,7.625,0,0,0,2.014,3.2,6.865,6.865,0,0,0,6.2,9.822Zm0-2.208a4.659,4.659,0,0,1-4.373-6.264,9.581,9.581,0,0,0,1.635.724,9.4,9.4,0,0,0,2.99.5,7.916,7.916,0,0,0,4.154-1.127,4.656,4.656,0,0,1-4.406,6.169Zm3.211-8.029a6.414,6.414,0,0,1-5.246.4,7.235,7.235,0,0,1-1.1-.473,4.648,4.648,0,0,1,6.341.077Z" transform="translate(-161.169 -70.148)"/>
      <path id="Trazado_1055335" data-name="Trazado 1055335" d="M181.669,243.593a1.1,1.1,0,0,0,1.1-1.1h0V224.618l1.472,1.472a1.1,1.1,0,0,0,1.561-1.561l-3.356-3.356a1.089,1.089,0,0,0-.081-.073l-.037-.028c-.016-.012-.033-.025-.05-.037l-.046-.028-.047-.028-.047-.023-.051-.023-.046-.017-.056-.019-.046-.012-.058-.014-.053-.008-.054-.008c-.031,0-.062,0-.093,0h-10.91c-.031,0-.062,0-.093,0l-.054.008-.053.008-.058.014-.046.012-.056.019-.046.017-.051.023-.047.023-.047.028-.046.028c-.017.011-.033.024-.05.037l-.037.028a1.086,1.086,0,0,0-.081.073l-3.356,3.356a1.1,1.1,0,1,0,1.561,1.561l1.472-1.472v6.08h-.432a1.1,1.1,0,1,0,0,2.208h.432v9.583a1.1,1.1,0,1,0,2.208,0v-3.226h8.671v3.226A1.1,1.1,0,0,0,181.669,243.593Zm-9.775-10.687H174a1.1,1.1,0,1,0,0-2.208h-2.107v-7.641h8.671v14h-8.671v-4.149Z" transform="translate(-147.964 -196.465)"/>
      <path id="Trazado_1055336" data-name="Trazado 1055336" d="M257.147,310.059h-.054a1.1,1.1,0,1,0,0,2.208h.054a1.1,1.1,0,0,0,0-2.208Z" transform="translate(-227.726 -275.826)"/>
      <path id="Trazado_1055337" data-name="Trazado 1055337" d="M145.007,272.909l-.039.039a1.1,1.1,0,0,0,1.561,1.561l.039-.039a1.1,1.1,0,0,0-1.561-1.561Z" transform="translate(-128.675 -242.49)"/>
      <path id="Trazado_1055338" data-name="Trazado 1055338" d="M347.333,272.907a1.1,1.1,0,0,0,0,1.561l.038.039a1.1,1.1,0,0,0,1.564-1.559l-.038-.039A1.1,1.1,0,0,0,347.333,272.907Z" transform="translate(-308.696 -242.489)"/>
    </g>
  </g>
</svg>
