<svg xmlns="http://www.w3.org/2000/svg" xmlns:xlink="http://www.w3.org/1999/xlink" width="118" height="118" viewBox="0 0 118 118">
  <defs>
    <filter id="Trazado_982547" x="0" y="0" width="118" height="118" filterUnits="userSpaceOnUse">
      <feOffset dy="3" input="SourceAlpha"/>
      <feGaussianBlur stdDeviation="3" result="blur"/>
      <feFlood flood-opacity="0.161"/>
      <feComposite operator="in" in2="blur"/>
      <feComposite in="SourceGraphic"/>
    </filter>
  </defs>
  <g id="Grupo_1225160" data-name="Grupo 1225160" transform="translate(-1161 -1887.453)">
    <g id="Grupo_1224450" data-name="Grupo 1224450" transform="translate(0 -550.343)">
      <g id="Grupo_1224000" data-name="Grupo 1224000" transform="translate(0 -2682.959)">
        <g id="Grupo_1223829" data-name="Grupo 1223829" transform="translate(1170 5126.756)">
          <g id="Grupo_1223741" data-name="Grupo 1223741">
            <g id="Grupo_1223199" data-name="Grupo 1223199">
              <g id="Grupo_1211216" data-name="Grupo 1211216" transform="translate(0)">
                <g id="Grupo_1210737" data-name="Grupo 1210737">
                  <g id="Grupo_1210537" data-name="Grupo 1210537">
                    <g id="Grupo_1164202" data-name="Grupo 1164202">
                      <g id="Grupo_1158168" data-name="Grupo 1158168">
                        <g id="Grupo_1152576" data-name="Grupo 1152576">
                          <g id="Grupo_1148633" data-name="Grupo 1148633">
                            <g id="Grupo_1148525" data-name="Grupo 1148525">
                              <g transform="matrix(1, 0, 0, 1, -9, -6)" filter="url(#Trazado_982547)">
                                <g id="Trazado_982547-2" data-name="Trazado 982547" transform="translate(9 6)" fill="#fdfbec">
                                  <path d="M 49.99999618530273 98.5 C 43.45188140869141 98.5 37.10042572021484 97.21786499023438 31.12206840515137 94.68923950195312 C 25.34691047668457 92.24655151367188 20.15996742248535 88.74931335449219 15.70532512664795 84.29468536376953 C 11.25068187713623 79.84004211425781 7.753438949584961 74.65309906005859 5.310753345489502 68.87792205810547 C 2.782124757766724 62.89956665039062 1.499996185302734 56.54811096191406 1.499996185302734 49.99999618530273 C 1.499996185302734 43.45188140869141 2.782124757766724 37.10042572021484 5.310753345489502 31.12206840515137 C 7.753438949584961 25.34691047668457 11.25068187713623 20.15996742248535 15.70532512664795 15.70532512664795 C 20.15996742248535 11.25068187713623 25.34691047668457 7.753438949584961 31.12206840515137 5.310753345489502 C 37.10042572021484 2.782124757766724 43.45188140869141 1.499996185302734 49.99999618530273 1.499996185302734 C 56.54811096191406 1.499996185302734 62.89956665039062 2.782124757766724 68.87792205810547 5.310753345489502 C 74.65309906005859 7.753438949584961 79.84004211425781 11.25068187713623 84.29468536376953 15.70532512664795 C 88.74931335449219 20.15996742248535 92.24655151367188 25.34691047668457 94.68923950195312 31.12206840515137 C 97.21786499023438 37.10042572021484 98.5 43.45188140869141 98.5 49.99999618530273 C 98.5 56.54811096191406 97.21786499023438 62.89956665039062 94.68923950195312 68.87792205810547 C 92.24655151367188 74.65309906005859 88.74931335449219 79.84004211425781 84.29468536376953 84.29468536376953 C 79.84004211425781 88.74931335449219 74.65309906005859 92.24655151367188 68.87792205810547 94.68923950195312 C 62.89956665039062 97.21786499023438 56.54811096191406 98.5 49.99999618530273 98.5 Z" stroke="none"/>
                                  <path d="M 49.99999618530273 2.999992370605469 C 43.65372085571289 2.999992370605469 37.49885940551758 4.242256164550781 31.70639801025391 6.6922607421875 C 26.11002349853516 9.059318542480469 21.08335113525391 12.4486083984375 16.76598358154297 16.76598358154297 C 12.4486083984375 21.08335113525391 9.059318542480469 26.11002349853516 6.6922607421875 31.70639801025391 C 4.242256164550781 37.49885940551758 2.999992370605469 43.65372085571289 2.999992370605469 49.99999618530273 C 2.999992370605469 56.34627151489258 4.242256164550781 62.50113296508789 6.6922607421875 68.29359436035156 C 9.059318542480469 73.88996887207031 12.4486083984375 78.91664123535156 16.76598358154297 83.2340087890625 C 21.08335113525391 87.55138397216797 26.11002349853516 90.940673828125 31.70639801025391 93.30773162841797 C 37.49885940551758 95.75773620605469 43.65372085571289 97 49.99999618530273 97 C 56.34627151489258 97 62.50113296508789 95.75773620605469 68.29359436035156 93.30773162841797 C 73.88996887207031 90.940673828125 78.91664123535156 87.55138397216797 83.2340087890625 83.2340087890625 C 87.55138397216797 78.91664123535156 90.940673828125 73.88996887207031 93.30773162841797 68.29359436035156 C 95.75773620605469 62.50113296508789 97 56.34627151489258 97 49.99999618530273 C 97 43.65372085571289 95.75773620605469 37.49885940551758 93.30773162841797 31.70639801025391 C 90.940673828125 26.11002349853516 87.55138397216797 21.08335113525391 83.2340087890625 16.76598358154297 C 78.91664123535156 12.4486083984375 73.88996887207031 9.059318542480469 68.29359436035156 6.6922607421875 C 62.50113296508789 4.242256164550781 56.34627151489258 2.999992370605469 49.99999618530273 2.999992370605469 M 49.99999618530273 -7.62939453125e-06 C 77.61422729492188 -7.62939453125e-06 100 22.38576507568359 100 49.99999618530273 C 100 77.61422729492188 77.61422729492188 100 49.99999618530273 100 C 22.38576507568359 100 -7.62939453125e-06 77.61422729492188 -7.62939453125e-06 49.99999618530273 C -7.62939453125e-06 22.38576507568359 22.38576507568359 -7.62939453125e-06 49.99999618530273 -7.62939453125e-06 Z" stroke="none" fill="#83793c"/>
                                </g>
                              </g>
                            </g>
                          </g>
                        </g>
                      </g>
                    </g>
                  </g>
                </g>
              </g>
            </g>
          </g>
        </g>
      </g>
    </g>
    <g id="Layer_1" transform="translate(1183.68 1904.208)">
      <g id="Grupo_1225136" data-name="Grupo 1225136" transform="translate(48.491 28)">
        <g id="Grupo_1225134" data-name="Grupo 1225134" transform="translate(0 6.675)">
          <path id="Trazado_1055307" data-name="Trazado 1055307" d="M185.888,130.438a6.672,6.672,0,0,1-5.986,3.724h-2.671a4,4,0,0,1-4-4v-7.74h3.235a4,4,0,0,1,4,4,4,4,0,0,0,4,4.016Z" transform="translate(-173.227 -122.418)" fill="#feb69f"/>
        </g>
        <g id="Grupo_1225135" data-name="Grupo 1225135" transform="translate(0.001)">
          <path id="Trazado_1055308" data-name="Trazado 1055308" d="M189.137,105.644a8.008,8.008,0,0,0-8.008-8.008H179.9a6.675,6.675,0,0,0-6.675,6.675h3.235a4,4,0,0,1,4,4,4,4,0,0,0,4,4.016h7.435a2.287,2.287,0,1,0,0-4.574h-.657a2.113,2.113,0,0,1-2.114-2.113Z" transform="translate(-173.229 -97.636)" fill="#878787"/>
        </g>
      </g>
      <g id="Grupo_1225137" data-name="Grupo 1225137" transform="translate(55.1 59.476)">
        <path id="Trazado_1055309" data-name="Trazado 1055309" d="M197.766,214.5h6.105v10.012h-6.105Z" transform="translate(-197.766 -214.5)" fill="#feb69f"/>
      </g>
      <g id="Grupo_1225139" data-name="Grupo 1225139" transform="translate(23.812 3.004)">
        <g id="Grupo_1225138" data-name="Grupo 1225138" transform="translate(0 0)">
          <path id="Trazado_1055310" data-name="Trazado 1055310" d="M104.229,24.641a12.5,12.5,0,1,0-20.264,0l-1.5,4.593,4.671-1.524a12.5,12.5,0,0,0,13.92,0l4.671,1.524Z" transform="translate(-81.6 -4.832)" fill="#f0c020"/>
        </g>
      </g>
      <g id="Grupo_1225140" data-name="Grupo 1225140" transform="translate(46.848 46.337)">
        <path id="Trazado_1055311" data-name="Trazado 1055311" d="M176.922,165.717a6.555,6.555,0,0,0-6.191,4.409l-3.416,8.67a2.693,2.693,0,0,0,.427,2.7l2.017,2.45a2.694,2.694,0,0,1,.614,1.712v3.21h16.247V178.532c0-7.078-2.621-12.815-9.7-12.815Z" transform="translate(-167.128 -165.717)" fill="#fc5d3d"/>
      </g>
      <g id="Grupo_1225141" data-name="Grupo 1225141" transform="translate(55.1 59.476)">
        <path id="Trazado_1055312" data-name="Trazado 1055312" d="M197.766,214.5h6.105v10.012h-6.105Z" transform="translate(-197.766 -214.5)" fill="#feb69f"/>
      </g>
      <g id="Grupo_1225143" data-name="Grupo 1225143" transform="translate(62.306 30.785)">
        <path id="Trazado_1055314" data-name="Trazado 1055314" d="M224.807,108.091a.672.672,0,0,0,.385,1.225.669.669,0,0,0,.382-.119.677.677,0,0,0,.17-.937A.692.692,0,0,0,224.807,108.091Z" transform="translate(-224.518 -107.977)"/>
      </g>
      <g id="Grupo_1225144" data-name="Grupo 1225144" transform="translate(46.175 27.327)">
        <path id="Trazado_1055315" data-name="Trazado 1055315" d="M185.625,105.262h-.657a1.45,1.45,0,0,1-1.441-1.441,8.64,8.64,0,0,0-.31-2.308.683.683,0,0,0-.827-.469.674.674,0,0,0-.471.827,7.289,7.289,0,0,1,.261,1.95,2.793,2.793,0,0,0,2.788,2.785h.657a1.615,1.615,0,0,1,0,3.229h-7.435a3.345,3.345,0,0,1-3.33-3.341,4.683,4.683,0,0,0-4.678-4.679h-2.524a6.006,6.006,0,0,1,5.963-5.33h1.225a7.3,7.3,0,0,1,4.318,1.406.693.693,0,0,0,.94-.145.676.676,0,0,0-.143-.94l0,0a8.616,8.616,0,0,0-5.112-1.662H173.62a7.341,7.341,0,0,0-7.347,7.342s0,0,0,.005v7.74a4.68,4.68,0,0,0,4.53,4.67,7.217,7.217,0,0,0-2.528,3.427l-3.411,8.658a3.368,3.368,0,0,0,.534,3.374l2.017,2.45a2.025,2.025,0,0,1,.461,1.284v3.21a.673.673,0,0,0,1.347,0v-3.21a3.372,3.372,0,0,0-.768-2.14l-2.017-2.45a2.021,2.021,0,0,1-.32-2.025c.007-.017,3.42-8.679,3.425-8.7a5.883,5.883,0,0,1,5.554-3.956c7.853,0,9.026,7.607,9.026,12.142V137.3a.673.673,0,0,0,1.347,0V126.965c0-6.05-1.929-11.947-7.858-13.233a7.328,7.328,0,0,0,2.4-2.55h5.617a2.96,2.96,0,0,0,0-5.92Zm-12,8.3H170.95a3.335,3.335,0,0,1-3.331-3.331v-7.066h2.562a3.345,3.345,0,0,1,3.331,3.343,4.694,4.694,0,0,0,4.677,4.678h.216A5.959,5.959,0,0,1,173.62,113.558Z" transform="translate(-164.63 -95.14)"/>
      </g>
      <g id="Grupo_1225145" data-name="Grupo 1225145" transform="translate(39.071 2.809)">
        <path id="Trazado_1055316" data-name="Trazado 1055316" d="M139.112,4.134a.685.685,0,0,0-.832.463.673.673,0,0,0,.463.832h0a.673.673,0,0,0,.366-1.3Z" transform="translate(-138.253 -4.109)"/>
      </g>
      <g id="Grupo_1225146" data-name="Grupo 1225146" transform="translate(23.139 2.33)">
        <path id="Trazado_1055317" data-name="Trazado 1055317" d="M98.514,3.9a.673.673,0,0,0-.638,1.185,11.822,11.822,0,0,1,3.981,17.332.677.677,0,0,0-.094.6l1.088,3.332-3.41-1.113a.67.67,0,0,0-.584.081,11.824,11.824,0,0,1-13.171,0,.67.67,0,0,0-.584-.081l-3.41,1.113,1.088-3.332a.668.668,0,0,0-.094-.6A11.822,11.822,0,0,1,92.271,3.677c.245,0,.5.008.746.024A.673.673,0,1,0,93.1,2.357c-.269-.019-.549-.027-.827-.027A13.167,13.167,0,0,0,81.395,22.924L80,27.2a.675.675,0,0,0,.848.851l4.363-1.425a13.177,13.177,0,0,0,14.116,0l4.366,1.425a.675.675,0,0,0,.848-.851l-1.4-4.271A13.166,13.166,0,0,0,98.514,3.9Z" transform="translate(-79.1 -2.33)"/>
      </g>
      <g id="Grupo_1225147" data-name="Grupo 1225147" transform="translate(28.919 7.291)">
        <path id="Trazado_1055318" data-name="Trazado 1055318" d="M107.9,20.75a5.523,5.523,0,0,0-5.506,5.941,4.9,4.9,0,0,0,3.272,8.71,5.7,5.7,0,1,0,7.708-8.394A5.523,5.523,0,0,0,107.9,20.75Zm2.4,8.947a4.893,4.893,0,0,0-1.392-2.68,4.286,4.286,0,0,1,2.968.557A4.193,4.193,0,0,1,110.3,29.7Zm-4.1,4.29a4.287,4.287,0,0,1-.917-2.842,5.448,5.448,0,0,0,3.519.579A3.567,3.567,0,0,1,106.2,33.987Zm-1.661-5.232a4.158,4.158,0,0,1-.68-1.418,3.489,3.489,0,0,1,2.065-.354A5.735,5.735,0,0,0,104.54,28.755Zm1.03.992a4.378,4.378,0,0,1,1.868-2.2,3.555,3.555,0,0,1,1.573,2.752A4.145,4.145,0,0,1,105.57,29.747ZM107.9,22.1a4.183,4.183,0,0,1,4.174,4.062,5.654,5.654,0,0,0-4.608-.124,4.84,4.84,0,0,0-3.729-.111A4.184,4.184,0,0,1,107.9,22.1Zm-5.991,8.411a3.54,3.54,0,0,1,.827-2.277,5.54,5.54,0,0,0,1.3,1.992,5.654,5.654,0,0,0,.544,3.726A3.56,3.56,0,0,1,101.908,30.508Zm12.087.8a4.351,4.351,0,0,1-6.629,3.716,4.915,4.915,0,0,0,2.94-3.783,5.554,5.554,0,0,0,2.651-2.75A4.339,4.339,0,0,1,114,31.311Z" transform="translate(-100.561 -20.75)"/>
      </g>
      <g id="Grupo_1225148" data-name="Grupo 1225148" transform="translate(54.427 55.077)">
        <path id="Trazado_1055319" data-name="Trazado 1055319" d="M195.939,198.167a.673.673,0,0,0-.673.673v13.738a.673.673,0,0,0,1.347,0v-9.339h4.758v9.339a.673.673,0,0,0,1.347,0V198.84a.673.673,0,1,0-1.347,0v3.052h-4.758V198.84A.673.673,0,0,0,195.939,198.167Z" transform="translate(-195.266 -198.167)"/>
      </g>
      <g id="Grupo_1225149" data-name="Grupo 1225149" transform="translate(3.183 46.337)">
        <path id="Trazado_1055320" data-name="Trazado 1055320" d="M21.531,173.436v6.836h2.842v8.6H5.01V178.532a12.814,12.814,0,0,1,12.815-12.815,6.551,6.551,0,0,1,6.548,6.548v1.172Z" transform="translate(-5.01 -165.717)" fill="#72c2e9"/>
      </g>
      <g id="Grupo_1225150" data-name="Grupo 1225150" transform="translate(14.916 60.892)">
        <path id="Trazado_1055321" data-name="Trazado 1055321" d="M56.2,219.757v2.726H51.263a2.693,2.693,0,0,1-2.693-2.693v-.032Z" transform="translate(-48.57 -219.757)" fill="#4ba5c8"/>
      </g>
      <g id="Grupo_1225153" data-name="Grupo 1225153" transform="translate(8.308 26.689)">
        <g id="Grupo_1225151" data-name="Grupo 1225151" transform="translate(0)">
          <path id="Trazado_1055322" data-name="Trazado 1055322" d="M31.154,92.769a7.118,7.118,0,0,0-7.116,7.121V105.3a7.116,7.116,0,0,0,7.116,7.116H34a4.271,4.271,0,0,0,4.272-4.272V99.89A7.119,7.119,0,0,0,31.154,92.769Z" transform="translate(-24.038 -92.769)" fill="#feb69f"/>
        </g>
        <g id="Grupo_1225152" data-name="Grupo 1225152" transform="translate(0 0)">
          <path id="Trazado_1055323" data-name="Trazado 1055323" d="M38.275,99.89H31.154a2.136,2.136,0,0,0-2.136,2.136v3.094a2.136,2.136,0,0,1-.649,1.534l-2.952,2.86a7.083,7.083,0,0,1-1.38-4.212V99.89a7.119,7.119,0,1,1,14.238,0Z" transform="translate(-24.037 -92.769)" fill="#878787"/>
        </g>
      </g>
      <g id="Grupo_1225155" data-name="Grupo 1225155" transform="translate(19.706 36.913)">
        <g id="Grupo_1225154" data-name="Grupo 1225154">
          <path id="Trazado_1055324" data-name="Trazado 1055324" d="M80.736,134.145v17.144a3.416,3.416,0,0,1-3.417,3.417H66.354v-6.834H73.9V134.145a3.417,3.417,0,1,1,6.834,0Z" transform="translate(-66.354 -130.728)" fill="#feb69f"/>
        </g>
      </g>
      <g id="Grupo_1225157" data-name="Grupo 1225157" transform="translate(2.6 56.942)">
        <path id="Trazado_1055326" data-name="Trazado 1055326" d="M2.848,205.687a.674.674,0,1,0,.749-.59.676.676,0,0,0-.749.59Z" transform="translate(-2.844 -205.093)"/>
      </g>
      <g id="Grupo_1225158" data-name="Grupo 1225158" transform="translate(2.51 59.632)">
        <path id="Trazado_1055327" data-name="Trazado 1055327" d="M2.51,224.935a.673.673,0,0,0,1.347,0v-9.182a.673.673,0,0,0-1.347,0Z" transform="translate(-2.51 -215.08)"/>
      </g>
      <g id="Grupo_1225159" data-name="Grupo 1225159" transform="translate(3.198 26.015)">
        <path id="Trazado_1055328" data-name="Trazado 1055328" d="M5.1,119.032a.67.67,0,0,0,.42.854.684.684,0,0,0,.854-.417,12.144,12.144,0,0,1,11.45-8.2,5.893,5.893,0,0,1,5.914,5.873v.5H16.781a.673.673,0,1,0,0,1.347H20.9v5.488H16.781a.673.673,0,1,0,0,1.347h6.957v7.921a.673.673,0,0,0,1.347,0v-7.922h7.452a4.1,4.1,0,0,0,4.091-4.091V104.584a4.091,4.091,0,1,0-8.181,0v13.054H25.085v-.5a7.222,7.222,0,0,0-3.4-6.124,4.951,4.951,0,0,0,3.4-4.695V98.063a7.792,7.792,0,1,0-15.584,0v5.412a7.763,7.763,0,0,0,4.442,7.026A13.484,13.484,0,0,0,5.1,119.032Zm24.019-.048a.673.673,0,0,0,.673-.673V104.584a2.744,2.744,0,0,1,5.488,0v17.144a2.747,2.747,0,0,1-2.744,2.744H22.245v-5.488ZM10.847,98.063A6.445,6.445,0,0,1,23.7,97.39H17.29a2.812,2.812,0,0,0-2.809,2.809v3.094a1.471,1.471,0,0,1-.445,1.05l-2.36,2.287a6.387,6.387,0,0,1-.829-3.155Zm6.443,11.855a6.472,6.472,0,0,1-4.825-2.178l2.508-2.431a2.824,2.824,0,0,0,.854-2.017V100.2a1.464,1.464,0,0,1,1.463-1.463h6.447v7.584a3.6,3.6,0,0,1-3.6,3.6H17.29Z" transform="translate(-5.063 -90.269)"/>
      </g>
    </g>
  </g>
</svg>
