<svg xmlns="http://www.w3.org/2000/svg" xmlns:xlink="http://www.w3.org/1999/xlink" width="113" height="113" viewBox="0 0 113 113">
  <defs>
    <filter id="Trazado_982547" x="0" y="0" width="113" height="113" filterUnits="userSpaceOnUse">
      <feOffset dy="3" input="SourceAlpha"/>
      <feGaussianBlur stdDeviation="3" result="blur"/>
      <feFlood flood-opacity="0.161"/>
      <feComposite operator="in" in2="blur"/>
      <feComposite in="SourceGraphic"/>
    </filter>
  </defs>
  <g id="Grupo_1225166" data-name="Grupo 1225166" transform="translate(-7782 -2895.211)">
    <g id="Grupo_1225003" data-name="Grupo 1225003" transform="translate(7791 2901.211)">
      <g id="Grupo_1209049" data-name="Grupo 1209049" transform="translate(0 0)">
        <g id="Grupo_1208493" data-name="Grupo 1208493">
          <g id="Grupo_1202104" data-name="Grupo 1202104">
            <g id="Grupo_1201923" data-name="Grupo 1201923">
              <g id="Grupo_1176928" data-name="Grupo 1176928">
                <g id="Grupo_1172322" data-name="Grupo 1172322">
                  <g id="Grupo_1164700" data-name="Grupo 1164700">
                    <g id="Grupo_1160931" data-name="Grupo 1160931">
                      <g id="Grupo_1160749" data-name="Grupo 1160749">
                        <g id="Grupo_1158891" data-name="Grupo 1158891">
                          <g id="Grupo_1157406" data-name="Grupo 1157406">
                            <g id="Grupo_1155793" data-name="Grupo 1155793">
                              <g id="Grupo_1154704" data-name="Grupo 1154704">
                                <g id="Grupo_1150790" data-name="Grupo 1150790">
                                  <g id="Grupo_1154214" data-name="Grupo 1154214">
                                    <g id="Grupo_1152583" data-name="Grupo 1152583">
                                      <g id="Grupo_1146973" data-name="Grupo 1146973">
                                        <g id="Grupo_1146954" data-name="Grupo 1146954">
                                          <g transform="matrix(1, 0, 0, 1, -9, -6)" filter="url(#Trazado_982547)">
                                            <g id="Trazado_982547-2" data-name="Trazado 982547" transform="translate(9 6)" fill="#fcf8db">
                                              <path d="M 47.5000114440918 93.49987030029297 C 41.28938293457031 93.49987030029297 35.26534652709961 92.28384399414062 29.5951976776123 89.88558959960938 C 24.11773109436035 87.56881713867188 19.19814491271973 84.25183868408203 14.97310447692871 80.02680206298828 C 10.74805164337158 75.80176544189453 7.43107795715332 70.88218688964844 5.114304542541504 65.40472412109375 C 2.716038227081299 59.73458862304688 1.500011444091797 53.71054840087891 1.500011444091797 47.49993515014648 C 1.500011444091797 41.28932189941406 2.716038227081299 35.26528167724609 5.114304542541504 29.59514808654785 C 7.43107795715332 24.1176815032959 10.74805164337158 19.1981086730957 14.97310447692871 14.97306823730469 C 19.19814491271973 10.74802875518799 24.11773109436035 7.431055068969727 29.5951976776123 5.11428165435791 C 35.26534652709961 2.716028451919556 41.28938293457031 1.500001788139343 47.5000114440918 1.500001788139343 C 53.71063995361328 1.500001788139343 59.73467636108398 2.716028451919556 65.40482330322266 5.11428165435791 C 70.88229370117188 7.431055068969727 75.8018798828125 10.74802875518799 80.02691650390625 14.97306823730469 C 84.25196838378906 19.1981086730957 87.56894683837891 24.1176815032959 89.88571929931641 29.59514808654785 C 92.28398132324219 35.26528167724609 93.50001525878906 41.28932189941406 93.50001525878906 47.49993515014648 C 93.50001525878906 53.71054840087891 92.28398132324219 59.73458862304688 89.88571929931641 65.40472412109375 C 87.56894683837891 70.88218688964844 84.25196838378906 75.80176544189453 80.02691650390625 80.02680206298828 C 75.8018798828125 84.25183868408203 70.88229370117188 87.56881713867188 65.40482330322266 89.88558959960938 C 59.73467636108398 92.28384399414062 53.71063995361328 93.49987030029297 47.5000114440918 93.49987030029297 Z" stroke="none"/>
                                              <path d="M 47.5000114440918 3 C 41.49122619628906 3 35.66378021240234 4.1761474609375 30.17951965332031 6.495796203613281 C 24.880859375 8.7369384765625 20.12153625488281 11.94596862792969 16.03376770019531 16.03373718261719 C 11.94598388671875 20.12149047851562 8.736968994140625 24.88081359863281 6.495811462402344 30.17947387695312 C 4.176162719726562 35.66371917724609 3.000007629394531 41.49116516113281 3.000007629394531 47.49993515014648 C 3.000007629394531 53.50870513916016 4.176162719726562 59.33615112304688 6.495811462402344 64.82039642333984 C 8.736968994140625 70.11905670166016 11.94598388671875 74.87837982177734 16.03376770019531 78.96613311767578 C 20.12153625488281 83.05390167236328 24.880859375 86.26293182373047 30.17951965332031 88.50407409667969 C 35.66378021240234 90.82372283935547 41.49122619628906 91.99987030029297 47.5000114440918 91.99987030029297 C 53.50879669189453 91.99987030029297 59.33624267578125 90.82372283935547 64.82050323486328 88.50407409667969 C 70.11916351318359 86.26293182373047 74.87848663330078 83.05390167236328 78.96625518798828 78.96613311767578 C 83.05403900146484 74.87837982177734 86.2630615234375 70.11905670166016 88.50421142578125 64.82039642333984 C 90.82386016845703 59.33615112304688 92.00001525878906 53.50870513916016 92.00001525878906 47.49993515014648 C 92.00001525878906 41.49116516113281 90.82386016845703 35.66371917724609 88.50421142578125 30.17947387695312 C 86.2630615234375 24.88081359863281 83.05403900146484 20.12149047851562 78.96625518798828 16.03373718261719 C 74.87848663330078 11.94596862792969 70.11916351318359 8.7369384765625 64.82050323486328 6.495796203613281 C 59.33624267578125 4.1761474609375 53.50879669189453 3 47.5000114440918 3 M 47.5000114440918 0 C 73.73353576660156 0 95.00001525878906 21.26644134521484 95.00001525878906 47.49993515014648 C 95.00001525878906 73.73342895507812 73.73353576660156 94.99987030029297 47.5000114440918 94.99987030029297 C 21.26648712158203 94.99987030029297 7.62939453125e-06 73.73342895507812 7.62939453125e-06 47.49993515014648 C 7.62939453125e-06 21.26644134521484 21.26648712158203 0 47.5000114440918 0 Z" stroke="none" fill="#83793c"/>
                                            </g>
                                          </g>
                                        </g>
                                      </g>
                                    </g>
                                  </g>
                                </g>
                              </g>
                            </g>
                          </g>
                        </g>
                      </g>
                    </g>
                  </g>
                </g>
              </g>
            </g>
          </g>
        </g>
      </g>
    </g>
    <g id="paper_5727161" transform="translate(7810.711 2920.922)">
      <path id="Trazado_1055339" data-name="Trazado 1055339" d="M43.439,44.624H8.685A1.185,1.185,0,0,1,7.5,43.439V8.685A1.185,1.185,0,0,1,8.685,7.5H43.439a1.185,1.185,0,0,1,1.185,1.185V43.439a1.185,1.185,0,0,1-1.185,1.185Z" transform="translate(-6.686 -6.686)" fill="#ffe177"/>
      <path id="Trazado_1055340" data-name="Trazado 1055340" d="M311.841,7.5h-3.257a1.185,1.185,0,0,1,1.185,1.185V43.439a1.185,1.185,0,0,1-1.185,1.185h3.257a1.185,1.185,0,0,0,1.185-1.185V8.685A1.185,1.185,0,0,0,311.841,7.5Z" transform="translate(-275.088 -6.686)" fill="#ffd15b"/>
      <path id="Trazado_1055341" data-name="Trazado 1055341" d="M120.939,122.124H86.185A1.185,1.185,0,0,1,85,120.939V86.185A1.185,1.185,0,0,1,86.185,85h34.755a1.185,1.185,0,0,1,1.185,1.185v34.755a1.185,1.185,0,0,1-1.185,1.185Z" transform="translate(-75.773 -75.773)" fill="#c2bce0"/>
      <path id="Trazado_1055342" data-name="Trazado 1055342" d="M389.341,85h-3.257a1.185,1.185,0,0,1,1.185,1.185v34.755a1.185,1.185,0,0,1-1.185,1.185h3.257a1.185,1.185,0,0,0,1.185-1.185V86.185A1.185,1.185,0,0,0,389.341,85Z" transform="translate(-344.175 -75.773)" fill="#aca6d6"/>
      <path id="Trazado_1055343" data-name="Trazado 1055343" d="M199.624,163.684v34.754a1.186,1.186,0,0,1-1.185,1.185H163.684a1.185,1.185,0,0,1-1.184-1.185V172.471l9.971-9.971h25.967A1.185,1.185,0,0,1,199.624,163.684Z" transform="translate(-144.861 -144.861)" fill="#fe99a0"/>
      <path id="Trazado_1055344" data-name="Trazado 1055344" d="M466.836,162.5H463.58a1.185,1.185,0,0,1,1.185,1.184v34.754a1.186,1.186,0,0,1-1.185,1.185h3.257a1.186,1.186,0,0,0,1.185-1.185V163.684A1.185,1.185,0,0,0,466.836,162.5Z" transform="translate(-413.258 -144.861)" fill="#fd8087"/>
      <path id="Trazado_1055345" data-name="Trazado 1055345" d="M162.5,172.471l9.971-9.971v8.787a1.184,1.184,0,0,1-1.184,1.184Z" transform="translate(-144.861 -144.861)" fill="#fd8087"/>
      <path id="Trazado_1055346" data-name="Trazado 1055346" d="M53.578,16.825H47.165V10.412a2,2,0,0,0-2-2H38.752V2a2,2,0,0,0-2-2H2A2,2,0,0,0,0,2V4.792a.814.814,0,0,0,1.628,0V2A.371.371,0,0,1,2,1.628H36.753A.371.371,0,0,1,37.124,2V8.413H10.412a2,2,0,0,0-2,2V37.124H2a.371.371,0,0,1-.371-.371V8.722A.814.814,0,0,0,0,8.722V36.754a2,2,0,0,0,2,2H8.413v6.414a2,2,0,0,0,2,2h6.414v6.413a2,2,0,0,0,2,2h27.2a.814.814,0,0,0,0-1.628h-27.2a.371.371,0,0,1-.37-.371V28.425h7.973a2,2,0,0,0,2-2V18.453H53.578a.371.371,0,0,1,.371.37V53.578a.372.372,0,0,1-.371.371H49.863a.814.814,0,0,0,0,1.628h3.715a2,2,0,0,0,2-2V18.824a2,2,0,0,0-2-2ZM10.412,45.537a.371.371,0,0,1-.371-.371V10.412a.371.371,0,0,1,.371-.371H45.166a.371.371,0,0,1,.371.371v6.414H27.611a.814.814,0,0,0-.576.238l-9.971,9.971a.814.814,0,0,0-.238.576V45.537ZM26.426,26.8H19.6l3.6-3.6,3.6-3.6v6.822a.37.37,0,0,1-.37.37Z"/>
    </g>
  </g>
</svg>
